<svg width="562" height="140" viewBox="0 0 562 140" fill="none" xmlns="http://www.w3.org/2000/svg">
<path d="M419.727 128.125C419.648 127.848 419.536 127.604 419.392 127.392C419.248 127.176 419.072 126.994 418.864 126.847C418.659 126.695 418.424 126.58 418.159 126.5C417.898 126.42 417.608 126.381 417.29 126.381C416.695 126.381 416.172 126.528 415.722 126.824C415.275 127.119 414.926 127.549 414.676 128.114C414.426 128.674 414.301 129.36 414.301 130.17C414.301 130.981 414.424 131.67 414.67 132.239C414.917 132.807 415.265 133.241 415.716 133.54C416.167 133.835 416.699 133.983 417.312 133.983C417.869 133.983 418.345 133.884 418.739 133.688C419.136 133.487 419.439 133.205 419.648 132.841C419.86 132.477 419.966 132.047 419.966 131.551L420.466 131.625H417.466V129.773H422.335V131.239C422.335 132.261 422.119 133.14 421.688 133.875C421.256 134.606 420.661 135.17 419.903 135.568C419.146 135.962 418.278 136.159 417.301 136.159C416.21 136.159 415.252 135.919 414.426 135.438C413.6 134.953 412.956 134.265 412.494 133.375C412.036 132.481 411.807 131.42 411.807 130.193C411.807 129.25 411.943 128.409 412.216 127.67C412.492 126.928 412.879 126.299 413.375 125.784C413.871 125.269 414.449 124.877 415.108 124.608C415.767 124.339 416.481 124.205 417.25 124.205C417.909 124.205 418.523 124.301 419.091 124.494C419.659 124.684 420.163 124.953 420.602 125.301C421.045 125.65 421.407 126.064 421.688 126.545C421.968 127.023 422.148 127.549 422.227 128.125H419.727ZM428.081 136.17C427.198 136.17 426.435 135.983 425.791 135.608C425.151 135.229 424.657 134.703 424.308 134.028C423.96 133.35 423.786 132.564 423.786 131.67C423.786 130.769 423.96 129.981 424.308 129.307C424.657 128.629 425.151 128.102 425.791 127.727C426.435 127.348 427.198 127.159 428.081 127.159C428.964 127.159 429.725 127.348 430.365 127.727C431.009 128.102 431.505 128.629 431.854 129.307C432.202 129.981 432.376 130.769 432.376 131.67C432.376 132.564 432.202 133.35 431.854 134.028C431.505 134.703 431.009 135.229 430.365 135.608C429.725 135.983 428.964 136.17 428.081 136.17ZM428.092 134.295C428.494 134.295 428.829 134.182 429.098 133.955C429.367 133.723 429.57 133.409 429.706 133.011C429.846 132.614 429.916 132.161 429.916 131.653C429.916 131.146 429.846 130.693 429.706 130.295C429.57 129.898 429.367 129.583 429.098 129.352C428.829 129.121 428.494 129.006 428.092 129.006C427.687 129.006 427.346 129.121 427.07 129.352C426.797 129.583 426.59 129.898 426.45 130.295C426.314 130.693 426.246 131.146 426.246 131.653C426.246 132.161 426.314 132.614 426.45 133.011C426.59 133.409 426.797 133.723 427.07 133.955C427.346 134.182 427.687 134.295 428.092 134.295ZM437.893 136.17C437.011 136.17 436.248 135.983 435.604 135.608C434.964 135.229 434.469 134.703 434.121 134.028C433.772 133.35 433.598 132.564 433.598 131.67C433.598 130.769 433.772 129.981 434.121 129.307C434.469 128.629 434.964 128.102 435.604 127.727C436.248 127.348 437.011 127.159 437.893 127.159C438.776 127.159 439.537 127.348 440.178 127.727C440.821 128.102 441.318 128.629 441.666 129.307C442.015 129.981 442.189 130.769 442.189 131.67C442.189 132.564 442.015 133.35 441.666 134.028C441.318 134.703 440.821 135.229 440.178 135.608C439.537 135.983 438.776 136.17 437.893 136.17ZM437.905 134.295C438.306 134.295 438.642 134.182 438.911 133.955C439.179 133.723 439.382 133.409 439.518 133.011C439.659 132.614 439.729 132.161 439.729 131.653C439.729 131.146 439.659 130.693 439.518 130.295C439.382 129.898 439.179 129.583 438.911 129.352C438.642 129.121 438.306 129.006 437.905 129.006C437.5 129.006 437.159 129.121 436.882 129.352C436.609 129.583 436.403 129.898 436.263 130.295C436.126 130.693 436.058 131.146 436.058 131.653C436.058 132.161 436.126 132.614 436.263 133.011C436.403 133.409 436.609 133.723 436.882 133.955C437.159 134.182 437.5 134.295 437.905 134.295ZM446.979 136.142C446.316 136.142 445.715 135.972 445.178 135.631C444.643 135.286 444.219 134.78 443.905 134.114C443.594 133.443 443.439 132.621 443.439 131.648C443.439 130.648 443.6 129.816 443.922 129.153C444.244 128.487 444.672 127.989 445.206 127.659C445.744 127.326 446.333 127.159 446.973 127.159C447.462 127.159 447.869 127.242 448.195 127.409C448.524 127.572 448.789 127.777 448.99 128.023C449.195 128.265 449.35 128.504 449.456 128.739H449.53V124.364H451.945V136H449.558V134.602H449.456C449.342 134.845 449.181 135.085 448.973 135.324C448.768 135.559 448.501 135.754 448.172 135.909C447.846 136.064 447.448 136.142 446.979 136.142ZM447.746 134.216C448.136 134.216 448.465 134.11 448.734 133.898C449.007 133.682 449.215 133.381 449.359 132.994C449.507 132.608 449.581 132.155 449.581 131.636C449.581 131.117 449.509 130.667 449.365 130.284C449.221 129.902 449.013 129.606 448.74 129.398C448.467 129.189 448.136 129.085 447.746 129.085C447.348 129.085 447.013 129.193 446.74 129.409C446.467 129.625 446.261 129.924 446.121 130.307C445.981 130.689 445.911 131.133 445.911 131.636C445.911 132.144 445.981 132.593 446.121 132.983C446.265 133.369 446.471 133.672 446.74 133.892C447.013 134.108 447.348 134.216 447.746 134.216ZM456.355 130.955V136H453.935V127.273H456.241V128.812H456.344C456.537 128.305 456.861 127.903 457.315 127.608C457.77 127.309 458.321 127.159 458.969 127.159C459.575 127.159 460.103 127.292 460.554 127.557C461.005 127.822 461.355 128.201 461.605 128.693C461.855 129.182 461.98 129.765 461.98 130.443V136H459.56V130.875C459.563 130.341 459.427 129.924 459.151 129.625C458.874 129.322 458.493 129.17 458.009 129.17C457.683 129.17 457.395 129.241 457.145 129.381C456.899 129.521 456.705 129.725 456.565 129.994C456.429 130.259 456.359 130.58 456.355 130.955ZM467.865 136.17C466.967 136.17 466.195 135.989 465.547 135.625C464.903 135.258 464.407 134.739 464.058 134.068C463.71 133.394 463.536 132.597 463.536 131.676C463.536 130.778 463.71 129.991 464.058 129.312C464.407 128.634 464.897 128.106 465.53 127.727C466.166 127.348 466.912 127.159 467.768 127.159C468.344 127.159 468.88 127.252 469.376 127.438C469.876 127.619 470.312 127.894 470.683 128.261C471.058 128.629 471.35 129.091 471.558 129.648C471.767 130.201 471.871 130.848 471.871 131.591V132.256H464.501V130.756H469.592C469.592 130.407 469.517 130.098 469.365 129.83C469.214 129.561 469.003 129.35 468.734 129.199C468.469 129.044 468.161 128.966 467.808 128.966C467.441 128.966 467.115 129.051 466.831 129.222C466.551 129.388 466.331 129.614 466.172 129.898C466.013 130.178 465.931 130.491 465.928 130.835V132.261C465.928 132.693 466.007 133.066 466.166 133.381C466.329 133.695 466.558 133.938 466.854 134.108C467.149 134.278 467.5 134.364 467.905 134.364C468.174 134.364 468.42 134.326 468.643 134.25C468.867 134.174 469.058 134.061 469.217 133.909C469.376 133.758 469.498 133.572 469.581 133.352L471.82 133.5C471.706 134.038 471.473 134.508 471.121 134.909C470.772 135.307 470.321 135.617 469.768 135.841C469.219 136.061 468.585 136.17 467.865 136.17ZM480.712 129.761L478.496 129.898C478.458 129.708 478.376 129.538 478.251 129.386C478.126 129.231 477.962 129.108 477.757 129.017C477.556 128.922 477.316 128.875 477.036 128.875C476.661 128.875 476.344 128.955 476.087 129.114C475.829 129.269 475.7 129.477 475.7 129.739C475.7 129.947 475.784 130.123 475.95 130.267C476.117 130.411 476.403 130.527 476.808 130.614L478.388 130.932C479.236 131.106 479.869 131.386 480.286 131.773C480.702 132.159 480.911 132.667 480.911 133.295C480.911 133.867 480.742 134.369 480.405 134.801C480.071 135.233 479.613 135.57 479.03 135.812C478.45 136.051 477.782 136.17 477.024 136.17C475.869 136.17 474.948 135.93 474.263 135.449C473.581 134.964 473.181 134.305 473.064 133.472L475.445 133.347C475.517 133.699 475.691 133.968 475.967 134.153C476.244 134.335 476.598 134.426 477.03 134.426C477.454 134.426 477.795 134.345 478.053 134.182C478.314 134.015 478.446 133.801 478.45 133.54C478.446 133.32 478.354 133.14 478.172 133C477.99 132.856 477.71 132.746 477.331 132.67L475.82 132.369C474.967 132.199 474.333 131.903 473.916 131.483C473.503 131.062 473.297 130.527 473.297 129.875C473.297 129.314 473.448 128.831 473.751 128.426C474.058 128.021 474.488 127.708 475.041 127.489C475.598 127.269 476.25 127.159 476.996 127.159C478.098 127.159 478.965 127.392 479.598 127.858C480.234 128.324 480.606 128.958 480.712 129.761ZM489.696 129.761L487.48 129.898C487.442 129.708 487.361 129.538 487.236 129.386C487.111 129.231 486.946 129.108 486.741 129.017C486.541 128.922 486.3 128.875 486.02 128.875C485.645 128.875 485.329 128.955 485.071 129.114C484.813 129.269 484.685 129.477 484.685 129.739C484.685 129.947 484.768 130.123 484.935 130.267C485.101 130.411 485.387 130.527 485.793 130.614L487.372 130.932C488.221 131.106 488.853 131.386 489.27 131.773C489.687 132.159 489.895 132.667 489.895 133.295C489.895 133.867 489.726 134.369 489.389 134.801C489.056 135.233 488.598 135.57 488.014 135.812C487.435 136.051 486.766 136.17 486.009 136.17C484.853 136.17 483.933 135.93 483.247 135.449C482.565 134.964 482.166 134.305 482.048 133.472L484.429 133.347C484.501 133.699 484.675 133.968 484.952 134.153C485.228 134.335 485.582 134.426 486.014 134.426C486.438 134.426 486.779 134.345 487.037 134.182C487.298 134.015 487.431 133.801 487.435 133.54C487.431 133.32 487.338 133.14 487.156 133C486.974 132.856 486.694 132.746 486.315 132.67L484.804 132.369C483.952 132.199 483.317 131.903 482.901 131.483C482.488 131.062 482.281 130.527 482.281 129.875C482.281 129.314 482.433 128.831 482.736 128.426C483.043 128.021 483.473 127.708 484.026 127.489C484.582 127.269 485.234 127.159 485.98 127.159C487.082 127.159 487.95 127.392 488.582 127.858C489.219 128.324 489.59 128.958 489.696 129.761ZM495.168 136V124.364H503.009V126.392H497.628V129.165H502.605V131.193H497.628V133.972H503.031V136H495.168ZM504.874 136V134.557L509.146 129.267V129.205H505.021V127.273H512.061V128.847L508.05 134.006V134.068H512.209V136H504.874ZM517.787 136.17C516.889 136.17 516.116 135.989 515.469 135.625C514.825 135.258 514.329 134.739 513.98 134.068C513.632 133.394 513.457 132.597 513.457 131.676C513.457 130.778 513.632 129.991 513.98 129.312C514.329 128.634 514.819 128.106 515.452 127.727C516.088 127.348 516.834 127.159 517.69 127.159C518.266 127.159 518.802 127.252 519.298 127.438C519.798 127.619 520.234 127.894 520.605 128.261C520.98 128.629 521.272 129.091 521.48 129.648C521.688 130.201 521.793 130.848 521.793 131.591V132.256H514.423V130.756H519.514C519.514 130.407 519.438 130.098 519.287 129.83C519.135 129.561 518.925 129.35 518.656 129.199C518.391 129.044 518.082 128.966 517.73 128.966C517.363 128.966 517.037 129.051 516.753 129.222C516.473 129.388 516.253 129.614 516.094 129.898C515.935 130.178 515.853 130.491 515.849 130.835V132.261C515.849 132.693 515.929 133.066 516.088 133.381C516.251 133.695 516.48 133.938 516.776 134.108C517.071 134.278 517.421 134.364 517.827 134.364C518.096 134.364 518.342 134.326 518.565 134.25C518.789 134.174 518.98 134.061 519.139 133.909C519.298 133.758 519.42 133.572 519.503 133.352L521.741 133.5C521.628 134.038 521.395 134.508 521.043 134.909C520.694 135.307 520.243 135.617 519.69 135.841C519.141 136.061 518.507 136.17 517.787 136.17ZM525.565 133.489L525.571 130.585H525.923L528.719 127.273H531.497L527.741 131.659H527.168L525.565 133.489ZM523.372 136V124.364H525.793V136H523.372ZM528.827 136L526.259 132.199L527.872 130.489L531.662 136H528.827ZM532.685 136V127.273H535.105V136H532.685ZM533.901 126.148C533.541 126.148 533.232 126.028 532.974 125.79C532.721 125.547 532.594 125.258 532.594 124.92C532.594 124.587 532.721 124.301 532.974 124.062C533.232 123.82 533.541 123.699 533.901 123.699C534.26 123.699 534.567 123.82 534.821 124.062C535.079 124.301 535.207 124.587 535.207 124.92C535.207 125.258 535.079 125.547 534.821 125.79C534.567 126.028 534.26 126.148 533.901 126.148ZM541.021 136.17C540.124 136.17 539.351 135.989 538.703 135.625C538.059 135.258 537.563 134.739 537.214 134.068C536.866 133.394 536.692 132.597 536.692 131.676C536.692 130.778 536.866 129.991 537.214 129.312C537.563 128.634 538.054 128.106 538.686 127.727C539.322 127.348 540.069 127.159 540.925 127.159C541.5 127.159 542.036 127.252 542.533 127.438C543.033 127.619 543.468 127.894 543.839 128.261C544.214 128.629 544.506 129.091 544.714 129.648C544.923 130.201 545.027 130.848 545.027 131.591V132.256H537.658V130.756H542.749C542.749 130.407 542.673 130.098 542.521 129.83C542.37 129.561 542.16 129.35 541.891 129.199C541.625 129.044 541.317 128.966 540.964 128.966C540.597 128.966 540.271 129.051 539.987 129.222C539.707 129.388 539.487 129.614 539.328 129.898C539.169 130.178 539.088 130.491 539.084 130.835V132.261C539.084 132.693 539.163 133.066 539.322 133.381C539.485 133.695 539.714 133.938 540.01 134.108C540.305 134.278 540.656 134.364 541.061 134.364C541.33 134.364 541.576 134.326 541.8 134.25C542.023 134.174 542.214 134.061 542.374 133.909C542.533 133.758 542.654 133.572 542.737 133.352L544.976 133.5C544.862 134.038 544.629 134.508 544.277 134.909C543.929 135.307 543.478 135.617 542.925 135.841C542.375 136.061 541.741 136.17 541.021 136.17ZM549.027 124.364V136H546.607V124.364H549.027Z" fill="#F3F3F3"/>
<path d="M50.5227 31.4545V46H48.7614V31.4545H50.5227ZM59.4521 50.0909V35.0909H61.0714V36.8239H61.2702C61.3933 36.6345 61.5638 36.393 61.7816 36.0994C62.0041 35.8011 62.3214 35.536 62.7333 35.304C63.15 35.0672 63.7134 34.9489 64.4237 34.9489C65.3422 34.9489 66.1519 35.1785 66.8526 35.6378C67.5534 36.0971 68.1003 36.7481 68.4933 37.5909C68.8862 38.4337 69.0827 39.428 69.0827 40.5739C69.0827 41.7292 68.8862 42.7306 68.4933 43.5781C68.1003 44.4209 67.5558 45.0743 66.8597 45.5384C66.1637 45.9976 65.3612 46.2273 64.4521 46.2273C63.7513 46.2273 63.1902 46.1113 62.7688 45.8793C62.3474 45.6425 62.0231 45.375 61.7958 45.0767C61.5685 44.7737 61.3933 44.5227 61.2702 44.3239H61.1282V50.0909H59.4521ZM61.0998 40.5455C61.0998 41.3693 61.2205 42.0961 61.462 42.7259C61.7035 43.3509 62.0562 43.8409 62.5202 44.196C62.9843 44.5464 63.5524 44.7216 64.2248 44.7216C64.9255 44.7216 65.5103 44.5369 65.979 44.1676C66.4525 43.7936 66.8076 43.2917 67.0444 42.6619C67.2859 42.0275 67.4066 41.322 67.4066 40.5455C67.4066 39.7784 67.2882 39.0871 67.0515 38.4716C66.8195 37.8513 66.4667 37.3613 65.9933 37.0014C65.5245 36.6368 64.935 36.4545 64.2248 36.4545C63.543 36.4545 62.9701 36.6274 62.506 36.973C62.042 37.3139 61.6916 37.7921 61.4549 38.4077C61.2182 39.0185 61.0998 39.7311 61.0998 40.5455ZM78.5146 41.5398V35.0909H80.1907V46H78.5146V44.1534H78.4009C78.1452 44.7074 77.7475 45.1785 77.2077 45.5668C76.668 45.9503 75.9862 46.142 75.1623 46.142C74.4805 46.142 73.8744 45.9929 73.3441 45.6946C72.8138 45.3916 72.3971 44.937 72.0941 44.331C71.7911 43.7202 71.6396 42.9508 71.6396 42.0227V35.0909H73.3157V41.9091C73.3157 42.7045 73.5382 43.339 73.9833 43.8125C74.4331 44.286 75.006 44.5227 75.7021 44.5227C76.1187 44.5227 76.5425 44.4162 76.9734 44.2031C77.409 43.9901 77.7736 43.6634 78.0671 43.223C78.3654 42.7827 78.5146 42.2216 78.5146 41.5398ZM88.005 35.0909V36.5114H82.3516V35.0909H88.005ZM83.9993 32.4773H85.6754V42.875C85.6754 43.3485 85.7441 43.7036 85.8814 43.9403C86.0234 44.1723 86.2034 44.3286 86.4212 44.4091C86.6437 44.4848 86.8781 44.5227 87.1243 44.5227C87.3089 44.5227 87.4605 44.5133 87.5788 44.4943C87.6972 44.4706 87.7919 44.4517 87.8629 44.4375L88.2038 45.9432C88.0902 45.9858 87.9316 46.0284 87.728 46.071C87.5244 46.1184 87.2663 46.142 86.9538 46.142C86.4804 46.142 86.0163 46.0402 85.5618 45.8366C85.112 45.633 84.7379 45.3229 84.4396 44.9062C84.1461 44.4896 83.9993 43.964 83.9993 43.3295V32.4773ZM96.1513 46V35.0909H97.7706V36.7955H97.9126C98.1399 36.2131 98.5069 35.7609 99.0135 35.4389C99.5201 35.1122 100.129 34.9489 100.839 34.9489C101.558 34.9489 102.157 35.1122 102.636 35.4389C103.119 35.7609 103.495 36.2131 103.765 36.7955H103.879C104.158 36.232 104.577 35.7846 105.136 35.4531C105.694 35.117 106.364 34.9489 107.146 34.9489C108.121 34.9489 108.919 35.2543 109.539 35.8651C110.159 36.4711 110.469 37.4157 110.469 38.6989V46H108.793V38.6989C108.793 37.8939 108.573 37.3187 108.133 36.973C107.692 36.6274 107.174 36.4545 106.577 36.4545C105.81 36.4545 105.216 36.6866 104.795 37.1506C104.373 37.6098 104.163 38.1922 104.163 38.8977V46H102.458V38.5284C102.458 37.9081 102.257 37.4086 101.854 37.0298C101.452 36.6463 100.933 36.4545 100.299 36.4545C99.8634 36.4545 99.4562 36.5705 99.0774 36.8026C98.7034 37.0346 98.4003 37.3565 98.1683 37.7685C97.9411 38.1757 97.8274 38.6468 97.8274 39.1818V46H96.1513ZM114.223 50.0909C113.939 50.0909 113.686 50.0672 113.463 50.0199C113.241 49.9773 113.087 49.9347 113.001 49.892L113.428 48.4148C113.835 48.5189 114.195 48.5568 114.507 48.5284C114.82 48.5 115.097 48.3603 115.338 48.1094C115.584 47.8632 115.809 47.4631 116.013 46.9091L116.325 46.0568L112.291 35.0909H114.109L117.121 43.7841H117.234L120.246 35.0909H122.064L117.433 47.5909C117.225 48.1544 116.967 48.6207 116.659 48.9901C116.351 49.3641 115.994 49.6411 115.587 49.821C115.184 50.0009 114.73 50.0909 114.223 50.0909ZM137.629 37.5341L136.123 37.9602C136.028 37.7093 135.888 37.4654 135.704 37.2287C135.524 36.9872 135.278 36.7884 134.965 36.6321C134.653 36.4759 134.253 36.3977 133.765 36.3977C133.097 36.3977 132.541 36.5516 132.096 36.8594C131.656 37.1624 131.435 37.5483 131.435 38.017C131.435 38.4337 131.587 38.7628 131.89 39.0043C132.193 39.2457 132.666 39.447 133.31 39.608L134.93 40.0057C135.905 40.2424 136.632 40.6046 137.11 41.0923C137.588 41.5753 137.827 42.1979 137.827 42.9602C137.827 43.5852 137.647 44.1439 137.288 44.6364C136.933 45.1288 136.435 45.517 135.796 45.8011C135.157 46.0852 134.414 46.2273 133.566 46.2273C132.453 46.2273 131.532 45.9858 130.803 45.5028C130.074 45.0199 129.612 44.3144 129.418 43.3864L131.009 42.9886C131.161 43.5758 131.447 44.0161 131.869 44.3097C132.295 44.6032 132.851 44.75 133.538 44.75C134.319 44.75 134.939 44.5843 135.398 44.2528C135.862 43.9167 136.094 43.5142 136.094 43.0455C136.094 42.6667 135.962 42.3494 135.697 42.0938C135.432 41.8333 135.024 41.6392 134.475 41.5114L132.657 41.0852C131.658 40.8485 130.924 40.4815 130.455 39.9844C129.991 39.4825 129.759 38.8551 129.759 38.1023C129.759 37.4867 129.932 36.9422 130.278 36.4688C130.628 35.9953 131.104 35.6236 131.705 35.3537C132.311 35.0838 132.998 34.9489 133.765 34.9489C134.844 34.9489 135.692 35.1856 136.308 35.6591C136.928 36.1326 137.368 36.7576 137.629 37.5341ZM143.561 46.2557C142.869 46.2557 142.242 46.1255 141.679 45.8651C141.115 45.5999 140.668 45.2188 140.336 44.7216C140.005 44.2197 139.839 43.6136 139.839 42.9034C139.839 42.2784 139.962 41.7718 140.208 41.3835C140.455 40.9905 140.784 40.6828 141.196 40.4602C141.608 40.2377 142.062 40.072 142.559 39.9631C143.061 39.8494 143.565 39.7595 144.072 39.6932C144.735 39.608 145.272 39.544 145.684 39.5014C146.101 39.4541 146.404 39.3759 146.593 39.267C146.788 39.1581 146.885 38.9687 146.885 38.6989V38.642C146.885 37.9413 146.693 37.3968 146.309 37.0085C145.931 36.6203 145.355 36.4261 144.583 36.4261C143.783 36.4261 143.156 36.6013 142.701 36.9517C142.247 37.3021 141.927 37.6761 141.743 38.0739L140.152 37.5057C140.436 36.8428 140.815 36.3267 141.288 35.9574C141.766 35.5833 142.287 35.3229 142.85 35.1761C143.419 35.0246 143.977 34.9489 144.527 34.9489C144.877 34.9489 145.279 34.9915 145.734 35.0767C146.193 35.1572 146.636 35.3253 147.062 35.581C147.493 35.8366 147.85 36.2225 148.135 36.7386C148.419 37.2547 148.561 37.946 148.561 38.8125V46H146.885V44.5227H146.799C146.686 44.7595 146.496 45.0128 146.231 45.2827C145.966 45.5526 145.613 45.7822 145.173 45.9716C144.733 46.161 144.195 46.2557 143.561 46.2557ZM143.816 44.75C144.479 44.75 145.038 44.6198 145.493 44.3594C145.952 44.099 146.297 43.7628 146.529 43.3509C146.766 42.9389 146.885 42.5057 146.885 42.0511V40.517C146.814 40.6023 146.657 40.6804 146.416 40.7514C146.179 40.8177 145.904 40.8769 145.592 40.929C145.284 40.9763 144.984 41.0189 144.69 41.0568C144.401 41.09 144.167 41.1184 143.987 41.142C143.551 41.1989 143.144 41.2912 142.765 41.419C142.391 41.5421 142.088 41.7292 141.856 41.9801C141.629 42.2263 141.515 42.5625 141.515 42.9886C141.515 43.571 141.731 44.0114 142.162 44.3097C142.597 44.6032 143.149 44.75 143.816 44.75ZM160.15 35.0909L156.116 46H154.411L150.377 35.0909H152.195L155.207 43.7841H155.32L158.332 35.0909H160.15ZM162.362 46V35.0909H164.038V46H162.362ZM163.214 33.2727C162.888 33.2727 162.606 33.1615 162.369 32.9389C162.137 32.7164 162.021 32.4489 162.021 32.1364C162.021 31.8239 162.137 31.5563 162.369 31.3338C162.606 31.1113 162.888 31 163.214 31C163.541 31 163.821 31.1113 164.053 31.3338C164.289 31.5563 164.408 31.8239 164.408 32.1364C164.408 32.4489 164.289 32.7164 164.053 32.9389C163.821 33.1615 163.541 33.2727 163.214 33.2727ZM168.784 39.4375V46H167.108V35.0909H168.728V36.7955H168.87C169.125 36.2415 169.514 35.7964 170.034 35.4602C170.555 35.1193 171.228 34.9489 172.051 34.9489C172.79 34.9489 173.436 35.1004 173.99 35.4034C174.544 35.7017 174.975 36.1562 175.283 36.767C175.591 37.3731 175.745 38.1402 175.745 39.0682V46H174.069V39.1818C174.069 38.3248 173.846 37.6572 173.401 37.179C172.956 36.696 172.345 36.4545 171.569 36.4545C171.033 36.4545 170.555 36.5705 170.134 36.8026C169.717 37.0346 169.388 37.3731 169.147 37.8182C168.905 38.2633 168.784 38.803 168.784 39.4375ZM183.211 50.3182C182.401 50.3182 181.705 50.214 181.123 50.0057C180.54 49.8021 180.055 49.5322 179.667 49.196C179.283 48.8646 178.978 48.5095 178.751 48.1307L180.086 47.1932C180.237 47.392 180.429 47.6193 180.661 47.875C180.893 48.1354 181.21 48.3603 181.613 48.5497C182.02 48.7438 182.553 48.8409 183.211 48.8409C184.092 48.8409 184.818 48.6278 185.391 48.2017C185.964 47.7756 186.251 47.108 186.251 46.1989V43.983H186.109C185.986 44.1818 185.81 44.428 185.583 44.7216C185.361 45.0104 185.039 45.2685 184.617 45.4957C184.201 45.7183 183.637 45.8295 182.927 45.8295C182.046 45.8295 181.255 45.6212 180.555 45.2045C179.859 44.7879 179.307 44.1818 178.9 43.3864C178.497 42.5909 178.296 41.625 178.296 40.4886C178.296 39.3712 178.493 38.3982 178.886 37.5696C179.279 36.7363 179.826 36.0923 180.526 35.6378C181.227 35.1785 182.037 34.9489 182.955 34.9489C183.665 34.9489 184.229 35.0672 184.646 35.304C185.067 35.536 185.389 35.8011 185.612 36.0994C185.839 36.393 186.014 36.6345 186.137 36.8239H186.308V35.0909H187.927V46.3125C187.927 47.25 187.714 48.0123 187.288 48.5994C186.866 49.1913 186.298 49.6245 185.583 49.8991C184.873 50.1785 184.082 50.3182 183.211 50.3182ZM183.154 44.3239C183.826 44.3239 184.395 44.17 184.859 43.8622C185.323 43.5545 185.675 43.1117 185.917 42.5341C186.158 41.9564 186.279 41.2652 186.279 40.4602C186.279 39.6742 186.161 38.9806 185.924 38.3793C185.687 37.7779 185.337 37.3068 184.873 36.9659C184.409 36.625 183.836 36.4545 183.154 36.4545C182.444 36.4545 181.852 36.6345 181.379 36.9943C180.91 37.3542 180.557 37.8371 180.32 38.4432C180.088 39.0492 179.972 39.7216 179.972 40.4602C179.972 41.2178 180.091 41.8878 180.327 42.4702C180.569 43.0478 180.924 43.5024 181.393 43.8338C181.866 44.1605 182.453 44.3239 183.154 44.3239ZM198.722 37.5341L197.217 37.9602C197.122 37.7093 196.982 37.4654 196.798 37.2287C196.618 36.9872 196.371 36.7884 196.059 36.6321C195.746 36.4759 195.346 36.3977 194.859 36.3977C194.191 36.3977 193.635 36.5516 193.19 36.8594C192.749 37.1624 192.529 37.5483 192.529 38.017C192.529 38.4337 192.681 38.7628 192.984 39.0043C193.287 39.2457 193.76 39.447 194.404 39.608L196.023 40.0057C196.999 40.2424 197.726 40.6046 198.204 41.0923C198.682 41.5753 198.921 42.1979 198.921 42.9602C198.921 43.5852 198.741 44.1439 198.381 44.6364C198.026 45.1288 197.529 45.517 196.89 45.8011C196.251 46.0852 195.507 46.2273 194.66 46.2273C193.547 46.2273 192.626 45.9858 191.897 45.5028C191.168 45.0199 190.706 44.3144 190.512 43.3864L192.103 42.9886C192.254 43.5758 192.541 44.0161 192.962 44.3097C193.388 44.6032 193.945 44.75 194.631 44.75C195.413 44.75 196.033 44.5843 196.492 44.2528C196.956 43.9167 197.188 43.5142 197.188 43.0455C197.188 42.6667 197.056 42.3494 196.79 42.0938C196.525 41.8333 196.118 41.6392 195.569 41.5114L193.751 41.0852C192.752 40.8485 192.018 40.4815 191.549 39.9844C191.085 39.4825 190.853 38.8551 190.853 38.1023C190.853 37.4867 191.026 36.9422 191.371 36.4688C191.722 35.9953 192.198 35.6236 192.799 35.3537C193.405 35.0838 194.092 34.9489 194.859 34.9489C195.938 34.9489 196.786 35.1856 197.401 35.6591C198.022 36.1326 198.462 36.7576 198.722 37.5341ZM207.069 46V35.0909H208.745V46H207.069ZM207.922 33.2727C207.595 33.2727 207.313 33.1615 207.076 32.9389C206.844 32.7164 206.728 32.4489 206.728 32.1364C206.728 31.8239 206.844 31.5563 207.076 31.3338C207.313 31.1113 207.595 31 207.922 31C208.248 31 208.528 31.1113 208.76 31.3338C208.996 31.5563 209.115 31.8239 209.115 32.1364C209.115 32.4489 208.996 32.7164 208.76 32.9389C208.528 33.1615 208.248 33.2727 207.922 33.2727ZM213.491 39.4375V46H211.815V35.0909H213.435V36.7955H213.577C213.832 36.2415 214.221 35.7964 214.741 35.4602C215.262 35.1193 215.935 34.9489 216.759 34.9489C217.497 34.9489 218.143 35.1004 218.697 35.4034C219.251 35.7017 219.682 36.1562 219.99 36.767C220.298 37.3731 220.452 38.1402 220.452 39.0682V46H218.776V39.1818C218.776 38.3248 218.553 37.6572 218.108 37.179C217.663 36.696 217.052 36.4545 216.276 36.4545C215.741 36.4545 215.262 36.5705 214.841 36.8026C214.424 37.0346 214.095 37.3731 213.854 37.8182C213.612 38.2633 213.491 38.803 213.491 39.4375ZM236.867 37.5341L235.361 37.9602C235.266 37.7093 235.127 37.4654 234.942 37.2287C234.762 36.9872 234.516 36.7884 234.203 36.6321C233.891 36.4759 233.491 36.3977 233.003 36.3977C232.336 36.3977 231.779 36.5516 231.334 36.8594C230.894 37.1624 230.674 37.5483 230.674 38.017C230.674 38.4337 230.825 38.7628 231.128 39.0043C231.431 39.2457 231.905 39.447 232.549 39.608L234.168 40.0057C235.143 40.2424 235.87 40.6046 236.348 41.0923C236.827 41.5753 237.066 42.1979 237.066 42.9602C237.066 43.5852 236.886 44.1439 236.526 44.6364C236.171 45.1288 235.674 45.517 235.034 45.8011C234.395 46.0852 233.652 46.2273 232.804 46.2273C231.692 46.2273 230.771 45.9858 230.042 45.5028C229.312 45.0199 228.851 44.3144 228.657 43.3864L230.248 42.9886C230.399 43.5758 230.685 44.0161 231.107 44.3097C231.533 44.6032 232.089 44.75 232.776 44.75C233.557 44.75 234.177 44.5843 234.637 44.2528C235.101 43.9167 235.333 43.5142 235.333 43.0455C235.333 42.6667 235.2 42.3494 234.935 42.0938C234.67 41.8333 234.263 41.6392 233.713 41.5114L231.895 41.0852C230.896 40.8485 230.162 40.4815 229.694 39.9844C229.23 39.4825 228.998 38.8551 228.998 38.1023C228.998 37.4867 229.17 36.9422 229.516 36.4688C229.866 35.9953 230.342 35.6236 230.944 35.3537C231.55 35.0838 232.236 34.9489 233.003 34.9489C234.083 34.9489 234.93 35.1856 235.546 35.6591C236.166 36.1326 236.606 36.7576 236.867 37.5341ZM239.589 46V35.0909H241.265V46H239.589ZM240.441 33.2727C240.114 33.2727 239.833 33.1615 239.596 32.9389C239.364 32.7164 239.248 32.4489 239.248 32.1364C239.248 31.8239 239.364 31.5563 239.596 31.3338C239.833 31.1113 240.114 31 240.441 31C240.768 31 241.047 31.1113 241.279 31.3338C241.516 31.5563 241.634 31.8239 241.634 32.1364C241.634 32.4489 241.516 32.7164 241.279 32.9389C241.047 33.1615 240.768 33.2727 240.441 33.2727ZM248.454 46.2273C247.545 46.2273 246.743 45.9976 246.047 45.5384C245.35 45.0743 244.806 44.4209 244.413 43.5781C244.02 42.7306 243.824 41.7292 243.824 40.5739C243.824 39.428 244.02 38.4337 244.413 37.5909C244.806 36.7481 245.353 36.0971 246.054 35.6378C246.754 35.1785 247.564 34.9489 248.483 34.9489C249.193 34.9489 249.754 35.0672 250.166 35.304C250.583 35.536 250.9 35.8011 251.118 36.0994C251.34 36.393 251.513 36.6345 251.636 36.8239H251.778V31.4545H253.454V46H251.835V44.3239H251.636C251.513 44.5227 251.338 44.7737 251.11 45.0767C250.883 45.375 250.559 45.6425 250.137 45.8793C249.716 46.1113 249.155 46.2273 248.454 46.2273ZM248.681 44.7216C249.354 44.7216 249.922 44.5464 250.386 44.196C250.85 43.8409 251.203 43.3509 251.444 42.7259C251.686 42.0961 251.806 41.3693 251.806 40.5455C251.806 39.7311 251.688 39.0185 251.451 38.4077C251.215 37.7921 250.864 37.3139 250.4 36.973C249.936 36.6274 249.363 36.4545 248.681 36.4545C247.971 36.4545 247.379 36.6368 246.906 37.0014C246.437 37.3613 246.084 37.8513 245.848 38.4716C245.616 39.0871 245.5 39.7784 245.5 40.5455C245.5 41.322 245.618 42.0275 245.855 42.6619C246.096 43.2917 246.451 43.7936 246.92 44.1676C247.394 44.5369 247.981 44.7216 248.681 44.7216ZM261.331 46.2273C260.279 46.2273 259.373 45.9953 258.61 45.5312C257.853 45.0625 257.268 44.4091 256.856 43.571C256.449 42.7282 256.245 41.7481 256.245 40.6307C256.245 39.5133 256.449 38.5284 256.856 37.6761C257.268 36.8191 257.841 36.1515 258.575 35.6733C259.314 35.1903 260.175 34.9489 261.16 34.9489C261.728 34.9489 262.289 35.0436 262.843 35.233C263.397 35.4223 263.902 35.7301 264.356 36.1562C264.811 36.5777 265.173 37.1364 265.443 37.8324C265.713 38.5284 265.848 39.3854 265.848 40.4034V41.1136H257.439V39.6648H264.143C264.143 39.0492 264.02 38.5 263.774 38.017C263.532 37.5341 263.187 37.1529 262.737 36.8736C262.292 36.5942 261.766 36.4545 261.16 36.4545C260.493 36.4545 259.915 36.6203 259.427 36.9517C258.944 37.2784 258.573 37.7045 258.312 38.2301C258.052 38.7557 257.922 39.3191 257.922 39.9205V40.8864C257.922 41.7102 258.064 42.4086 258.348 42.9815C258.636 43.5497 259.037 43.983 259.548 44.2812C260.059 44.5748 260.654 44.7216 261.331 44.7216C261.771 44.7216 262.169 44.66 262.524 44.5369C262.884 44.4091 263.194 44.2197 263.454 43.9688C263.715 43.7131 263.916 43.3958 264.058 43.017L265.677 43.4716C265.507 44.0208 265.22 44.5038 264.818 44.9205C264.415 45.3324 263.918 45.6544 263.326 45.8864C262.734 46.1136 262.069 46.2273 261.331 46.2273ZM275.585 42.0227L275.556 39.9489H275.897L280.67 35.0909H282.744L277.659 40.233H277.517L275.585 42.0227ZM274.022 46V31.4545H275.699V46H274.022ZM280.954 46L276.693 40.6023L277.886 39.4375L283.085 46H280.954ZM288.884 46.2273C287.899 46.2273 287.035 45.9929 286.292 45.5241C285.553 45.0554 284.975 44.3996 284.559 43.5568C284.147 42.714 283.941 41.7292 283.941 40.6023C283.941 39.4659 284.147 38.474 284.559 37.6264C284.975 36.7789 285.553 36.1207 286.292 35.652C287.035 35.1832 287.899 34.9489 288.884 34.9489C289.869 34.9489 290.73 35.1832 291.469 35.652C292.212 36.1207 292.79 36.7789 293.202 37.6264C293.619 38.474 293.827 39.4659 293.827 40.6023C293.827 41.7292 293.619 42.714 293.202 43.5568C292.79 44.3996 292.212 45.0554 291.469 45.5241C290.73 45.9929 289.869 46.2273 288.884 46.2273ZM288.884 44.7216C289.632 44.7216 290.248 44.5298 290.73 44.1463C291.213 43.7628 291.571 43.2585 291.803 42.6335C292.035 42.0085 292.151 41.3314 292.151 40.6023C292.151 39.8731 292.035 39.1937 291.803 38.5639C291.571 37.9342 291.213 37.4252 290.73 37.0369C290.248 36.6487 289.632 36.4545 288.884 36.4545C288.136 36.4545 287.52 36.6487 287.037 37.0369C286.554 37.4252 286.197 37.9342 285.965 38.5639C285.733 39.1937 285.617 39.8731 285.617 40.6023C285.617 41.3314 285.733 42.0085 285.965 42.6335C286.197 43.2585 286.554 43.7628 287.037 44.1463C287.52 44.5298 288.136 44.7216 288.884 44.7216ZM298.062 31.4545V46H296.386V31.4545H298.062ZM305.564 46.2273C304.579 46.2273 303.715 45.9929 302.971 45.5241C302.233 45.0554 301.655 44.3996 301.238 43.5568C300.826 42.714 300.62 41.7292 300.62 40.6023C300.62 39.4659 300.826 38.474 301.238 37.6264C301.655 36.7789 302.233 36.1207 302.971 35.652C303.715 35.1832 304.579 34.9489 305.564 34.9489C306.548 34.9489 307.41 35.1832 308.149 35.652C308.892 36.1207 309.47 36.7789 309.882 37.6264C310.298 38.474 310.507 39.4659 310.507 40.6023C310.507 41.7292 310.298 42.714 309.882 43.5568C309.47 44.3996 308.892 45.0554 308.149 45.5241C307.41 45.9929 306.548 46.2273 305.564 46.2273ZM305.564 44.7216C306.312 44.7216 306.927 44.5298 307.41 44.1463C307.893 43.7628 308.251 43.2585 308.483 42.6335C308.715 42.0085 308.831 41.3314 308.831 40.6023C308.831 39.8731 308.715 39.1937 308.483 38.5639C308.251 37.9342 307.893 37.4252 307.41 37.0369C306.927 36.6487 306.312 36.4545 305.564 36.4545C304.815 36.4545 304.2 36.6487 303.717 37.0369C303.234 37.4252 302.877 37.9342 302.645 38.5639C302.413 39.1937 302.297 39.8731 302.297 40.6023C302.297 41.3314 302.413 42.0085 302.645 42.6335C302.877 43.2585 303.234 43.7628 303.717 44.1463C304.2 44.5298 304.815 44.7216 305.564 44.7216ZM319.287 38.7273C319.287 36.9375 319.519 35.2921 319.983 33.7912C320.452 32.2855 321.119 30.9006 321.986 29.6364H323.463C323.122 30.1051 322.803 30.6828 322.504 31.3693C322.211 32.0511 321.953 32.8016 321.73 33.6207C321.508 34.4351 321.332 35.2779 321.205 36.1491C321.081 37.0204 321.02 37.8797 321.02 38.7273C321.02 39.8542 321.129 40.9976 321.347 42.1577C321.564 43.3177 321.858 44.3949 322.227 45.3892C322.597 46.3835 323.009 47.1932 323.463 47.8182H321.986C321.119 46.554 320.452 45.1714 319.983 43.6705C319.519 42.1648 319.287 40.517 319.287 38.7273ZM337.698 31.4545V46H335.993L328.067 34.5795H327.925V46H326.164V31.4545H327.868L335.823 42.9034H335.965V31.4545H337.698ZM340.995 46V35.0909H342.671V46H340.995ZM341.847 33.2727C341.521 33.2727 341.239 33.1615 341.002 32.9389C340.77 32.7164 340.654 32.4489 340.654 32.1364C340.654 31.8239 340.77 31.5563 341.002 31.3338C341.239 31.1113 341.521 31 341.847 31C342.174 31 342.453 31.1113 342.685 31.3338C342.922 31.5563 343.04 31.8239 343.04 32.1364C343.04 32.4489 342.922 32.7164 342.685 32.9389C342.453 33.1615 342.174 33.2727 341.847 33.2727ZM350.145 50.3182C349.335 50.3182 348.639 50.214 348.056 50.0057C347.474 49.8021 346.989 49.5322 346.6 49.196C346.217 48.8646 345.912 48.5095 345.684 48.1307L347.02 47.1932C347.171 47.392 347.363 47.6193 347.595 47.875C347.827 48.1354 348.144 48.3603 348.547 48.5497C348.954 48.7438 349.486 48.8409 350.145 48.8409C351.025 48.8409 351.752 48.6278 352.325 48.2017C352.898 47.7756 353.184 47.108 353.184 46.1989V43.983H353.042C352.919 44.1818 352.744 44.428 352.517 44.7216C352.294 45.0104 351.972 45.2685 351.551 45.4957C351.134 45.7183 350.571 45.8295 349.86 45.8295C348.98 45.8295 348.189 45.6212 347.488 45.2045C346.792 44.7879 346.241 44.1818 345.833 43.3864C345.431 42.5909 345.23 41.625 345.23 40.4886C345.23 39.3712 345.426 38.3982 345.819 37.5696C346.212 36.7363 346.759 36.0923 347.46 35.6378C348.161 35.1785 348.97 34.9489 349.889 34.9489C350.599 34.9489 351.163 35.0672 351.579 35.304C352.001 35.536 352.323 35.8011 352.545 36.0994C352.772 36.393 352.948 36.6345 353.071 36.8239H353.241V35.0909H354.86V46.3125C354.86 47.25 354.647 48.0123 354.221 48.5994C353.8 49.1913 353.232 49.6245 352.517 49.8991C351.806 50.1785 351.016 50.3182 350.145 50.3182ZM350.088 44.3239C350.76 44.3239 351.328 44.17 351.792 43.8622C352.256 43.5545 352.609 43.1117 352.85 42.5341C353.092 41.9564 353.213 41.2652 353.213 40.4602C353.213 39.6742 353.094 38.9806 352.858 38.3793C352.621 37.7779 352.27 37.3068 351.806 36.9659C351.342 36.625 350.77 36.4545 350.088 36.4545C349.377 36.4545 348.786 36.6345 348.312 36.9943C347.843 37.3542 347.491 37.8371 347.254 38.4432C347.022 39.0492 346.906 39.7216 346.906 40.4602C346.906 41.2178 347.024 41.8878 347.261 42.4702C347.502 43.0478 347.858 43.5024 348.326 43.8338C348.8 44.1605 349.387 44.3239 350.088 44.3239ZM362.502 46.2273C361.451 46.2273 360.545 45.9953 359.782 45.5312C359.025 45.0625 358.44 44.4091 358.028 43.571C357.621 42.7282 357.417 41.7481 357.417 40.6307C357.417 39.5133 357.621 38.5284 358.028 37.6761C358.44 36.8191 359.013 36.1515 359.747 35.6733C360.485 35.1903 361.347 34.9489 362.332 34.9489C362.9 34.9489 363.461 35.0436 364.015 35.233C364.569 35.4223 365.074 35.7301 365.528 36.1562C365.983 36.5777 366.345 37.1364 366.615 37.8324C366.885 38.5284 367.02 39.3854 367.02 40.4034V41.1136H358.61V39.6648H365.315C365.315 39.0492 365.192 38.5 364.946 38.017C364.704 37.5341 364.359 37.1529 363.909 36.8736C363.464 36.5942 362.938 36.4545 362.332 36.4545C361.664 36.4545 361.087 36.6203 360.599 36.9517C360.116 37.2784 359.744 37.7045 359.484 38.2301C359.224 38.7557 359.093 39.3191 359.093 39.9205V40.8864C359.093 41.7102 359.235 42.4086 359.52 42.9815C359.808 43.5497 360.208 43.983 360.72 44.2812C361.231 44.5748 361.825 44.7216 362.502 44.7216C362.943 44.7216 363.341 44.66 363.696 44.5369C364.056 44.4091 364.366 44.2197 364.626 43.9688C364.886 43.7131 365.088 43.3958 365.23 43.017L366.849 43.4716C366.679 44.0208 366.392 44.5038 365.99 44.9205C365.587 45.3324 365.09 45.6544 364.498 45.8864C363.906 46.1136 363.241 46.2273 362.502 46.2273ZM369.569 46V35.0909H371.189V36.7386H371.302C371.501 36.1989 371.861 35.7609 372.382 35.4247C372.903 35.0885 373.49 34.9205 374.143 34.9205C374.266 34.9205 374.42 34.9228 374.605 34.9276C374.789 34.9323 374.929 34.9394 375.024 34.9489V36.6534C374.967 36.6392 374.837 36.6179 374.633 36.5895C374.434 36.5563 374.224 36.5398 374.001 36.5398C373.471 36.5398 372.997 36.651 372.581 36.8736C372.169 37.0914 371.842 37.3944 371.6 37.7827C371.364 38.1662 371.245 38.6042 371.245 39.0966V46H369.569ZM377.011 46V35.0909H378.687V46H377.011ZM377.863 33.2727C377.536 33.2727 377.254 33.1615 377.018 32.9389C376.786 32.7164 376.67 32.4489 376.67 32.1364C376.67 31.8239 376.786 31.5563 377.018 31.3338C377.254 31.1113 377.536 31 377.863 31C378.19 31 378.469 31.1113 378.701 31.3338C378.938 31.5563 379.056 31.8239 379.056 32.1364C379.056 32.4489 378.938 32.7164 378.701 32.9389C378.469 33.1615 378.19 33.2727 377.863 33.2727ZM384.967 46.2557C384.276 46.2557 383.648 46.1255 383.085 45.8651C382.521 45.5999 382.074 45.2188 381.743 44.7216C381.411 44.2197 381.245 43.6136 381.245 42.9034C381.245 42.2784 381.368 41.7718 381.615 41.3835C381.861 40.9905 382.19 40.6828 382.602 40.4602C383.014 40.2377 383.468 40.072 383.966 39.9631C384.467 39.8494 384.972 39.7595 385.478 39.6932C386.141 39.608 386.679 39.544 387.091 39.5014C387.507 39.4541 387.81 39.3759 388 39.267C388.194 39.1581 388.291 38.9687 388.291 38.6989V38.642C388.291 37.9413 388.099 37.3968 387.716 37.0085C387.337 36.6203 386.761 36.4261 385.99 36.4261C385.19 36.4261 384.562 36.6013 384.108 36.9517C383.653 37.3021 383.333 37.6761 383.149 38.0739L381.558 37.5057C381.842 36.8428 382.221 36.3267 382.694 35.9574C383.172 35.5833 383.693 35.3229 384.257 35.1761C384.825 35.0246 385.384 34.9489 385.933 34.9489C386.283 34.9489 386.686 34.9915 387.14 35.0767C387.6 35.1572 388.042 35.3253 388.468 35.581C388.899 35.8366 389.257 36.2225 389.541 36.7386C389.825 37.2547 389.967 37.946 389.967 38.8125V46H388.291V44.5227H388.206C388.092 44.7595 387.903 45.0128 387.637 45.2827C387.372 45.5526 387.02 45.7822 386.579 45.9716C386.139 46.161 385.601 46.2557 384.967 46.2557ZM385.223 44.75C385.886 44.75 386.444 44.6198 386.899 44.3594C387.358 44.099 387.704 43.7628 387.936 43.3509C388.172 42.9389 388.291 42.5057 388.291 42.0511V40.517C388.22 40.6023 388.064 40.6804 387.822 40.7514C387.585 40.8177 387.311 40.8769 386.998 40.929C386.69 40.9763 386.39 41.0189 386.096 41.0568C385.807 41.09 385.573 41.1184 385.393 41.142C384.958 41.1989 384.55 41.2912 384.172 41.419C383.797 41.5421 383.494 41.7292 383.262 41.9801C383.035 42.2263 382.922 42.5625 382.922 42.9886C382.922 43.571 383.137 44.0114 383.568 44.3097C384.003 44.6032 384.555 44.75 385.223 44.75ZM394.702 39.4375V46H393.026V35.0909H394.646V36.7955H394.788C395.043 36.2415 395.432 35.7964 395.952 35.4602C396.473 35.1193 397.146 34.9489 397.969 34.9489C398.708 34.9489 399.354 35.1004 399.908 35.4034C400.462 35.7017 400.893 36.1562 401.201 36.767C401.509 37.3731 401.663 38.1402 401.663 39.0682V46H399.987V39.1818C399.987 38.3248 399.764 37.6572 399.319 37.179C398.874 36.696 398.263 36.4545 397.487 36.4545C396.951 36.4545 396.473 36.5705 396.052 36.8026C395.635 37.0346 395.306 37.3731 395.065 37.8182C394.823 38.2633 394.702 38.803 394.702 39.4375ZM415.095 35.0909V36.5114H409.441V35.0909H415.095ZM411.089 32.4773H412.765V42.875C412.765 43.3485 412.834 43.7036 412.971 43.9403C413.113 44.1723 413.293 44.3286 413.511 44.4091C413.734 44.4848 413.968 44.5227 414.214 44.5227C414.399 44.5227 414.55 44.5133 414.669 44.4943C414.787 44.4706 414.882 44.4517 414.953 44.4375L415.294 45.9432C415.18 45.9858 415.021 46.0284 414.818 46.071C414.614 46.1184 414.356 46.142 414.044 46.142C413.57 46.142 413.106 46.0402 412.652 45.8366C412.202 45.633 411.828 45.3229 411.529 44.9062C411.236 44.4896 411.089 43.964 411.089 43.3295V32.4773ZM422.073 46.2273C421.022 46.2273 420.115 45.9953 419.353 45.5312C418.595 45.0625 418.01 44.4091 417.598 43.571C417.191 42.7282 416.988 41.7481 416.988 40.6307C416.988 39.5133 417.191 38.5284 417.598 37.6761C418.01 36.8191 418.583 36.1515 419.317 35.6733C420.056 35.1903 420.917 34.9489 421.902 34.9489C422.471 34.9489 423.032 35.0436 423.586 35.233C424.14 35.4223 424.644 35.7301 425.098 36.1562C425.553 36.5777 425.915 37.1364 426.185 37.8324C426.455 38.5284 426.59 39.3854 426.59 40.4034V41.1136H418.181V39.6648H424.885C424.885 39.0492 424.762 38.5 424.516 38.017C424.275 37.5341 423.929 37.1529 423.479 36.8736C423.034 36.5942 422.508 36.4545 421.902 36.4545C421.235 36.4545 420.657 36.6203 420.169 36.9517C419.686 37.2784 419.315 37.7045 419.054 38.2301C418.794 38.7557 418.664 39.3191 418.664 39.9205V40.8864C418.664 41.7102 418.806 42.4086 419.09 42.9815C419.379 43.5497 419.779 43.983 420.29 44.2812C420.801 44.5748 421.396 44.7216 422.073 44.7216C422.513 44.7216 422.911 44.66 423.266 44.5369C423.626 44.4091 423.936 44.2197 424.196 43.9688C424.457 43.7131 424.658 43.3958 424.8 43.017L426.419 43.4716C426.249 44.0208 425.962 44.5038 425.56 44.9205C425.158 45.3324 424.66 45.6544 424.069 45.8864C423.477 46.1136 422.811 46.2273 422.073 46.2273ZM429.14 46V35.0909H430.759V36.7386H430.873C431.071 36.1989 431.431 35.7609 431.952 35.4247C432.473 35.0885 433.06 34.9205 433.713 34.9205C433.837 34.9205 433.99 34.9228 434.175 34.9276C434.36 34.9323 434.499 34.9394 434.594 34.9489V36.6534C434.537 36.6392 434.407 36.6179 434.203 36.5895C434.005 36.5563 433.794 36.5398 433.571 36.5398C433.041 36.5398 432.568 36.651 432.151 36.8736C431.739 37.0914 431.412 37.3944 431.171 37.7827C430.934 38.1662 430.816 38.6042 430.816 39.0966V46H429.14ZM436.581 46V35.0909H438.2V36.7955H438.342C438.57 36.2131 438.937 35.7609 439.443 35.4389C439.95 35.1122 440.558 34.9489 441.268 34.9489C441.988 34.9489 442.587 35.1122 443.065 35.4389C443.548 35.7609 443.925 36.2131 444.195 36.7955H444.308C444.588 36.232 445.007 35.7846 445.565 35.4531C446.124 35.117 446.794 34.9489 447.575 34.9489C448.551 34.9489 449.348 35.2543 449.969 35.8651C450.589 36.4711 450.899 37.4157 450.899 38.6989V46H449.223V38.6989C449.223 37.8939 449.003 37.3187 448.562 36.973C448.122 36.6274 447.604 36.4545 447.007 36.4545C446.24 36.4545 445.646 36.6866 445.224 37.1506C444.803 37.6098 444.592 38.1922 444.592 38.8977V46H442.888V38.5284C442.888 37.9081 442.687 37.4086 442.284 37.0298C441.882 36.6463 441.363 36.4545 440.729 36.4545C440.293 36.4545 439.886 36.5705 439.507 36.8026C439.133 37.0346 438.83 37.3565 438.598 37.7685C438.371 38.1757 438.257 38.6468 438.257 39.1818V46H436.581ZM464.447 35.0909V36.5114H458.566V35.0909H464.447ZM460.327 46V33.5852C460.327 32.9602 460.474 32.4394 460.768 32.0227C461.061 31.6061 461.442 31.2936 461.911 31.0852C462.38 30.8769 462.875 30.7727 463.396 30.7727C463.808 30.7727 464.144 30.8059 464.404 30.8722C464.665 30.9384 464.859 31 464.987 31.0568L464.504 32.5057C464.418 32.4773 464.3 32.4418 464.148 32.3991C464.002 32.3565 463.808 32.3352 463.566 32.3352C463.012 32.3352 462.612 32.4749 462.366 32.7543C462.124 33.0336 462.004 33.4432 462.004 33.983V46H460.327ZM470.778 46.2273C469.794 46.2273 468.929 45.9929 468.186 45.5241C467.447 45.0554 466.87 44.3996 466.453 43.5568C466.041 42.714 465.835 41.7292 465.835 40.6023C465.835 39.4659 466.041 38.474 466.453 37.6264C466.87 36.7789 467.447 36.1207 468.186 35.652C468.929 35.1832 469.794 34.9489 470.778 34.9489C471.763 34.9489 472.625 35.1832 473.364 35.652C474.107 36.1207 474.685 36.7789 475.097 37.6264C475.513 38.474 475.722 39.4659 475.722 40.6023C475.722 41.7292 475.513 42.714 475.097 43.5568C474.685 44.3996 474.107 45.0554 473.364 45.5241C472.625 45.9929 471.763 46.2273 470.778 46.2273ZM470.778 44.7216C471.527 44.7216 472.142 44.5298 472.625 44.1463C473.108 43.7628 473.465 43.2585 473.697 42.6335C473.929 42.0085 474.045 41.3314 474.045 40.6023C474.045 39.8731 473.929 39.1937 473.697 38.5639C473.465 37.9342 473.108 37.4252 472.625 37.0369C472.142 36.6487 471.527 36.4545 470.778 36.4545C470.03 36.4545 469.415 36.6487 468.932 37.0369C468.449 37.4252 468.091 37.9342 467.859 38.5639C467.627 39.1937 467.511 39.8731 467.511 40.6023C467.511 41.3314 467.627 42.0085 467.859 42.6335C468.091 43.2585 468.449 43.7628 468.932 44.1463C469.415 44.5298 470.03 44.7216 470.778 44.7216ZM478.28 46V35.0909H479.9V36.7386H480.013C480.212 36.1989 480.572 35.7609 481.093 35.4247C481.614 35.0885 482.201 34.9205 482.854 34.9205C482.977 34.9205 483.131 34.9228 483.316 34.9276C483.5 34.9323 483.64 34.9394 483.735 34.9489V36.6534C483.678 36.6392 483.548 36.6179 483.344 36.5895C483.145 36.5563 482.935 36.5398 482.712 36.5398C482.182 36.5398 481.708 36.651 481.292 36.8736C480.88 37.0914 480.553 37.3944 480.311 37.7827C480.075 38.1662 479.956 38.6042 479.956 39.0966V46H478.28ZM48.5341 80.0909V65.0909H50.1534V66.8239H50.3523C50.4754 66.6345 50.6458 66.393 50.8636 66.0994C51.0862 65.8011 51.4034 65.536 51.8153 65.304C52.232 65.0672 52.7955 64.9489 53.5057 64.9489C54.4242 64.9489 55.2339 65.1785 55.9347 65.6378C56.6354 66.0971 57.1823 66.7481 57.5753 67.5909C57.9683 68.4337 58.1648 69.428 58.1648 70.5739C58.1648 71.7292 57.9683 72.7306 57.5753 73.5781C57.1823 74.4209 56.6378 75.0743 55.9418 75.5384C55.2457 75.9976 54.4432 76.2273 53.5341 76.2273C52.8333 76.2273 52.2723 76.1113 51.8509 75.8793C51.4295 75.6425 51.1051 75.375 50.8778 75.0767C50.6506 74.7737 50.4754 74.5227 50.3523 74.3239H50.2102V80.0909H48.5341ZM50.1818 70.5455C50.1818 71.3693 50.3026 72.0961 50.544 72.7259C50.7855 73.3509 51.1383 73.8409 51.6023 74.196C52.0663 74.5464 52.6345 74.7216 53.3068 74.7216C54.0076 74.7216 54.5923 74.5369 55.0611 74.1676C55.5346 73.7936 55.8897 73.2917 56.1264 72.6619C56.3679 72.0275 56.4886 71.322 56.4886 70.5455C56.4886 69.7784 56.3703 69.0871 56.1335 68.4716C55.9015 67.8513 55.5488 67.3613 55.0753 67.0014C54.6065 66.6368 54.017 66.4545 53.3068 66.4545C52.625 66.4545 52.0521 66.6274 51.5881 66.973C51.1241 67.3139 50.7737 67.7921 50.5369 68.4077C50.3002 69.0185 50.1818 69.7311 50.1818 70.5455ZM60.7216 76V65.0909H62.3977V76H60.7216ZM61.5739 63.2727C61.2472 63.2727 60.9654 63.1615 60.7287 62.9389C60.4967 62.7164 60.3807 62.4489 60.3807 62.1364C60.3807 61.8239 60.4967 61.5563 60.7287 61.3338C60.9654 61.1113 61.2472 61 61.5739 61C61.9006 61 62.1799 61.1113 62.4119 61.3338C62.6487 61.5563 62.767 61.8239 62.767 62.1364C62.767 62.4489 62.6487 62.7164 62.4119 62.9389C62.1799 63.1615 61.9006 63.2727 61.5739 63.2727ZM69.8711 80.3182C69.0614 80.3182 68.3654 80.214 67.783 80.0057C67.2006 79.8021 66.7153 79.5322 66.3271 79.196C65.9435 78.8646 65.6381 78.5095 65.4109 78.1307L66.7461 77.1932C66.8976 77.392 67.0894 77.6193 67.3214 77.875C67.5534 78.1354 67.8706 78.3603 68.2731 78.5497C68.6803 78.7438 69.2129 78.8409 69.8711 78.8409C70.7518 78.8409 71.4786 78.6278 72.0515 78.2017C72.6244 77.7756 72.9109 77.108 72.9109 76.1989V73.983H72.7688C72.6457 74.1818 72.4705 74.428 72.2433 74.7216C72.0207 75.0104 71.6987 75.2685 71.2773 75.4957C70.8607 75.7183 70.2972 75.8295 69.587 75.8295C68.7063 75.8295 67.9156 75.6212 67.2148 75.2045C66.5188 74.7879 65.9672 74.1818 65.56 73.3864C65.1576 72.5909 64.9563 71.625 64.9563 70.4886C64.9563 69.3712 65.1528 68.3982 65.5458 67.5696C65.9388 66.7363 66.4857 66.0923 67.1864 65.6378C67.8872 65.1785 68.6969 64.9489 69.6154 64.9489C70.3256 64.9489 70.8891 65.0672 71.3058 65.304C71.7272 65.536 72.0491 65.8011 72.2717 66.0994C72.4989 66.393 72.6741 66.6345 72.7972 66.8239H72.9677V65.0909H74.587V76.3125C74.587 77.25 74.3739 78.0123 73.9478 78.5994C73.5264 79.1913 72.9582 79.6245 72.2433 79.8991C71.533 80.1785 70.7423 80.3182 69.8711 80.3182ZM69.8143 74.3239C70.4866 74.3239 71.0548 74.17 71.5188 73.8622C71.9828 73.5545 72.3356 73.1117 72.5771 72.5341C72.8185 71.9564 72.9393 71.2652 72.9393 70.4602C72.9393 69.6742 72.8209 68.9806 72.5842 68.3793C72.3474 67.7779 71.997 67.3068 71.533 66.9659C71.069 66.625 70.4961 66.4545 69.8143 66.4545C69.104 66.4545 68.5122 66.6345 68.0387 66.9943C67.57 67.3542 67.2172 67.8371 66.9805 68.4432C66.7485 69.0492 66.6325 69.7216 66.6325 70.4602C66.6325 71.2178 66.7508 71.8878 66.9876 72.4702C67.229 73.0478 67.5842 73.5024 68.0529 73.8338C68.5264 74.1605 69.1135 74.3239 69.8143 74.3239ZM82.0586 80.3182C81.2489 80.3182 80.5529 80.214 79.9705 80.0057C79.3881 79.8021 78.9028 79.5322 78.5146 79.196C78.131 78.8646 77.8256 78.5095 77.5984 78.1307L78.9336 77.1932C79.0851 77.392 79.2769 77.6193 79.5089 77.875C79.7409 78.1354 80.0581 78.3603 80.4606 78.5497C80.8678 78.7438 81.4004 78.8409 82.0586 78.8409C82.9393 78.8409 83.6661 78.6278 84.239 78.2017C84.8119 77.7756 85.0984 77.108 85.0984 76.1989V73.983H84.9563C84.8332 74.1818 84.658 74.428 84.4308 74.7216C84.2082 75.0104 83.8862 75.2685 83.4648 75.4957C83.0482 75.7183 82.4847 75.8295 81.7745 75.8295C80.8938 75.8295 80.1031 75.6212 79.4023 75.2045C78.7063 74.7879 78.1547 74.1818 77.7475 73.3864C77.3451 72.5909 77.1438 71.625 77.1438 70.4886C77.1438 69.3712 77.3403 68.3982 77.7333 67.5696C78.1263 66.7363 78.6732 66.0923 79.3739 65.6378C80.0747 65.1785 80.8844 64.9489 81.8029 64.9489C82.5131 64.9489 83.0766 65.0672 83.4933 65.304C83.9147 65.536 84.2366 65.8011 84.4592 66.0994C84.6864 66.393 84.8616 66.6345 84.9847 66.8239H85.1552V65.0909H86.7745V76.3125C86.7745 77.25 86.5614 78.0123 86.1353 78.5994C85.7139 79.1913 85.1457 79.6245 84.4308 79.8991C83.7205 80.1785 82.9298 80.3182 82.0586 80.3182ZM82.0018 74.3239C82.6741 74.3239 83.2423 74.17 83.7063 73.8622C84.1703 73.5545 84.5231 73.1117 84.7646 72.5341C85.006 71.9564 85.1268 71.2652 85.1268 70.4602C85.1268 69.6742 85.0084 68.9806 84.7717 68.3793C84.5349 67.7779 84.1845 67.3068 83.7205 66.9659C83.2565 66.625 82.6836 66.4545 82.0018 66.4545C81.2915 66.4545 80.6997 66.6345 80.2262 66.9943C79.7575 67.3542 79.4047 67.8371 79.168 68.4432C78.936 69.0492 78.82 69.7216 78.82 70.4602C78.82 71.2178 78.9383 71.8878 79.1751 72.4702C79.4165 73.0478 79.7717 73.5024 80.2404 73.8338C80.7139 74.1605 81.301 74.3239 82.0018 74.3239ZM90.9222 80.0909C90.6381 80.0909 90.3848 80.0672 90.1623 80.0199C89.9397 79.9773 89.7859 79.9347 89.7006 79.892L90.1268 78.4148C90.534 78.5189 90.8938 78.5568 91.2063 78.5284C91.5188 78.5 91.7958 78.3603 92.0373 78.1094C92.2835 77.8632 92.5084 77.4631 92.712 76.9091L93.0245 76.0568L88.9904 65.0909H90.8086L93.82 73.7841H93.9336L96.945 65.0909H98.7631L94.1325 77.5909C93.9241 78.1544 93.6661 78.6207 93.3583 78.9901C93.0505 79.3641 92.6931 79.6411 92.2859 79.821C91.8834 80.0009 91.4289 80.0909 90.9222 80.0909ZM101.203 76V61.4545H102.879V66.8239H103.021C103.144 66.6345 103.315 66.393 103.532 66.0994C103.755 65.8011 104.072 65.536 104.484 65.304C104.901 65.0672 105.464 64.9489 106.174 64.9489C107.093 64.9489 107.903 65.1785 108.603 65.6378C109.304 66.0971 109.851 66.7481 110.244 67.5909C110.637 68.4337 110.833 69.428 110.833 70.5739C110.833 71.7292 110.637 72.7306 110.244 73.5781C109.851 74.4209 109.306 75.0743 108.61 75.5384C107.914 75.9976 107.112 76.2273 106.203 76.2273C105.502 76.2273 104.941 76.1113 104.52 75.8793C104.098 75.6425 103.774 75.375 103.547 75.0767C103.319 74.7737 103.144 74.5227 103.021 74.3239H102.822V76H101.203ZM102.85 70.5455C102.85 71.3693 102.971 72.0961 103.213 72.7259C103.454 73.3509 103.807 73.8409 104.271 74.196C104.735 74.5464 105.303 74.7216 105.975 74.7216C106.676 74.7216 107.261 74.5369 107.73 74.1676C108.203 73.7936 108.558 73.2917 108.795 72.6619C109.037 72.0275 109.157 71.322 109.157 70.5455C109.157 69.7784 109.039 69.0871 108.802 68.4716C108.57 67.8513 108.217 67.3613 107.744 67.0014C107.275 66.6368 106.686 66.4545 105.975 66.4545C105.294 66.4545 104.721 66.6274 104.257 66.973C103.793 67.3139 103.442 67.7921 103.206 68.4077C102.969 69.0185 102.85 69.7311 102.85 70.5455ZM116.608 76.2557C115.916 76.2557 115.289 76.1255 114.725 75.8651C114.162 75.5999 113.715 75.2188 113.383 74.7216C113.052 74.2197 112.886 73.6136 112.886 72.9034C112.886 72.2784 113.009 71.7718 113.255 71.3835C113.502 70.9905 113.831 70.6828 114.243 70.4602C114.654 70.2377 115.109 70.072 115.606 69.9631C116.108 69.8494 116.612 69.7595 117.119 69.6932C117.782 69.608 118.319 69.544 118.731 69.5014C119.148 69.4541 119.451 69.3759 119.64 69.267C119.834 69.1581 119.931 68.9687 119.931 68.6989V68.642C119.931 67.9413 119.74 67.3968 119.356 67.0085C118.977 66.6203 118.402 66.4261 117.63 66.4261C116.83 66.4261 116.203 66.6013 115.748 66.9517C115.294 67.3021 114.974 67.6761 114.789 68.0739L113.199 67.5057C113.483 66.8428 113.861 66.3267 114.335 65.9574C114.813 65.5833 115.334 65.3229 115.897 65.1761C116.466 65.0246 117.024 64.9489 117.574 64.9489C117.924 64.9489 118.326 64.9915 118.781 65.0767C119.24 65.1572 119.683 65.3253 120.109 65.581C120.54 65.8366 120.897 66.2225 121.181 66.7386C121.466 67.2547 121.608 67.946 121.608 68.8125V76H119.931V74.5227H119.846C119.733 74.7595 119.543 75.0128 119.278 75.2827C119.013 75.5526 118.66 75.7822 118.22 75.9716C117.779 76.161 117.242 76.2557 116.608 76.2557ZM116.863 74.75C117.526 74.75 118.085 74.6198 118.539 74.3594C118.999 74.099 119.344 73.7628 119.576 73.3509C119.813 72.9389 119.931 72.5057 119.931 72.0511V70.517C119.86 70.6023 119.704 70.6804 119.463 70.7514C119.226 70.8177 118.951 70.8769 118.639 70.929C118.331 70.9763 118.03 71.0189 117.737 71.0568C117.448 71.09 117.214 71.1184 117.034 71.142C116.598 71.1989 116.191 71.2912 115.812 71.419C115.438 71.5421 115.135 71.7292 114.903 71.9801C114.676 72.2263 114.562 72.5625 114.562 72.9886C114.562 73.571 114.778 74.0114 115.208 74.3097C115.644 74.6032 116.196 74.75 116.863 74.75ZM126.343 69.4375V76H124.667V65.0909H126.286V66.7955H126.428C126.684 66.2415 127.072 65.7964 127.593 65.4602C128.114 65.1193 128.786 64.9489 129.61 64.9489C130.349 64.9489 130.995 65.1004 131.549 65.4034C132.103 65.7017 132.534 66.1562 132.842 66.767C133.149 67.3731 133.303 68.1402 133.303 69.0682V76H131.627V69.1818C131.627 68.3248 131.405 67.6572 130.96 67.179C130.514 66.696 129.904 66.4545 129.127 66.4545C128.592 66.4545 128.114 66.5705 127.692 66.8026C127.276 67.0346 126.947 67.3731 126.705 67.8182C126.464 68.2633 126.343 68.803 126.343 69.4375ZM137.929 72.0227L137.9 69.9489H138.241L143.014 65.0909H145.088L140.002 70.233H139.86L137.929 72.0227ZM136.366 76V61.4545H138.042V76H136.366ZM143.298 76L139.037 70.6023L140.23 69.4375L145.429 76H143.298ZM150.825 69.8636C150.825 71.6534 150.59 73.3011 150.121 74.8068C149.657 76.3078 148.992 77.6903 148.126 78.9545H146.648C146.989 78.4858 147.307 77.9081 147.6 77.2216C147.898 76.5398 148.159 75.7917 148.381 74.9773C148.604 74.1581 148.777 73.313 148.9 72.4418C149.028 71.5658 149.092 70.7064 149.092 69.8636C149.092 68.7367 148.983 67.5933 148.765 66.4332C148.547 65.2732 148.254 64.196 147.884 63.2017C147.515 62.2074 147.103 61.3977 146.648 60.7727H148.126C148.992 62.0369 149.657 63.4219 150.121 64.9276C150.59 66.4285 150.825 68.0739 150.825 69.8636ZM160.343 76V61.4545H162.02V66.8239H162.162C162.285 66.6345 162.455 66.393 162.673 66.0994C162.895 65.8011 163.213 65.536 163.625 65.304C164.041 65.0672 164.605 64.9489 165.315 64.9489C166.234 64.9489 167.043 65.1785 167.744 65.6378C168.445 66.0971 168.992 66.7481 169.385 67.5909C169.778 68.4337 169.974 69.428 169.974 70.5739C169.974 71.7292 169.778 72.7306 169.385 73.5781C168.992 74.4209 168.447 75.0743 167.751 75.5384C167.055 75.9976 166.252 76.2273 165.343 76.2273C164.643 76.2273 164.082 76.1113 163.66 75.8793C163.239 75.6425 162.914 75.375 162.687 75.0767C162.46 74.7737 162.285 74.5227 162.162 74.3239H161.963V76H160.343ZM161.991 70.5455C161.991 71.3693 162.112 72.0961 162.353 72.7259C162.595 73.3509 162.948 73.8409 163.412 74.196C163.876 74.5464 164.444 74.7216 165.116 74.7216C165.817 74.7216 166.402 74.5369 166.87 74.1676C167.344 73.7936 167.699 73.2917 167.936 72.6619C168.177 72.0275 168.298 71.322 168.298 70.5455C168.298 69.7784 168.18 69.0871 167.943 68.4716C167.711 67.8513 167.358 67.3613 166.885 67.0014C166.416 66.6368 165.826 66.4545 165.116 66.4545C164.434 66.4545 163.861 66.6274 163.397 66.973C162.933 67.3139 162.583 67.7921 162.346 68.4077C162.109 69.0185 161.991 69.7311 161.991 70.5455ZM179.413 71.5398V65.0909H181.089V76H179.413V74.1534H179.299C179.044 74.7074 178.646 75.1785 178.106 75.5668C177.566 75.9503 176.885 76.142 176.061 76.142C175.379 76.142 174.773 75.9929 174.243 75.6946C173.712 75.3916 173.296 74.937 172.993 74.331C172.69 73.7202 172.538 72.9508 172.538 72.0227V65.0909H174.214V71.9091C174.214 72.7045 174.437 73.339 174.882 73.8125C175.332 74.286 175.904 74.5227 176.6 74.5227C177.017 74.5227 177.441 74.4162 177.872 74.2031C178.307 73.9901 178.672 73.6634 178.966 73.223C179.264 72.7827 179.413 72.2216 179.413 71.5398ZM188.903 65.0909V66.5114H183.25V65.0909H188.903ZM184.898 62.4773H186.574V72.875C186.574 73.3485 186.643 73.7036 186.78 73.9403C186.922 74.1723 187.102 74.3286 187.32 74.4091C187.542 74.4848 187.777 74.5227 188.023 74.5227C188.207 74.5227 188.359 74.5133 188.477 74.4943C188.596 74.4706 188.69 74.4517 188.761 74.4375L189.102 75.9432C188.989 75.9858 188.83 76.0284 188.626 76.071C188.423 76.1184 188.165 76.142 187.852 76.142C187.379 76.142 186.915 76.0402 186.46 75.8366C186.01 75.633 185.636 75.3229 185.338 74.9062C185.045 74.4896 184.898 73.964 184.898 73.3295V62.4773ZM197.05 76V65.0909H198.726V76H197.05ZM197.902 63.2727C197.575 63.2727 197.294 63.1615 197.057 62.9389C196.825 62.7164 196.709 62.4489 196.709 62.1364C196.709 61.8239 196.825 61.5563 197.057 61.3338C197.294 61.1113 197.575 61 197.902 61C198.229 61 198.508 61.1113 198.74 61.3338C198.977 61.5563 199.095 61.8239 199.095 62.1364C199.095 62.4489 198.977 62.7164 198.74 62.9389C198.508 63.1615 198.229 63.2727 197.902 63.2727ZM210.631 76.2557C209.94 76.2557 209.312 76.1255 208.749 75.8651C208.185 75.5999 207.738 75.2188 207.407 74.7216C207.075 74.2197 206.909 73.6136 206.909 72.9034C206.909 72.2784 207.033 71.7718 207.279 71.3835C207.525 70.9905 207.854 70.6828 208.266 70.4602C208.678 70.2377 209.132 70.072 209.63 69.9631C210.132 69.8494 210.636 69.7595 211.142 69.6932C211.805 69.608 212.343 69.544 212.755 69.5014C213.171 69.4541 213.474 69.3759 213.664 69.267C213.858 69.1581 213.955 68.9687 213.955 68.6989V68.642C213.955 67.9413 213.763 67.3968 213.38 67.0085C213.001 66.6203 212.426 66.4261 211.654 66.4261C210.854 66.4261 210.226 66.6013 209.772 66.9517C209.317 67.3021 208.998 67.6761 208.813 68.0739L207.222 67.5057C207.506 66.8428 207.885 66.3267 208.358 65.9574C208.837 65.5833 209.357 65.3229 209.921 65.1761C210.489 65.0246 211.048 64.9489 211.597 64.9489C211.947 64.9489 212.35 64.9915 212.804 65.0767C213.264 65.1572 213.706 65.3253 214.132 65.581C214.563 65.8366 214.921 66.2225 215.205 66.7386C215.489 67.2547 215.631 67.946 215.631 68.8125V76H213.955V74.5227H213.87C213.756 74.7595 213.567 75.0128 213.301 75.2827C213.036 75.5526 212.684 75.7822 212.243 75.9716C211.803 76.161 211.266 76.2557 210.631 76.2557ZM210.887 74.75C211.55 74.75 212.108 74.6198 212.563 74.3594C213.022 74.099 213.368 73.7628 213.6 73.3509C213.837 72.9389 213.955 72.5057 213.955 72.0511V70.517C213.884 70.6023 213.728 70.6804 213.486 70.7514C213.249 70.8177 212.975 70.8769 212.662 70.929C212.355 70.9763 212.054 71.0189 211.76 71.0568C211.471 71.09 211.237 71.1184 211.057 71.142C210.622 71.1989 210.214 71.2912 209.836 71.419C209.462 71.5421 209.158 71.7292 208.926 71.9801C208.699 72.2263 208.586 72.5625 208.586 72.9886C208.586 73.571 208.801 74.0114 209.232 74.3097C209.667 74.6032 210.219 74.75 210.887 74.75ZM218.69 76V65.0909H220.31V66.7955H220.452C220.679 66.2131 221.046 65.7609 221.553 65.4389C222.059 65.1122 222.668 64.9489 223.378 64.9489C224.098 64.9489 224.696 65.1122 225.175 65.4389C225.658 65.7609 226.034 66.2131 226.304 66.7955H226.418C226.697 66.232 227.116 65.7846 227.675 65.4531C228.233 65.117 228.903 64.9489 229.685 64.9489C230.66 64.9489 231.458 65.2543 232.078 65.8651C232.698 66.4711 233.009 67.4157 233.009 68.6989V76H231.332V68.6989C231.332 67.8939 231.112 67.3187 230.672 66.973C230.232 66.6274 229.713 66.4545 229.116 66.4545C228.349 66.4545 227.755 66.6866 227.334 67.1506C226.912 67.6098 226.702 68.1922 226.702 68.8977V76H224.997V68.5284C224.997 67.9081 224.796 67.4086 224.393 67.0298C223.991 66.6463 223.473 66.4545 222.838 66.4545C222.402 66.4545 221.995 66.5705 221.616 66.8026C221.242 67.0346 220.939 67.3565 220.707 67.7685C220.48 68.1757 220.366 68.6468 220.366 69.1818V76H218.69ZM243.374 69.4375V76H241.698V65.0909H243.317V66.7955H243.46C243.715 66.2415 244.103 65.7964 244.624 65.4602C245.145 65.1193 245.817 64.9489 246.641 64.9489C247.38 64.9489 248.026 65.1004 248.58 65.4034C249.134 65.7017 249.565 66.1562 249.873 66.767C250.181 67.3731 250.335 68.1402 250.335 69.0682V76H248.658V69.1818C248.658 68.3248 248.436 67.6572 247.991 67.179C247.546 66.696 246.935 66.4545 246.158 66.4545C245.623 66.4545 245.145 66.5705 244.724 66.8026C244.307 67.0346 243.978 67.3731 243.737 67.8182C243.495 68.2633 243.374 68.803 243.374 69.4375ZM257.829 76.2273C256.844 76.2273 255.98 75.9929 255.237 75.5241C254.498 75.0554 253.921 74.3996 253.504 73.5568C253.092 72.714 252.886 71.7292 252.886 70.6023C252.886 69.4659 253.092 68.474 253.504 67.6264C253.921 66.7789 254.498 66.1207 255.237 65.652C255.98 65.1832 256.844 64.9489 257.829 64.9489C258.814 64.9489 259.676 65.1832 260.414 65.652C261.158 66.1207 261.735 66.7789 262.147 67.6264C262.564 68.474 262.772 69.4659 262.772 70.6023C262.772 71.7292 262.564 72.714 262.147 73.5568C261.735 74.3996 261.158 75.0554 260.414 75.5241C259.676 75.9929 258.814 76.2273 257.829 76.2273ZM257.829 74.7216C258.577 74.7216 259.193 74.5298 259.676 74.1463C260.159 73.7628 260.516 73.2585 260.748 72.6335C260.98 72.0085 261.096 71.3314 261.096 70.6023C261.096 69.8731 260.98 69.1937 260.748 68.5639C260.516 67.9342 260.159 67.4252 259.676 67.0369C259.193 66.6487 258.577 66.4545 257.829 66.4545C257.081 66.4545 256.466 66.6487 255.983 67.0369C255.5 67.4252 255.142 67.9342 254.91 68.5639C254.678 69.1937 254.562 69.8731 254.562 70.6023C254.562 71.3314 254.678 72.0085 254.91 72.6335C255.142 73.2585 255.5 73.7628 255.983 74.1463C256.466 74.5298 257.081 74.7216 257.829 74.7216ZM270.075 65.0909V66.5114H264.422V65.0909H270.075ZM266.07 62.4773H267.746V72.875C267.746 73.3485 267.814 73.7036 267.952 73.9403C268.094 74.1723 268.274 74.3286 268.491 74.4091C268.714 74.4848 268.948 74.5227 269.195 74.5227C269.379 74.5227 269.531 74.5133 269.649 74.4943C269.768 74.4706 269.862 74.4517 269.933 74.4375L270.274 75.9432C270.161 75.9858 270.002 76.0284 269.798 76.071C269.595 76.1184 269.337 76.142 269.024 76.142C268.551 76.142 268.087 76.0402 267.632 75.8366C267.182 75.633 266.808 75.3229 266.51 74.9062C266.216 74.4896 266.07 73.964 266.07 73.3295V62.4773ZM282.653 76.2273C281.631 76.2273 280.75 75.9858 280.011 75.5028C279.273 75.0199 278.705 74.3546 278.307 73.5071C277.909 72.6596 277.71 71.6913 277.71 70.6023C277.71 69.4943 277.914 68.5166 278.321 67.669C278.733 66.8168 279.306 66.1515 280.04 65.6733C280.778 65.1903 281.64 64.9489 282.625 64.9489C283.392 64.9489 284.083 65.0909 284.699 65.375C285.314 65.6591 285.819 66.0568 286.212 66.5682C286.605 67.0795 286.848 67.6761 286.943 68.358H285.267C285.139 67.8608 284.855 67.4205 284.415 67.0369C283.979 66.6487 283.392 66.4545 282.653 66.4545C282 66.4545 281.427 66.625 280.935 66.9659C280.447 67.3021 280.066 67.7779 279.791 68.3935C279.521 69.0043 279.386 69.7216 279.386 70.5455C279.386 71.3883 279.519 72.1222 279.784 72.7472C280.054 73.3722 280.433 73.8575 280.92 74.2031C281.413 74.5488 281.991 74.7216 282.653 74.7216C283.089 74.7216 283.484 74.6458 283.839 74.4943C284.195 74.3428 284.495 74.125 284.741 73.8409C284.988 73.5568 285.163 73.2159 285.267 72.8182H286.943C286.848 73.4621 286.614 74.0421 286.24 74.5582C285.871 75.0696 285.381 75.4768 284.77 75.7798C284.164 76.0781 283.458 76.2273 282.653 76.2273ZM293.825 76.2273C292.84 76.2273 291.976 75.9929 291.233 75.5241C290.494 75.0554 289.917 74.3996 289.5 73.5568C289.088 72.714 288.882 71.7292 288.882 70.6023C288.882 69.4659 289.088 68.474 289.5 67.6264C289.917 66.7789 290.494 66.1207 291.233 65.652C291.976 65.1832 292.84 64.9489 293.825 64.9489C294.81 64.9489 295.672 65.1832 296.411 65.652C297.154 66.1207 297.732 66.7789 298.143 67.6264C298.56 68.474 298.768 69.4659 298.768 70.6023C298.768 71.7292 298.56 72.714 298.143 73.5568C297.732 74.3996 297.154 75.0554 296.411 75.5241C295.672 75.9929 294.81 76.2273 293.825 76.2273ZM293.825 74.7216C294.573 74.7216 295.189 74.5298 295.672 74.1463C296.155 73.7628 296.512 73.2585 296.744 72.6335C296.976 72.0085 297.092 71.3314 297.092 70.6023C297.092 69.8731 296.976 69.1937 296.744 68.5639C296.512 67.9342 296.155 67.4252 295.672 67.0369C295.189 66.6487 294.573 66.4545 293.825 66.4545C293.077 66.4545 292.462 66.6487 291.979 67.0369C291.496 67.4252 291.138 67.9342 290.906 68.5639C290.674 69.1937 290.558 69.8731 290.558 70.6023C290.558 71.3314 290.674 72.0085 290.906 72.6335C291.138 73.2585 291.496 73.7628 291.979 74.1463C292.462 74.5298 293.077 74.7216 293.825 74.7216ZM303.003 69.4375V76H301.327V65.0909H302.946V66.7955H303.088C303.344 66.2415 303.732 65.7964 304.253 65.4602C304.774 65.1193 305.446 64.9489 306.27 64.9489C307.009 64.9489 307.655 65.1004 308.209 65.4034C308.763 65.7017 309.194 66.1562 309.502 66.767C309.81 67.3731 309.963 68.1402 309.963 69.0682V76H308.287V69.1818C308.287 68.3248 308.065 67.6572 307.62 67.179C307.175 66.696 306.564 66.4545 305.787 66.4545C305.252 66.4545 304.774 66.5705 304.353 66.8026C303.936 67.0346 303.607 67.3731 303.365 67.8182C303.124 68.2633 303.003 68.803 303.003 69.4375ZM320.754 67.5341L319.248 67.9602C319.153 67.7093 319.013 67.4654 318.829 67.2287C318.649 66.9872 318.403 66.7884 318.09 66.6321C317.778 66.4759 317.378 66.3977 316.89 66.3977C316.222 66.3977 315.666 66.5516 315.221 66.8594C314.781 67.1624 314.56 67.5483 314.56 68.017C314.56 68.4337 314.712 68.7628 315.015 69.0043C315.318 69.2457 315.791 69.447 316.435 69.608L318.055 70.0057C319.03 70.2424 319.757 70.6046 320.235 71.0923C320.713 71.5753 320.952 72.1979 320.952 72.9602C320.952 73.5852 320.772 74.1439 320.413 74.6364C320.058 75.1288 319.56 75.517 318.921 75.8011C318.282 76.0852 317.539 76.2273 316.691 76.2273C315.578 76.2273 314.657 75.9858 313.928 75.5028C313.199 75.0199 312.737 74.3144 312.543 73.3864L314.134 72.9886C314.286 73.5758 314.572 74.0161 314.994 74.3097C315.42 74.6032 315.976 74.75 316.663 74.75C317.444 74.75 318.064 74.5843 318.523 74.2528C318.987 73.9167 319.219 73.5142 319.219 73.0455C319.219 72.6667 319.087 72.3494 318.822 72.0938C318.557 71.8333 318.149 71.6392 317.6 71.5114L315.782 71.0852C314.783 70.8485 314.049 70.4815 313.58 69.9844C313.116 69.4825 312.884 68.8551 312.884 68.1023C312.884 67.4867 313.057 66.9422 313.403 66.4688C313.753 65.9953 314.229 65.6236 314.83 65.3537C315.436 65.0838 316.123 64.9489 316.89 64.9489C317.969 64.9489 318.817 65.1856 319.433 65.6591C320.053 66.1326 320.493 66.7576 320.754 67.5341ZM323.475 76V65.0909H325.152V76H323.475ZM324.328 63.2727C324.001 63.2727 323.719 63.1615 323.483 62.9389C323.251 62.7164 323.135 62.4489 323.135 62.1364C323.135 61.8239 323.251 61.5563 323.483 61.3338C323.719 61.1113 324.001 61 324.328 61C324.654 61 324.934 61.1113 325.166 61.3338C325.403 61.5563 325.521 61.8239 325.521 62.1364C325.521 62.4489 325.403 62.7164 325.166 62.9389C324.934 63.1615 324.654 63.2727 324.328 63.2727ZM335.949 67.5341L334.443 67.9602C334.348 67.7093 334.209 67.4654 334.024 67.2287C333.844 66.9872 333.598 66.7884 333.286 66.6321C332.973 66.4759 332.573 66.3977 332.085 66.3977C331.418 66.3977 330.861 66.5516 330.416 66.8594C329.976 67.1624 329.756 67.5483 329.756 68.017C329.756 68.4337 329.907 68.7628 330.21 69.0043C330.513 69.2457 330.987 69.447 331.631 69.608L333.25 70.0057C334.225 70.2424 334.952 70.6046 335.43 71.0923C335.909 71.5753 336.148 72.1979 336.148 72.9602C336.148 73.5852 335.968 74.1439 335.608 74.6364C335.253 75.1288 334.756 75.517 334.116 75.8011C333.477 76.0852 332.734 76.2273 331.886 76.2273C330.774 76.2273 329.853 75.9858 329.124 75.5028C328.394 75.0199 327.933 74.3144 327.739 73.3864L329.33 72.9886C329.481 73.5758 329.768 74.0161 330.189 74.3097C330.615 74.6032 331.171 74.75 331.858 74.75C332.639 74.75 333.259 74.5843 333.719 74.2528C334.183 73.9167 334.415 73.5142 334.415 73.0455C334.415 72.6667 334.282 72.3494 334.017 72.0938C333.752 71.8333 333.345 71.6392 332.795 71.5114L330.977 71.0852C329.978 70.8485 329.244 70.4815 328.776 69.9844C328.312 69.4825 328.08 68.8551 328.08 68.1023C328.08 67.4867 328.252 66.9422 328.598 66.4688C328.948 65.9953 329.424 65.6236 330.026 65.3537C330.632 65.0838 331.318 64.9489 332.085 64.9489C333.165 64.9489 334.012 65.1856 334.628 65.6591C335.248 66.1326 335.688 66.7576 335.949 67.5341ZM343.415 65.0909V66.5114H337.762V65.0909H343.415ZM339.409 62.4773H341.086V72.875C341.086 73.3485 341.154 73.7036 341.292 73.9403C341.434 74.1723 341.614 74.3286 341.831 74.4091C342.054 74.4848 342.288 74.5227 342.534 74.5227C342.719 74.5227 342.871 74.5133 342.989 74.4943C343.107 74.4706 343.202 74.4517 343.273 74.4375L343.614 75.9432C343.5 75.9858 343.342 76.0284 343.138 76.071C342.935 76.1184 342.676 76.142 342.364 76.142C341.891 76.142 341.426 76.0402 340.972 75.8366C340.522 75.633 340.148 75.3229 339.85 74.9062C339.556 74.4896 339.409 73.964 339.409 73.3295V62.4773ZM350.393 76.2273C349.342 76.2273 348.435 75.9953 347.673 75.5312C346.915 75.0625 346.331 74.4091 345.919 73.571C345.511 72.7282 345.308 71.7481 345.308 70.6307C345.308 69.5133 345.511 68.5284 345.919 67.6761C346.331 66.8191 346.904 66.1515 347.637 65.6733C348.376 65.1903 349.238 64.9489 350.223 64.9489C350.791 64.9489 351.352 65.0436 351.906 65.233C352.46 65.4223 352.964 65.7301 353.419 66.1562C353.873 66.5777 354.235 67.1364 354.505 67.8324C354.775 68.5284 354.91 69.3854 354.91 70.4034V71.1136H346.501V69.6648H353.206C353.206 69.0492 353.083 68.5 352.836 68.017C352.595 67.5341 352.249 67.1529 351.799 66.8736C351.354 66.5942 350.829 66.4545 350.223 66.4545C349.555 66.4545 348.977 66.6203 348.49 66.9517C348.007 67.2784 347.635 67.7045 347.375 68.2301C347.114 68.7557 346.984 69.3191 346.984 69.9205V70.8864C346.984 71.7102 347.126 72.4086 347.41 72.9815C347.699 73.5497 348.099 73.983 348.61 74.2812C349.122 74.5748 349.716 74.7216 350.393 74.7216C350.833 74.7216 351.231 74.66 351.586 74.5369C351.946 74.4091 352.256 74.2197 352.517 73.9688C352.777 73.7131 352.978 73.3958 353.12 73.017L354.74 73.4716C354.569 74.0208 354.283 74.5038 353.88 74.9205C353.478 75.3324 352.981 75.6544 352.389 75.8864C351.797 76.1136 351.132 76.2273 350.393 76.2273ZM359.136 69.4375V76H357.46V65.0909H359.079V66.7955H359.221C359.477 66.2415 359.865 65.7964 360.386 65.4602C360.907 65.1193 361.579 64.9489 362.403 64.9489C363.142 64.9489 363.788 65.1004 364.342 65.4034C364.896 65.7017 365.327 66.1562 365.635 66.767C365.942 67.3731 366.096 68.1402 366.096 69.0682V76H364.42V69.1818C364.42 68.3248 364.198 67.6572 363.752 67.179C363.307 66.696 362.697 66.4545 361.92 66.4545C361.385 66.4545 360.907 66.5705 360.485 66.8026C360.069 67.0346 359.74 67.3731 359.498 67.8182C359.257 68.2633 359.136 68.803 359.136 69.4375ZM373.903 65.0909V66.5114H368.25V65.0909H373.903ZM369.898 62.4773H371.574V72.875C371.574 73.3485 371.643 73.7036 371.78 73.9403C371.922 74.1723 372.102 74.3286 372.32 74.4091C372.542 74.4848 372.777 74.5227 373.023 74.5227C373.207 74.5227 373.359 74.5133 373.477 74.4943C373.596 74.4706 373.69 74.4517 373.761 74.4375L374.102 75.9432C373.989 75.9858 373.83 76.0284 373.626 76.071C373.423 76.1184 373.165 76.142 372.852 76.142C372.379 76.142 371.915 76.0402 371.46 75.8366C371.01 75.633 370.636 75.3229 370.338 74.9062C370.045 74.4896 369.898 73.964 369.898 73.3295V62.4773ZM384.521 76L381.197 65.0909H382.959L385.317 73.4432H385.43L387.76 65.0909H389.55L391.851 73.4148H391.964L394.322 65.0909H396.084L392.76 76H391.112L388.726 67.6193H388.555L386.169 76H384.521ZM398.3 76V65.0909H399.976V76H398.3ZM399.152 63.2727C398.825 63.2727 398.544 63.1615 398.307 62.9389C398.075 62.7164 397.959 62.4489 397.959 62.1364C397.959 61.8239 398.075 61.5563 398.307 61.3338C398.544 61.1113 398.825 61 399.152 61C399.479 61 399.758 61.1113 399.99 61.3338C400.227 61.5563 400.345 61.8239 400.345 62.1364C400.345 62.4489 400.227 62.7164 399.99 62.9389C399.758 63.1615 399.479 63.2727 399.152 63.2727ZM407.79 65.0909V66.5114H402.137V65.0909H407.79ZM403.784 62.4773H405.461V72.875C405.461 73.3485 405.529 73.7036 405.667 73.9403C405.809 74.1723 405.989 74.3286 406.206 74.4091C406.429 74.4848 406.663 74.5227 406.909 74.5227C407.094 74.5227 407.246 74.5133 407.364 74.4943C407.482 74.4706 407.577 74.4517 407.648 74.4375L407.989 75.9432C407.875 75.9858 407.717 76.0284 407.513 76.071C407.31 76.1184 407.051 76.142 406.739 76.142C406.266 76.142 405.801 76.0402 405.347 75.8366C404.897 75.633 404.523 75.3229 404.225 74.9062C403.931 74.4896 403.784 73.964 403.784 73.3295V62.4773ZM412.222 69.4375V76H410.546V61.4545H412.222V66.7955H412.364C412.62 66.232 413.003 65.7846 413.515 65.4531C414.031 65.117 414.717 64.9489 415.574 64.9489C416.318 64.9489 416.969 65.098 417.527 65.3963C418.086 65.6899 418.519 66.142 418.827 66.7528C419.14 67.3589 419.296 68.1307 419.296 69.0682V76H417.62V69.1818C417.62 68.3153 417.395 67.6454 416.945 67.1719C416.5 66.6937 415.882 66.4545 415.091 66.4545C414.542 66.4545 414.05 66.5705 413.614 66.8026C413.183 67.0346 412.842 67.3731 412.591 67.8182C412.345 68.2633 412.222 68.803 412.222 69.4375ZM427.987 76V65.0909H429.663V76H427.987ZM428.839 63.2727C428.513 63.2727 428.231 63.1615 427.994 62.9389C427.762 62.7164 427.646 62.4489 427.646 62.1364C427.646 61.8239 427.762 61.5563 427.994 61.3338C428.231 61.1113 428.513 61 428.839 61C429.166 61 429.446 61.1113 429.678 61.3338C429.914 61.5563 430.033 61.8239 430.033 62.1364C430.033 62.4489 429.914 62.7164 429.678 62.9389C429.446 63.1615 429.166 63.2727 428.839 63.2727ZM437.478 65.0909V66.5114H431.824V65.0909H437.478ZM433.472 62.4773H435.148V72.875C435.148 73.3485 435.217 73.7036 435.354 73.9403C435.496 74.1723 435.676 74.3286 435.894 74.4091C436.116 74.4848 436.351 74.5227 436.597 74.5227C436.782 74.5227 436.933 74.5133 437.051 74.4943C437.17 74.4706 437.265 74.4517 437.336 74.4375L437.676 75.9432C437.563 75.9858 437.404 76.0284 437.201 76.071C436.997 76.1184 436.739 76.142 436.426 76.142C435.953 76.142 435.489 76.0402 435.034 75.8366C434.585 75.633 434.211 75.3229 433.912 74.9062C433.619 74.4896 433.472 73.964 433.472 73.3295V62.4773ZM441.221 76.1136C440.87 76.1136 440.569 75.9882 440.319 75.7372C440.068 75.4863 439.942 75.1856 439.942 74.8352C439.942 74.4848 440.068 74.1842 440.319 73.9332C440.569 73.6823 440.87 73.5568 441.221 73.5568C441.571 73.5568 441.872 73.6823 442.123 73.9332C442.373 74.1842 442.499 74.4848 442.499 74.8352C442.499 75.0672 442.44 75.2803 442.321 75.4744C442.208 75.6686 442.054 75.8248 441.86 75.9432C441.67 76.0568 441.457 76.1136 441.221 76.1136ZM453.12 61.4545V76H451.359V61.4545H453.12ZM466.169 76.2273C465.26 76.2273 464.457 75.9976 463.761 75.5384C463.065 75.0743 462.521 74.4209 462.128 73.5781C461.735 72.7306 461.538 71.7292 461.538 70.5739C461.538 69.428 461.735 68.4337 462.128 67.5909C462.521 66.7481 463.068 66.0971 463.768 65.6378C464.469 65.1785 465.279 64.9489 466.197 64.9489C466.908 64.9489 467.469 65.0672 467.881 65.304C468.297 65.536 468.615 65.8011 468.832 66.0994C469.055 66.393 469.228 66.6345 469.351 66.8239H469.493V61.4545H471.169V76H469.55V74.3239H469.351C469.228 74.5227 469.053 74.7737 468.825 75.0767C468.598 75.375 468.274 75.6425 467.852 75.8793C467.431 76.1113 466.87 76.2273 466.169 76.2273ZM466.396 74.7216C467.069 74.7216 467.637 74.5464 468.101 74.196C468.565 73.8409 468.918 73.3509 469.159 72.7259C469.401 72.0961 469.521 71.3693 469.521 70.5455C469.521 69.7311 469.403 69.0185 469.166 68.4077C468.929 67.7921 468.579 67.3139 468.115 66.973C467.651 66.6274 467.078 66.4545 466.396 66.4545C465.686 66.4545 465.094 66.6368 464.621 67.0014C464.152 67.3613 463.799 67.8513 463.562 68.4716C463.33 69.0871 463.214 69.7784 463.214 70.5455C463.214 71.322 463.333 72.0275 463.57 72.6619C463.811 73.2917 464.166 73.7936 464.635 74.1676C465.108 74.5369 465.696 74.7216 466.396 74.7216ZM478.903 76.2273C477.919 76.2273 477.054 75.9929 476.311 75.5241C475.572 75.0554 474.995 74.3996 474.578 73.5568C474.166 72.714 473.96 71.7292 473.96 70.6023C473.96 69.4659 474.166 68.474 474.578 67.6264C474.995 66.7789 475.572 66.1207 476.311 65.652C477.054 65.1832 477.919 64.9489 478.903 64.9489C479.888 64.9489 480.75 65.1832 481.489 65.652C482.232 66.1207 482.81 66.7789 483.222 67.6264C483.638 68.474 483.847 69.4659 483.847 70.6023C483.847 71.7292 483.638 72.714 483.222 73.5568C482.81 74.3996 482.232 75.0554 481.489 75.5241C480.75 75.9929 479.888 76.2273 478.903 76.2273ZM478.903 74.7216C479.652 74.7216 480.267 74.5298 480.75 74.1463C481.233 73.7628 481.59 73.2585 481.822 72.6335C482.054 72.0085 482.17 71.3314 482.17 70.6023C482.17 69.8731 482.054 69.1937 481.822 68.5639C481.59 67.9342 481.233 67.4252 480.75 67.0369C480.267 66.6487 479.652 66.4545 478.903 66.4545C478.155 66.4545 477.54 66.6487 477.057 67.0369C476.574 67.4252 476.216 67.9342 475.984 68.5639C475.752 69.1937 475.636 69.8731 475.636 70.6023C475.636 71.3314 475.752 72.0085 475.984 72.6335C476.216 73.2585 476.574 73.7628 477.057 74.1463C477.54 74.5298 478.155 74.7216 478.903 74.7216ZM492.03 76V65.0909H493.706V76H492.03ZM492.882 63.2727C492.556 63.2727 492.274 63.1615 492.037 62.9389C491.805 62.7164 491.689 62.4489 491.689 62.1364C491.689 61.8239 491.805 61.5563 492.037 61.3338C492.274 61.1113 492.556 61 492.882 61C493.209 61 493.489 61.1113 493.721 61.3338C493.957 61.5563 494.076 61.8239 494.076 62.1364C494.076 62.4489 493.957 62.7164 493.721 62.9389C493.489 63.1615 493.209 63.2727 492.882 63.2727ZM501.521 65.0909V66.5114H495.867V65.0909H501.521ZM497.515 62.4773H499.191V72.875C499.191 73.3485 499.26 73.7036 499.397 73.9403C499.539 74.1723 499.719 74.3286 499.937 74.4091C500.159 74.4848 500.394 74.5227 500.64 74.5227C500.825 74.5227 500.976 74.5133 501.094 74.4943C501.213 74.4706 501.308 74.4517 501.379 74.4375L501.719 75.9432C501.606 75.9858 501.447 76.0284 501.244 76.071C501.04 76.1184 500.782 76.142 500.469 76.142C499.996 76.142 499.532 76.0402 499.077 75.8366C498.628 75.633 498.254 75.3229 497.955 74.9062C497.662 74.4896 497.515 73.964 497.515 73.3295V62.4773ZM514.099 76.2273C513.114 76.2273 512.25 75.9929 511.506 75.5241C510.768 75.0554 510.19 74.3996 509.773 73.5568C509.362 72.714 509.156 71.7292 509.156 70.6023C509.156 69.4659 509.362 68.474 509.773 67.6264C510.19 66.7789 510.768 66.1207 511.506 65.652C512.25 65.1832 513.114 64.9489 514.099 64.9489C515.084 64.9489 515.945 65.1832 516.684 65.652C517.427 66.1207 518.005 66.7789 518.417 67.6264C518.834 68.474 519.042 69.4659 519.042 70.6023C519.042 71.7292 518.834 72.714 518.417 73.5568C518.005 74.3996 517.427 75.0554 516.684 75.5241C515.945 75.9929 515.084 76.2273 514.099 76.2273ZM514.099 74.7216C514.847 74.7216 515.462 74.5298 515.945 74.1463C516.428 73.7628 516.786 73.2585 517.018 72.6335C517.25 72.0085 517.366 71.3314 517.366 70.6023C517.366 69.8731 517.25 69.1937 517.018 68.5639C516.786 67.9342 516.428 67.4252 515.945 67.0369C515.462 66.6487 514.847 66.4545 514.099 66.4545C513.351 66.4545 512.735 66.6487 512.252 67.0369C511.769 67.4252 511.412 67.9342 511.18 68.5639C510.948 69.1937 510.832 69.8731 510.832 70.6023C510.832 71.3314 510.948 72.0085 511.18 72.6335C511.412 73.2585 511.769 73.7628 512.252 74.1463C512.735 74.5298 513.351 74.7216 514.099 74.7216ZM523.277 69.4375V76H521.6V65.0909H523.22V66.7955H523.362C523.618 66.2415 524.006 65.7964 524.527 65.4602C525.047 65.1193 525.72 64.9489 526.544 64.9489C527.282 64.9489 527.929 65.1004 528.483 65.4034C529.037 65.7017 529.467 66.1562 529.775 66.767C530.083 67.3731 530.237 68.1402 530.237 69.0682V76H528.561V69.1818C528.561 68.3248 528.338 67.6572 527.893 67.179C527.448 66.696 526.837 66.4545 526.061 66.4545C525.526 66.4545 525.047 66.5705 524.626 66.8026C524.209 67.0346 523.88 67.3731 523.639 67.8182C523.397 68.2633 523.277 68.803 523.277 69.4375ZM534.976 61.4545V76H533.3V61.4545H534.976ZM539.125 80.0909C538.841 80.0909 538.588 80.0672 538.365 80.0199C538.143 79.9773 537.989 79.9347 537.904 79.892L538.33 78.4148C538.737 78.5189 539.097 78.5568 539.409 78.5284C539.722 78.5 539.999 78.3603 540.24 78.1094C540.487 77.8632 540.712 77.4631 540.915 76.9091L541.228 76.0568L537.194 65.0909H539.012L542.023 73.7841H542.137L545.148 65.0909H546.966L542.336 77.5909C542.127 78.1544 541.869 78.6207 541.561 78.9901C541.254 79.3641 540.896 79.6411 540.489 79.821C540.087 80.0009 539.632 80.0909 539.125 80.0909ZM51.0057 106L47.6818 95.0909H49.4432L51.8011 103.443H51.9148L54.2443 95.0909H56.0341L58.3352 103.415H58.4489L60.8068 95.0909H62.5682L59.2443 106H57.5966L55.2102 97.6193H55.0398L52.6534 106H51.0057ZM66.4602 99.4375V106H64.7841V91.4545H66.4602V96.7955H66.6023C66.858 96.232 67.2415 95.7846 67.7528 95.4531C68.2689 95.117 68.9555 94.9489 69.8125 94.9489C70.5559 94.9489 71.2069 95.098 71.7656 95.3963C72.3243 95.6899 72.7576 96.142 73.0653 96.7528C73.3778 97.3589 73.5341 98.1307 73.5341 99.0682V106H71.858V99.1818C71.858 98.3153 71.633 97.6454 71.1832 97.1719C70.7382 96.6937 70.1203 96.4545 69.3295 96.4545C68.7803 96.4545 68.2879 96.5705 67.8523 96.8026C67.4214 97.0346 67.0805 97.3731 66.8295 97.8182C66.5833 98.2633 66.4602 98.803 66.4602 99.4375ZM81.1744 106.227C80.1232 106.227 79.2165 105.995 78.4542 105.531C77.6966 105.062 77.1119 104.409 76.6999 103.571C76.2927 102.728 76.0891 101.748 76.0891 100.631C76.0891 99.5133 76.2927 98.5284 76.6999 97.6761C77.1119 96.8191 77.6848 96.1515 78.4187 95.6733C79.1573 95.1903 80.0191 94.9489 81.0039 94.9489C81.5721 94.9489 82.1332 95.0436 82.6871 95.233C83.2411 95.4223 83.7454 95.7301 84.1999 96.1562C84.6545 96.5777 85.0167 97.1364 85.2866 97.8324C85.5565 98.5284 85.6914 99.3854 85.6914 100.403V101.114H77.2823V99.6648H83.9869C83.9869 99.0492 83.8638 98.5 83.6175 98.017C83.3761 97.5341 83.0304 97.1529 82.5806 96.8736C82.1355 96.5942 81.61 96.4545 81.0039 96.4545C80.3363 96.4545 79.7586 96.6203 79.271 96.9517C78.788 97.2784 78.4163 97.7045 78.1559 98.2301C77.8955 98.7557 77.7653 99.3191 77.7653 99.9205V100.886C77.7653 101.71 77.9073 102.409 78.1914 102.982C78.4802 103.55 78.8803 103.983 79.3917 104.281C79.9031 104.575 80.4973 104.722 81.1744 104.722C81.6147 104.722 82.0124 104.66 82.3675 104.537C82.7274 104.409 83.0375 104.22 83.2979 103.969C83.5584 103.713 83.7596 103.396 83.9016 103.017L85.521 103.472C85.3505 104.021 85.064 104.504 84.6616 104.92C84.2591 105.332 83.762 105.654 83.1701 105.886C82.5782 106.114 81.913 106.227 81.1744 106.227ZM89.9173 99.4375V106H88.2411V95.0909H89.8604V96.7955H90.0025C90.2582 96.2415 90.6464 95.7964 91.1673 95.4602C91.6881 95.1193 92.3604 94.9489 93.1843 94.9489C93.9229 94.9489 94.5692 95.1004 95.1232 95.4034C95.6772 95.7017 96.1081 96.1562 96.4158 96.767C96.7236 97.3731 96.8775 98.1402 96.8775 99.0682V106H95.2013V99.1818C95.2013 98.3248 94.9788 97.6572 94.5337 97.179C94.0887 96.696 93.4779 96.4545 92.7013 96.4545C92.1663 96.4545 91.6881 96.5705 91.2667 96.8026C90.85 97.0346 90.521 97.3731 90.2795 97.8182C90.038 98.2633 89.9173 98.803 89.9173 99.4375ZM105.565 106V95.0909H107.241V106H105.565ZM106.418 93.2727C106.091 93.2727 105.809 93.1615 105.572 92.9389C105.34 92.7164 105.224 92.4489 105.224 92.1364C105.224 91.8239 105.34 91.5563 105.572 91.3338C105.809 91.1113 106.091 91 106.418 91C106.744 91 107.024 91.1113 107.256 91.3338C107.492 91.5563 107.611 91.8239 107.611 92.1364C107.611 92.4489 107.492 92.7164 107.256 92.9389C107.024 93.1615 106.744 93.2727 106.418 93.2727ZM115.936 106V95.0909H117.556V96.7386H117.669C117.868 96.1989 118.228 95.7609 118.749 95.4247C119.27 95.0885 119.857 94.9205 120.51 94.9205C120.633 94.9205 120.787 94.9228 120.972 94.9276C121.157 94.9323 121.296 94.9394 121.391 94.9489V96.6534C121.334 96.6392 121.204 96.6179 121 96.5895C120.801 96.5563 120.591 96.5398 120.368 96.5398C119.838 96.5398 119.364 96.651 118.948 96.8736C118.536 97.0914 118.209 97.3944 117.968 97.7827C117.731 98.1662 117.613 98.6042 117.613 99.0966V106H115.936ZM127.62 106.227C126.569 106.227 125.662 105.995 124.9 105.531C124.142 105.062 123.557 104.409 123.145 103.571C122.738 102.728 122.534 101.748 122.534 100.631C122.534 99.5133 122.738 98.5284 123.145 97.6761C123.557 96.8191 124.13 96.1515 124.864 95.6733C125.603 95.1903 126.464 94.9489 127.449 94.9489C128.017 94.9489 128.578 95.0436 129.132 95.233C129.686 95.4223 130.191 95.7301 130.645 96.1562C131.1 96.5777 131.462 97.1364 131.732 97.8324C132.002 98.5284 132.137 99.3854 132.137 100.403V101.114H123.728V99.6648H130.432C130.432 99.0492 130.309 98.5 130.063 98.017C129.821 97.5341 129.476 97.1529 129.026 96.8736C128.581 96.5942 128.055 96.4545 127.449 96.4545C126.782 96.4545 126.204 96.6203 125.716 96.9517C125.233 97.2784 124.862 97.7045 124.601 98.2301C124.341 98.7557 124.211 99.3191 124.211 99.9205V100.886C124.211 101.71 124.353 102.409 124.637 102.982C124.926 103.55 125.326 103.983 125.837 104.281C126.348 104.575 126.943 104.722 127.62 104.722C128.06 104.722 128.458 104.66 128.813 104.537C129.173 104.409 129.483 104.22 129.743 103.969C130.004 103.713 130.205 103.396 130.347 103.017L131.966 103.472C131.796 104.021 131.509 104.504 131.107 104.92C130.704 105.332 130.207 105.654 129.615 105.886C129.024 106.114 128.358 106.227 127.62 106.227ZM134.686 106V95.0909H136.306V96.7955H136.448C136.675 96.2131 137.042 95.7609 137.549 95.4389C138.055 95.1122 138.664 94.9489 139.374 94.9489C140.094 94.9489 140.693 95.1122 141.171 95.4389C141.654 95.7609 142.03 96.2131 142.3 96.7955H142.414C142.693 96.232 143.112 95.7846 143.671 95.4531C144.23 95.117 144.9 94.9489 145.681 94.9489C146.656 94.9489 147.454 95.2543 148.074 95.8651C148.694 96.4711 149.005 97.4157 149.005 98.6989V106H147.328V98.6989C147.328 97.8939 147.108 97.3187 146.668 96.973C146.228 96.6274 145.709 96.4545 145.113 96.4545C144.346 96.4545 143.751 96.6866 143.33 97.1506C142.908 97.6098 142.698 98.1922 142.698 98.8977V106H140.993V98.5284C140.993 97.9081 140.792 97.4086 140.39 97.0298C139.987 96.6463 139.469 96.4545 138.834 96.4545C138.399 96.4545 137.991 96.5705 137.613 96.8026C137.239 97.0346 136.935 97.3565 136.703 97.7685C136.476 98.1757 136.363 98.6468 136.363 99.1818V106H134.686ZM156.643 106.227C155.592 106.227 154.685 105.995 153.923 105.531C153.165 105.062 152.581 104.409 152.169 103.571C151.761 102.728 151.558 101.748 151.558 100.631C151.558 99.5133 151.761 98.5284 152.169 97.6761C152.581 96.8191 153.154 96.1515 153.887 95.6733C154.626 95.1903 155.488 94.9489 156.473 94.9489C157.041 94.9489 157.602 95.0436 158.156 95.233C158.71 95.4223 159.214 95.7301 159.669 96.1562C160.123 96.5777 160.485 97.1364 160.755 97.8324C161.025 98.5284 161.16 99.3854 161.16 100.403V101.114H152.751V99.6648H159.456C159.456 99.0492 159.333 98.5 159.086 98.017C158.845 97.5341 158.499 97.1529 158.049 96.8736C157.604 96.5942 157.079 96.4545 156.473 96.4545C155.805 96.4545 155.227 96.6203 154.74 96.9517C154.257 97.2784 153.885 97.7045 153.625 98.2301C153.364 98.7557 153.234 99.3191 153.234 99.9205V100.886C153.234 101.71 153.376 102.409 153.66 102.982C153.949 103.55 154.349 103.983 154.86 104.281C155.372 104.575 155.966 104.722 156.643 104.722C157.083 104.722 157.481 104.66 157.836 104.537C158.196 104.409 158.506 104.22 158.767 103.969C159.027 103.713 159.228 103.396 159.37 103.017L160.99 103.472C160.819 104.021 160.533 104.504 160.13 104.92C159.728 105.332 159.231 105.654 158.639 105.886C158.047 106.114 157.382 106.227 156.643 106.227ZM163.71 106V95.0909H165.329V96.7955H165.471C165.699 96.2131 166.065 95.7609 166.572 95.4389C167.079 95.1122 167.687 94.9489 168.397 94.9489C169.117 94.9489 169.716 95.1122 170.194 95.4389C170.677 95.7609 171.054 96.2131 171.324 96.7955H171.437C171.717 96.232 172.136 95.7846 172.694 95.4531C173.253 95.117 173.923 94.9489 174.704 94.9489C175.68 94.9489 176.477 95.2543 177.098 95.8651C177.718 96.4711 178.028 97.4157 178.028 98.6989V106H176.352V98.6989C176.352 97.8939 176.132 97.3187 175.691 96.973C175.251 96.6274 174.733 96.4545 174.136 96.4545C173.369 96.4545 172.775 96.6866 172.353 97.1506C171.932 97.6098 171.721 98.1922 171.721 98.8977V106H170.017V98.5284C170.017 97.9081 169.815 97.4086 169.413 97.0298C169.011 96.6463 168.492 96.4545 167.858 96.4545C167.422 96.4545 167.015 96.5705 166.636 96.8026C166.262 97.0346 165.959 97.3565 165.727 97.7685C165.5 98.1757 165.386 98.6468 165.386 99.1818V106H163.71ZM181.32 106V91.4545H182.996V96.8239H183.138C183.261 96.6345 183.432 96.393 183.65 96.0994C183.872 95.8011 184.189 95.536 184.601 95.304C185.018 95.0672 185.581 94.9489 186.292 94.9489C187.21 94.9489 188.02 95.1785 188.721 95.6378C189.421 96.0971 189.968 96.7481 190.361 97.5909C190.754 98.4337 190.951 99.428 190.951 100.574C190.951 101.729 190.754 102.731 190.361 103.578C189.968 104.421 189.424 105.074 188.728 105.538C188.032 105.998 187.229 106.227 186.32 106.227C185.619 106.227 185.058 106.111 184.637 105.879C184.215 105.643 183.891 105.375 183.664 105.077C183.436 104.774 183.261 104.523 183.138 104.324H182.939V106H181.32ZM182.968 100.545C182.968 101.369 183.088 102.096 183.33 102.726C183.571 103.351 183.924 103.841 184.388 104.196C184.852 104.546 185.42 104.722 186.093 104.722C186.793 104.722 187.378 104.537 187.847 104.168C188.32 103.794 188.676 103.292 188.912 102.662C189.154 102.027 189.275 101.322 189.275 100.545C189.275 99.7784 189.156 99.0871 188.919 98.4716C188.687 97.8513 188.335 97.3613 187.861 97.0014C187.392 96.6368 186.803 96.4545 186.093 96.4545C185.411 96.4545 184.838 96.6274 184.374 96.973C183.91 97.3139 183.56 97.7921 183.323 98.4077C183.086 99.0185 182.968 99.7311 182.968 100.545ZM198.088 106.227C197.037 106.227 196.131 105.995 195.368 105.531C194.611 105.062 194.026 104.409 193.614 103.571C193.207 102.728 193.003 101.748 193.003 100.631C193.003 99.5133 193.207 98.5284 193.614 97.6761C194.026 96.8191 194.599 96.1515 195.333 95.6733C196.071 95.1903 196.933 94.9489 197.918 94.9489C198.486 94.9489 199.047 95.0436 199.601 95.233C200.155 95.4223 200.659 95.7301 201.114 96.1562C201.569 96.5777 201.931 97.1364 202.201 97.8324C202.471 98.5284 202.605 99.3854 202.605 100.403V101.114H194.196V99.6648H200.901C200.901 99.0492 200.778 98.5 200.532 98.017C200.29 97.5341 199.944 97.1529 199.495 96.8736C199.05 96.5942 198.524 96.4545 197.918 96.4545C197.25 96.4545 196.673 96.6203 196.185 96.9517C195.702 97.2784 195.33 97.7045 195.07 98.2301C194.81 98.7557 194.679 99.3191 194.679 99.9205V100.886C194.679 101.71 194.821 102.409 195.105 102.982C195.394 103.55 195.794 103.983 196.306 104.281C196.817 104.575 197.411 104.722 198.088 104.722C198.529 104.722 198.926 104.66 199.282 104.537C199.641 104.409 199.952 104.22 200.212 103.969C200.472 103.713 200.674 103.396 200.816 103.017L202.435 103.472C202.265 104.021 201.978 104.504 201.576 104.92C201.173 105.332 200.676 105.654 200.084 105.886C199.492 106.114 198.827 106.227 198.088 106.227ZM205.155 106V95.0909H206.775V96.7386H206.888C207.087 96.1989 207.447 95.7609 207.968 95.4247C208.489 95.0885 209.076 94.9205 209.729 94.9205C209.852 94.9205 210.006 94.9228 210.191 94.9276C210.375 94.9323 210.515 94.9394 210.61 94.9489V96.6534C210.553 96.6392 210.423 96.6179 210.219 96.5895C210.02 96.5563 209.81 96.5398 209.587 96.5398C209.057 96.5398 208.583 96.651 208.167 96.8736C207.755 97.0914 207.428 97.3944 207.186 97.7827C206.95 98.1662 206.831 98.6042 206.831 99.0966V106H205.155ZM212.568 106.114C212.218 106.114 211.917 105.988 211.666 105.737C211.415 105.486 211.29 105.186 211.29 104.835C211.29 104.485 211.415 104.184 211.666 103.933C211.917 103.682 212.218 103.557 212.568 103.557C212.919 103.557 213.219 103.682 213.47 103.933C213.721 104.184 213.847 104.485 213.847 104.835C213.847 105.067 213.787 105.28 213.669 105.474C213.555 105.669 213.402 105.825 213.207 105.943C213.018 106.057 212.805 106.114 212.568 106.114Z" fill="white"/>
<path d="M16.7882 23.9626C16.7882 22.6243 16.4432 21.502 15.7532 20.591C15.2642 19.9645 14.6012 19.5524 13.7627 19.3562C12.9377 19.1615 12.1577 19.1478 11.4527 19.3136C11.2127 17.8689 11.6027 16.339 12.5927 14.7179C13.5827 13.0983 14.8652 11.8786 16.4297 11.0635L14.0597 7.60376C12.8597 8.20598 11.7197 8.9694 10.6697 9.8925C9.60469 10.8156 8.65969 11.8771 7.81969 13.077C6.97969 14.2769 6.34969 15.6318 5.94469 17.1678C5.53969 18.7038 5.42569 20.2702 5.61919 21.8822C5.87119 24.0112 6.54919 25.7145 7.65319 26.9767C8.75569 28.2542 10.1312 28.8929 11.7752 28.8929C13.2227 28.8929 14.4242 28.4519 15.3752 27.5576C16.3172 26.6817 16.7852 25.4818 16.7852 23.9565L16.7882 23.9611V23.9626ZM30.4742 23.9626C30.4742 22.6243 30.1292 21.502 29.4392 20.591C28.9502 19.9523 28.2842 19.5387 27.4487 19.3486C26.6087 19.16 25.8377 19.1509 25.1387 19.3151C24.8987 17.8856 25.2737 16.3496 26.2637 14.7224C27.2537 13.1104 28.5347 11.8938 30.0992 11.0726L27.7352 7.60376C26.5352 8.20598 25.4027 8.9694 24.3452 9.8925C23.2832 10.8156 22.3352 11.8771 21.5042 13.077C20.6702 14.2784 20.0492 15.6318 19.6442 17.1678C19.2347 18.6886 19.1267 20.2702 19.3187 21.8822C19.5662 24.0112 20.2412 25.7145 21.3437 26.9767C22.4417 28.2435 23.8127 28.8777 25.4567 28.8777C26.9072 28.8777 28.1087 28.4366 29.0597 27.5455C30.0002 26.6695 30.4727 25.4696 30.4727 23.9443V23.9595L30.4742 23.9626Z" fill="#F3F3F3"/>
</svg>
