<svg width="543" height="112" viewBox="0 0 543 112" fill="none" xmlns="http://www.w3.org/2000/svg">
<path d="M411.278 100.438H408.79C408.744 100.116 408.652 99.8295 408.511 99.5795C408.371 99.3258 408.191 99.1098 407.972 98.9318C407.752 98.7538 407.498 98.6174 407.21 98.5227C406.926 98.428 406.617 98.3807 406.284 98.3807C405.682 98.3807 405.157 98.5303 404.71 98.8295C404.263 99.125 403.917 99.5568 403.67 100.125C403.424 100.689 403.301 101.375 403.301 102.182C403.301 103.011 403.424 103.708 403.67 104.273C403.92 104.837 404.269 105.263 404.716 105.551C405.163 105.839 405.68 105.983 406.267 105.983C406.597 105.983 406.902 105.939 407.182 105.852C407.466 105.765 407.718 105.638 407.938 105.472C408.157 105.301 408.339 105.095 408.483 104.852C408.631 104.61 408.733 104.333 408.79 104.023L411.278 104.034C411.214 104.568 411.053 105.083 410.795 105.58C410.542 106.072 410.199 106.513 409.767 106.903C409.339 107.29 408.828 107.597 408.233 107.824C407.642 108.047 406.973 108.159 406.227 108.159C405.189 108.159 404.261 107.924 403.443 107.455C402.629 106.985 401.985 106.305 401.511 105.415C401.042 104.525 400.807 103.447 400.807 102.182C400.807 100.913 401.045 99.8333 401.523 98.9432C402 98.053 402.648 97.375 403.466 96.9091C404.284 96.4394 405.205 96.2045 406.227 96.2045C406.902 96.2045 407.527 96.2992 408.102 96.4886C408.682 96.678 409.195 96.9545 409.642 97.3182C410.089 97.678 410.453 98.1193 410.733 98.642C411.017 99.1648 411.199 99.7633 411.278 100.438ZM415.418 102.955V108H412.997V96.3636H415.349V100.812H415.452C415.649 100.297 415.967 99.8939 416.406 99.6023C416.846 99.3068 417.397 99.1591 418.06 99.1591C418.666 99.1591 419.194 99.2917 419.645 99.5568C420.099 99.8182 420.452 100.195 420.702 100.688C420.955 101.176 421.08 101.761 421.077 102.443V108H418.656V102.875C418.66 102.337 418.524 101.919 418.247 101.619C417.974 101.32 417.592 101.17 417.099 101.17C416.77 101.17 416.478 101.241 416.224 101.381C415.974 101.521 415.777 101.725 415.634 101.994C415.493 102.259 415.421 102.58 415.418 102.955ZM422.982 108V99.2727H425.402V108H422.982ZM424.197 98.1477C423.838 98.1477 423.529 98.0284 423.271 97.7898C423.018 97.5473 422.891 97.2576 422.891 96.9205C422.891 96.5871 423.018 96.3011 423.271 96.0625C423.529 95.8201 423.838 95.6989 424.197 95.6989C424.557 95.6989 424.864 95.8201 425.118 96.0625C425.375 96.3011 425.504 96.5871 425.504 96.9205C425.504 97.2576 425.375 97.5473 425.118 97.7898C424.864 98.0284 424.557 98.1477 424.197 98.1477ZM429.761 102.955V108H427.341V99.2727H429.648V100.812H429.75C429.943 100.305 430.267 99.9034 430.722 99.608C431.176 99.3087 431.727 99.1591 432.375 99.1591C432.981 99.1591 433.509 99.2917 433.96 99.5568C434.411 99.822 434.761 100.201 435.011 100.693C435.261 101.182 435.386 101.765 435.386 102.443V108H432.966V102.875C432.97 102.341 432.833 101.924 432.557 101.625C432.28 101.322 431.9 101.17 431.415 101.17C431.089 101.17 430.801 101.241 430.551 101.381C430.305 101.521 430.112 101.725 429.972 101.994C429.835 102.259 429.765 102.58 429.761 102.955ZM439.783 108.165C439.226 108.165 438.73 108.068 438.294 107.875C437.858 107.678 437.514 107.388 437.26 107.006C437.01 106.619 436.885 106.138 436.885 105.562C436.885 105.078 436.974 104.67 437.152 104.341C437.33 104.011 437.572 103.746 437.879 103.545C438.186 103.345 438.535 103.193 438.925 103.091C439.319 102.989 439.732 102.917 440.163 102.875C440.671 102.822 441.08 102.773 441.391 102.727C441.701 102.678 441.927 102.606 442.067 102.511C442.207 102.417 442.277 102.277 442.277 102.091V102.057C442.277 101.697 442.163 101.419 441.936 101.222C441.713 101.025 441.394 100.926 440.982 100.926C440.546 100.926 440.199 101.023 439.942 101.216C439.684 101.405 439.514 101.644 439.43 101.932L437.192 101.75C437.305 101.22 437.529 100.761 437.862 100.375C438.196 99.9848 438.625 99.6856 439.152 99.4773C439.682 99.2652 440.296 99.1591 440.993 99.1591C441.478 99.1591 441.942 99.2159 442.385 99.3295C442.832 99.4432 443.228 99.6193 443.572 99.858C443.921 100.097 444.196 100.403 444.396 100.778C444.597 101.15 444.697 101.595 444.697 102.114V108H442.402V106.79H442.334C442.194 107.062 442.006 107.303 441.771 107.511C441.536 107.716 441.254 107.877 440.925 107.994C440.595 108.108 440.214 108.165 439.783 108.165ZM440.476 106.494C440.832 106.494 441.146 106.424 441.419 106.284C441.692 106.14 441.906 105.947 442.061 105.705C442.216 105.462 442.294 105.187 442.294 104.881V103.955C442.218 104.004 442.114 104.049 441.982 104.091C441.853 104.129 441.707 104.165 441.544 104.199C441.381 104.229 441.218 104.258 441.055 104.284C440.893 104.307 440.745 104.328 440.612 104.347C440.328 104.388 440.08 104.455 439.868 104.545C439.656 104.636 439.491 104.759 439.374 104.915C439.256 105.066 439.197 105.256 439.197 105.483C439.197 105.812 439.317 106.064 439.555 106.239C439.798 106.409 440.105 106.494 440.476 106.494ZM446.53 108V106.557L450.803 101.267V101.205H446.678V99.2727H453.717V100.847L449.706 106.006V106.068H453.865V108H446.53ZM458.205 108.165C457.648 108.165 457.152 108.068 456.716 107.875C456.28 107.678 455.936 107.388 455.682 107.006C455.432 106.619 455.307 106.138 455.307 105.562C455.307 105.078 455.396 104.67 455.574 104.341C455.752 104.011 455.994 103.746 456.301 103.545C456.608 103.345 456.956 103.193 457.347 103.091C457.741 102.989 458.153 102.917 458.585 102.875C459.093 102.822 459.502 102.773 459.812 102.727C460.123 102.678 460.348 102.606 460.489 102.511C460.629 102.417 460.699 102.277 460.699 102.091V102.057C460.699 101.697 460.585 101.419 460.358 101.222C460.134 101.025 459.816 100.926 459.403 100.926C458.968 100.926 458.621 101.023 458.364 101.216C458.106 101.405 457.936 101.644 457.852 101.932L455.614 101.75C455.727 101.22 455.951 100.761 456.284 100.375C456.617 99.9848 457.047 99.6856 457.574 99.4773C458.104 99.2652 458.718 99.1591 459.415 99.1591C459.9 99.1591 460.364 99.2159 460.807 99.3295C461.254 99.4432 461.65 99.6193 461.994 99.858C462.343 100.097 462.617 100.403 462.818 100.778C463.019 101.15 463.119 101.595 463.119 102.114V108H460.824V106.79H460.756C460.616 107.062 460.428 107.303 460.193 107.511C459.958 107.716 459.676 107.877 459.347 107.994C459.017 108.108 458.636 108.165 458.205 108.165ZM458.898 106.494C459.254 106.494 459.568 106.424 459.841 106.284C460.114 106.14 460.328 105.947 460.483 105.705C460.638 105.462 460.716 105.187 460.716 104.881V103.955C460.64 104.004 460.536 104.049 460.403 104.091C460.275 104.129 460.129 104.165 459.966 104.199C459.803 104.229 459.64 104.258 459.477 104.284C459.314 104.307 459.167 104.328 459.034 104.347C458.75 104.388 458.502 104.455 458.29 104.545C458.078 104.636 457.913 104.759 457.795 104.915C457.678 105.066 457.619 105.256 457.619 105.483C457.619 105.812 457.739 106.064 457.977 106.239C458.22 106.409 458.527 106.494 458.898 106.494ZM479.013 100.438H476.524C476.479 100.116 476.386 99.8295 476.246 99.5795C476.106 99.3258 475.926 99.1098 475.706 98.9318C475.486 98.7538 475.232 98.6174 474.945 98.5227C474.661 98.428 474.352 98.3807 474.018 98.3807C473.416 98.3807 472.892 98.5303 472.445 98.8295C471.998 99.125 471.651 99.5568 471.405 100.125C471.159 100.689 471.036 101.375 471.036 102.182C471.036 103.011 471.159 103.708 471.405 104.273C471.655 104.837 472.003 105.263 472.45 105.551C472.897 105.839 473.414 105.983 474.001 105.983C474.331 105.983 474.636 105.939 474.916 105.852C475.2 105.765 475.452 105.638 475.672 105.472C475.892 105.301 476.073 105.095 476.217 104.852C476.365 104.61 476.467 104.333 476.524 104.023L479.013 104.034C478.948 104.568 478.787 105.083 478.53 105.58C478.276 106.072 477.933 106.513 477.501 106.903C477.073 107.29 476.562 107.597 475.967 107.824C475.376 108.047 474.708 108.159 473.962 108.159C472.924 108.159 471.996 107.924 471.178 107.455C470.363 106.985 469.719 106.305 469.246 105.415C468.776 104.525 468.541 103.447 468.541 102.182C468.541 100.913 468.78 99.8333 469.257 98.9432C469.734 98.053 470.382 97.375 471.2 96.9091C472.018 96.4394 472.939 96.2045 473.962 96.2045C474.636 96.2045 475.261 96.2992 475.837 96.4886C476.416 96.678 476.929 96.9545 477.376 97.3182C477.823 97.678 478.187 98.1193 478.467 98.642C478.751 99.1648 478.933 99.7633 479.013 100.438ZM483.152 102.955V108H480.732V96.3636H483.084V100.812H483.186C483.383 100.297 483.701 99.8939 484.141 99.6023C484.58 99.3068 485.131 99.1591 485.794 99.1591C486.4 99.1591 486.929 99.2917 487.379 99.5568C487.834 99.8182 488.186 100.195 488.436 100.688C488.69 101.176 488.815 101.761 488.811 102.443V108H486.391V102.875C486.394 102.337 486.258 101.919 485.982 101.619C485.709 101.32 485.326 101.17 484.834 101.17C484.504 101.17 484.213 101.241 483.959 101.381C483.709 101.521 483.512 101.725 483.368 101.994C483.228 102.259 483.156 102.58 483.152 102.955ZM496.312 104.284V99.2727H498.733V108H496.409V106.415H496.318C496.121 106.926 495.794 107.337 495.335 107.648C494.881 107.958 494.326 108.114 493.67 108.114C493.087 108.114 492.574 107.981 492.131 107.716C491.688 107.451 491.341 107.074 491.091 106.585C490.845 106.097 490.72 105.511 490.716 104.83V99.2727H493.136V104.398C493.14 104.913 493.278 105.32 493.551 105.619C493.824 105.919 494.189 106.068 494.648 106.068C494.939 106.068 495.212 106.002 495.466 105.869C495.72 105.733 495.924 105.532 496.08 105.267C496.239 105.002 496.316 104.674 496.312 104.284ZM502.862 105.489L502.868 102.585H503.22L506.016 99.2727H508.794L505.038 103.659H504.464L502.862 105.489ZM500.669 108V96.3636H503.089V108H500.669ZM506.124 108L503.555 104.199L505.169 102.489L508.959 108H506.124ZM511.703 108L509.328 99.2727H511.777L513.129 105.136H513.209L514.618 99.2727H517.021L518.453 105.102H518.527L519.857 99.2727H522.3L519.93 108H517.368L515.868 102.511H515.76L514.26 108H511.703ZM529.188 104.284V99.2727H531.608V108H529.284V106.415H529.193C528.996 106.926 528.669 107.337 528.21 107.648C527.756 107.958 527.201 108.114 526.545 108.114C525.962 108.114 525.449 107.981 525.006 107.716C524.563 107.451 524.216 107.074 523.966 106.585C523.72 106.097 523.595 105.511 523.591 104.83V99.2727H526.011V104.398C526.015 104.913 526.153 105.32 526.426 105.619C526.699 105.919 527.064 106.068 527.523 106.068C527.814 106.068 528.087 106.002 528.341 105.869C528.595 105.733 528.799 105.532 528.955 105.267C529.114 105.002 529.191 104.674 529.188 104.284Z" fill="#F3F3F3"/>
<path d="M50.5227 31.4545V46H48.7614V31.4545H50.5227ZM59.4521 35.0909H61.1282V46.7955C61.1282 47.4678 61.0122 48.0502 60.7802 48.5426C60.5529 49.035 60.2073 49.4162 59.7433 49.6861C59.284 49.956 58.704 50.0909 58.0032 50.0909C57.9464 50.0909 57.8896 50.0909 57.8327 50.0909C57.7759 50.0909 57.7191 50.0909 57.6623 50.0909V48.5284C57.7191 48.5284 57.7712 48.5284 57.8185 48.5284C57.8659 48.5284 57.918 48.5284 57.9748 48.5284C58.4862 48.5284 58.8602 48.3769 59.0969 48.0739C59.3337 47.7756 59.4521 47.3494 59.4521 46.7955V35.0909ZM60.2759 33.2727C59.9492 33.2727 59.6675 33.1615 59.4308 32.9389C59.1987 32.7164 59.0827 32.4489 59.0827 32.1364C59.0827 31.8239 59.1987 31.5563 59.4308 31.3338C59.6675 31.1113 59.9492 31 60.2759 31C60.6026 31 60.882 31.1113 61.114 31.3338C61.3507 31.5563 61.4691 31.8239 61.4691 32.1364C61.4691 32.4489 61.3507 32.7164 61.114 32.9389C60.882 33.1615 60.6026 33.2727 60.2759 33.2727ZM71.0732 41.5398V35.0909H72.7493V46H71.0732V44.1534H70.9595C70.7038 44.7074 70.3061 45.1785 69.7663 45.5668C69.2266 45.9503 68.5447 46.142 67.7209 46.142C67.0391 46.142 66.433 45.9929 65.9027 45.6946C65.3724 45.3916 64.9557 44.937 64.6527 44.331C64.3497 43.7202 64.1982 42.9508 64.1982 42.0227V35.0909H65.8743V41.9091C65.8743 42.7045 66.0968 43.339 66.5419 43.8125C66.9917 44.286 67.5646 44.5227 68.2607 44.5227C68.6773 44.5227 69.1011 44.4162 69.532 44.2031C69.9676 43.9901 70.3321 43.6634 70.6257 43.223C70.924 42.7827 71.0732 42.2216 71.0732 41.5398ZM83.5465 37.5341L82.0408 37.9602C81.9461 37.7093 81.8065 37.4654 81.6218 37.2287C81.4419 36.9872 81.1957 36.7884 80.8832 36.6321C80.5707 36.4759 80.1706 36.3977 79.6829 36.3977C79.0153 36.3977 78.4589 36.5516 78.0138 36.8594C77.5735 37.1624 77.3533 37.5483 77.3533 38.017C77.3533 38.4337 77.5049 38.7628 77.8079 39.0043C78.1109 39.2457 78.5844 39.447 79.2283 39.608L80.8477 40.0057C81.823 40.2424 82.5498 40.6046 83.0281 41.0923C83.5063 41.5753 83.7454 42.1979 83.7454 42.9602C83.7454 43.5852 83.5655 44.1439 83.2056 44.6364C82.8505 45.1288 82.3533 45.517 81.7141 45.8011C81.0749 46.0852 80.3316 46.2273 79.484 46.2273C78.3713 46.2273 77.4504 45.9858 76.7212 45.5028C75.9921 45.0199 75.5304 44.3144 75.3363 43.3864L76.9272 42.9886C77.0787 43.5758 77.3652 44.0161 77.7866 44.3097C78.2127 44.6032 78.7691 44.75 79.4556 44.75C80.2369 44.75 80.8571 44.5843 81.3164 44.2528C81.7804 43.9167 82.0124 43.5142 82.0124 43.0455C82.0124 42.6667 81.8799 42.3494 81.6147 42.0938C81.3496 41.8333 80.9424 41.6392 80.3931 41.5114L78.5749 41.0852C77.5759 40.8485 76.842 40.4815 76.3732 39.9844C75.9092 39.4825 75.6772 38.8551 75.6772 38.1023C75.6772 37.4867 75.85 36.9422 76.1957 36.4688C76.546 35.9953 77.0219 35.6236 77.6232 35.3537C78.2293 35.0838 78.9158 34.9489 79.6829 34.9489C80.7624 34.9489 81.61 35.1856 82.2255 35.6591C82.8458 36.1326 83.2861 36.7576 83.5465 37.5341ZM91.0128 35.0909V36.5114H85.3594V35.0909H91.0128ZM87.0071 32.4773H88.6832V42.875C88.6832 43.3485 88.7519 43.7036 88.8892 43.9403C89.0313 44.1723 89.2112 44.3286 89.429 44.4091C89.6515 44.4848 89.8859 44.5227 90.1321 44.5227C90.3168 44.5227 90.4683 44.5133 90.5866 44.4943C90.705 44.4706 90.7997 44.4517 90.8707 44.4375L91.2116 45.9432C91.098 45.9858 90.9394 46.0284 90.7358 46.071C90.5322 46.1184 90.2741 46.142 89.9616 46.142C89.4882 46.142 89.0241 46.0402 88.5696 45.8366C88.1198 45.633 87.7457 45.3229 87.4474 44.9062C87.1539 44.4896 87.0071 43.964 87.0071 43.3295V32.4773ZM100.835 31.4545V46H99.1591V31.4545H100.835ZM108.479 46.2273C107.428 46.2273 106.521 45.9953 105.759 45.5312C105.001 45.0625 104.417 44.4091 104.005 43.571C103.597 42.7282 103.394 41.7481 103.394 40.6307C103.394 39.5133 103.597 38.5284 104.005 37.6761C104.417 36.8191 104.989 36.1515 105.723 35.6733C106.462 35.1903 107.324 34.9489 108.309 34.9489C108.877 34.9489 109.438 35.0436 109.992 35.233C110.546 35.4223 111.05 35.7301 111.505 36.1562C111.959 36.5777 112.321 37.1364 112.591 37.8324C112.861 38.5284 112.996 39.3854 112.996 40.4034V41.1136H104.587V39.6648H111.292C111.292 39.0492 111.168 38.5 110.922 38.017C110.681 37.5341 110.335 37.1529 109.885 36.8736C109.44 36.5942 108.915 36.4545 108.309 36.4545C107.641 36.4545 107.063 36.6203 106.576 36.9517C106.093 37.2784 105.721 37.7045 105.461 38.2301C105.2 38.7557 105.07 39.3191 105.07 39.9205V40.8864C105.07 41.7102 105.212 42.4086 105.496 42.9815C105.785 43.5497 106.185 43.983 106.696 44.2812C107.208 44.5748 107.802 44.7216 108.479 44.7216C108.919 44.7216 109.317 44.66 109.672 44.5369C110.032 44.4091 110.342 44.2197 110.603 43.9688C110.863 43.7131 111.064 43.3958 111.206 43.017L112.826 43.4716C112.655 44.0208 112.369 44.5038 111.966 44.9205C111.564 45.3324 111.067 45.6544 110.475 45.8864C109.883 46.1136 109.218 46.2273 108.479 46.2273ZM118.756 46.2557C118.065 46.2557 117.437 46.1255 116.874 45.8651C116.31 45.5999 115.863 45.2188 115.532 44.7216C115.2 44.2197 115.034 43.6136 115.034 42.9034C115.034 42.2784 115.158 41.7718 115.404 41.3835C115.65 40.9905 115.979 40.6828 116.391 40.4602C116.803 40.2377 117.257 40.072 117.755 39.9631C118.257 39.8494 118.761 39.7595 119.267 39.6932C119.93 39.608 120.468 39.544 120.88 39.5014C121.296 39.4541 121.599 39.3759 121.789 39.267C121.983 39.1581 122.08 38.9687 122.08 38.6989V38.642C122.08 37.9413 121.888 37.3968 121.505 37.0085C121.126 36.6203 120.551 36.4261 119.779 36.4261C118.979 36.4261 118.351 36.6013 117.897 36.9517C117.442 37.3021 117.123 37.6761 116.938 38.0739L115.347 37.5057C115.631 36.8428 116.01 36.3267 116.483 35.9574C116.962 35.5833 117.482 35.3229 118.046 35.1761C118.614 35.0246 119.173 34.9489 119.722 34.9489C120.072 34.9489 120.475 34.9915 120.929 35.0767C121.389 35.1572 121.831 35.3253 122.257 35.581C122.688 35.8366 123.046 36.2225 123.33 36.7386C123.614 37.2547 123.756 37.946 123.756 38.8125V46H122.08V44.5227H121.995C121.881 44.7595 121.692 45.0128 121.426 45.2827C121.161 45.5526 120.809 45.7822 120.368 45.9716C119.928 46.161 119.391 46.2557 118.756 46.2557ZM119.012 44.75C119.675 44.75 120.233 44.6198 120.688 44.3594C121.147 44.099 121.493 43.7628 121.725 43.3509C121.962 42.9389 122.08 42.5057 122.08 42.0511V40.517C122.009 40.6023 121.853 40.6804 121.611 40.7514C121.374 40.8177 121.1 40.8769 120.787 40.929C120.48 40.9763 120.179 41.0189 119.885 41.0568C119.596 41.09 119.362 41.1184 119.182 41.142C118.747 41.1989 118.339 41.2912 117.961 41.419C117.587 41.5421 117.283 41.7292 117.051 41.9801C116.824 42.2263 116.711 42.5625 116.711 42.9886C116.711 43.571 116.926 44.0114 117.357 44.3097C117.792 44.6032 118.344 44.75 119.012 44.75ZM135.345 35.0909L131.311 46H129.607L125.572 35.0909H127.391L130.402 43.7841H130.516L133.527 35.0909H135.345ZM141.741 46.2273C140.69 46.2273 139.783 45.9953 139.021 45.5312C138.263 45.0625 137.678 44.4091 137.266 43.571C136.859 42.7282 136.656 41.7481 136.656 40.6307C136.656 39.5133 136.859 38.5284 137.266 37.6761C137.678 36.8191 138.251 36.1515 138.985 35.6733C139.724 35.1903 140.585 34.9489 141.57 34.9489C142.138 34.9489 142.7 35.0436 143.254 35.233C143.808 35.4223 144.312 35.7301 144.766 36.1562C145.221 36.5777 145.583 37.1364 145.853 37.8324C146.123 38.5284 146.258 39.3854 146.258 40.4034V41.1136H137.849V39.6648H144.553C144.553 39.0492 144.43 38.5 144.184 38.017C143.942 37.5341 143.597 37.1529 143.147 36.8736C142.702 36.5942 142.176 36.4545 141.57 36.4545C140.903 36.4545 140.325 36.6203 139.837 36.9517C139.354 37.2784 138.983 37.7045 138.722 38.2301C138.462 38.7557 138.332 39.3191 138.332 39.9205V40.8864C138.332 41.7102 138.474 42.4086 138.758 42.9815C139.047 43.5497 139.447 43.983 139.958 44.2812C140.469 44.5748 141.064 44.7216 141.741 44.7216C142.181 44.7216 142.579 44.66 142.934 44.5369C143.294 44.4091 143.604 44.2197 143.864 43.9688C144.125 43.7131 144.326 43.3958 144.468 43.017L146.087 43.4716C145.917 44.0208 145.63 44.5038 145.228 44.9205C144.826 45.3324 144.328 45.6544 143.737 45.8864C143.145 46.1136 142.479 46.2273 141.741 46.2273ZM159.177 35.0909V36.5114H153.523V35.0909H159.177ZM155.171 32.4773H156.847V42.875C156.847 43.3485 156.916 43.7036 157.053 43.9403C157.195 44.1723 157.375 44.3286 157.593 44.4091C157.816 44.4848 158.05 44.5227 158.296 44.5227C158.481 44.5227 158.632 44.5133 158.751 44.4943C158.869 44.4706 158.964 44.4517 159.035 44.4375L159.376 45.9432C159.262 45.9858 159.103 46.0284 158.9 46.071C158.696 46.1184 158.438 46.142 158.126 46.142C157.652 46.142 157.188 46.0402 156.734 45.8366C156.284 45.633 155.91 45.3229 155.612 44.9062C155.318 44.4896 155.171 43.964 155.171 43.3295V32.4773ZM163.609 39.4375V46H161.933V31.4545H163.609V36.7955H163.751C164.006 36.232 164.39 35.7846 164.901 35.4531C165.417 35.117 166.104 34.9489 166.961 34.9489C167.704 34.9489 168.355 35.098 168.914 35.3963C169.473 35.6899 169.906 36.142 170.214 36.7528C170.526 37.3589 170.683 38.1307 170.683 39.0682V46H169.006V39.1818C169.006 38.3153 168.781 37.6454 168.332 37.1719C167.887 36.6937 167.269 36.4545 166.478 36.4545C165.929 36.4545 165.436 36.5705 165.001 36.8026C164.57 37.0346 164.229 37.3731 163.978 37.8182C163.732 38.2633 163.609 38.803 163.609 39.4375ZM178.323 46.2273C177.272 46.2273 176.365 45.9953 175.603 45.5312C174.845 45.0625 174.26 44.4091 173.848 43.571C173.441 42.7282 173.238 41.7481 173.238 40.6307C173.238 39.5133 173.441 38.5284 173.848 37.6761C174.26 36.8191 174.833 36.1515 175.567 35.6733C176.306 35.1903 177.167 34.9489 178.152 34.9489C178.721 34.9489 179.282 35.0436 179.836 35.233C180.39 35.4223 180.894 35.7301 181.348 36.1562C181.803 36.5777 182.165 37.1364 182.435 37.8324C182.705 38.5284 182.84 39.3854 182.84 40.4034V41.1136H174.431V39.6648H181.135C181.135 39.0492 181.012 38.5 180.766 38.017C180.525 37.5341 180.179 37.1529 179.729 36.8736C179.284 36.5942 178.758 36.4545 178.152 36.4545C177.485 36.4545 176.907 36.6203 176.419 36.9517C175.936 37.2784 175.565 37.7045 175.304 38.2301C175.044 38.7557 174.914 39.3191 174.914 39.9205V40.8864C174.914 41.7102 175.056 42.4086 175.34 42.9815C175.629 43.5497 176.029 43.983 176.54 44.2812C177.051 44.5748 177.646 44.7216 178.323 44.7216C178.763 44.7216 179.161 44.66 179.516 44.5369C179.876 44.4091 180.186 44.2197 180.446 43.9688C180.707 43.7131 180.908 43.3958 181.05 43.017L182.669 43.4716C182.499 44.0208 182.212 44.5038 181.81 44.9205C181.408 45.3324 180.91 45.6544 180.319 45.8864C179.727 46.1136 179.061 46.2273 178.323 46.2273ZM191.015 46V35.0909H192.634V36.7955H192.776C193.003 36.2131 193.37 35.7609 193.877 35.4389C194.383 35.1122 194.992 34.9489 195.702 34.9489C196.422 34.9489 197.021 35.1122 197.499 35.4389C197.982 35.7609 198.358 36.2131 198.628 36.7955H198.742C199.021 36.232 199.44 35.7846 199.999 35.4531C200.558 35.117 201.228 34.9489 202.009 34.9489C202.984 34.9489 203.782 35.2543 204.402 35.8651C205.023 36.4711 205.333 37.4157 205.333 38.6989V46H203.657V38.6989C203.657 37.8939 203.436 37.3187 202.996 36.973C202.556 36.6274 202.037 36.4545 201.441 36.4545C200.674 36.4545 200.079 36.6866 199.658 37.1506C199.237 37.6098 199.026 38.1922 199.026 38.8977V46H197.321V38.5284C197.321 37.9081 197.12 37.4086 196.718 37.0298C196.315 36.6463 195.797 36.4545 195.162 36.4545C194.727 36.4545 194.319 36.5705 193.941 36.8026C193.567 37.0346 193.264 37.3565 193.032 37.7685C192.804 38.1757 192.691 38.6468 192.691 39.1818V46H191.015ZM212.829 46.2273C211.844 46.2273 210.98 45.9929 210.237 45.5241C209.498 45.0554 208.921 44.3996 208.504 43.5568C208.092 42.714 207.886 41.7292 207.886 40.6023C207.886 39.4659 208.092 38.474 208.504 37.6264C208.921 36.7789 209.498 36.1207 210.237 35.652C210.98 35.1832 211.844 34.9489 212.829 34.9489C213.814 34.9489 214.676 35.1832 215.414 35.652C216.158 36.1207 216.735 36.7789 217.147 37.6264C217.564 38.474 217.772 39.4659 217.772 40.6023C217.772 41.7292 217.564 42.714 217.147 43.5568C216.735 44.3996 216.158 45.0554 215.414 45.5241C214.676 45.9929 213.814 46.2273 212.829 46.2273ZM212.829 44.7216C213.577 44.7216 214.193 44.5298 214.676 44.1463C215.159 43.7628 215.516 43.2585 215.748 42.6335C215.98 42.0085 216.096 41.3314 216.096 40.6023C216.096 39.8731 215.98 39.1937 215.748 38.5639C215.516 37.9342 215.159 37.4252 214.676 37.0369C214.193 36.6487 213.577 36.4545 212.829 36.4545C212.081 36.4545 211.466 36.6487 210.983 37.0369C210.5 37.4252 210.142 37.9342 209.91 38.5639C209.678 39.1937 209.562 39.8731 209.562 40.6023C209.562 41.3314 209.678 42.0085 209.91 42.6335C210.142 43.2585 210.5 43.7628 210.983 44.1463C211.466 44.5298 212.081 44.7216 212.829 44.7216ZM222.007 39.4375V46H220.331V35.0909H221.95V36.7955H222.092C222.348 36.2415 222.736 35.7964 223.257 35.4602C223.778 35.1193 224.45 34.9489 225.274 34.9489C226.013 34.9489 226.659 35.1004 227.213 35.4034C227.767 35.7017 228.198 36.1562 228.506 36.767C228.813 37.3731 228.967 38.1402 228.967 39.0682V46H227.291V39.1818C227.291 38.3248 227.069 37.6572 226.624 37.179C226.179 36.696 225.568 36.4545 224.791 36.4545C224.256 36.4545 223.778 36.5705 223.357 36.8026C222.94 37.0346 222.611 37.3731 222.369 37.8182C222.128 38.2633 222.007 38.803 222.007 39.4375ZM236.604 46.2273C235.553 46.2273 234.646 45.9953 233.884 45.5312C233.126 45.0625 232.542 44.4091 232.13 43.571C231.722 42.7282 231.519 41.7481 231.519 40.6307C231.519 39.5133 231.722 38.5284 232.13 37.6761C232.542 36.8191 233.114 36.1515 233.848 35.6733C234.587 35.1903 235.449 34.9489 236.434 34.9489C237.002 34.9489 237.563 35.0436 238.117 35.233C238.671 35.4223 239.175 35.7301 239.63 36.1562C240.084 36.5777 240.446 37.1364 240.716 37.8324C240.986 38.5284 241.121 39.3854 241.121 40.4034V41.1136H232.712V39.6648H239.417C239.417 39.0492 239.293 38.5 239.047 38.017C238.806 37.5341 238.46 37.1529 238.01 36.8736C237.565 36.5942 237.04 36.4545 236.434 36.4545C235.766 36.4545 235.188 36.6203 234.701 36.9517C234.218 37.2784 233.846 37.7045 233.586 38.2301C233.325 38.7557 233.195 39.3191 233.195 39.9205V40.8864C233.195 41.7102 233.337 42.4086 233.621 42.9815C233.91 43.5497 234.31 43.983 234.821 44.2812C235.333 44.5748 235.927 44.7216 236.604 44.7216C237.044 44.7216 237.442 44.66 237.797 44.5369C238.157 44.4091 238.467 44.2197 238.728 43.9688C238.988 43.7131 239.189 43.3958 239.331 43.017L240.951 43.4716C240.78 44.0208 240.494 44.5038 240.091 44.9205C239.689 45.3324 239.192 45.6544 238.6 45.8864C238.008 46.1136 237.343 46.2273 236.604 46.2273ZM244.418 50.0909C244.134 50.0909 243.881 50.0672 243.658 50.0199C243.436 49.9773 243.282 49.9347 243.197 49.892L243.623 48.4148C244.03 48.5189 244.39 48.5568 244.702 48.5284C245.015 48.5 245.292 48.3603 245.533 48.1094C245.78 47.8632 246.004 47.4631 246.208 46.9091L246.521 46.0568L242.487 35.0909H244.305L247.316 43.7841H247.43L250.441 35.0909H252.259L247.629 47.5909C247.42 48.1544 247.162 48.6207 246.854 48.9901C246.547 49.3641 246.189 49.6411 245.782 49.821C245.379 50.0009 244.925 50.0909 244.418 50.0909ZM260.097 46V35.0909H261.773V46H260.097ZM260.949 33.2727C260.622 33.2727 260.34 33.1615 260.104 32.9389C259.872 32.7164 259.756 32.4489 259.756 32.1364C259.756 31.8239 259.872 31.5563 260.104 31.3338C260.34 31.1113 260.622 31 260.949 31C261.276 31 261.555 31.1113 261.787 31.3338C262.024 31.5563 262.142 31.8239 262.142 32.1364C262.142 32.4489 262.024 32.7164 261.787 32.9389C261.555 33.1615 261.276 33.2727 260.949 33.2727ZM266.519 39.4375V46H264.843V35.0909H266.462V36.7955H266.604C266.86 36.2415 267.248 35.7964 267.769 35.4602C268.29 35.1193 268.962 34.9489 269.786 34.9489C270.525 34.9489 271.171 35.1004 271.725 35.4034C272.279 35.7017 272.71 36.1562 273.017 36.767C273.325 37.3731 273.479 38.1402 273.479 39.0682V46H271.803V39.1818C271.803 38.3248 271.58 37.6572 271.135 37.179C270.69 36.696 270.079 36.4545 269.303 36.4545C268.768 36.4545 268.29 36.5705 267.868 36.8026C267.452 37.0346 267.123 37.3731 266.881 37.8182C266.64 38.2633 266.519 38.803 266.519 39.4375ZM282.167 46V35.0909H283.786V36.7955H283.928C284.156 36.2131 284.522 35.7609 285.029 35.4389C285.536 35.1122 286.144 34.9489 286.854 34.9489C287.574 34.9489 288.173 35.1122 288.651 35.4389C289.134 35.7609 289.511 36.2131 289.781 36.7955H289.894C290.174 36.232 290.593 35.7846 291.151 35.4531C291.71 35.117 292.38 34.9489 293.161 34.9489C294.137 34.9489 294.934 35.2543 295.555 35.8651C296.175 36.4711 296.485 37.4157 296.485 38.6989V46H294.809V38.6989C294.809 37.8939 294.589 37.3187 294.148 36.973C293.708 36.6274 293.19 36.4545 292.593 36.4545C291.826 36.4545 291.232 36.6866 290.81 37.1506C290.389 37.6098 290.178 38.1922 290.178 38.8977V46H288.474V38.5284C288.474 37.9081 288.272 37.4086 287.87 37.0298C287.468 36.6463 286.949 36.4545 286.315 36.4545C285.879 36.4545 285.472 36.5705 285.093 36.8026C284.719 37.0346 284.416 37.3565 284.184 37.7685C283.957 38.1757 283.843 38.6468 283.843 39.1818V46H282.167ZM300.239 50.0909C299.955 50.0909 299.701 50.0672 299.479 50.0199C299.256 49.9773 299.102 49.9347 299.017 49.892L299.443 48.4148C299.85 48.5189 300.21 48.5568 300.523 48.5284C300.835 48.5 301.112 48.3603 301.354 48.1094C301.6 47.8632 301.825 47.4631 302.028 46.9091L302.341 46.0568L298.307 35.0909H300.125L303.136 43.7841H303.25L306.261 35.0909H308.08L303.449 47.5909C303.241 48.1544 302.982 48.6207 302.675 48.9901C302.367 49.3641 302.009 49.6411 301.602 49.821C301.2 50.0009 300.745 50.0909 300.239 50.0909ZM319.127 46.2557C318.436 46.2557 317.808 46.1255 317.245 45.8651C316.682 45.5999 316.234 45.2188 315.903 44.7216C315.571 44.2197 315.406 43.6136 315.406 42.9034C315.406 42.2784 315.529 41.7718 315.775 41.3835C316.021 40.9905 316.35 40.6828 316.762 40.4602C317.174 40.2377 317.629 40.072 318.126 39.9631C318.628 39.8494 319.132 39.7595 319.638 39.6932C320.301 39.608 320.839 39.544 321.251 39.5014C321.667 39.4541 321.97 39.3759 322.16 39.267C322.354 39.1581 322.451 38.9687 322.451 38.6989V38.642C322.451 37.9413 322.259 37.3968 321.876 37.0085C321.497 36.6203 320.922 36.4261 320.15 36.4261C319.35 36.4261 318.722 36.6013 318.268 36.9517C317.813 37.3021 317.494 37.6761 317.309 38.0739L315.718 37.5057C316.002 36.8428 316.381 36.3267 316.854 35.9574C317.333 35.5833 317.853 35.3229 318.417 35.1761C318.985 35.0246 319.544 34.9489 320.093 34.9489C320.443 34.9489 320.846 34.9915 321.3 35.0767C321.76 35.1572 322.202 35.3253 322.629 35.581C323.059 35.8366 323.417 36.2225 323.701 36.7386C323.985 37.2547 324.127 37.946 324.127 38.8125V46H322.451V44.5227H322.366C322.252 44.7595 322.063 45.0128 321.798 45.2827C321.532 45.5526 321.18 45.7822 320.739 45.9716C320.299 46.161 319.762 46.2557 319.127 46.2557ZM319.383 44.75C320.046 44.75 320.604 44.6198 321.059 44.3594C321.518 44.099 321.864 43.7628 322.096 43.3509C322.333 42.9389 322.451 42.5057 322.451 42.0511V40.517C322.38 40.6023 322.224 40.6804 321.982 40.7514C321.746 40.8177 321.471 40.8769 321.158 40.929C320.851 40.9763 320.55 41.0189 320.256 41.0568C319.968 41.09 319.733 41.1184 319.553 41.142C319.118 41.1989 318.71 41.2912 318.332 41.419C317.958 41.5421 317.655 41.7292 317.423 41.9801C317.195 42.2263 317.082 42.5625 317.082 42.9886C317.082 43.571 317.297 44.0114 317.728 44.3097C318.164 44.6032 318.715 44.75 319.383 44.75ZM331.618 46.2273C330.596 46.2273 329.715 45.9858 328.976 45.5028C328.238 45.0199 327.669 44.3546 327.272 43.5071C326.874 42.6596 326.675 41.6913 326.675 40.6023C326.675 39.4943 326.879 38.5166 327.286 37.669C327.698 36.8168 328.271 36.1515 329.005 35.6733C329.743 35.1903 330.605 34.9489 331.59 34.9489C332.357 34.9489 333.048 35.0909 333.664 35.375C334.279 35.6591 334.783 36.0568 335.176 36.5682C335.569 37.0795 335.813 37.6761 335.908 38.358H334.232C334.104 37.8608 333.82 37.4205 333.38 37.0369C332.944 36.6487 332.357 36.4545 331.618 36.4545C330.965 36.4545 330.392 36.625 329.9 36.9659C329.412 37.3021 329.031 37.7779 328.756 38.3935C328.486 39.0043 328.351 39.7216 328.351 40.5455C328.351 41.3883 328.484 42.1222 328.749 42.7472C329.019 43.3722 329.398 43.8575 329.885 44.2031C330.378 44.5488 330.955 44.7216 331.618 44.7216C332.054 44.7216 332.449 44.6458 332.804 44.4943C333.159 44.3428 333.46 44.125 333.706 43.8409C333.953 43.5568 334.128 43.2159 334.232 42.8182H335.908C335.813 43.4621 335.579 44.0421 335.205 44.5582C334.836 45.0696 334.346 45.4768 333.735 45.7798C333.129 46.0781 332.423 46.2273 331.618 46.2273ZM342.79 46.2273C341.805 46.2273 340.941 45.9929 340.198 45.5241C339.459 45.0554 338.882 44.3996 338.465 43.5568C338.053 42.714 337.847 41.7292 337.847 40.6023C337.847 39.4659 338.053 38.474 338.465 37.6264C338.882 36.7789 339.459 36.1207 340.198 35.652C340.941 35.1832 341.805 34.9489 342.79 34.9489C343.775 34.9489 344.637 35.1832 345.375 35.652C346.119 36.1207 346.696 36.7789 347.108 37.6264C347.525 38.474 347.733 39.4659 347.733 40.6023C347.733 41.7292 347.525 42.714 347.108 43.5568C346.696 44.3996 346.119 45.0554 345.375 45.5241C344.637 45.9929 343.775 46.2273 342.79 46.2273ZM342.79 44.7216C343.538 44.7216 344.154 44.5298 344.637 44.1463C345.12 43.7628 345.477 43.2585 345.709 42.6335C345.941 42.0085 346.057 41.3314 346.057 40.6023C346.057 39.8731 345.941 39.1937 345.709 38.5639C345.477 37.9342 345.12 37.4252 344.637 37.0369C344.154 36.6487 343.538 36.4545 342.79 36.4545C342.042 36.4545 341.426 36.6487 340.944 37.0369C340.461 37.4252 340.103 37.9342 339.871 38.5639C339.639 39.1937 339.523 39.8731 339.523 40.6023C339.523 41.3314 339.639 42.0085 339.871 42.6335C340.103 43.2585 340.461 43.7628 340.944 44.1463C341.426 44.5298 342.042 44.7216 342.79 44.7216ZM357.167 41.5398V35.0909H358.843V46H357.167V44.1534H357.053C356.798 44.7074 356.4 45.1785 355.86 45.5668C355.32 45.9503 354.638 46.142 353.815 46.142C353.133 46.142 352.527 45.9929 351.996 45.6946C351.466 45.3916 351.049 44.937 350.746 44.331C350.443 43.7202 350.292 42.9508 350.292 42.0227V35.0909H351.968V41.9091C351.968 42.7045 352.191 43.339 352.636 43.8125C353.085 44.286 353.658 44.5227 354.354 44.5227C354.771 44.5227 355.195 44.4162 355.626 44.2031C356.061 43.9901 356.426 43.6634 356.719 43.223C357.018 42.7827 357.167 42.2216 357.167 41.5398ZM363.589 39.4375V46H361.913V35.0909H363.532V36.7955H363.674C363.93 36.2415 364.318 35.7964 364.839 35.4602C365.36 35.1193 366.032 34.9489 366.856 34.9489C367.595 34.9489 368.241 35.1004 368.795 35.4034C369.349 35.7017 369.78 36.1562 370.088 36.767C370.395 37.3731 370.549 38.1402 370.549 39.0682V46H368.873V39.1818C368.873 38.3248 368.651 37.6572 368.206 37.179C367.761 36.696 367.15 36.4545 366.373 36.4545C365.838 36.4545 365.36 36.5705 364.939 36.8026C364.522 37.0346 364.193 37.3731 363.951 37.8182C363.71 38.2633 363.589 38.803 363.589 39.4375ZM378.357 35.0909V36.5114H372.703V35.0909H378.357ZM374.351 32.4773H376.027V42.875C376.027 43.3485 376.096 43.7036 376.233 43.9403C376.375 44.1723 376.555 44.3286 376.773 44.4091C376.995 44.4848 377.23 44.5227 377.476 44.5227C377.661 44.5227 377.812 44.5133 377.93 44.4943C378.049 44.4706 378.143 44.4517 378.214 44.4375L378.555 45.9432C378.442 45.9858 378.283 46.0284 378.08 46.071C377.876 46.1184 377.618 46.142 377.305 46.142C376.832 46.142 376.368 46.0402 375.913 45.8366C375.464 45.633 375.089 45.3229 374.791 44.9062C374.498 44.4896 374.351 43.964 374.351 43.3295V32.4773ZM389.713 46.2557C389.022 46.2557 388.394 46.1255 387.831 45.8651C387.268 45.5999 386.82 45.2188 386.489 44.7216C386.157 44.2197 385.991 43.6136 385.991 42.9034C385.991 42.2784 386.115 41.7718 386.361 41.3835C386.607 40.9905 386.936 40.6828 387.348 40.4602C387.76 40.2377 388.214 40.072 388.712 39.9631C389.214 39.8494 389.718 39.7595 390.224 39.6932C390.887 39.608 391.425 39.544 391.837 39.5014C392.253 39.4541 392.556 39.3759 392.746 39.267C392.94 39.1581 393.037 38.9687 393.037 38.6989V38.642C393.037 37.9413 392.845 37.3968 392.462 37.0085C392.083 36.6203 391.508 36.4261 390.736 36.4261C389.936 36.4261 389.308 36.6013 388.854 36.9517C388.399 37.3021 388.08 37.6761 387.895 38.0739L386.304 37.5057C386.588 36.8428 386.967 36.3267 387.44 35.9574C387.919 35.5833 388.439 35.3229 389.003 35.1761C389.571 35.0246 390.13 34.9489 390.679 34.9489C391.029 34.9489 391.432 34.9915 391.886 35.0767C392.346 35.1572 392.788 35.3253 393.214 35.581C393.645 35.8366 394.003 36.2225 394.287 36.7386C394.571 37.2547 394.713 37.946 394.713 38.8125V46H393.037V44.5227H392.952C392.838 44.7595 392.649 45.0128 392.384 45.2827C392.118 45.5526 391.766 45.7822 391.325 45.9716C390.885 46.161 390.348 46.2557 389.713 46.2557ZM389.969 44.75C390.632 44.75 391.19 44.6198 391.645 44.3594C392.104 44.099 392.45 43.7628 392.682 43.3509C392.919 42.9389 393.037 42.5057 393.037 42.0511V40.517C392.966 40.6023 392.81 40.6804 392.568 40.7514C392.331 40.8177 392.057 40.8769 391.744 40.929C391.437 40.9763 391.136 41.0189 390.842 41.0568C390.554 41.09 390.319 41.1184 390.139 41.142C389.704 41.1989 389.296 41.2912 388.918 41.419C388.544 41.5421 388.241 41.7292 388.009 41.9801C387.781 42.2263 387.668 42.5625 387.668 42.9886C387.668 43.571 387.883 44.0114 388.314 44.3097C388.75 44.6032 389.301 44.75 389.969 44.75ZM399.449 39.4375V46H397.772V35.0909H399.392V36.7955H399.534C399.789 36.2415 400.178 35.7964 400.699 35.4602C401.219 35.1193 401.892 34.9489 402.716 34.9489C403.454 34.9489 404.1 35.1004 404.654 35.4034C405.208 35.7017 405.639 36.1562 405.947 36.767C406.255 37.3731 406.409 38.1402 406.409 39.0682V46H404.733V39.1818C404.733 38.3248 404.51 37.6572 404.065 37.179C403.62 36.696 403.009 36.4545 402.233 36.4545C401.698 36.4545 401.219 36.5705 400.798 36.8026C400.381 37.0346 400.052 37.3731 399.811 37.8182C399.569 38.2633 399.449 38.803 399.449 39.4375ZM413.591 46.2273C412.682 46.2273 411.879 45.9976 411.183 45.5384C410.487 45.0743 409.943 44.4209 409.55 43.5781C409.157 42.7306 408.96 41.7292 408.96 40.5739C408.96 39.428 409.157 38.4337 409.55 37.5909C409.943 36.7481 410.49 36.0971 411.19 35.6378C411.891 35.1785 412.701 34.9489 413.619 34.9489C414.33 34.9489 414.891 35.0672 415.303 35.304C415.719 35.536 416.036 35.8011 416.254 36.0994C416.477 36.393 416.65 36.6345 416.773 36.8239H416.915V31.4545H418.591V46H416.972V44.3239H416.773C416.65 44.5227 416.474 44.7737 416.247 45.0767C416.02 45.375 415.696 45.6425 415.274 45.8793C414.853 46.1113 414.292 46.2273 413.591 46.2273ZM413.818 44.7216C414.491 44.7216 415.059 44.5464 415.523 44.196C415.987 43.8409 416.339 43.3509 416.581 42.7259C416.822 42.0961 416.943 41.3693 416.943 40.5455C416.943 39.7311 416.825 39.0185 416.588 38.4077C416.351 37.7921 416.001 37.3139 415.537 36.973C415.073 36.6274 414.5 36.4545 413.818 36.4545C413.108 36.4545 412.516 36.6368 412.043 37.0014C411.574 37.3613 411.221 37.8513 410.984 38.4716C410.752 39.0871 410.636 39.7784 410.636 40.5455C410.636 41.322 410.755 42.0275 410.991 42.6619C411.233 43.2917 411.588 43.7936 412.057 44.1676C412.53 44.5369 413.117 44.7216 413.818 44.7216ZM429.195 39.4375V46H427.518V31.4545H429.195V36.7955H429.337C429.592 36.232 429.976 35.7846 430.487 35.4531C431.003 35.117 431.69 34.9489 432.547 34.9489C433.29 34.9489 433.941 35.098 434.5 35.3963C435.059 35.6899 435.492 36.142 435.8 36.7528C436.112 37.3589 436.268 38.1307 436.268 39.0682V46H434.592V39.1818C434.592 38.3153 434.367 37.6454 433.918 37.1719C433.473 36.6937 432.855 36.4545 432.064 36.4545C431.515 36.4545 431.022 36.5705 430.587 36.8026C430.156 37.0346 429.815 37.3731 429.564 37.8182C429.318 38.2633 429.195 38.803 429.195 39.4375ZM443.767 46.2273C442.782 46.2273 441.918 45.9929 441.174 45.5241C440.436 45.0554 439.858 44.3996 439.441 43.5568C439.029 42.714 438.824 41.7292 438.824 40.6023C438.824 39.4659 439.029 38.474 439.441 37.6264C439.858 36.7789 440.436 36.1207 441.174 35.652C441.918 35.1832 442.782 34.9489 443.767 34.9489C444.752 34.9489 445.613 35.1832 446.352 35.652C447.095 36.1207 447.673 36.7789 448.085 37.6264C448.502 38.474 448.71 39.4659 448.71 40.6023C448.71 41.7292 448.502 42.714 448.085 43.5568C447.673 44.3996 447.095 45.0554 446.352 45.5241C445.613 45.9929 444.752 46.2273 443.767 46.2273ZM443.767 44.7216C444.515 44.7216 445.13 44.5298 445.613 44.1463C446.096 43.7628 446.454 43.2585 446.686 42.6335C446.918 42.0085 447.034 41.3314 447.034 40.6023C447.034 39.8731 446.918 39.1937 446.686 38.5639C446.454 37.9342 446.096 37.4252 445.613 37.0369C445.13 36.6487 444.515 36.4545 443.767 36.4545C443.019 36.4545 442.403 36.6487 441.92 37.0369C441.437 37.4252 441.08 37.9342 440.848 38.5639C440.616 39.1937 440.5 39.8731 440.5 40.6023C440.5 41.3314 440.616 42.0085 440.848 42.6335C441.08 43.2585 441.437 43.7628 441.92 44.1463C442.403 44.5298 443.019 44.7216 443.767 44.7216ZM451.268 50.0909V35.0909H452.888V36.8239H453.087C453.21 36.6345 453.38 36.393 453.598 36.0994C453.821 35.8011 454.138 35.536 454.55 35.304C454.966 35.0672 455.53 34.9489 456.24 34.9489C457.159 34.9489 457.968 35.1785 458.669 35.6378C459.37 36.0971 459.917 36.7481 460.31 37.5909C460.703 38.4337 460.899 39.428 460.899 40.5739C460.899 41.7292 460.703 42.7306 460.31 43.5781C459.917 44.4209 459.372 45.0743 458.676 45.5384C457.98 45.9976 457.178 46.2273 456.268 46.2273C455.568 46.2273 455.007 46.1113 454.585 45.8793C454.164 45.6425 453.839 45.375 453.612 45.0767C453.385 44.7737 453.21 44.5227 453.087 44.3239H452.945V50.0909H451.268ZM452.916 40.5455C452.916 41.3693 453.037 42.0961 453.278 42.7259C453.52 43.3509 453.873 43.8409 454.337 44.196C454.801 44.5464 455.369 44.7216 456.041 44.7216C456.742 44.7216 457.327 44.5369 457.795 44.1676C458.269 43.7936 458.624 43.2917 458.861 42.6619C459.102 42.0275 459.223 41.322 459.223 40.5455C459.223 39.7784 459.105 39.0871 458.868 38.4716C458.636 37.8513 458.283 37.3613 457.81 37.0014C457.341 36.6368 456.751 36.4545 456.041 36.4545C455.359 36.4545 454.786 36.6274 454.322 36.973C453.858 37.3139 453.508 37.7921 453.271 38.4077C453.035 39.0185 452.916 39.7311 452.916 40.5455ZM468.03 46.2273C466.979 46.2273 466.072 45.9953 465.31 45.5312C464.552 45.0625 463.967 44.4091 463.555 43.571C463.148 42.7282 462.945 41.7481 462.945 40.6307C462.945 39.5133 463.148 38.5284 463.555 37.6761C463.967 36.8191 464.54 36.1515 465.274 35.6733C466.013 35.1903 466.875 34.9489 467.859 34.9489C468.428 34.9489 468.989 35.0436 469.543 35.233C470.097 35.4223 470.601 35.7301 471.055 36.1562C471.51 36.5777 471.872 37.1364 472.142 37.8324C472.412 38.5284 472.547 39.3854 472.547 40.4034V41.1136H464.138V39.6648H470.842C470.842 39.0492 470.719 38.5 470.473 38.017C470.232 37.5341 469.886 37.1529 469.436 36.8736C468.991 36.5942 468.465 36.4545 467.859 36.4545C467.192 36.4545 466.614 36.6203 466.126 36.9517C465.643 37.2784 465.272 37.7045 465.011 38.2301C464.751 38.7557 464.621 39.3191 464.621 39.9205V40.8864C464.621 41.7102 464.763 42.4086 465.047 42.9815C465.336 43.5497 465.736 43.983 466.247 44.2812C466.759 44.5748 467.353 44.7216 468.03 44.7216C468.47 44.7216 468.868 44.66 469.223 44.5369C469.583 44.4091 469.893 44.2197 470.153 43.9688C470.414 43.7131 470.615 43.3958 470.757 43.017L472.376 43.4716C472.206 44.0208 471.92 44.5038 471.517 44.9205C471.115 45.3324 470.617 45.6544 470.026 45.8864C469.434 46.1136 468.768 46.2273 468.03 46.2273ZM480.722 46V35.0909H482.398V46H480.722ZM481.574 33.2727C481.247 33.2727 480.965 33.1615 480.729 32.9389C480.497 32.7164 480.381 32.4489 480.381 32.1364C480.381 31.8239 480.497 31.5563 480.729 31.3338C480.965 31.1113 481.247 31 481.574 31C481.901 31 482.18 31.1113 482.412 31.3338C482.649 31.5563 482.767 31.8239 482.767 32.1364C482.767 32.4489 482.649 32.7164 482.412 32.9389C482.18 33.1615 481.901 33.2727 481.574 33.2727ZM495.212 46.2273C494.303 46.2273 493.5 45.9976 492.804 45.5384C492.108 45.0743 491.564 44.4209 491.171 43.5781C490.778 42.7306 490.581 41.7292 490.581 40.5739C490.581 39.428 490.778 38.4337 491.171 37.5909C491.564 36.7481 492.111 36.0971 492.811 35.6378C493.512 35.1785 494.322 34.9489 495.24 34.9489C495.951 34.9489 496.512 35.0672 496.924 35.304C497.34 35.536 497.658 35.8011 497.875 36.0994C498.098 36.393 498.271 36.6345 498.394 36.8239H498.536V31.4545H500.212V46H498.593V44.3239H498.394C498.271 44.5227 498.096 44.7737 497.868 45.0767C497.641 45.375 497.317 45.6425 496.895 45.8793C496.474 46.1113 495.913 46.2273 495.212 46.2273ZM495.439 44.7216C496.112 44.7216 496.68 44.5464 497.144 44.196C497.608 43.8409 497.961 43.3509 498.202 42.7259C498.444 42.0961 498.564 41.3693 498.564 40.5455C498.564 39.7311 498.446 39.0185 498.209 38.4077C497.972 37.7921 497.622 37.3139 497.158 36.973C496.694 36.6274 496.121 36.4545 495.439 36.4545C494.729 36.4545 494.137 36.6368 493.664 37.0014C493.195 37.3613 492.842 37.8513 492.605 38.4716C492.373 39.0871 492.257 39.7784 492.257 40.5455C492.257 41.322 492.376 42.0275 492.613 42.6619C492.854 43.2917 493.209 43.7936 493.678 44.1676C494.151 44.5369 494.739 44.7216 495.439 44.7216ZM507.946 46.2273C506.962 46.2273 506.097 45.9929 505.354 45.5241C504.615 45.0554 504.038 44.3996 503.621 43.5568C503.209 42.714 503.003 41.7292 503.003 40.6023C503.003 39.4659 503.209 38.474 503.621 37.6264C504.038 36.7789 504.615 36.1207 505.354 35.652C506.097 35.1832 506.962 34.9489 507.946 34.9489C508.931 34.9489 509.793 35.1832 510.532 35.652C511.275 36.1207 511.853 36.7789 512.265 37.6264C512.681 38.474 512.89 39.4659 512.89 40.6023C512.89 41.7292 512.681 42.714 512.265 43.5568C511.853 44.3996 511.275 45.0554 510.532 45.5241C509.793 45.9929 508.931 46.2273 507.946 46.2273ZM507.946 44.7216C508.694 44.7216 509.31 44.5298 509.793 44.1463C510.276 43.7628 510.633 43.2585 510.865 42.6335C511.097 42.0085 511.213 41.3314 511.213 40.6023C511.213 39.8731 511.097 39.1937 510.865 38.5639C510.633 37.9342 510.276 37.4252 509.793 37.0369C509.31 36.6487 508.694 36.4545 507.946 36.4545C507.198 36.4545 506.583 36.6487 506.1 37.0369C505.617 37.4252 505.259 37.9342 505.027 38.5639C504.795 39.1937 504.679 39.8731 504.679 40.6023C504.679 41.3314 504.795 42.0085 505.027 42.6335C505.259 43.2585 505.617 43.7628 506.1 44.1463C506.583 44.5298 507.198 44.7216 507.946 44.7216ZM517.124 39.4375V46H515.448V35.0909H517.067V36.7955H517.21C517.465 36.2415 517.853 35.7964 518.374 35.4602C518.895 35.1193 519.567 34.9489 520.391 34.9489C521.13 34.9489 521.776 35.1004 522.33 35.4034C522.884 35.7017 523.315 36.1562 523.623 36.767C523.931 37.3731 524.085 38.1402 524.085 39.0682V46H522.408V39.1818C522.408 38.3248 522.186 37.6572 521.741 37.179C521.296 36.696 520.685 36.4545 519.908 36.4545C519.373 36.4545 518.895 36.5705 518.474 36.8026C518.057 37.0346 517.728 37.3731 517.487 37.8182C517.245 38.2633 517.124 38.803 517.124 39.4375ZM531.892 35.0909V36.5114H526.238V35.0909H531.892ZM527.886 32.4773H529.562V42.875C529.562 43.3485 529.631 43.7036 529.768 43.9403C529.91 44.1723 530.09 44.3286 530.308 44.4091C530.53 44.4848 530.765 44.5227 531.011 44.5227C531.196 44.5227 531.347 44.5133 531.466 44.4943C531.584 44.4706 531.679 44.4517 531.75 44.4375L532.091 45.9432C531.977 45.9858 531.818 46.0284 531.615 46.071C531.411 46.1184 531.153 46.142 530.841 46.142C530.367 46.142 529.903 46.0402 529.449 45.8366C528.999 45.633 528.625 45.3229 528.326 44.9062C528.033 44.4896 527.886 43.964 527.886 43.3295V32.4773ZM53.2784 65.0909V66.5114H47.625V65.0909H53.2784ZM49.2727 62.4773H50.9489V72.875C50.9489 73.3485 51.0175 73.7036 51.1548 73.9403C51.2969 74.1723 51.4768 74.3286 51.6946 74.4091C51.9171 74.4848 52.1515 74.5227 52.3977 74.5227C52.5824 74.5227 52.7339 74.5133 52.8523 74.4943C52.9706 74.4706 53.0653 74.4517 53.1364 74.4375L53.4773 75.9432C53.3636 75.9858 53.205 76.0284 53.0014 76.071C52.7978 76.1184 52.5398 76.142 52.2273 76.142C51.7538 76.142 51.2898 76.0402 50.8352 75.8366C50.3854 75.633 50.0114 75.3229 49.7131 74.9062C49.4195 74.4896 49.2727 73.964 49.2727 73.3295V62.4773ZM60.1143 76.2273C59.1295 76.2273 58.2654 75.9929 57.522 75.5241C56.7834 75.0554 56.2057 74.3996 55.7891 73.5568C55.3771 72.714 55.1712 71.7292 55.1712 70.6023C55.1712 69.4659 55.3771 68.474 55.7891 67.6264C56.2057 66.7789 56.7834 66.1207 57.522 65.652C58.2654 65.1832 59.1295 64.9489 60.1143 64.9489C61.0992 64.9489 61.9609 65.1832 62.6996 65.652C63.4429 66.1207 64.0206 66.7789 64.4325 67.6264C64.8492 68.474 65.0575 69.4659 65.0575 70.6023C65.0575 71.7292 64.8492 72.714 64.4325 73.5568C64.0206 74.3996 63.4429 75.0554 62.6996 75.5241C61.9609 75.9929 61.0992 76.2273 60.1143 76.2273ZM60.1143 74.7216C60.8625 74.7216 61.478 74.5298 61.9609 74.1463C62.4439 73.7628 62.8014 73.2585 63.0334 72.6335C63.2654 72.0085 63.3814 71.3314 63.3814 70.6023C63.3814 69.8731 63.2654 69.1937 63.0334 68.5639C62.8014 67.9342 62.4439 67.4252 61.9609 67.0369C61.478 66.6487 60.8625 66.4545 60.1143 66.4545C59.3662 66.4545 58.7507 66.6487 58.2678 67.0369C57.7848 67.4252 57.4273 67.9342 57.1953 68.5639C56.9633 69.1937 56.8473 69.8731 56.8473 70.6023C56.8473 71.3314 56.9633 72.0085 57.1953 72.6335C57.4273 73.2585 57.7848 73.7628 58.2678 74.1463C58.7507 74.5298 59.3662 74.7216 60.1143 74.7216ZM74.4911 71.5398V65.0909H76.1673V76H74.4911V74.1534H74.3775C74.1218 74.7074 73.7241 75.1785 73.1843 75.5668C72.6445 75.9503 71.9627 76.142 71.1388 76.142C70.457 76.142 69.851 75.9929 69.3207 75.6946C68.7904 75.3916 68.3737 74.937 68.0707 74.331C67.7676 73.7202 67.6161 72.9508 67.6161 72.0227V65.0909H69.2923V71.9091C69.2923 72.7045 69.5148 73.339 69.9599 73.8125C70.4097 74.286 70.9826 74.5227 71.6786 74.5227C72.0953 74.5227 72.5191 74.4162 72.9499 74.2031C73.3855 73.9901 73.7501 73.6634 74.0437 73.223C74.342 72.7827 74.4911 72.2216 74.4911 71.5398ZM83.669 76.2273C82.6463 76.2273 81.7656 75.9858 81.027 75.5028C80.2884 75.0199 79.7202 74.3546 79.3224 73.5071C78.9247 72.6596 78.7259 71.6913 78.7259 70.6023C78.7259 69.4943 78.9295 68.5166 79.3366 67.669C79.7486 66.8168 80.3215 66.1515 81.0554 65.6733C81.794 65.1903 82.6558 64.9489 83.6406 64.9489C84.4077 64.9489 85.099 65.0909 85.7145 65.375C86.33 65.6591 86.8343 66.0568 87.2273 66.5682C87.6203 67.0795 87.8641 67.6761 87.9588 68.358H86.2827C86.1548 67.8608 85.8707 67.4205 85.4304 67.0369C84.9948 66.6487 84.4077 66.4545 83.669 66.4545C83.0156 66.4545 82.4427 66.625 81.9503 66.9659C81.4626 67.3021 81.0814 67.7779 80.8068 68.3935C80.5369 69.0043 80.402 69.7216 80.402 70.5455C80.402 71.3883 80.5346 72.1222 80.7997 72.7472C81.0696 73.3722 81.4484 73.8575 81.9361 74.2031C82.4285 74.5488 83.0062 74.7216 83.669 74.7216C84.1046 74.7216 84.5 74.6458 84.8551 74.4943C85.2102 74.3428 85.5109 74.125 85.7571 73.8409C86.0033 73.5568 86.1785 73.2159 86.2827 72.8182H87.9588C87.8641 73.4621 87.6297 74.0421 87.2557 74.5582C86.8864 75.0696 86.3963 75.4768 85.7855 75.7798C85.1795 76.0781 84.474 76.2273 83.669 76.2273ZM92.0852 69.4375V76H90.4091V61.4545H92.0852V66.7955H92.2273C92.483 66.232 92.8665 65.7846 93.3778 65.4531C93.8939 65.117 94.5805 64.9489 95.4375 64.9489C96.1809 64.9489 96.8319 65.098 97.3906 65.3963C97.9493 65.6899 98.3826 66.142 98.6903 66.7528C99.0028 67.3589 99.1591 68.1307 99.1591 69.0682V76H97.483V69.1818C97.483 68.3153 97.258 67.6454 96.8082 67.1719C96.3632 66.6937 95.7453 66.4545 94.9545 66.4545C94.4053 66.4545 93.9129 66.5705 93.4773 66.8026C93.0464 67.0346 92.7055 67.3731 92.4545 67.8182C92.2083 68.2633 92.0852 68.803 92.0852 69.4375ZM107.85 76V65.0909H109.527V76H107.85ZM108.703 63.2727C108.376 63.2727 108.094 63.1615 107.858 62.9389C107.626 62.7164 107.51 62.4489 107.51 62.1364C107.51 61.8239 107.626 61.5563 107.858 61.3338C108.094 61.1113 108.376 61 108.703 61C109.029 61 109.309 61.1113 109.541 61.3338C109.778 61.5563 109.896 61.8239 109.896 62.1364C109.896 62.4489 109.778 62.7164 109.541 62.9389C109.309 63.1615 109.029 63.2727 108.703 63.2727ZM117.341 65.0909V66.5114H111.688V65.0909H117.341ZM113.335 62.4773H115.011V72.875C115.011 73.3485 115.08 73.7036 115.217 73.9403C115.359 74.1723 115.539 74.3286 115.757 74.4091C115.98 74.4848 116.214 74.5227 116.46 74.5227C116.645 74.5227 116.796 74.5133 116.915 74.4943C117.033 74.4706 117.128 74.4517 117.199 74.4375L117.54 75.9432C117.426 75.9858 117.268 76.0284 117.064 76.071C116.86 76.1184 116.602 76.142 116.29 76.142C115.816 76.142 115.352 76.0402 114.898 75.8366C114.448 75.633 114.074 75.3229 113.776 74.9062C113.482 74.4896 113.335 73.964 113.335 73.3295V62.4773ZM127.959 76L124.635 65.0909H126.396L128.754 73.4432H128.868L131.197 65.0909H132.987L135.288 73.4148H135.402L137.76 65.0909H139.521L136.197 76H134.55L132.163 67.6193H131.993L129.607 76H127.959ZM143.413 69.4375V76H141.737V61.4545H143.413V66.7955H143.555C143.811 66.232 144.195 65.7846 144.706 65.4531C145.222 65.117 145.909 64.9489 146.766 64.9489C147.509 64.9489 148.16 65.098 148.719 65.3963C149.277 65.6899 149.711 66.142 150.018 66.7528C150.331 67.3589 150.487 68.1307 150.487 69.0682V76H148.811V69.1818C148.811 68.3153 148.586 67.6454 148.136 67.1719C147.691 66.6937 147.073 66.4545 146.283 66.4545C145.733 66.4545 145.241 66.5705 144.805 66.8026C144.375 67.0346 144.034 67.3731 143.783 67.8182C143.536 68.2633 143.413 68.803 143.413 69.4375ZM153.554 76V65.0909H155.23V76H153.554ZM154.406 63.2727C154.079 63.2727 153.797 63.1615 153.561 62.9389C153.329 62.7164 153.213 62.4489 153.213 62.1364C153.213 61.8239 153.329 61.5563 153.561 61.3338C153.797 61.1113 154.079 61 154.406 61C154.733 61 155.012 61.1113 155.244 61.3338C155.481 61.5563 155.599 61.8239 155.599 62.1364C155.599 62.4489 155.481 62.7164 155.244 62.9389C155.012 63.1615 154.733 63.2727 154.406 63.2727ZM162.732 76.2273C161.709 76.2273 160.828 75.9858 160.089 75.5028C159.351 75.0199 158.783 74.3546 158.385 73.5071C157.987 72.6596 157.788 71.6913 157.788 70.6023C157.788 69.4943 157.992 68.5166 158.399 67.669C158.811 66.8168 159.384 66.1515 160.118 65.6733C160.857 65.1903 161.718 64.9489 162.703 64.9489C163.47 64.9489 164.161 65.0909 164.777 65.375C165.393 65.6591 165.897 66.0568 166.29 66.5682C166.683 67.0795 166.927 67.6761 167.021 68.358H165.345C165.217 67.8608 164.933 67.4205 164.493 67.0369C164.057 66.6487 163.47 66.4545 162.732 66.4545C162.078 66.4545 161.505 66.625 161.013 66.9659C160.525 67.3021 160.144 67.7779 159.869 68.3935C159.599 69.0043 159.464 69.7216 159.464 70.5455C159.464 71.3883 159.597 72.1222 159.862 72.7472C160.132 73.3722 160.511 73.8575 160.999 74.2031C161.491 74.5488 162.069 74.7216 162.732 74.7216C163.167 74.7216 163.562 74.6458 163.918 74.4943C164.273 74.3428 164.573 74.125 164.82 73.8409C165.066 73.5568 165.241 73.2159 165.345 72.8182H167.021C166.927 73.4621 166.692 74.0421 166.318 74.5582C165.949 75.0696 165.459 75.4768 164.848 75.7798C164.242 76.0781 163.536 76.2273 162.732 76.2273ZM171.148 69.4375V76H169.472V61.4545H171.148V66.7955H171.29C171.545 66.232 171.929 65.7846 172.44 65.4531C172.956 65.117 173.643 64.9489 174.5 64.9489C175.243 64.9489 175.894 65.098 176.453 65.3963C177.012 65.6899 177.445 66.142 177.753 66.7528C178.065 67.3589 178.222 68.1307 178.222 69.0682V76H176.545V69.1818C176.545 68.3153 176.321 67.6454 175.871 67.1719C175.426 66.6937 174.808 66.4545 174.017 66.4545C173.468 66.4545 172.975 66.5705 172.54 66.8026C172.109 67.0346 171.768 67.3731 171.517 67.8182C171.271 68.2633 171.148 68.803 171.148 69.4375ZM190.123 76.2557C189.432 76.2557 188.805 76.1255 188.241 75.8651C187.678 75.5999 187.23 75.2188 186.899 74.7216C186.567 74.2197 186.402 73.6136 186.402 72.9034C186.402 72.2784 186.525 71.7718 186.771 71.3835C187.017 70.9905 187.346 70.6828 187.758 70.4602C188.17 70.2377 188.625 70.072 189.122 69.9631C189.624 69.8494 190.128 69.7595 190.635 69.6932C191.297 69.608 191.835 69.544 192.247 69.5014C192.663 69.4541 192.967 69.3759 193.156 69.267C193.35 69.1581 193.447 68.9687 193.447 68.6989V68.642C193.447 67.9413 193.255 67.3968 192.872 67.0085C192.493 66.6203 191.918 66.4261 191.146 66.4261C190.346 66.4261 189.718 66.6013 189.264 66.9517C188.809 67.3021 188.49 67.6761 188.305 68.0739L186.714 67.5057C186.998 66.8428 187.377 66.3267 187.85 65.9574C188.329 65.5833 188.85 65.3229 189.413 65.1761C189.981 65.0246 190.54 64.9489 191.089 64.9489C191.44 64.9489 191.842 64.9915 192.297 65.0767C192.756 65.1572 193.199 65.3253 193.625 65.581C194.056 65.8366 194.413 66.2225 194.697 66.7386C194.981 67.2547 195.123 67.946 195.123 68.8125V76H193.447V74.5227H193.362C193.248 74.7595 193.059 75.0128 192.794 75.2827C192.529 75.5526 192.176 75.7822 191.735 75.9716C191.295 76.161 190.758 76.2557 190.123 76.2557ZM190.379 74.75C191.042 74.75 191.6 74.6198 192.055 74.3594C192.514 74.099 192.86 73.7628 193.092 73.3509C193.329 72.9389 193.447 72.5057 193.447 72.0511V70.517C193.376 70.6023 193.22 70.6804 192.978 70.7514C192.742 70.8177 192.467 70.8769 192.154 70.929C191.847 70.9763 191.546 71.0189 191.252 71.0568C190.964 71.09 190.729 71.1184 190.549 71.142C190.114 71.1989 189.707 71.2912 189.328 71.419C188.954 71.5421 188.651 71.7292 188.419 71.9801C188.191 72.2263 188.078 72.5625 188.078 72.9886C188.078 73.571 188.293 74.0114 188.724 74.3097C189.16 74.6032 189.711 74.75 190.379 74.75ZM199.859 61.4545V76H198.183V61.4545H199.859ZM205.4 76L202.076 65.0909H203.838L206.196 73.4432H206.309L208.639 65.0909H210.429L212.73 73.4148H212.843L215.201 65.0909H216.963L213.639 76H211.991L209.605 67.6193H209.434L207.048 76H205.4ZM222.389 76.2557C221.698 76.2557 221.07 76.1255 220.507 75.8651C219.943 75.5999 219.496 75.2188 219.164 74.7216C218.833 74.2197 218.667 73.6136 218.667 72.9034C218.667 72.2784 218.79 71.7718 219.037 71.3835C219.283 70.9905 219.612 70.6828 220.024 70.4602C220.436 70.2377 220.89 70.072 221.387 69.9631C221.889 69.8494 222.394 69.7595 222.9 69.6932C223.563 69.608 224.1 69.544 224.512 69.5014C224.929 69.4541 225.232 69.3759 225.422 69.267C225.616 69.1581 225.713 68.9687 225.713 68.6989V68.642C225.713 67.9413 225.521 67.3968 225.137 67.0085C224.759 66.6203 224.183 66.4261 223.412 66.4261C222.611 66.4261 221.984 66.6013 221.529 66.9517C221.075 67.3021 220.755 67.6761 220.571 68.0739L218.98 67.5057C219.264 66.8428 219.643 66.3267 220.116 65.9574C220.594 65.5833 221.115 65.3229 221.679 65.1761C222.247 65.0246 222.806 64.9489 223.355 64.9489C223.705 64.9489 224.108 64.9915 224.562 65.0767C225.021 65.1572 225.464 65.3253 225.89 65.581C226.321 65.8366 226.679 66.2225 226.963 66.7386C227.247 67.2547 227.389 67.946 227.389 68.8125V76H225.713V74.5227H225.627C225.514 74.7595 225.324 75.0128 225.059 75.2827C224.794 75.5526 224.441 75.7822 224.001 75.9716C223.561 76.161 223.023 76.2557 222.389 76.2557ZM222.645 74.75C223.307 74.75 223.866 74.6198 224.321 74.3594C224.78 74.099 225.126 73.7628 225.358 73.3509C225.594 72.9389 225.713 72.5057 225.713 72.0511V70.517C225.642 70.6023 225.485 70.6804 225.244 70.7514C225.007 70.8177 224.733 70.8769 224.42 70.929C224.112 70.9763 223.812 71.0189 223.518 71.0568C223.229 71.09 222.995 71.1184 222.815 71.142C222.379 71.1989 221.972 71.2912 221.593 71.419C221.219 71.5421 220.916 71.7292 220.684 71.9801C220.457 72.2263 220.343 72.5625 220.343 72.9886C220.343 73.571 220.559 74.0114 220.99 74.3097C221.425 74.6032 221.977 74.75 222.645 74.75ZM231.137 80.0909C230.853 80.0909 230.6 80.0672 230.377 80.0199C230.155 79.9773 230.001 79.9347 229.915 79.892L230.342 78.4148C230.749 78.5189 231.109 78.5568 231.421 78.5284C231.734 78.5 232.011 78.3603 232.252 78.1094C232.498 77.8632 232.723 77.4631 232.927 76.9091L233.239 76.0568L229.205 65.0909H231.023L234.035 73.7841H234.148L237.16 65.0909H238.978L234.347 77.5909C234.139 78.1544 233.881 78.6207 233.573 78.9901C233.265 79.3641 232.908 79.6411 232.501 79.821C232.098 80.0009 231.644 80.0909 231.137 80.0909ZM248.918 67.5341L247.412 67.9602C247.317 67.7093 247.178 67.4654 246.993 67.2287C246.813 66.9872 246.567 66.7884 246.254 66.6321C245.942 66.4759 245.542 66.3977 245.054 66.3977C244.386 66.3977 243.83 66.5516 243.385 66.8594C242.945 67.1624 242.724 67.5483 242.724 68.017C242.724 68.4337 242.876 68.7628 243.179 69.0043C243.482 69.2457 243.955 69.447 244.599 69.608L246.219 70.0057C247.194 70.2424 247.921 70.6046 248.399 71.0923C248.877 71.5753 249.116 72.1979 249.116 72.9602C249.116 73.5852 248.937 74.1439 248.577 74.6364C248.222 75.1288 247.724 75.517 247.085 75.8011C246.446 76.0852 245.703 76.2273 244.855 76.2273C243.742 76.2273 242.821 75.9858 242.092 75.5028C241.363 75.0199 240.902 74.3144 240.707 73.3864L242.298 72.9886C242.45 73.5758 242.736 74.0161 243.158 74.3097C243.584 74.6032 244.14 74.75 244.827 74.75C245.608 74.75 246.228 74.5843 246.688 74.2528C247.152 73.9167 247.384 73.5142 247.384 73.0455C247.384 72.6667 247.251 72.3494 246.986 72.0938C246.721 71.8333 246.313 71.6392 245.764 71.5114L243.946 71.0852C242.947 70.8485 242.213 70.4815 241.744 69.9844C241.28 69.4825 241.048 68.8551 241.048 68.1023C241.048 67.4867 241.221 66.9422 241.567 66.4688C241.917 65.9953 242.393 65.6236 242.994 65.3537C243.6 65.0838 244.287 64.9489 245.054 64.9489C246.134 64.9489 246.981 65.1856 247.597 65.6591C248.217 66.1326 248.657 66.7576 248.918 67.5341ZM261.384 76.2273C260.475 76.2273 259.672 75.9976 258.976 75.5384C258.28 75.0743 257.736 74.4209 257.343 73.5781C256.95 72.7306 256.753 71.7292 256.753 70.5739C256.753 69.428 256.95 68.4337 257.343 67.5909C257.736 66.7481 258.283 66.0971 258.983 65.6378C259.684 65.1785 260.494 64.9489 261.412 64.9489C262.123 64.9489 262.684 65.0672 263.096 65.304C263.512 65.536 263.829 65.8011 264.047 66.0994C264.27 66.393 264.443 66.6345 264.566 66.8239H264.708V61.4545H266.384V76H264.765V74.3239H264.566C264.443 74.5227 264.267 74.7737 264.04 75.0767C263.813 75.375 263.489 75.6425 263.067 75.8793C262.646 76.1113 262.085 76.2273 261.384 76.2273ZM261.611 74.7216C262.283 74.7216 262.852 74.5464 263.316 74.196C263.78 73.8409 264.132 73.3509 264.374 72.7259C264.615 72.0961 264.736 71.3693 264.736 70.5455C264.736 69.7311 264.618 69.0185 264.381 68.4077C264.144 67.7921 263.794 67.3139 263.33 66.973C262.866 66.6274 262.293 66.4545 261.611 66.4545C260.901 66.4545 260.309 66.6368 259.836 67.0014C259.367 67.3613 259.014 67.8513 258.777 68.4716C258.545 69.0871 258.429 69.7784 258.429 70.5455C258.429 71.322 258.548 72.0275 258.784 72.6619C259.026 73.2917 259.381 73.7936 259.85 74.1676C260.323 74.5369 260.91 74.7216 261.611 74.7216ZM274.118 76.2273C273.133 76.2273 272.269 75.9929 271.526 75.5241C270.787 75.0554 270.21 74.3996 269.793 73.5568C269.381 72.714 269.175 71.7292 269.175 70.6023C269.175 69.4659 269.381 68.474 269.793 67.6264C270.21 66.7789 270.787 66.1207 271.526 65.652C272.269 65.1832 273.133 64.9489 274.118 64.9489C275.103 64.9489 275.965 65.1832 276.703 65.652C277.447 66.1207 278.025 66.7789 278.436 67.6264C278.853 68.474 279.061 69.4659 279.061 70.6023C279.061 71.7292 278.853 72.714 278.436 73.5568C278.025 74.3996 277.447 75.0554 276.703 75.5241C275.965 75.9929 275.103 76.2273 274.118 76.2273ZM274.118 74.7216C274.866 74.7216 275.482 74.5298 275.965 74.1463C276.448 73.7628 276.805 73.2585 277.037 72.6335C277.269 72.0085 277.385 71.3314 277.385 70.6023C277.385 69.8731 277.269 69.1937 277.037 68.5639C276.805 67.9342 276.448 67.4252 275.965 67.0369C275.482 66.6487 274.866 66.4545 274.118 66.4545C273.37 66.4545 272.755 66.6487 272.272 67.0369C271.789 67.4252 271.431 67.9342 271.199 68.5639C270.967 69.1937 270.851 69.8731 270.851 70.6023C270.851 71.3314 270.967 72.0085 271.199 72.6335C271.431 73.2585 271.789 73.7628 272.272 74.1463C272.755 74.5298 273.37 74.7216 274.118 74.7216ZM289.347 67.5341L287.842 67.9602C287.747 67.7093 287.607 67.4654 287.423 67.2287C287.243 66.9872 286.996 66.7884 286.684 66.6321C286.371 66.4759 285.971 66.3977 285.484 66.3977C284.816 66.3977 284.26 66.5516 283.815 66.8594C283.374 67.1624 283.154 67.5483 283.154 68.017C283.154 68.4337 283.306 68.7628 283.609 69.0043C283.912 69.2457 284.385 69.447 285.029 69.608L286.648 70.0057C287.624 70.2424 288.351 70.6046 288.829 71.0923C289.307 71.5753 289.546 72.1979 289.546 72.9602C289.546 73.5852 289.366 74.1439 289.006 74.6364C288.651 75.1288 288.154 75.517 287.515 75.8011C286.876 76.0852 286.132 76.2273 285.285 76.2273C284.172 76.2273 283.251 75.9858 282.522 75.5028C281.793 75.0199 281.331 74.3144 281.137 73.3864L282.728 72.9886C282.879 73.5758 283.166 74.0161 283.587 74.3097C284.013 74.6032 284.57 74.75 285.256 74.75C286.038 74.75 286.658 74.5843 287.117 74.2528C287.581 73.9167 287.813 73.5142 287.813 73.0455C287.813 72.6667 287.681 72.3494 287.415 72.0938C287.15 71.8333 286.743 71.6392 286.194 71.5114L284.376 71.0852C283.377 70.8485 282.643 70.4815 282.174 69.9844C281.71 69.4825 281.478 68.8551 281.478 68.1023C281.478 67.4867 281.651 66.9422 281.996 66.4688C282.347 65.9953 282.823 65.6236 283.424 65.3537C284.03 65.0838 284.717 64.9489 285.484 64.9489C286.563 64.9489 287.411 65.1856 288.026 65.6591C288.647 66.1326 289.087 66.7576 289.347 67.5341ZM296.643 76.2273C295.592 76.2273 294.685 75.9953 293.923 75.5312C293.165 75.0625 292.581 74.4091 292.169 73.571C291.761 72.7282 291.558 71.7481 291.558 70.6307C291.558 69.5133 291.761 68.5284 292.169 67.6761C292.581 66.8191 293.154 66.1515 293.887 65.6733C294.626 65.1903 295.488 64.9489 296.473 64.9489C297.041 64.9489 297.602 65.0436 298.156 65.233C298.71 65.4223 299.214 65.7301 299.669 66.1562C300.123 66.5777 300.485 67.1364 300.755 67.8324C301.025 68.5284 301.16 69.3854 301.16 70.4034V71.1136H292.751V69.6648H299.456C299.456 69.0492 299.333 68.5 299.086 68.017C298.845 67.5341 298.499 67.1529 298.049 66.8736C297.604 66.5942 297.079 66.4545 296.473 66.4545C295.805 66.4545 295.227 66.6203 294.74 66.9517C294.257 67.2784 293.885 67.7045 293.625 68.2301C293.364 68.7557 293.234 69.3191 293.234 69.9205V70.8864C293.234 71.7102 293.376 72.4086 293.66 72.9815C293.949 73.5497 294.349 73.983 294.86 74.2812C295.372 74.5748 295.966 74.7216 296.643 74.7216C297.083 74.7216 297.481 74.66 297.836 74.5369C298.196 74.4091 298.506 74.2197 298.767 73.9688C299.027 73.7131 299.228 73.3958 299.37 73.017L300.99 73.4716C300.819 74.0208 300.533 74.5038 300.13 74.9205C299.728 75.3324 299.231 75.6544 298.639 75.8864C298.047 76.1136 297.382 76.2273 296.643 76.2273ZM305.386 69.4375V76H303.71V65.0909H305.329V66.7955H305.471C305.727 66.2415 306.115 65.7964 306.636 65.4602C307.157 65.1193 307.829 64.9489 308.653 64.9489C309.392 64.9489 310.038 65.1004 310.592 65.4034C311.146 65.7017 311.577 66.1562 311.885 66.767C312.192 67.3731 312.346 68.1402 312.346 69.0682V76H310.67V69.1818C310.67 68.3248 310.448 67.6572 310.002 67.179C309.557 66.696 308.947 66.4545 308.17 66.4545C307.635 66.4545 307.157 66.5705 306.735 66.8026C306.319 67.0346 305.99 67.3731 305.748 67.8182C305.507 68.2633 305.386 68.803 305.386 69.4375ZM320.153 65.0909V66.5114H314.5V65.0909H320.153ZM316.148 62.4773H317.824V72.875C317.824 73.3485 317.893 73.7036 318.03 73.9403C318.172 74.1723 318.352 74.3286 318.57 74.4091C318.792 74.4848 319.027 74.5227 319.273 74.5227C319.457 74.5227 319.609 74.5133 319.727 74.4943C319.846 74.4706 319.94 74.4517 320.011 74.4375L320.352 75.9432C320.239 75.9858 320.08 76.0284 319.876 76.071C319.673 76.1184 319.415 76.142 319.102 76.142C318.629 76.142 318.165 76.0402 317.71 75.8366C317.26 75.633 316.886 75.3229 316.588 74.9062C316.295 74.4896 316.148 73.964 316.148 73.3295V62.4773ZM329.976 69.4375V76H328.3V61.4545H329.976V66.7955H330.118C330.374 66.232 330.757 65.7846 331.268 65.4531C331.785 65.117 332.471 64.9489 333.328 64.9489C334.071 64.9489 334.723 65.098 335.281 65.3963C335.84 65.6899 336.273 66.142 336.581 66.7528C336.893 67.3589 337.05 68.1307 337.05 69.0682V76H335.374V69.1818C335.374 68.3153 335.149 67.6454 334.699 67.1719C334.254 66.6937 333.636 66.4545 332.845 66.4545C332.296 66.4545 331.804 66.5705 331.368 66.8026C330.937 67.0346 330.596 67.3731 330.345 67.8182C330.099 68.2633 329.976 68.803 329.976 69.4375ZM343.326 76.2557C342.635 76.2557 342.008 76.1255 341.444 75.8651C340.881 75.5999 340.433 75.2188 340.102 74.7216C339.77 74.2197 339.605 73.6136 339.605 72.9034C339.605 72.2784 339.728 71.7718 339.974 71.3835C340.22 70.9905 340.549 70.6828 340.961 70.4602C341.373 70.2377 341.828 70.072 342.325 69.9631C342.827 69.8494 343.331 69.7595 343.838 69.6932C344.501 69.608 345.038 69.544 345.45 69.5014C345.867 69.4541 346.17 69.3759 346.359 69.267C346.553 69.1581 346.65 68.9687 346.65 68.6989V68.642C346.65 67.9413 346.458 67.3968 346.075 67.0085C345.696 66.6203 345.121 66.4261 344.349 66.4261C343.549 66.4261 342.922 66.6013 342.467 66.9517C342.012 67.3021 341.693 67.6761 341.508 68.0739L339.917 67.5057C340.201 66.8428 340.58 66.3267 341.054 65.9574C341.532 65.5833 342.053 65.3229 342.616 65.1761C343.184 65.0246 343.743 64.9489 344.292 64.9489C344.643 64.9489 345.045 64.9915 345.5 65.0767C345.959 65.1572 346.402 65.3253 346.828 65.581C347.259 65.8366 347.616 66.2225 347.9 66.7386C348.184 67.2547 348.326 67.946 348.326 68.8125V76H346.65V74.5227H346.565C346.451 74.7595 346.262 75.0128 345.997 75.2827C345.732 75.5526 345.379 75.7822 344.939 75.9716C344.498 76.161 343.961 76.2557 343.326 76.2557ZM343.582 74.75C344.245 74.75 344.804 74.6198 345.258 74.3594C345.717 74.099 346.063 73.7628 346.295 73.3509C346.532 72.9389 346.65 72.5057 346.65 72.0511V70.517C346.579 70.6023 346.423 70.6804 346.181 70.7514C345.945 70.8177 345.67 70.8769 345.358 70.929C345.05 70.9763 344.749 71.0189 344.456 71.0568C344.167 71.09 343.932 71.1184 343.752 71.142C343.317 71.1989 342.91 71.2912 342.531 71.419C342.157 71.5421 341.854 71.7292 341.622 71.9801C341.395 72.2263 341.281 72.5625 341.281 72.9886C341.281 73.571 341.496 74.0114 341.927 74.3097C342.363 74.6032 342.914 74.75 343.582 74.75ZM351.386 80.0909V65.0909H353.005V66.8239H353.204C353.327 66.6345 353.497 66.393 353.715 66.0994C353.938 65.8011 354.255 65.536 354.667 65.304C355.084 65.0672 355.647 64.9489 356.357 64.9489C357.276 64.9489 358.085 65.1785 358.786 65.6378C359.487 66.0971 360.034 66.7481 360.427 67.5909C360.82 68.4337 361.016 69.428 361.016 70.5739C361.016 71.7292 360.82 72.7306 360.427 73.5781C360.034 74.4209 359.489 75.0743 358.793 75.5384C358.097 75.9976 357.295 76.2273 356.386 76.2273C355.685 76.2273 355.124 76.1113 354.702 75.8793C354.281 75.6425 353.957 75.375 353.729 75.0767C353.502 74.7737 353.327 74.5227 353.204 74.3239H353.062V80.0909H351.386ZM353.033 70.5455C353.033 71.3693 353.154 72.0961 353.396 72.7259C353.637 73.3509 353.99 73.8409 354.454 74.196C354.918 74.5464 355.486 74.7216 356.158 74.7216C356.859 74.7216 357.444 74.5369 357.913 74.1676C358.386 73.7936 358.741 73.2917 358.978 72.6619C359.219 72.0275 359.34 71.322 359.34 70.5455C359.34 69.7784 359.222 69.0871 358.985 68.4716C358.753 67.8513 358.4 67.3613 357.927 67.0014C357.458 66.6368 356.869 66.4545 356.158 66.4545C355.477 66.4545 354.904 66.6274 354.44 66.973C353.976 67.3139 353.625 67.7921 353.388 68.4077C353.152 69.0185 353.033 69.7311 353.033 70.5455ZM363.573 80.0909V65.0909H365.192V66.8239H365.391C365.514 66.6345 365.685 66.393 365.903 66.0994C366.125 65.8011 366.442 65.536 366.854 65.304C367.271 65.0672 367.835 64.9489 368.545 64.9489C369.463 64.9489 370.273 65.1785 370.974 65.6378C371.674 66.0971 372.221 66.7481 372.614 67.5909C373.007 68.4337 373.204 69.428 373.204 70.5739C373.204 71.7292 373.007 72.7306 372.614 73.5781C372.221 74.4209 371.677 75.0743 370.981 75.5384C370.285 75.9976 369.482 76.2273 368.573 76.2273C367.872 76.2273 367.311 76.1113 366.89 75.8793C366.469 75.6425 366.144 75.375 365.917 75.0767C365.69 74.7737 365.514 74.5227 365.391 74.3239H365.249V80.0909H363.573ZM365.221 70.5455C365.221 71.3693 365.342 72.0961 365.583 72.7259C365.825 73.3509 366.177 73.8409 366.641 74.196C367.105 74.5464 367.674 74.7216 368.346 74.7216C369.047 74.7216 369.631 74.5369 370.1 74.1676C370.574 73.7936 370.929 73.2917 371.165 72.6619C371.407 72.0275 371.528 71.322 371.528 70.5455C371.528 69.7784 371.409 69.0871 371.173 68.4716C370.941 67.8513 370.588 67.3613 370.114 67.0014C369.646 66.6368 369.056 66.4545 368.346 66.4545C367.664 66.4545 367.091 66.6274 366.627 66.973C366.163 67.3139 365.813 67.7921 365.576 68.4077C365.339 69.0185 365.221 69.7311 365.221 70.5455ZM380.335 76.2273C379.283 76.2273 378.377 75.9953 377.614 75.5312C376.857 75.0625 376.272 74.4091 375.86 73.571C375.453 72.7282 375.249 71.7481 375.249 70.6307C375.249 69.5133 375.453 68.5284 375.86 67.6761C376.272 66.8191 376.845 66.1515 377.579 65.6733C378.317 65.1903 379.179 64.9489 380.164 64.9489C380.732 64.9489 381.293 65.0436 381.847 65.233C382.401 65.4223 382.906 65.7301 383.36 66.1562C383.815 66.5777 384.177 67.1364 384.447 67.8324C384.717 68.5284 384.852 69.3854 384.852 70.4034V71.1136H376.442V69.6648H383.147C383.147 69.0492 383.024 68.5 382.778 68.017C382.536 67.5341 382.191 67.1529 381.741 66.8736C381.296 66.5942 380.77 66.4545 380.164 66.4545C379.496 66.4545 378.919 66.6203 378.431 66.9517C377.948 67.2784 377.576 67.7045 377.316 68.2301C377.056 68.7557 376.925 69.3191 376.925 69.9205V70.8864C376.925 71.7102 377.067 72.4086 377.352 72.9815C377.64 73.5497 378.04 73.983 378.552 74.2812C379.063 74.5748 379.657 74.7216 380.335 74.7216C380.775 74.7216 381.173 74.66 381.528 74.5369C381.888 74.4091 382.198 74.2197 382.458 73.9688C382.719 73.7131 382.92 73.3958 383.062 73.017L384.681 73.4716C384.511 74.0208 384.224 74.5038 383.822 74.9205C383.419 75.3324 382.922 75.6544 382.33 75.8864C381.738 76.1136 381.073 76.2273 380.335 76.2273ZM389.077 69.4375V76H387.401V65.0909H389.021V66.7955H389.163C389.418 66.2415 389.807 65.7964 390.327 65.4602C390.848 65.1193 391.521 64.9489 392.344 64.9489C393.083 64.9489 393.729 65.1004 394.283 65.4034C394.837 65.7017 395.268 66.1562 395.576 66.767C395.884 67.3731 396.038 68.1402 396.038 69.0682V76H394.362V69.1818C394.362 68.3248 394.139 67.6572 393.694 67.179C393.249 66.696 392.638 66.4545 391.862 66.4545C391.326 66.4545 390.848 66.5705 390.427 66.8026C390.01 67.0346 389.681 67.3731 389.44 67.8182C389.198 68.2633 389.077 68.803 389.077 69.4375ZM406.402 61.4545V76H404.725V61.4545H406.402ZM413.903 76.2273C412.919 76.2273 412.054 75.9929 411.311 75.5241C410.572 75.0554 409.995 74.3996 409.578 73.5568C409.166 72.714 408.96 71.7292 408.96 70.6023C408.96 69.4659 409.166 68.474 409.578 67.6264C409.995 66.7789 410.572 66.1207 411.311 65.652C412.054 65.1832 412.919 64.9489 413.903 64.9489C414.888 64.9489 415.75 65.1832 416.489 65.652C417.232 66.1207 417.81 66.7789 418.222 67.6264C418.638 68.474 418.847 69.4659 418.847 70.6023C418.847 71.7292 418.638 72.714 418.222 73.5568C417.81 74.3996 417.232 75.0554 416.489 75.5241C415.75 75.9929 414.888 76.2273 413.903 76.2273ZM413.903 74.7216C414.652 74.7216 415.267 74.5298 415.75 74.1463C416.233 73.7628 416.59 73.2585 416.822 72.6335C417.054 72.0085 417.17 71.3314 417.17 70.6023C417.17 69.8731 417.054 69.1937 416.822 68.5639C416.59 67.9342 416.233 67.4252 415.75 67.0369C415.267 66.6487 414.652 66.4545 413.903 66.4545C413.155 66.4545 412.54 66.6487 412.057 67.0369C411.574 67.4252 411.216 67.9342 410.984 68.5639C410.752 69.1937 410.636 69.8731 410.636 70.6023C410.636 71.3314 410.752 72.0085 410.984 72.6335C411.216 73.2585 411.574 73.7628 412.057 74.1463C412.54 74.5298 413.155 74.7216 413.903 74.7216ZM423.081 61.4545V76H421.405V61.4545H423.081ZM427.373 76.1136C427.022 76.1136 426.722 75.9882 426.471 75.7372C426.22 75.4863 426.094 75.1856 426.094 74.8352C426.094 74.4848 426.22 74.1842 426.471 73.9332C426.722 73.6823 427.022 73.5568 427.373 73.5568C427.723 73.5568 428.024 73.6823 428.275 73.9332C428.526 74.1842 428.651 74.4848 428.651 74.8352C428.651 75.0672 428.592 75.2803 428.474 75.4744C428.36 75.6686 428.206 75.8248 428.012 75.9432C427.823 76.0568 427.61 76.1136 427.373 76.1136Z" fill="white"/>
<path d="M16.7882 23.9626C16.7882 22.6243 16.4432 21.502 15.7532 20.591C15.2642 19.9645 14.6012 19.5524 13.7627 19.3562C12.9377 19.1615 12.1577 19.1478 11.4527 19.3136C11.2127 17.8689 11.6027 16.339 12.5927 14.7179C13.5827 13.0983 14.8652 11.8786 16.4297 11.0635L14.0597 7.60376C12.8597 8.20598 11.7197 8.9694 10.6697 9.8925C9.60469 10.8156 8.65969 11.8771 7.81969 13.077C6.97969 14.2769 6.34969 15.6318 5.94469 17.1678C5.53969 18.7038 5.42569 20.2702 5.61919 21.8822C5.87119 24.0112 6.54919 25.7145 7.65319 26.9767C8.75569 28.2542 10.1312 28.8929 11.7752 28.8929C13.2227 28.8929 14.4242 28.4519 15.3752 27.5576C16.3172 26.6817 16.7852 25.4818 16.7852 23.9565L16.7882 23.9611V23.9626ZM30.4742 23.9626C30.4742 22.6243 30.1292 21.502 29.4392 20.591C28.9502 19.9523 28.2842 19.5387 27.4487 19.3486C26.6087 19.16 25.8377 19.1509 25.1387 19.3151C24.8987 17.8856 25.2737 16.3496 26.2637 14.7224C27.2537 13.1104 28.5347 11.8938 30.0992 11.0726L27.7352 7.60376C26.5352 8.20598 25.4027 8.9694 24.3452 9.8925C23.2832 10.8156 22.3352 11.8771 21.5042 13.077C20.6702 14.2784 20.0492 15.6318 19.6442 17.1678C19.2347 18.6886 19.1267 20.2702 19.3187 21.8822C19.5662 24.0112 20.2412 25.7145 21.3437 26.9767C22.4417 28.2435 23.8127 28.8777 25.4567 28.8777C26.9072 28.8777 28.1087 28.4366 29.0597 27.5455C30.0002 26.6695 30.4727 25.4696 30.4727 23.9443V23.9595L30.4742 23.9626Z" fill="#F3F3F3"/>
</svg>
