<svg width="32" height="32" viewBox="0 0 32 32" fill="none" xmlns="http://www.w3.org/2000/svg">
<path d="M19.582 6.73391C20.9848 7.00708 22.2741 7.69184 23.2847 8.70055C24.2953 9.70926 24.9814 10.996 25.2551 12.3962L19.582 6.73391ZM19.582 1C22.4965 1.32316 25.2143 2.62581 27.2891 4.69408C29.364 6.76235 30.6726 9.4733 31 12.3818L19.582 1ZM29.5638 23.821V28.1214C29.5654 28.5206 29.4835 28.9158 29.3232 29.2816C29.163 29.6474 28.928 29.9757 28.6332 30.2456C28.3385 30.5155 27.9905 30.721 27.6116 30.8489C27.2327 30.9768 26.8312 31.0243 26.4328 30.9884C22.0133 30.5091 17.7681 29.0018 14.0382 26.5876C10.568 24.3867 7.62595 21.4502 5.42086 17.9867C2.99361 14.2471 1.48309 9.98933 1.01166 5.55846C0.975765 5.16206 1.02297 4.76254 1.15025 4.38534C1.27754 4.00814 1.48212 3.66152 1.75098 3.36756C2.01983 3.0736 2.34706 2.83874 2.71185 2.67792C3.07663 2.5171 3.47096 2.43385 3.86974 2.43348H8.17841C8.87542 2.42663 9.55114 2.67298 10.0796 3.12661C10.6081 3.58024 10.9533 4.2102 11.0509 4.89906C11.2327 6.27529 11.57 7.62658 12.0562 8.92713C12.2494 9.44021 12.2913 9.99782 12.1767 10.5339C12.0622 11.07 11.7961 11.562 11.4099 11.9518L9.58591 13.7723C11.6305 17.3611 14.6076 20.3325 18.2033 22.3732L20.0273 20.5526C20.4177 20.1672 20.9108 19.9016 21.4478 19.7873C21.9849 19.673 22.5436 19.7147 23.0577 19.9076C24.3607 20.3929 25.7146 20.7295 27.0935 20.911C27.7911 21.0092 28.4283 21.36 28.8838 21.8965C29.3392 22.4331 29.5813 23.118 29.5638 23.821Z" stroke="white" stroke-width="1" stroke-linecap="round" stroke-linejoin="round"/>
</svg>
