<svg width="382" height="283" viewBox="0 0 382 283" fill="none" xmlns="http://www.w3.org/2000/svg">
<rect width="382" height="283" rx="10" fill="#9D9C9C"/>
<path d="M209.278 223.438H206.79C206.744 223.116 206.652 222.83 206.511 222.58C206.371 222.326 206.191 222.11 205.972 221.932C205.752 221.754 205.498 221.617 205.21 221.523C204.926 221.428 204.617 221.381 204.284 221.381C203.682 221.381 203.157 221.53 202.71 221.83C202.263 222.125 201.917 222.557 201.67 223.125C201.424 223.689 201.301 224.375 201.301 225.182C201.301 226.011 201.424 226.708 201.67 227.273C201.92 227.837 202.269 228.263 202.716 228.551C203.163 228.839 203.68 228.983 204.267 228.983C204.597 228.983 204.902 228.939 205.182 228.852C205.466 228.765 205.718 228.638 205.938 228.472C206.157 228.301 206.339 228.095 206.483 227.852C206.631 227.61 206.733 227.333 206.79 227.023L209.278 227.034C209.214 227.568 209.053 228.083 208.795 228.58C208.542 229.072 208.199 229.513 207.767 229.903C207.339 230.29 206.828 230.597 206.233 230.824C205.642 231.047 204.973 231.159 204.227 231.159C203.189 231.159 202.261 230.924 201.443 230.455C200.629 229.985 199.985 229.305 199.511 228.415C199.042 227.525 198.807 226.447 198.807 225.182C198.807 223.913 199.045 222.833 199.523 221.943C200 221.053 200.648 220.375 201.466 219.909C202.284 219.439 203.205 219.205 204.227 219.205C204.902 219.205 205.527 219.299 206.102 219.489C206.682 219.678 207.195 219.955 207.642 220.318C208.089 220.678 208.453 221.119 208.733 221.642C209.017 222.165 209.199 222.763 209.278 223.438ZM213.418 225.955V231H210.997V219.364H213.349V223.812H213.452C213.649 223.297 213.967 222.894 214.406 222.602C214.846 222.307 215.397 222.159 216.06 222.159C216.666 222.159 217.194 222.292 217.645 222.557C218.099 222.818 218.452 223.195 218.702 223.688C218.955 224.176 219.08 224.761 219.077 225.443V231H216.656V225.875C216.66 225.337 216.524 224.919 216.247 224.619C215.974 224.32 215.592 224.17 215.099 224.17C214.77 224.17 214.478 224.241 214.224 224.381C213.974 224.521 213.777 224.725 213.634 224.994C213.493 225.259 213.421 225.58 213.418 225.955ZM220.982 231V222.273H223.402V231H220.982ZM222.197 221.148C221.838 221.148 221.529 221.028 221.271 220.79C221.018 220.547 220.891 220.258 220.891 219.92C220.891 219.587 221.018 219.301 221.271 219.062C221.529 218.82 221.838 218.699 222.197 218.699C222.557 218.699 222.864 218.82 223.118 219.062C223.375 219.301 223.504 219.587 223.504 219.92C223.504 220.258 223.375 220.547 223.118 220.79C222.864 221.028 222.557 221.148 222.197 221.148ZM227.761 225.955V231H225.341V222.273H227.648V223.812H227.75C227.943 223.305 228.267 222.903 228.722 222.608C229.176 222.309 229.727 222.159 230.375 222.159C230.981 222.159 231.509 222.292 231.96 222.557C232.411 222.822 232.761 223.201 233.011 223.693C233.261 224.182 233.386 224.765 233.386 225.443V231H230.966V225.875C230.97 225.341 230.833 224.924 230.557 224.625C230.28 224.322 229.9 224.17 229.415 224.17C229.089 224.17 228.801 224.241 228.551 224.381C228.305 224.521 228.112 224.725 227.972 224.994C227.835 225.259 227.765 225.58 227.761 225.955ZM237.783 231.165C237.226 231.165 236.73 231.068 236.294 230.875C235.858 230.678 235.514 230.388 235.26 230.006C235.01 229.619 234.885 229.138 234.885 228.562C234.885 228.078 234.974 227.67 235.152 227.341C235.33 227.011 235.572 226.746 235.879 226.545C236.186 226.345 236.535 226.193 236.925 226.091C237.319 225.989 237.732 225.917 238.163 225.875C238.671 225.822 239.08 225.773 239.391 225.727C239.701 225.678 239.927 225.606 240.067 225.511C240.207 225.417 240.277 225.277 240.277 225.091V225.057C240.277 224.697 240.163 224.419 239.936 224.222C239.713 224.025 239.394 223.926 238.982 223.926C238.546 223.926 238.199 224.023 237.942 224.216C237.684 224.405 237.514 224.644 237.43 224.932L235.192 224.75C235.305 224.22 235.529 223.761 235.862 223.375C236.196 222.985 236.625 222.686 237.152 222.477C237.682 222.265 238.296 222.159 238.993 222.159C239.478 222.159 239.942 222.216 240.385 222.33C240.832 222.443 241.228 222.619 241.572 222.858C241.921 223.097 242.196 223.403 242.396 223.778C242.597 224.15 242.697 224.595 242.697 225.114V231H240.402V229.79H240.334C240.194 230.062 240.006 230.303 239.771 230.511C239.536 230.716 239.254 230.877 238.925 230.994C238.595 231.108 238.214 231.165 237.783 231.165ZM238.476 229.494C238.832 229.494 239.146 229.424 239.419 229.284C239.692 229.14 239.906 228.947 240.061 228.705C240.216 228.462 240.294 228.187 240.294 227.881V226.955C240.218 227.004 240.114 227.049 239.982 227.091C239.853 227.129 239.707 227.165 239.544 227.199C239.381 227.229 239.218 227.258 239.055 227.284C238.893 227.307 238.745 227.328 238.612 227.347C238.328 227.388 238.08 227.455 237.868 227.545C237.656 227.636 237.491 227.759 237.374 227.915C237.256 228.066 237.197 228.256 237.197 228.483C237.197 228.812 237.317 229.064 237.555 229.239C237.798 229.409 238.105 229.494 238.476 229.494ZM244.53 231V229.557L248.803 224.267V224.205H244.678V222.273H251.717V223.847L247.706 229.006V229.068H251.865V231H244.53ZM256.205 231.165C255.648 231.165 255.152 231.068 254.716 230.875C254.28 230.678 253.936 230.388 253.682 230.006C253.432 229.619 253.307 229.138 253.307 228.562C253.307 228.078 253.396 227.67 253.574 227.341C253.752 227.011 253.994 226.746 254.301 226.545C254.608 226.345 254.956 226.193 255.347 226.091C255.741 225.989 256.153 225.917 256.585 225.875C257.093 225.822 257.502 225.773 257.812 225.727C258.123 225.678 258.348 225.606 258.489 225.511C258.629 225.417 258.699 225.277 258.699 225.091V225.057C258.699 224.697 258.585 224.419 258.358 224.222C258.134 224.025 257.816 223.926 257.403 223.926C256.968 223.926 256.621 224.023 256.364 224.216C256.106 224.405 255.936 224.644 255.852 224.932L253.614 224.75C253.727 224.22 253.951 223.761 254.284 223.375C254.617 222.985 255.047 222.686 255.574 222.477C256.104 222.265 256.718 222.159 257.415 222.159C257.9 222.159 258.364 222.216 258.807 222.33C259.254 222.443 259.65 222.619 259.994 222.858C260.343 223.097 260.617 223.403 260.818 223.778C261.019 224.15 261.119 224.595 261.119 225.114V231H258.824V229.79H258.756C258.616 230.062 258.428 230.303 258.193 230.511C257.958 230.716 257.676 230.877 257.347 230.994C257.017 231.108 256.636 231.165 256.205 231.165ZM256.898 229.494C257.254 229.494 257.568 229.424 257.841 229.284C258.114 229.14 258.328 228.947 258.483 228.705C258.638 228.462 258.716 228.187 258.716 227.881V226.955C258.64 227.004 258.536 227.049 258.403 227.091C258.275 227.129 258.129 227.165 257.966 227.199C257.803 227.229 257.64 227.258 257.477 227.284C257.314 227.307 257.167 227.328 257.034 227.347C256.75 227.388 256.502 227.455 256.29 227.545C256.078 227.636 255.913 227.759 255.795 227.915C255.678 228.066 255.619 228.256 255.619 228.483C255.619 228.812 255.739 229.064 255.977 229.239C256.22 229.409 256.527 229.494 256.898 229.494ZM277.013 223.438H274.524C274.479 223.116 274.386 222.83 274.246 222.58C274.106 222.326 273.926 222.11 273.706 221.932C273.486 221.754 273.232 221.617 272.945 221.523C272.661 221.428 272.352 221.381 272.018 221.381C271.416 221.381 270.892 221.53 270.445 221.83C269.998 222.125 269.651 222.557 269.405 223.125C269.159 223.689 269.036 224.375 269.036 225.182C269.036 226.011 269.159 226.708 269.405 227.273C269.655 227.837 270.003 228.263 270.45 228.551C270.897 228.839 271.414 228.983 272.001 228.983C272.331 228.983 272.636 228.939 272.916 228.852C273.2 228.765 273.452 228.638 273.672 228.472C273.892 228.301 274.073 228.095 274.217 227.852C274.365 227.61 274.467 227.333 274.524 227.023L277.013 227.034C276.948 227.568 276.787 228.083 276.53 228.58C276.276 229.072 275.933 229.513 275.501 229.903C275.073 230.29 274.562 230.597 273.967 230.824C273.376 231.047 272.708 231.159 271.962 231.159C270.924 231.159 269.996 230.924 269.178 230.455C268.363 229.985 267.719 229.305 267.246 228.415C266.776 227.525 266.541 226.447 266.541 225.182C266.541 223.913 266.78 222.833 267.257 221.943C267.734 221.053 268.382 220.375 269.2 219.909C270.018 219.439 270.939 219.205 271.962 219.205C272.636 219.205 273.261 219.299 273.837 219.489C274.416 219.678 274.929 219.955 275.376 220.318C275.823 220.678 276.187 221.119 276.467 221.642C276.751 222.165 276.933 222.763 277.013 223.438ZM281.152 225.955V231H278.732V219.364H281.084V223.812H281.186C281.383 223.297 281.701 222.894 282.141 222.602C282.58 222.307 283.131 222.159 283.794 222.159C284.4 222.159 284.929 222.292 285.379 222.557C285.834 222.818 286.186 223.195 286.436 223.688C286.69 224.176 286.815 224.761 286.811 225.443V231H284.391V225.875C284.394 225.337 284.258 224.919 283.982 224.619C283.709 224.32 283.326 224.17 282.834 224.17C282.504 224.17 282.213 224.241 281.959 224.381C281.709 224.521 281.512 224.725 281.368 224.994C281.228 225.259 281.156 225.58 281.152 225.955ZM294.312 227.284V222.273H296.733V231H294.409V229.415H294.318C294.121 229.926 293.794 230.337 293.335 230.648C292.881 230.958 292.326 231.114 291.67 231.114C291.087 231.114 290.574 230.981 290.131 230.716C289.688 230.451 289.341 230.074 289.091 229.585C288.845 229.097 288.72 228.511 288.716 227.83V222.273H291.136V227.398C291.14 227.913 291.278 228.32 291.551 228.619C291.824 228.919 292.189 229.068 292.648 229.068C292.939 229.068 293.212 229.002 293.466 228.869C293.72 228.733 293.924 228.532 294.08 228.267C294.239 228.002 294.316 227.674 294.312 227.284ZM300.862 228.489L300.868 225.585H301.22L304.016 222.273H306.794L303.038 226.659H302.464L300.862 228.489ZM298.669 231V219.364H301.089V231H298.669ZM304.124 231L301.555 227.199L303.169 225.489L306.959 231H304.124ZM309.703 231L307.328 222.273H309.777L311.129 228.136H311.209L312.618 222.273H315.021L316.453 228.102H316.527L317.857 222.273H320.3L317.93 231H315.368L313.868 225.511H313.76L312.26 231H309.703ZM327.188 227.284V222.273H329.608V231H327.284V229.415H327.193C326.996 229.926 326.669 230.337 326.21 230.648C325.756 230.958 325.201 231.114 324.545 231.114C323.962 231.114 323.449 230.981 323.006 230.716C322.563 230.451 322.216 230.074 321.966 229.585C321.72 229.097 321.595 228.511 321.591 227.83V222.273H324.011V227.398C324.015 227.913 324.153 228.32 324.426 228.619C324.699 228.919 325.064 229.068 325.523 229.068C325.814 229.068 326.087 229.002 326.341 228.869C326.595 228.733 326.799 228.532 326.955 228.267C327.114 228.002 327.191 227.674 327.188 227.284Z" fill="#2D4595"/>
<path d="M64.5227 78.4545V93H62.7614V78.4545H64.5227ZM73.4521 82.0909H75.1282V93.7955C75.1282 94.4678 75.0122 95.0502 74.7802 95.5426C74.5529 96.035 74.2073 96.4162 73.7433 96.6861C73.284 96.956 72.704 97.0909 72.0032 97.0909C71.9464 97.0909 71.8896 97.0909 71.8327 97.0909C71.7759 97.0909 71.7191 97.0909 71.6623 97.0909V95.5284C71.7191 95.5284 71.7712 95.5284 71.8185 95.5284C71.8659 95.5284 71.918 95.5284 71.9748 95.5284C72.4862 95.5284 72.8602 95.3769 73.0969 95.0739C73.3337 94.7756 73.4521 94.3494 73.4521 93.7955V82.0909ZM74.2759 80.2727C73.9492 80.2727 73.6675 80.1615 73.4308 79.9389C73.1987 79.7164 73.0827 79.4489 73.0827 79.1364C73.0827 78.8239 73.1987 78.5563 73.4308 78.3338C73.6675 78.1113 73.9492 78 74.2759 78C74.6026 78 74.882 78.1113 75.114 78.3338C75.3507 78.5563 75.4691 78.8239 75.4691 79.1364C75.4691 79.4489 75.3507 79.7164 75.114 79.9389C74.882 80.1615 74.6026 80.2727 74.2759 80.2727ZM85.0732 88.5398V82.0909H86.7493V93H85.0732V91.1534H84.9595C84.7038 91.7074 84.3061 92.1785 83.7663 92.5668C83.2266 92.9503 82.5447 93.142 81.7209 93.142C81.0391 93.142 80.433 92.9929 79.9027 92.6946C79.3724 92.3916 78.9557 91.937 78.6527 91.331C78.3497 90.7202 78.1982 89.9508 78.1982 89.0227V82.0909H79.8743V88.9091C79.8743 89.7045 80.0968 90.339 80.5419 90.8125C80.9917 91.286 81.5646 91.5227 82.2607 91.5227C82.6773 91.5227 83.1011 91.4162 83.532 91.2031C83.9676 90.9901 84.3321 90.6634 84.6257 90.223C84.924 89.7827 85.0732 89.2216 85.0732 88.5398ZM97.5465 84.5341L96.0408 84.9602C95.9461 84.7093 95.8065 84.4654 95.6218 84.2287C95.4419 83.9872 95.1957 83.7884 94.8832 83.6321C94.5707 83.4759 94.1706 83.3977 93.6829 83.3977C93.0153 83.3977 92.4589 83.5516 92.0138 83.8594C91.5735 84.1624 91.3533 84.5483 91.3533 85.017C91.3533 85.4337 91.5049 85.7628 91.8079 86.0043C92.1109 86.2457 92.5844 86.447 93.2283 86.608L94.8477 87.0057C95.823 87.2424 96.5498 87.6046 97.0281 88.0923C97.5063 88.5753 97.7454 89.1979 97.7454 89.9602C97.7454 90.5852 97.5655 91.1439 97.2056 91.6364C96.8505 92.1288 96.3533 92.517 95.7141 92.8011C95.0749 93.0852 94.3316 93.2273 93.484 93.2273C92.3713 93.2273 91.4504 92.9858 90.7212 92.5028C89.9921 92.0199 89.5304 91.3144 89.3363 90.3864L90.9272 89.9886C91.0787 90.5758 91.3652 91.0161 91.7866 91.3097C92.2127 91.6032 92.7691 91.75 93.4556 91.75C94.2369 91.75 94.8571 91.5843 95.3164 91.2528C95.7804 90.9167 96.0124 90.5142 96.0124 90.0455C96.0124 89.6667 95.8799 89.3494 95.6147 89.0938C95.3496 88.8333 94.9424 88.6392 94.3931 88.5114L92.5749 88.0852C91.5759 87.8485 90.842 87.4815 90.3732 86.9844C89.9092 86.4825 89.6772 85.8551 89.6772 85.1023C89.6772 84.4867 89.85 83.9422 90.1957 83.4688C90.546 82.9953 91.0219 82.6236 91.6232 82.3537C92.2293 82.0838 92.9158 81.9489 93.6829 81.9489C94.7624 81.9489 95.61 82.1856 96.2255 82.6591C96.8458 83.1326 97.2861 83.7576 97.5465 84.5341ZM105.013 82.0909V83.5114H99.3594V82.0909H105.013ZM101.007 79.4773H102.683V89.875C102.683 90.3485 102.752 90.7036 102.889 90.9403C103.031 91.1723 103.211 91.3286 103.429 91.4091C103.652 91.4848 103.886 91.5227 104.132 91.5227C104.317 91.5227 104.468 91.5133 104.587 91.4943C104.705 91.4706 104.8 91.4517 104.871 91.4375L105.212 92.9432C105.098 92.9858 104.939 93.0284 104.736 93.071C104.532 93.1184 104.274 93.142 103.962 93.142C103.488 93.142 103.024 93.0402 102.57 92.8366C102.12 92.633 101.746 92.3229 101.447 91.9062C101.154 91.4896 101.007 90.964 101.007 90.3295V79.4773ZM114.835 78.4545V93H113.159V78.4545H114.835ZM122.479 93.2273C121.428 93.2273 120.521 92.9953 119.759 92.5312C119.001 92.0625 118.417 91.4091 118.005 90.571C117.597 89.7282 117.394 88.7481 117.394 87.6307C117.394 86.5133 117.597 85.5284 118.005 84.6761C118.417 83.8191 118.989 83.1515 119.723 82.6733C120.462 82.1903 121.324 81.9489 122.309 81.9489C122.877 81.9489 123.438 82.0436 123.992 82.233C124.546 82.4223 125.05 82.7301 125.505 83.1562C125.959 83.5777 126.321 84.1364 126.591 84.8324C126.861 85.5284 126.996 86.3854 126.996 87.4034V88.1136H118.587V86.6648H125.292C125.292 86.0492 125.168 85.5 124.922 85.017C124.681 84.5341 124.335 84.1529 123.885 83.8736C123.44 83.5942 122.915 83.4545 122.309 83.4545C121.641 83.4545 121.063 83.6203 120.576 83.9517C120.093 84.2784 119.721 84.7045 119.461 85.2301C119.2 85.7557 119.07 86.3191 119.07 86.9205V87.8864C119.07 88.7102 119.212 89.4086 119.496 89.9815C119.785 90.5497 120.185 90.983 120.696 91.2812C121.208 91.5748 121.802 91.7216 122.479 91.7216C122.919 91.7216 123.317 91.66 123.672 91.5369C124.032 91.4091 124.342 91.2197 124.603 90.9688C124.863 90.7131 125.064 90.3958 125.206 90.017L126.826 90.4716C126.655 91.0208 126.369 91.5038 125.966 91.9205C125.564 92.3324 125.067 92.6544 124.475 92.8864C123.883 93.1136 123.218 93.2273 122.479 93.2273ZM132.756 93.2557C132.065 93.2557 131.437 93.1255 130.874 92.8651C130.31 92.5999 129.863 92.2188 129.532 91.7216C129.2 91.2197 129.034 90.6136 129.034 89.9034C129.034 89.2784 129.158 88.7718 129.404 88.3835C129.65 87.9905 129.979 87.6828 130.391 87.4602C130.803 87.2377 131.257 87.072 131.755 86.9631C132.257 86.8494 132.761 86.7595 133.267 86.6932C133.93 86.608 134.468 86.544 134.88 86.5014C135.296 86.4541 135.599 86.3759 135.789 86.267C135.983 86.1581 136.08 85.9687 136.08 85.6989V85.642C136.08 84.9413 135.888 84.3968 135.505 84.0085C135.126 83.6203 134.551 83.4261 133.779 83.4261C132.979 83.4261 132.351 83.6013 131.897 83.9517C131.442 84.3021 131.123 84.6761 130.938 85.0739L129.347 84.5057C129.631 83.8428 130.01 83.3267 130.483 82.9574C130.962 82.5833 131.482 82.3229 132.046 82.1761C132.614 82.0246 133.173 81.9489 133.722 81.9489C134.072 81.9489 134.475 81.9915 134.929 82.0767C135.389 82.1572 135.831 82.3253 136.257 82.581C136.688 82.8366 137.046 83.2225 137.33 83.7386C137.614 84.2547 137.756 84.946 137.756 85.8125V93H136.08V91.5227H135.995C135.881 91.7595 135.692 92.0128 135.426 92.2827C135.161 92.5526 134.809 92.7822 134.368 92.9716C133.928 93.161 133.391 93.2557 132.756 93.2557ZM133.012 91.75C133.675 91.75 134.233 91.6198 134.688 91.3594C135.147 91.099 135.493 90.7628 135.725 90.3509C135.962 89.9389 136.08 89.5057 136.08 89.0511V87.517C136.009 87.6023 135.853 87.6804 135.611 87.7514C135.374 87.8177 135.1 87.8769 134.787 87.929C134.48 87.9763 134.179 88.0189 133.885 88.0568C133.596 88.09 133.362 88.1184 133.182 88.142C132.747 88.1989 132.339 88.2912 131.961 88.419C131.587 88.5421 131.283 88.7292 131.051 88.9801C130.824 89.2263 130.711 89.5625 130.711 89.9886C130.711 90.571 130.926 91.0114 131.357 91.3097C131.792 91.6032 132.344 91.75 133.012 91.75ZM149.345 82.0909L145.311 93H143.607L139.572 82.0909H141.391L144.402 90.7841H144.516L147.527 82.0909H149.345ZM155.741 93.2273C154.69 93.2273 153.783 92.9953 153.021 92.5312C152.263 92.0625 151.678 91.4091 151.266 90.571C150.859 89.7282 150.656 88.7481 150.656 87.6307C150.656 86.5133 150.859 85.5284 151.266 84.6761C151.678 83.8191 152.251 83.1515 152.985 82.6733C153.724 82.1903 154.585 81.9489 155.57 81.9489C156.138 81.9489 156.7 82.0436 157.254 82.233C157.808 82.4223 158.312 82.7301 158.766 83.1562C159.221 83.5777 159.583 84.1364 159.853 84.8324C160.123 85.5284 160.258 86.3854 160.258 87.4034V88.1136H151.849V86.6648H158.553C158.553 86.0492 158.43 85.5 158.184 85.017C157.942 84.5341 157.597 84.1529 157.147 83.8736C156.702 83.5942 156.176 83.4545 155.57 83.4545C154.903 83.4545 154.325 83.6203 153.837 83.9517C153.354 84.2784 152.983 84.7045 152.722 85.2301C152.462 85.7557 152.332 86.3191 152.332 86.9205V87.8864C152.332 88.7102 152.474 89.4086 152.758 89.9815C153.047 90.5497 153.447 90.983 153.958 91.2812C154.469 91.5748 155.064 91.7216 155.741 91.7216C156.181 91.7216 156.579 91.66 156.934 91.5369C157.294 91.4091 157.604 91.2197 157.864 90.9688C158.125 90.7131 158.326 90.3958 158.468 90.017L160.087 90.4716C159.917 91.0208 159.63 91.5038 159.228 91.9205C158.826 92.3324 158.328 92.6544 157.737 92.8864C157.145 93.1136 156.479 93.2273 155.741 93.2273ZM173.177 82.0909V83.5114H167.523V82.0909H173.177ZM169.171 79.4773H170.847V89.875C170.847 90.3485 170.916 90.7036 171.053 90.9403C171.195 91.1723 171.375 91.3286 171.593 91.4091C171.816 91.4848 172.05 91.5227 172.296 91.5227C172.481 91.5227 172.632 91.5133 172.751 91.4943C172.869 91.4706 172.964 91.4517 173.035 91.4375L173.376 92.9432C173.262 92.9858 173.103 93.0284 172.9 93.071C172.696 93.1184 172.438 93.142 172.126 93.142C171.652 93.142 171.188 93.0402 170.734 92.8366C170.284 92.633 169.91 92.3229 169.612 91.9062C169.318 91.4896 169.171 90.964 169.171 90.3295V79.4773ZM177.609 86.4375V93H175.933V78.4545H177.609V83.7955H177.751C178.006 83.232 178.39 82.7846 178.901 82.4531C179.417 82.117 180.104 81.9489 180.961 81.9489C181.704 81.9489 182.355 82.098 182.914 82.3963C183.473 82.6899 183.906 83.142 184.214 83.7528C184.526 84.3589 184.683 85.1307 184.683 86.0682V93H183.006V86.1818C183.006 85.3153 182.781 84.6454 182.332 84.1719C181.887 83.6937 181.269 83.4545 180.478 83.4545C179.929 83.4545 179.436 83.5705 179.001 83.8026C178.57 84.0346 178.229 84.3731 177.978 84.8182C177.732 85.2633 177.609 85.803 177.609 86.4375ZM192.323 93.2273C191.272 93.2273 190.365 92.9953 189.603 92.5312C188.845 92.0625 188.26 91.4091 187.848 90.571C187.441 89.7282 187.238 88.7481 187.238 87.6307C187.238 86.5133 187.441 85.5284 187.848 84.6761C188.26 83.8191 188.833 83.1515 189.567 82.6733C190.306 82.1903 191.167 81.9489 192.152 81.9489C192.721 81.9489 193.282 82.0436 193.836 82.233C194.39 82.4223 194.894 82.7301 195.348 83.1562C195.803 83.5777 196.165 84.1364 196.435 84.8324C196.705 85.5284 196.84 86.3854 196.84 87.4034V88.1136H188.431V86.6648H195.135C195.135 86.0492 195.012 85.5 194.766 85.017C194.525 84.5341 194.179 84.1529 193.729 83.8736C193.284 83.5942 192.758 83.4545 192.152 83.4545C191.485 83.4545 190.907 83.6203 190.419 83.9517C189.936 84.2784 189.565 84.7045 189.304 85.2301C189.044 85.7557 188.914 86.3191 188.914 86.9205V87.8864C188.914 88.7102 189.056 89.4086 189.34 89.9815C189.629 90.5497 190.029 90.983 190.54 91.2812C191.051 91.5748 191.646 91.7216 192.323 91.7216C192.763 91.7216 193.161 91.66 193.516 91.5369C193.876 91.4091 194.186 91.2197 194.446 90.9688C194.707 90.7131 194.908 90.3958 195.05 90.017L196.669 90.4716C196.499 91.0208 196.212 91.5038 195.81 91.9205C195.408 92.3324 194.91 92.6544 194.319 92.8864C193.727 93.1136 193.061 93.2273 192.323 93.2273ZM205.015 93V82.0909H206.634V83.7955H206.776C207.003 83.2131 207.37 82.7609 207.877 82.4389C208.383 82.1122 208.992 81.9489 209.702 81.9489C210.422 81.9489 211.021 82.1122 211.499 82.4389C211.982 82.7609 212.358 83.2131 212.628 83.7955H212.742C213.021 83.232 213.44 82.7846 213.999 82.4531C214.558 82.117 215.228 81.9489 216.009 81.9489C216.984 81.9489 217.782 82.2543 218.402 82.8651C219.023 83.4711 219.333 84.4157 219.333 85.6989V93H217.657V85.6989C217.657 84.8939 217.436 84.3187 216.996 83.973C216.556 83.6274 216.037 83.4545 215.441 83.4545C214.674 83.4545 214.079 83.6866 213.658 84.1506C213.237 84.6098 213.026 85.1922 213.026 85.8977V93H211.321V85.5284C211.321 84.9081 211.12 84.4086 210.718 84.0298C210.315 83.6463 209.797 83.4545 209.162 83.4545C208.727 83.4545 208.319 83.5705 207.941 83.8026C207.567 84.0346 207.264 84.3565 207.032 84.7685C206.804 85.1757 206.691 85.6468 206.691 86.1818V93H205.015ZM226.829 93.2273C225.844 93.2273 224.98 92.9929 224.237 92.5241C223.498 92.0554 222.921 91.3996 222.504 90.5568C222.092 89.714 221.886 88.7292 221.886 87.6023C221.886 86.4659 222.092 85.474 222.504 84.6264C222.921 83.7789 223.498 83.1207 224.237 82.652C224.98 82.1832 225.844 81.9489 226.829 81.9489C227.814 81.9489 228.676 82.1832 229.414 82.652C230.158 83.1207 230.735 83.7789 231.147 84.6264C231.564 85.474 231.772 86.4659 231.772 87.6023C231.772 88.7292 231.564 89.714 231.147 90.5568C230.735 91.3996 230.158 92.0554 229.414 92.5241C228.676 92.9929 227.814 93.2273 226.829 93.2273ZM226.829 91.7216C227.577 91.7216 228.193 91.5298 228.676 91.1463C229.159 90.7628 229.516 90.2585 229.748 89.6335C229.98 89.0085 230.096 88.3314 230.096 87.6023C230.096 86.8731 229.98 86.1937 229.748 85.5639C229.516 84.9342 229.159 84.4252 228.676 84.0369C228.193 83.6487 227.577 83.4545 226.829 83.4545C226.081 83.4545 225.466 83.6487 224.983 84.0369C224.5 84.4252 224.142 84.9342 223.91 85.5639C223.678 86.1937 223.562 86.8731 223.562 87.6023C223.562 88.3314 223.678 89.0085 223.91 89.6335C224.142 90.2585 224.5 90.7628 224.983 91.1463C225.466 91.5298 226.081 91.7216 226.829 91.7216ZM236.007 86.4375V93H234.331V82.0909H235.95V83.7955H236.092C236.348 83.2415 236.736 82.7964 237.257 82.4602C237.778 82.1193 238.45 81.9489 239.274 81.9489C240.013 81.9489 240.659 82.1004 241.213 82.4034C241.767 82.7017 242.198 83.1562 242.506 83.767C242.813 84.3731 242.967 85.1402 242.967 86.0682V93H241.291V86.1818C241.291 85.3248 241.069 84.6572 240.624 84.179C240.179 83.696 239.568 83.4545 238.791 83.4545C238.256 83.4545 237.778 83.5705 237.357 83.8026C236.94 84.0346 236.611 84.3731 236.369 84.8182C236.128 85.2633 236.007 85.803 236.007 86.4375ZM250.604 93.2273C249.553 93.2273 248.646 92.9953 247.884 92.5312C247.126 92.0625 246.542 91.4091 246.13 90.571C245.722 89.7282 245.519 88.7481 245.519 87.6307C245.519 86.5133 245.722 85.5284 246.13 84.6761C246.542 83.8191 247.114 83.1515 247.848 82.6733C248.587 82.1903 249.449 81.9489 250.434 81.9489C251.002 81.9489 251.563 82.0436 252.117 82.233C252.671 82.4223 253.175 82.7301 253.63 83.1562C254.084 83.5777 254.446 84.1364 254.716 84.8324C254.986 85.5284 255.121 86.3854 255.121 87.4034V88.1136H246.712V86.6648H253.417C253.417 86.0492 253.293 85.5 253.047 85.017C252.806 84.5341 252.46 84.1529 252.01 83.8736C251.565 83.5942 251.04 83.4545 250.434 83.4545C249.766 83.4545 249.188 83.6203 248.701 83.9517C248.218 84.2784 247.846 84.7045 247.586 85.2301C247.325 85.7557 247.195 86.3191 247.195 86.9205V87.8864C247.195 88.7102 247.337 89.4086 247.621 89.9815C247.91 90.5497 248.31 90.983 248.821 91.2812C249.333 91.5748 249.927 91.7216 250.604 91.7216C251.044 91.7216 251.442 91.66 251.797 91.5369C252.157 91.4091 252.467 91.2197 252.728 90.9688C252.988 90.7131 253.189 90.3958 253.331 90.017L254.951 90.4716C254.78 91.0208 254.494 91.5038 254.091 91.9205C253.689 92.3324 253.192 92.6544 252.6 92.8864C252.008 93.1136 251.343 93.2273 250.604 93.2273ZM258.418 97.0909C258.134 97.0909 257.881 97.0672 257.658 97.0199C257.436 96.9773 257.282 96.9347 257.197 96.892L257.623 95.4148C258.03 95.5189 258.39 95.5568 258.702 95.5284C259.015 95.5 259.292 95.3603 259.533 95.1094C259.78 94.8632 260.004 94.4631 260.208 93.9091L260.521 93.0568L256.487 82.0909H258.305L261.316 90.7841H261.43L264.441 82.0909H266.259L261.629 94.5909C261.42 95.1544 261.162 95.6207 260.854 95.9901C260.547 96.3641 260.189 96.6411 259.782 96.821C259.379 97.0009 258.925 97.0909 258.418 97.0909ZM274.097 93V82.0909H275.773V93H274.097ZM274.949 80.2727C274.622 80.2727 274.34 80.1615 274.104 79.9389C273.872 79.7164 273.756 79.4489 273.756 79.1364C273.756 78.8239 273.872 78.5563 274.104 78.3338C274.34 78.1113 274.622 78 274.949 78C275.276 78 275.555 78.1113 275.787 78.3338C276.024 78.5563 276.142 78.8239 276.142 79.1364C276.142 79.4489 276.024 79.7164 275.787 79.9389C275.555 80.1615 275.276 80.2727 274.949 80.2727ZM280.519 86.4375V93H278.843V82.0909H280.462V83.7955H280.604C280.86 83.2415 281.248 82.7964 281.769 82.4602C282.29 82.1193 282.962 81.9489 283.786 81.9489C284.525 81.9489 285.171 82.1004 285.725 82.4034C286.279 82.7017 286.71 83.1562 287.017 83.767C287.325 84.3731 287.479 85.1402 287.479 86.0682V93H285.803V86.1818C285.803 85.3248 285.58 84.6572 285.135 84.179C284.69 83.696 284.079 83.4545 283.303 83.4545C282.768 83.4545 282.29 83.5705 281.868 83.8026C281.452 84.0346 281.123 84.3731 280.881 84.8182C280.64 85.2633 280.519 85.803 280.519 86.4375ZM296.167 93V82.0909H297.786V83.7955H297.928C298.156 83.2131 298.522 82.7609 299.029 82.4389C299.536 82.1122 300.144 81.9489 300.854 81.9489C301.574 81.9489 302.173 82.1122 302.651 82.4389C303.134 82.7609 303.511 83.2131 303.781 83.7955H303.894C304.174 83.232 304.593 82.7846 305.151 82.4531C305.71 82.117 306.38 81.9489 307.161 81.9489C308.137 81.9489 308.934 82.2543 309.555 82.8651C310.175 83.4711 310.485 84.4157 310.485 85.6989V93H308.809V85.6989C308.809 84.8939 308.589 84.3187 308.148 83.973C307.708 83.6274 307.19 83.4545 306.593 83.4545C305.826 83.4545 305.232 83.6866 304.81 84.1506C304.389 84.6098 304.178 85.1922 304.178 85.8977V93H302.474V85.5284C302.474 84.9081 302.272 84.4086 301.87 84.0298C301.468 83.6463 300.949 83.4545 300.315 83.4545C299.879 83.4545 299.472 83.5705 299.093 83.8026C298.719 84.0346 298.416 84.3565 298.184 84.7685C297.957 85.1757 297.843 85.6468 297.843 86.1818V93H296.167ZM314.239 97.0909C313.955 97.0909 313.701 97.0672 313.479 97.0199C313.256 96.9773 313.102 96.9347 313.017 96.892L313.443 95.4148C313.85 95.5189 314.21 95.5568 314.523 95.5284C314.835 95.5 315.112 95.3603 315.354 95.1094C315.6 94.8632 315.825 94.4631 316.028 93.9091L316.341 93.0568L312.307 82.0909H314.125L317.136 90.7841H317.25L320.261 82.0909H322.08L317.449 94.5909C317.241 95.1544 316.982 95.6207 316.675 95.9901C316.367 96.3641 316.009 96.6411 315.602 96.821C315.2 97.0009 314.745 97.0909 314.239 97.0909ZM65.7443 123.256C65.053 123.256 64.4257 123.125 63.8622 122.865C63.2988 122.6 62.8513 122.219 62.5199 121.722C62.1884 121.22 62.0227 120.614 62.0227 119.903C62.0227 119.278 62.1458 118.772 62.392 118.384C62.6383 117.991 62.9673 117.683 63.3793 117.46C63.7912 117.238 64.2457 117.072 64.7429 116.963C65.2448 116.849 65.7491 116.759 66.2557 116.693C66.9186 116.608 67.456 116.544 67.8679 116.501C68.2846 116.454 68.5876 116.376 68.777 116.267C68.9711 116.158 69.0682 115.969 69.0682 115.699V115.642C69.0682 114.941 68.8764 114.397 68.4929 114.009C68.1141 113.62 67.5388 113.426 66.767 113.426C65.9669 113.426 65.3395 113.601 64.8849 113.952C64.4304 114.302 64.1108 114.676 63.9261 115.074L62.3352 114.506C62.6193 113.843 62.9981 113.327 63.4716 112.957C63.9498 112.583 64.4706 112.323 65.0341 112.176C65.6023 112.025 66.161 111.949 66.7102 111.949C67.0606 111.949 67.4631 111.991 67.9176 112.077C68.3769 112.157 68.8196 112.325 69.2457 112.581C69.6766 112.837 70.0341 113.223 70.3182 113.739C70.6023 114.255 70.7443 114.946 70.7443 115.812V123H69.0682V121.523H68.983C68.8693 121.759 68.6799 122.013 68.4148 122.283C68.1496 122.553 67.7969 122.782 67.3565 122.972C66.9162 123.161 66.3788 123.256 65.7443 123.256ZM66 121.75C66.6629 121.75 67.2216 121.62 67.6761 121.359C68.1354 121.099 68.4811 120.763 68.7131 120.351C68.9498 119.939 69.0682 119.506 69.0682 119.051V117.517C68.9972 117.602 68.8409 117.68 68.5994 117.751C68.3627 117.818 68.0881 117.877 67.7756 117.929C67.4678 117.976 67.1671 118.019 66.8736 118.057C66.5848 118.09 66.3504 118.118 66.1705 118.142C65.7348 118.199 65.3277 118.291 64.9489 118.419C64.5748 118.542 64.2718 118.729 64.0398 118.98C63.8125 119.226 63.6989 119.562 63.6989 119.989C63.6989 120.571 63.9143 121.011 64.3452 121.31C64.7808 121.603 65.3324 121.75 66 121.75ZM78.2354 123.227C77.2127 123.227 76.332 122.986 75.5934 122.503C74.8548 122.02 74.2866 121.355 73.8888 120.507C73.4911 119.66 73.2923 118.691 73.2923 117.602C73.2923 116.494 73.4959 115.517 73.9031 114.669C74.315 113.817 74.8879 113.152 75.6218 112.673C76.3604 112.19 77.2222 111.949 78.207 111.949C78.9741 111.949 79.6654 112.091 80.2809 112.375C80.8964 112.659 81.4007 113.057 81.7937 113.568C82.1867 114.08 82.4305 114.676 82.5252 115.358H80.8491C80.7212 114.861 80.4371 114.42 79.9968 114.037C79.5612 113.649 78.9741 113.455 78.2354 113.455C77.582 113.455 77.0091 113.625 76.5167 113.966C76.029 114.302 75.6478 114.778 75.3732 115.393C75.1033 116.004 74.9684 116.722 74.9684 117.545C74.9684 118.388 75.101 119.122 75.3661 119.747C75.636 120.372 76.0148 120.857 76.5025 121.203C76.9949 121.549 77.5726 121.722 78.2354 121.722C78.671 121.722 79.0664 121.646 79.4215 121.494C79.7766 121.343 80.0773 121.125 80.3235 120.841C80.5697 120.557 80.7449 120.216 80.8491 119.818H82.5252C82.4305 120.462 82.1961 121.042 81.8221 121.558C81.4528 122.07 80.9627 122.477 80.3519 122.78C79.7459 123.078 79.0404 123.227 78.2354 123.227ZM89.4073 123.227C88.4225 123.227 87.5584 122.993 86.815 122.524C86.0763 122.055 85.4987 121.4 85.082 120.557C84.6701 119.714 84.4641 118.729 84.4641 117.602C84.4641 116.466 84.6701 115.474 85.082 114.626C85.4987 113.779 86.0763 113.121 86.815 112.652C87.5584 112.183 88.4225 111.949 89.4073 111.949C90.3922 111.949 91.2539 112.183 91.9925 112.652C92.7359 113.121 93.3136 113.779 93.7255 114.626C94.1422 115.474 94.3505 116.466 94.3505 117.602C94.3505 118.729 94.1422 119.714 93.7255 120.557C93.3136 121.4 92.7359 122.055 91.9925 122.524C91.2539 122.993 90.3922 123.227 89.4073 123.227ZM89.4073 121.722C90.1554 121.722 90.771 121.53 91.2539 121.146C91.7369 120.763 92.0943 120.259 92.3263 119.634C92.5584 119.009 92.6744 118.331 92.6744 117.602C92.6744 116.873 92.5584 116.194 92.3263 115.564C92.0943 114.934 91.7369 114.425 91.2539 114.037C90.771 113.649 90.1554 113.455 89.4073 113.455C88.6592 113.455 88.0437 113.649 87.5607 114.037C87.0778 114.425 86.7203 114.934 86.4883 115.564C86.2563 116.194 86.1403 116.873 86.1403 117.602C86.1403 118.331 86.2563 119.009 86.4883 119.634C86.7203 120.259 87.0778 120.763 87.5607 121.146C88.0437 121.53 88.6592 121.722 89.4073 121.722ZM103.784 118.54V112.091H105.46V123H103.784V121.153H103.67C103.415 121.707 103.017 122.179 102.477 122.567C101.938 122.95 101.256 123.142 100.432 123.142C99.75 123.142 99.1439 122.993 98.6136 122.695C98.0833 122.392 97.6667 121.937 97.3636 121.331C97.0606 120.72 96.9091 119.951 96.9091 119.023V112.091H98.5852V118.909C98.5852 119.705 98.8078 120.339 99.2528 120.812C99.7027 121.286 100.276 121.523 100.972 121.523C101.388 121.523 101.812 121.416 102.243 121.203C102.679 120.99 103.043 120.663 103.337 120.223C103.635 119.783 103.784 119.222 103.784 118.54ZM110.206 116.438V123H108.53V112.091H110.15V113.795H110.292C110.547 113.241 110.935 112.796 111.456 112.46C111.977 112.119 112.65 111.949 113.473 111.949C114.212 111.949 114.858 112.1 115.412 112.403C115.966 112.702 116.397 113.156 116.705 113.767C117.013 114.373 117.167 115.14 117.167 116.068V123H115.49V116.182C115.49 115.325 115.268 114.657 114.823 114.179C114.378 113.696 113.767 113.455 112.99 113.455C112.455 113.455 111.977 113.571 111.556 113.803C111.139 114.035 110.81 114.373 110.569 114.818C110.327 115.263 110.206 115.803 110.206 116.438ZM124.974 112.091V113.511H119.32V112.091H124.974ZM120.968 109.477H122.644V119.875C122.644 120.348 122.713 120.704 122.85 120.94C122.992 121.172 123.172 121.329 123.39 121.409C123.612 121.485 123.847 121.523 124.093 121.523C124.278 121.523 124.429 121.513 124.548 121.494C124.666 121.471 124.761 121.452 124.832 121.438L125.173 122.943C125.059 122.986 124.9 123.028 124.697 123.071C124.493 123.118 124.235 123.142 123.923 123.142C123.449 123.142 122.985 123.04 122.531 122.837C122.081 122.633 121.707 122.323 121.408 121.906C121.115 121.49 120.968 120.964 120.968 120.33V109.477ZM136.33 123.256C135.639 123.256 135.012 123.125 134.448 122.865C133.885 122.6 133.437 122.219 133.106 121.722C132.774 121.22 132.609 120.614 132.609 119.903C132.609 119.278 132.732 118.772 132.978 118.384C133.224 117.991 133.553 117.683 133.965 117.46C134.377 117.238 134.832 117.072 135.329 116.963C135.831 116.849 136.335 116.759 136.842 116.693C137.504 116.608 138.042 116.544 138.454 116.501C138.871 116.454 139.174 116.376 139.363 116.267C139.557 116.158 139.654 115.969 139.654 115.699V115.642C139.654 114.941 139.462 114.397 139.079 114.009C138.7 113.62 138.125 113.426 137.353 113.426C136.553 113.426 135.925 113.601 135.471 113.952C135.016 114.302 134.697 114.676 134.512 115.074L132.921 114.506C133.205 113.843 133.584 113.327 134.058 112.957C134.536 112.583 135.057 112.323 135.62 112.176C136.188 112.025 136.747 111.949 137.296 111.949C137.647 111.949 138.049 111.991 138.504 112.077C138.963 112.157 139.406 112.325 139.832 112.581C140.263 112.837 140.62 113.223 140.904 113.739C141.188 114.255 141.33 114.946 141.33 115.812V123H139.654V121.523H139.569C139.455 121.759 139.266 122.013 139.001 122.283C138.736 122.553 138.383 122.782 137.942 122.972C137.502 123.161 136.965 123.256 136.33 123.256ZM136.586 121.75C137.249 121.75 137.808 121.62 138.262 121.359C138.721 121.099 139.067 120.763 139.299 120.351C139.536 119.939 139.654 119.506 139.654 119.051V117.517C139.583 117.602 139.427 117.68 139.185 117.751C138.949 117.818 138.674 117.877 138.362 117.929C138.054 117.976 137.753 118.019 137.46 118.057C137.171 118.09 136.936 118.118 136.756 118.142C136.321 118.199 135.914 118.291 135.535 118.419C135.161 118.542 134.858 118.729 134.626 118.98C134.398 119.226 134.285 119.562 134.285 119.989C134.285 120.571 134.5 121.011 134.931 121.31C135.367 121.603 135.918 121.75 136.586 121.75ZM146.066 116.438V123H144.39V112.091H146.009V113.795H146.151C146.407 113.241 146.795 112.796 147.316 112.46C147.837 112.119 148.509 111.949 149.333 111.949C150.071 111.949 150.718 112.1 151.272 112.403C151.826 112.702 152.257 113.156 152.564 113.767C152.872 114.373 153.026 115.14 153.026 116.068V123H151.35V116.182C151.35 115.325 151.127 114.657 150.682 114.179C150.237 113.696 149.626 113.455 148.85 113.455C148.315 113.455 147.837 113.571 147.415 113.803C146.998 114.035 146.669 114.373 146.428 114.818C146.186 115.263 146.066 115.803 146.066 116.438ZM160.208 123.227C159.299 123.227 158.496 122.998 157.8 122.538C157.104 122.074 156.56 121.421 156.167 120.578C155.774 119.731 155.577 118.729 155.577 117.574C155.577 116.428 155.774 115.434 156.167 114.591C156.56 113.748 157.107 113.097 157.808 112.638C158.508 112.179 159.318 111.949 160.237 111.949C160.947 111.949 161.508 112.067 161.92 112.304C162.336 112.536 162.654 112.801 162.871 113.099C163.094 113.393 163.267 113.634 163.39 113.824H163.532V108.455H165.208V123H163.589V121.324H163.39C163.267 121.523 163.092 121.774 162.864 122.077C162.637 122.375 162.313 122.643 161.891 122.879C161.47 123.111 160.909 123.227 160.208 123.227ZM160.435 121.722C161.108 121.722 161.676 121.546 162.14 121.196C162.604 120.841 162.957 120.351 163.198 119.726C163.44 119.096 163.56 118.369 163.56 117.545C163.56 116.731 163.442 116.018 163.205 115.408C162.969 114.792 162.618 114.314 162.154 113.973C161.69 113.627 161.117 113.455 160.435 113.455C159.725 113.455 159.133 113.637 158.66 114.001C158.191 114.361 157.838 114.851 157.602 115.472C157.37 116.087 157.254 116.778 157.254 117.545C157.254 118.322 157.372 119.027 157.609 119.662C157.85 120.292 158.205 120.794 158.674 121.168C159.147 121.537 159.735 121.722 160.435 121.722ZM175.812 116.438V123H174.136V108.455H175.812V113.795H175.954C176.21 113.232 176.593 112.785 177.104 112.453C177.621 112.117 178.307 111.949 179.164 111.949C179.907 111.949 180.558 112.098 181.117 112.396C181.676 112.69 182.109 113.142 182.417 113.753C182.729 114.359 182.886 115.131 182.886 116.068V123H181.21V116.182C181.21 115.315 180.985 114.645 180.535 114.172C180.09 113.694 179.472 113.455 178.681 113.455C178.132 113.455 177.639 113.571 177.204 113.803C176.773 114.035 176.432 114.373 176.181 114.818C175.935 115.263 175.812 115.803 175.812 116.438ZM190.384 123.227C189.399 123.227 188.535 122.993 187.792 122.524C187.053 122.055 186.475 121.4 186.059 120.557C185.647 119.714 185.441 118.729 185.441 117.602C185.441 116.466 185.647 115.474 186.059 114.626C186.475 113.779 187.053 113.121 187.792 112.652C188.535 112.183 189.399 111.949 190.384 111.949C191.369 111.949 192.23 112.183 192.969 112.652C193.712 113.121 194.29 113.779 194.702 114.626C195.119 115.474 195.327 116.466 195.327 117.602C195.327 118.729 195.119 119.714 194.702 120.557C194.29 121.4 193.712 122.055 192.969 122.524C192.23 122.993 191.369 123.227 190.384 123.227ZM190.384 121.722C191.132 121.722 191.748 121.53 192.23 121.146C192.713 120.763 193.071 120.259 193.303 119.634C193.535 119.009 193.651 118.331 193.651 117.602C193.651 116.873 193.535 116.194 193.303 115.564C193.071 114.934 192.713 114.425 192.23 114.037C191.748 113.649 191.132 113.455 190.384 113.455C189.636 113.455 189.02 113.649 188.537 114.037C188.054 114.425 187.697 114.934 187.465 115.564C187.233 116.194 187.117 116.873 187.117 117.602C187.117 118.331 187.233 119.009 187.465 119.634C187.697 120.259 188.054 120.763 188.537 121.146C189.02 121.53 189.636 121.722 190.384 121.722ZM197.886 127.091V112.091H199.505V113.824H199.704C199.827 113.634 199.997 113.393 200.215 113.099C200.438 112.801 200.755 112.536 201.167 112.304C201.584 112.067 202.147 111.949 202.857 111.949C203.776 111.949 204.585 112.179 205.286 112.638C205.987 113.097 206.534 113.748 206.927 114.591C207.32 115.434 207.516 116.428 207.516 117.574C207.516 118.729 207.32 119.731 206.927 120.578C206.534 121.421 205.989 122.074 205.293 122.538C204.597 122.998 203.795 123.227 202.886 123.227C202.185 123.227 201.624 123.111 201.202 122.879C200.781 122.643 200.457 122.375 200.229 122.077C200.002 121.774 199.827 121.523 199.704 121.324H199.562V127.091H197.886ZM199.533 117.545C199.533 118.369 199.654 119.096 199.896 119.726C200.137 120.351 200.49 120.841 200.954 121.196C201.418 121.546 201.986 121.722 202.658 121.722C203.359 121.722 203.944 121.537 204.413 121.168C204.886 120.794 205.241 120.292 205.478 119.662C205.719 119.027 205.84 118.322 205.84 117.545C205.84 116.778 205.722 116.087 205.485 115.472C205.253 114.851 204.9 114.361 204.427 114.001C203.958 113.637 203.369 113.455 202.658 113.455C201.977 113.455 201.404 113.627 200.94 113.973C200.476 114.314 200.125 114.792 199.888 115.408C199.652 116.018 199.533 116.731 199.533 117.545ZM214.647 123.227C213.596 123.227 212.689 122.995 211.927 122.531C211.169 122.062 210.585 121.409 210.173 120.571C209.765 119.728 209.562 118.748 209.562 117.631C209.562 116.513 209.765 115.528 210.173 114.676C210.585 113.819 211.157 113.152 211.891 112.673C212.63 112.19 213.492 111.949 214.477 111.949C215.045 111.949 215.606 112.044 216.16 112.233C216.714 112.422 217.218 112.73 217.673 113.156C218.127 113.578 218.489 114.136 218.759 114.832C219.029 115.528 219.164 116.385 219.164 117.403V118.114H210.755V116.665H217.46C217.46 116.049 217.336 115.5 217.09 115.017C216.849 114.534 216.503 114.153 216.053 113.874C215.608 113.594 215.083 113.455 214.477 113.455C213.809 113.455 213.231 113.62 212.744 113.952C212.261 114.278 211.889 114.705 211.629 115.23C211.368 115.756 211.238 116.319 211.238 116.92V117.886C211.238 118.71 211.38 119.409 211.664 119.982C211.953 120.55 212.353 120.983 212.864 121.281C213.376 121.575 213.97 121.722 214.647 121.722C215.087 121.722 215.485 121.66 215.84 121.537C216.2 121.409 216.51 121.22 216.771 120.969C217.031 120.713 217.232 120.396 217.374 120.017L218.994 120.472C218.823 121.021 218.537 121.504 218.134 121.92C217.732 122.332 217.235 122.654 216.643 122.886C216.051 123.114 215.386 123.227 214.647 123.227ZM227.339 123V112.091H229.015V123H227.339ZM228.191 110.273C227.864 110.273 227.583 110.161 227.346 109.939C227.114 109.716 226.998 109.449 226.998 109.136C226.998 108.824 227.114 108.556 227.346 108.334C227.583 108.111 227.864 108 228.191 108C228.518 108 228.797 108.111 229.029 108.334C229.266 108.556 229.384 108.824 229.384 109.136C229.384 109.449 229.266 109.716 229.029 109.939C228.797 110.161 228.518 110.273 228.191 110.273ZM241.829 123.227C240.92 123.227 240.118 122.998 239.422 122.538C238.725 122.074 238.181 121.421 237.788 120.578C237.395 119.731 237.199 118.729 237.199 117.574C237.199 116.428 237.395 115.434 237.788 114.591C238.181 113.748 238.728 113.097 239.429 112.638C240.129 112.179 240.939 111.949 241.858 111.949C242.568 111.949 243.129 112.067 243.541 112.304C243.958 112.536 244.275 112.801 244.493 113.099C244.715 113.393 244.888 113.634 245.011 113.824H245.153V108.455H246.829V123H245.21V121.324H245.011C244.888 121.523 244.713 121.774 244.485 122.077C244.258 122.375 243.934 122.643 243.512 122.879C243.091 123.111 242.53 123.227 241.829 123.227ZM242.056 121.722C242.729 121.722 243.297 121.546 243.761 121.196C244.225 120.841 244.578 120.351 244.819 119.726C245.061 119.096 245.181 118.369 245.181 117.545C245.181 116.731 245.063 116.018 244.826 115.408C244.59 114.792 244.239 114.314 243.775 113.973C243.311 113.627 242.738 113.455 242.056 113.455C241.346 113.455 240.754 113.637 240.281 114.001C239.812 114.361 239.459 114.851 239.223 115.472C238.991 116.087 238.875 116.778 238.875 117.545C238.875 118.322 238.993 119.027 239.23 119.662C239.471 120.292 239.826 120.794 240.295 121.168C240.769 121.537 241.356 121.722 242.056 121.722ZM254.564 123.227C253.579 123.227 252.715 122.993 251.971 122.524C251.233 122.055 250.655 121.4 250.238 120.557C249.826 119.714 249.62 118.729 249.62 117.602C249.62 116.466 249.826 115.474 250.238 114.626C250.655 113.779 251.233 113.121 251.971 112.652C252.715 112.183 253.579 111.949 254.564 111.949C255.548 111.949 256.41 112.183 257.149 112.652C257.892 113.121 258.47 113.779 258.882 114.626C259.298 115.474 259.507 116.466 259.507 117.602C259.507 118.729 259.298 119.714 258.882 120.557C258.47 121.4 257.892 122.055 257.149 122.524C256.41 122.993 255.548 123.227 254.564 123.227ZM254.564 121.722C255.312 121.722 255.927 121.53 256.41 121.146C256.893 120.763 257.251 120.259 257.483 119.634C257.715 119.009 257.831 118.331 257.831 117.602C257.831 116.873 257.715 116.194 257.483 115.564C257.251 114.934 256.893 114.425 256.41 114.037C255.927 113.649 255.312 113.455 254.564 113.455C253.815 113.455 253.2 113.649 252.717 114.037C252.234 114.425 251.877 114.934 251.645 115.564C251.413 116.194 251.297 116.873 251.297 117.602C251.297 118.331 251.413 119.009 251.645 119.634C251.877 120.259 252.234 120.763 252.717 121.146C253.2 121.53 253.815 121.722 254.564 121.722ZM263.741 116.438V123H262.065V112.091H263.685V113.795H263.827C264.082 113.241 264.471 112.796 264.991 112.46C265.512 112.119 266.185 111.949 267.009 111.949C267.747 111.949 268.393 112.1 268.947 112.403C269.501 112.702 269.932 113.156 270.24 113.767C270.548 114.373 270.702 115.14 270.702 116.068V123H269.026V116.182C269.026 115.325 268.803 114.657 268.358 114.179C267.913 113.696 267.302 113.455 266.526 113.455C265.991 113.455 265.512 113.571 265.091 113.803C264.674 114.035 264.345 114.373 264.104 114.818C263.862 115.263 263.741 115.803 263.741 116.438ZM278.509 112.091V113.511H272.855V112.091H278.509ZM274.503 109.477H276.179V119.875C276.179 120.348 276.248 120.704 276.385 120.94C276.527 121.172 276.707 121.329 276.925 121.409C277.148 121.485 277.382 121.523 277.628 121.523C277.813 121.523 277.964 121.513 278.083 121.494C278.201 121.471 278.296 121.452 278.367 121.438L278.708 122.943C278.594 122.986 278.435 123.028 278.232 123.071C278.028 123.118 277.77 123.142 277.458 123.142C276.984 123.142 276.52 123.04 276.066 122.837C275.616 122.633 275.242 122.323 274.944 121.906C274.65 121.49 274.503 120.964 274.503 120.33V109.477ZM291.4 112.091V113.511H285.746V112.091H291.4ZM287.394 109.477H289.07V119.875C289.07 120.348 289.139 120.704 289.276 120.94C289.418 121.172 289.598 121.329 289.816 121.409C290.038 121.485 290.273 121.523 290.519 121.523C290.703 121.523 290.855 121.513 290.973 121.494C291.092 121.471 291.186 121.452 291.257 121.438L291.598 122.943C291.485 122.986 291.326 123.028 291.123 123.071C290.919 123.118 290.661 123.142 290.348 123.142C289.875 123.142 289.411 123.04 288.956 122.837C288.507 122.633 288.132 122.323 287.834 121.906C287.541 121.49 287.394 120.964 287.394 120.33V109.477ZM298.235 123.227C297.251 123.227 296.386 122.993 295.643 122.524C294.904 122.055 294.327 121.4 293.91 120.557C293.498 119.714 293.292 118.729 293.292 117.602C293.292 116.466 293.498 115.474 293.91 114.626C294.327 113.779 294.904 113.121 295.643 112.652C296.386 112.183 297.251 111.949 298.235 111.949C299.22 111.949 300.082 112.183 300.821 112.652C301.564 113.121 302.142 113.779 302.554 114.626C302.97 115.474 303.179 116.466 303.179 117.602C303.179 118.729 302.97 119.714 302.554 120.557C302.142 121.4 301.564 122.055 300.821 122.524C300.082 122.993 299.22 123.227 298.235 123.227ZM298.235 121.722C298.984 121.722 299.599 121.53 300.082 121.146C300.565 120.763 300.922 120.259 301.154 119.634C301.386 119.009 301.502 118.331 301.502 117.602C301.502 116.873 301.386 116.194 301.154 115.564C300.922 114.934 300.565 114.425 300.082 114.037C299.599 113.649 298.984 113.455 298.235 113.455C297.487 113.455 296.872 113.649 296.389 114.037C295.906 114.425 295.548 114.934 295.316 115.564C295.084 116.194 294.968 116.873 294.968 117.602C294.968 118.331 295.084 119.009 295.316 119.634C295.548 120.259 295.906 120.763 296.389 121.146C296.872 121.53 297.487 121.722 298.235 121.722ZM312.612 118.54V112.091H314.288V123H312.612V121.153H312.499C312.243 121.707 311.845 122.179 311.305 122.567C310.766 122.95 310.084 123.142 309.26 123.142C308.578 123.142 307.972 122.993 307.442 122.695C306.911 122.392 306.495 121.937 306.192 121.331C305.889 120.72 305.737 119.951 305.737 119.023V112.091H307.413V118.909C307.413 119.705 307.636 120.339 308.081 120.812C308.531 121.286 309.104 121.523 309.8 121.523C310.216 121.523 310.64 121.416 311.071 121.203C311.507 120.99 311.871 120.663 312.165 120.223C312.463 119.783 312.612 119.222 312.612 118.54ZM321.79 123.227C320.767 123.227 319.887 122.986 319.148 122.503C318.409 122.02 317.841 121.355 317.444 120.507C317.046 119.66 316.847 118.691 316.847 117.602C316.847 116.494 317.051 115.517 317.458 114.669C317.87 113.817 318.443 113.152 319.176 112.673C319.915 112.19 320.777 111.949 321.762 111.949C322.529 111.949 323.22 112.091 323.836 112.375C324.451 112.659 324.955 113.057 325.348 113.568C325.741 114.08 325.985 114.676 326.08 115.358H324.404C324.276 114.861 323.992 114.42 323.551 114.037C323.116 113.649 322.529 113.455 321.79 113.455C321.137 113.455 320.564 113.625 320.071 113.966C319.584 114.302 319.203 114.778 318.928 115.393C318.658 116.004 318.523 116.722 318.523 117.545C318.523 118.388 318.656 119.122 318.921 119.747C319.191 120.372 319.569 120.857 320.057 121.203C320.55 121.549 321.127 121.722 321.79 121.722C322.226 121.722 322.621 121.646 322.976 121.494C323.331 121.343 323.632 121.125 323.878 120.841C324.124 120.557 324.3 120.216 324.404 119.818H326.08C325.985 120.462 325.751 121.042 325.377 121.558C325.007 122.07 324.517 122.477 323.907 122.78C323.301 123.078 322.595 123.227 321.79 123.227ZM330.206 116.438V123H328.53V108.455H330.206V113.795H330.348C330.604 113.232 330.988 112.785 331.499 112.453C332.015 112.117 332.702 111.949 333.559 111.949C334.302 111.949 334.953 112.098 335.512 112.396C336.07 112.69 336.504 113.142 336.811 113.753C337.124 114.359 337.28 115.131 337.28 116.068V123H335.604V116.182C335.604 115.315 335.379 114.645 334.929 114.172C334.484 113.694 333.866 113.455 333.076 113.455C332.526 113.455 332.034 113.571 331.598 113.803C331.167 114.035 330.827 114.373 330.576 114.818C330.329 115.263 330.206 115.803 330.206 116.438ZM62.5341 153V142.091H64.2102V153H62.5341ZM63.3864 140.273C63.0597 140.273 62.7779 140.161 62.5412 139.939C62.3092 139.716 62.1932 139.449 62.1932 139.136C62.1932 138.824 62.3092 138.556 62.5412 138.334C62.7779 138.111 63.0597 138 63.3864 138C63.7131 138 63.9924 138.111 64.2244 138.334C64.4612 138.556 64.5795 138.824 64.5795 139.136C64.5795 139.449 64.4612 139.716 64.2244 139.939C63.9924 140.161 63.7131 140.273 63.3864 140.273ZM72.0245 142.091V143.511H66.3711V142.091H72.0245ZM68.0188 139.477H69.695V149.875C69.695 150.348 69.7636 150.704 69.9009 150.94C70.043 151.172 70.2229 151.329 70.4407 151.409C70.6632 151.485 70.8976 151.523 71.1438 151.523C71.3285 151.523 71.48 151.513 71.5984 151.494C71.7167 151.471 71.8114 151.452 71.8825 151.438L72.2234 152.943C72.1097 152.986 71.9511 153.028 71.7475 153.071C71.5439 153.118 71.2859 153.142 70.9734 153.142C70.4999 153.142 70.0359 153.04 69.5813 152.837C69.1315 152.633 68.7575 152.323 68.4592 151.906C68.1656 151.49 68.0188 150.964 68.0188 150.33V139.477ZM82.6424 153L79.3185 142.091H81.0799L83.4379 150.443H83.5515L85.881 142.091H87.6708L89.9719 150.415H90.0856L92.4435 142.091H94.2049L90.881 153H89.2333L86.8469 144.619H86.6765L84.2901 153H82.6424ZM98.0969 146.438V153H96.4208V138.455H98.0969V143.795H98.239C98.4947 143.232 98.8782 142.785 99.3896 142.453C99.9057 142.117 100.592 141.949 101.449 141.949C102.193 141.949 102.844 142.098 103.402 142.396C103.961 142.69 104.394 143.142 104.702 143.753C105.015 144.359 105.171 145.131 105.171 146.068V153H103.495V146.182C103.495 145.315 103.27 144.645 102.82 144.172C102.375 143.694 101.757 143.455 100.966 143.455C100.417 143.455 99.9246 143.571 99.489 143.803C99.0581 144.035 98.7172 144.373 98.4663 144.818C98.2201 145.263 98.0969 145.803 98.0969 146.438ZM108.237 153V142.091H109.913V153H108.237ZM109.089 140.273C108.763 140.273 108.481 140.161 108.244 139.939C108.012 139.716 107.896 139.449 107.896 139.136C107.896 138.824 108.012 138.556 108.244 138.334C108.481 138.111 108.763 138 109.089 138C109.416 138 109.696 138.111 109.928 138.334C110.164 138.556 110.283 138.824 110.283 139.136C110.283 139.449 110.164 139.716 109.928 139.939C109.696 140.161 109.416 140.273 109.089 140.273ZM117.415 153.227C116.392 153.227 115.512 152.986 114.773 152.503C114.034 152.02 113.466 151.355 113.069 150.507C112.671 149.66 112.472 148.691 112.472 147.602C112.472 146.494 112.676 145.517 113.083 144.669C113.495 143.817 114.068 143.152 114.801 142.673C115.54 142.19 116.402 141.949 117.387 141.949C118.154 141.949 118.845 142.091 119.461 142.375C120.076 142.659 120.58 143.057 120.973 143.568C121.366 144.08 121.61 144.676 121.705 145.358H120.029C119.901 144.861 119.617 144.42 119.176 144.037C118.741 143.649 118.154 143.455 117.415 143.455C116.762 143.455 116.189 143.625 115.696 143.966C115.209 144.302 114.828 144.778 114.553 145.393C114.283 146.004 114.148 146.722 114.148 147.545C114.148 148.388 114.281 149.122 114.546 149.747C114.816 150.372 115.194 150.857 115.682 151.203C116.175 151.549 116.752 151.722 117.415 151.722C117.851 151.722 118.246 151.646 118.601 151.494C118.956 151.343 119.257 151.125 119.503 150.841C119.749 150.557 119.925 150.216 120.029 149.818H121.705C121.61 150.462 121.376 151.042 121.002 151.558C120.632 152.07 120.142 152.477 119.532 152.78C118.926 153.078 118.22 153.227 117.415 153.227ZM125.831 146.438V153H124.155V138.455H125.831V143.795H125.973C126.229 143.232 126.613 142.785 127.124 142.453C127.64 142.117 128.327 141.949 129.184 141.949C129.927 141.949 130.578 142.098 131.137 142.396C131.695 142.69 132.129 143.142 132.436 143.753C132.749 144.359 132.905 145.131 132.905 146.068V153H131.229V146.182C131.229 145.315 131.004 144.645 130.554 144.172C130.109 143.694 129.491 143.455 128.701 143.455C128.151 143.455 127.659 143.571 127.223 143.803C126.792 144.035 126.452 144.373 126.201 144.818C125.954 145.263 125.831 145.803 125.831 146.438ZM144.807 153.256C144.116 153.256 143.488 153.125 142.925 152.865C142.361 152.6 141.914 152.219 141.582 151.722C141.251 151.22 141.085 150.614 141.085 149.903C141.085 149.278 141.208 148.772 141.455 148.384C141.701 147.991 142.03 147.683 142.442 147.46C142.854 147.238 143.308 147.072 143.805 146.963C144.307 146.849 144.812 146.759 145.318 146.693C145.981 146.608 146.518 146.544 146.93 146.501C147.347 146.454 147.65 146.376 147.839 146.267C148.034 146.158 148.131 145.969 148.131 145.699V145.642C148.131 144.941 147.939 144.397 147.555 144.009C147.177 143.62 146.601 143.426 145.83 143.426C145.029 143.426 144.402 143.601 143.947 143.952C143.493 144.302 143.173 144.676 142.989 145.074L141.398 144.506C141.682 143.843 142.061 143.327 142.534 142.957C143.012 142.583 143.533 142.323 144.097 142.176C144.665 142.025 145.223 141.949 145.773 141.949C146.123 141.949 146.526 141.991 146.98 142.077C147.439 142.157 147.882 142.325 148.308 142.581C148.739 142.837 149.097 143.223 149.381 143.739C149.665 144.255 149.807 144.946 149.807 145.812V153H148.131V151.523H148.045C147.932 151.759 147.742 152.013 147.477 152.283C147.212 152.553 146.859 152.782 146.419 152.972C145.979 153.161 145.441 153.256 144.807 153.256ZM145.062 151.75C145.725 151.75 146.284 151.62 146.739 151.359C147.198 151.099 147.544 150.763 147.776 150.351C148.012 149.939 148.131 149.506 148.131 149.051V147.517C148.06 147.602 147.903 147.68 147.662 147.751C147.425 147.818 147.151 147.877 146.838 147.929C146.53 147.976 146.23 148.019 145.936 148.057C145.647 148.09 145.413 148.118 145.233 148.142C144.797 148.199 144.39 148.291 144.011 148.419C143.637 148.542 143.334 148.729 143.102 148.98C142.875 149.226 142.761 149.562 142.761 149.989C142.761 150.571 142.977 151.011 143.408 151.31C143.843 151.603 144.395 151.75 145.062 151.75ZM154.542 138.455V153H152.866V138.455H154.542ZM160.084 153L156.76 142.091H158.521L160.879 150.443H160.993L163.322 142.091H165.112L167.413 150.415H167.527L169.885 142.091H171.646L168.322 153H166.675L164.288 144.619H164.118L161.732 153H160.084ZM177.072 153.256C176.381 153.256 175.754 153.125 175.19 152.865C174.627 152.6 174.179 152.219 173.848 151.722C173.517 151.22 173.351 150.614 173.351 149.903C173.351 149.278 173.474 148.772 173.72 148.384C173.966 147.991 174.295 147.683 174.707 147.46C175.119 147.238 175.574 147.072 176.071 146.963C176.573 146.849 177.077 146.759 177.584 146.693C178.247 146.608 178.784 146.544 179.196 146.501C179.613 146.454 179.916 146.376 180.105 146.267C180.299 146.158 180.396 145.969 180.396 145.699V145.642C180.396 144.941 180.205 144.397 179.821 144.009C179.442 143.62 178.867 143.426 178.095 143.426C177.295 143.426 176.668 143.601 176.213 143.952C175.759 144.302 175.439 144.676 175.254 145.074L173.663 144.506C173.947 143.843 174.326 143.327 174.8 142.957C175.278 142.583 175.799 142.323 176.362 142.176C176.93 142.025 177.489 141.949 178.038 141.949C178.389 141.949 178.791 141.991 179.246 142.077C179.705 142.157 180.148 142.325 180.574 142.581C181.005 142.837 181.362 143.223 181.646 143.739C181.93 144.255 182.072 144.946 182.072 145.812V153H180.396V151.523H180.311C180.197 151.759 180.008 152.013 179.743 152.283C179.478 152.553 179.125 152.782 178.685 152.972C178.244 153.161 177.707 153.256 177.072 153.256ZM177.328 151.75C177.991 151.75 178.55 151.62 179.004 151.359C179.464 151.099 179.809 150.763 180.041 150.351C180.278 149.939 180.396 149.506 180.396 149.051V147.517C180.325 147.602 180.169 147.68 179.928 147.751C179.691 147.818 179.416 147.877 179.104 147.929C178.796 147.976 178.495 148.019 178.202 148.057C177.913 148.09 177.679 148.118 177.499 148.142C177.063 148.199 176.656 148.291 176.277 148.419C175.903 148.542 175.6 148.729 175.368 148.98C175.141 149.226 175.027 149.562 175.027 149.989C175.027 150.571 175.242 151.011 175.673 151.31C176.109 151.603 176.661 151.75 177.328 151.75ZM185.821 157.091C185.537 157.091 185.283 157.067 185.061 157.02C184.838 156.977 184.684 156.935 184.599 156.892L185.025 155.415C185.432 155.519 185.792 155.557 186.105 155.528C186.417 155.5 186.694 155.36 186.936 155.109C187.182 154.863 187.407 154.463 187.61 153.909L187.923 153.057L183.889 142.091H185.707L188.718 150.784H188.832L191.843 142.091H193.662L189.031 154.591C188.823 155.154 188.565 155.621 188.257 155.99C187.949 156.364 187.592 156.641 187.184 156.821C186.782 157.001 186.327 157.091 185.821 157.091ZM203.601 144.534L202.096 144.96C202.001 144.709 201.861 144.465 201.676 144.229C201.497 143.987 201.25 143.788 200.938 143.632C200.625 143.476 200.225 143.398 199.738 143.398C199.07 143.398 198.514 143.552 198.069 143.859C197.628 144.162 197.408 144.548 197.408 145.017C197.408 145.434 197.56 145.763 197.863 146.004C198.166 146.246 198.639 146.447 199.283 146.608L200.902 147.006C201.878 147.242 202.605 147.605 203.083 148.092C203.561 148.575 203.8 149.198 203.8 149.96C203.8 150.585 203.62 151.144 203.26 151.636C202.905 152.129 202.408 152.517 201.769 152.801C201.13 153.085 200.386 153.227 199.539 153.227C198.426 153.227 197.505 152.986 196.776 152.503C196.047 152.02 195.585 151.314 195.391 150.386L196.982 149.989C197.133 150.576 197.42 151.016 197.841 151.31C198.267 151.603 198.824 151.75 199.51 151.75C200.292 151.75 200.912 151.584 201.371 151.253C201.835 150.917 202.067 150.514 202.067 150.045C202.067 149.667 201.935 149.349 201.669 149.094C201.404 148.833 200.997 148.639 200.448 148.511L198.63 148.085C197.631 147.848 196.897 147.482 196.428 146.984C195.964 146.482 195.732 145.855 195.732 145.102C195.732 144.487 195.905 143.942 196.25 143.469C196.601 142.995 197.077 142.624 197.678 142.354C198.284 142.084 198.971 141.949 199.738 141.949C200.817 141.949 201.665 142.186 202.28 142.659C202.9 143.133 203.341 143.758 203.601 144.534ZM216.067 153.227C215.158 153.227 214.356 152.998 213.66 152.538C212.964 152.074 212.419 151.421 212.026 150.578C211.633 149.731 211.437 148.729 211.437 147.574C211.437 146.428 211.633 145.434 212.026 144.591C212.419 143.748 212.966 143.097 213.667 142.638C214.368 142.179 215.177 141.949 216.096 141.949C216.806 141.949 217.367 142.067 217.779 142.304C218.196 142.536 218.513 142.801 218.731 143.099C218.953 143.393 219.126 143.634 219.249 143.824H219.391V138.455H221.067V153H219.448V151.324H219.249C219.126 151.523 218.951 151.774 218.724 152.077C218.496 152.375 218.172 152.643 217.751 152.879C217.329 153.111 216.768 153.227 216.067 153.227ZM216.295 151.722C216.967 151.722 217.535 151.546 217.999 151.196C218.463 150.841 218.816 150.351 219.058 149.726C219.299 149.096 219.42 148.369 219.42 147.545C219.42 146.731 219.301 146.018 219.065 145.408C218.828 144.792 218.478 144.314 218.013 143.973C217.549 143.627 216.977 143.455 216.295 143.455C215.585 143.455 214.993 143.637 214.519 144.001C214.05 144.361 213.698 144.851 213.461 145.472C213.229 146.087 213.113 146.778 213.113 147.545C213.113 148.322 213.231 149.027 213.468 149.662C213.71 150.292 214.065 150.794 214.533 151.168C215.007 151.537 215.594 151.722 216.295 151.722ZM228.802 153.227C227.817 153.227 226.953 152.993 226.21 152.524C225.471 152.055 224.893 151.4 224.477 150.557C224.065 149.714 223.859 148.729 223.859 147.602C223.859 146.466 224.065 145.474 224.477 144.626C224.893 143.779 225.471 143.121 226.21 142.652C226.953 142.183 227.817 141.949 228.802 141.949C229.787 141.949 230.648 142.183 231.387 142.652C232.13 143.121 232.708 143.779 233.12 144.626C233.537 145.474 233.745 146.466 233.745 147.602C233.745 148.729 233.537 149.714 233.12 150.557C232.708 151.4 232.13 152.055 231.387 152.524C230.648 152.993 229.787 153.227 228.802 153.227ZM228.802 151.722C229.55 151.722 230.165 151.53 230.648 151.146C231.131 150.763 231.489 150.259 231.721 149.634C231.953 149.009 232.069 148.331 232.069 147.602C232.069 146.873 231.953 146.194 231.721 145.564C231.489 144.934 231.131 144.425 230.648 144.037C230.165 143.649 229.55 143.455 228.802 143.455C228.054 143.455 227.438 143.649 226.955 144.037C226.472 144.425 226.115 144.934 225.883 145.564C225.651 146.194 225.535 146.873 225.535 147.602C225.535 148.331 225.651 149.009 225.883 149.634C226.115 150.259 226.472 150.763 226.955 151.146C227.438 151.53 228.054 151.722 228.802 151.722ZM244.031 144.534L242.525 144.96C242.431 144.709 242.291 144.465 242.106 144.229C241.926 143.987 241.68 143.788 241.368 143.632C241.055 143.476 240.655 143.398 240.167 143.398C239.5 143.398 238.943 143.552 238.498 143.859C238.058 144.162 237.838 144.548 237.838 145.017C237.838 145.434 237.989 145.763 238.292 146.004C238.595 146.246 239.069 146.447 239.713 146.608L241.332 147.006C242.307 147.242 243.034 147.605 243.512 148.092C243.991 148.575 244.23 149.198 244.23 149.96C244.23 150.585 244.05 151.144 243.69 151.636C243.335 152.129 242.838 152.517 242.199 152.801C241.559 153.085 240.816 153.227 239.968 153.227C238.856 153.227 237.935 152.986 237.206 152.503C236.476 152.02 236.015 151.314 235.821 150.386L237.412 149.989C237.563 150.576 237.85 151.016 238.271 151.31C238.697 151.603 239.253 151.75 239.94 151.75C240.721 151.75 241.342 151.584 241.801 151.253C242.265 150.917 242.497 150.514 242.497 150.045C242.497 149.667 242.364 149.349 242.099 149.094C241.834 148.833 241.427 148.639 240.877 148.511L239.059 148.085C238.06 147.848 237.326 147.482 236.858 146.984C236.394 146.482 236.162 145.855 236.162 145.102C236.162 144.487 236.334 143.942 236.68 143.469C237.03 142.995 237.506 142.624 238.108 142.354C238.714 142.084 239.4 141.949 240.167 141.949C241.247 141.949 242.094 142.186 242.71 142.659C243.33 143.133 243.77 143.758 244.031 144.534ZM251.327 153.227C250.276 153.227 249.369 152.995 248.607 152.531C247.849 152.062 247.264 151.409 246.852 150.571C246.445 149.728 246.241 148.748 246.241 147.631C246.241 146.513 246.445 145.528 246.852 144.676C247.264 143.819 247.837 143.152 248.571 142.673C249.31 142.19 250.171 141.949 251.156 141.949C251.724 141.949 252.286 142.044 252.839 142.233C253.393 142.422 253.898 142.73 254.352 143.156C254.807 143.578 255.169 144.136 255.439 144.832C255.709 145.528 255.844 146.385 255.844 147.403V148.114H247.435V146.665H254.139C254.139 146.049 254.016 145.5 253.77 145.017C253.528 144.534 253.183 144.153 252.733 143.874C252.288 143.594 251.762 143.455 251.156 143.455C250.489 143.455 249.911 143.62 249.423 143.952C248.94 144.278 248.569 144.705 248.308 145.23C248.048 145.756 247.918 146.319 247.918 146.92V147.886C247.918 148.71 248.06 149.409 248.344 149.982C248.633 150.55 249.033 150.983 249.544 151.281C250.055 151.575 250.65 151.722 251.327 151.722C251.767 151.722 252.165 151.66 252.52 151.537C252.88 151.409 253.19 151.22 253.45 150.969C253.711 150.713 253.912 150.396 254.054 150.017L255.673 150.472C255.503 151.021 255.216 151.504 254.814 151.92C254.411 152.332 253.914 152.654 253.322 152.886C252.731 153.114 252.065 153.227 251.327 153.227ZM260.07 146.438V153H258.393V142.091H260.013V143.795H260.155C260.411 143.241 260.799 142.796 261.32 142.46C261.84 142.119 262.513 141.949 263.337 141.949C264.075 141.949 264.722 142.1 265.276 142.403C265.83 142.702 266.26 143.156 266.568 143.767C266.876 144.373 267.03 145.14 267.03 146.068V153H265.354V146.182C265.354 145.325 265.131 144.657 264.686 144.179C264.241 143.696 263.63 143.455 262.854 143.455C262.319 143.455 261.84 143.571 261.419 143.803C261.002 144.035 260.673 144.373 260.432 144.818C260.19 145.263 260.07 145.803 260.07 146.438ZM274.837 142.091V143.511H269.184V142.091H274.837ZM270.831 139.477H272.507V149.875C272.507 150.348 272.576 150.704 272.713 150.94C272.855 151.172 273.035 151.329 273.253 151.409C273.476 151.485 273.71 151.523 273.956 151.523C274.141 151.523 274.292 151.513 274.411 151.494C274.529 151.471 274.624 151.452 274.695 151.438L275.036 152.943C274.922 152.986 274.764 153.028 274.56 153.071C274.356 153.118 274.098 153.142 273.786 153.142C273.312 153.142 272.848 153.04 272.394 152.837C271.944 152.633 271.57 152.323 271.272 151.906C270.978 151.49 270.831 150.964 270.831 150.33V139.477ZM64.2102 176.438V183H62.5341V168.455H64.2102V173.795H64.3523C64.608 173.232 64.9915 172.785 65.5028 172.453C66.0189 172.117 66.7055 171.949 67.5625 171.949C68.3059 171.949 68.9569 172.098 69.5156 172.396C70.0743 172.69 70.5076 173.142 70.8153 173.753C71.1278 174.359 71.2841 175.131 71.2841 176.068V183H69.608V176.182C69.608 175.315 69.383 174.645 68.9332 174.172C68.4882 173.694 67.8703 173.455 67.0795 173.455C66.5303 173.455 66.0379 173.571 65.6023 173.803C65.1714 174.035 64.8305 174.373 64.5795 174.818C64.3333 175.263 64.2102 175.803 64.2102 176.438ZM77.5607 183.256C76.8694 183.256 76.2421 183.125 75.6786 182.865C75.1152 182.6 74.6677 182.219 74.3363 181.722C74.0049 181.22 73.8391 180.614 73.8391 179.903C73.8391 179.278 73.9622 178.772 74.2085 178.384C74.4547 177.991 74.7837 177.683 75.1957 177.46C75.6076 177.238 76.0621 177.072 76.5593 176.963C77.0612 176.849 77.5655 176.759 78.0721 176.693C78.735 176.608 79.2724 176.544 79.6843 176.501C80.101 176.454 80.404 176.376 80.5934 176.267C80.7875 176.158 80.8846 175.969 80.8846 175.699V175.642C80.8846 174.941 80.6928 174.397 80.3093 174.009C79.9305 173.62 79.3552 173.426 78.5835 173.426C77.7833 173.426 77.1559 173.601 76.7013 173.952C76.2468 174.302 75.9272 174.676 75.7425 175.074L74.1516 174.506C74.4357 173.843 74.8145 173.327 75.288 172.957C75.7662 172.583 76.2871 172.323 76.8505 172.176C77.4187 172.025 77.9774 171.949 78.5266 171.949C78.877 171.949 79.2795 171.991 79.734 172.077C80.1933 172.157 80.636 172.325 81.0621 172.581C81.493 172.837 81.8505 173.223 82.1346 173.739C82.4187 174.255 82.5607 174.946 82.5607 175.812V183H80.8846V181.523H80.7994C80.6857 181.759 80.4963 182.013 80.2312 182.283C79.966 182.553 79.6133 182.782 79.1729 182.972C78.7326 183.161 78.1952 183.256 77.5607 183.256ZM77.8164 181.75C78.4793 181.75 79.038 181.62 79.4925 181.359C79.9518 181.099 80.2975 180.763 80.5295 180.351C80.7662 179.939 80.8846 179.506 80.8846 179.051V177.517C80.8136 177.602 80.6573 177.68 80.4158 177.751C80.1791 177.818 79.9045 177.877 79.592 177.929C79.2842 177.976 78.9835 178.019 78.69 178.057C78.4012 178.09 78.1668 178.118 77.9869 178.142C77.5513 178.199 77.1441 178.291 76.7653 178.419C76.3912 178.542 76.0882 178.729 75.8562 178.98C75.6289 179.226 75.5153 179.562 75.5153 179.989C75.5153 180.571 75.7307 181.011 76.1616 181.31C76.5972 181.603 77.1488 181.75 77.8164 181.75ZM85.62 187.091V172.091H87.2393V173.824H87.4382C87.5613 173.634 87.7318 173.393 87.9496 173.099C88.1721 172.801 88.4893 172.536 88.9013 172.304C89.3179 172.067 89.8814 171.949 90.5916 171.949C91.5102 171.949 92.3198 172.179 93.0206 172.638C93.7214 173.097 94.2682 173.748 94.6612 174.591C95.0542 175.434 95.2507 176.428 95.2507 177.574C95.2507 178.729 95.0542 179.731 94.6612 180.578C94.2682 181.421 93.7237 182.074 93.0277 182.538C92.3317 182.998 91.5291 183.227 90.62 183.227C89.9193 183.227 89.3582 183.111 88.9368 182.879C88.5154 182.643 88.1911 182.375 87.9638 182.077C87.7365 181.774 87.5613 181.523 87.4382 181.324H87.2962V187.091H85.62ZM87.2678 177.545C87.2678 178.369 87.3885 179.096 87.63 179.726C87.8714 180.351 88.2242 180.841 88.6882 181.196C89.1522 181.546 89.7204 181.722 90.3928 181.722C91.0935 181.722 91.6783 181.537 92.147 181.168C92.6205 180.794 92.9756 180.292 93.2124 179.662C93.4538 179.027 93.5746 178.322 93.5746 177.545C93.5746 176.778 93.4562 176.087 93.2195 175.472C92.9875 174.851 92.6347 174.361 92.1612 174.001C91.6925 173.637 91.103 173.455 90.3928 173.455C89.7109 173.455 89.138 173.627 88.674 173.973C88.21 174.314 87.8596 174.792 87.6229 175.408C87.3861 176.018 87.2678 176.731 87.2678 177.545ZM97.8075 187.091V172.091H99.4268V173.824H99.6257C99.7488 173.634 99.9193 173.393 100.137 173.099C100.36 172.801 100.677 172.536 101.089 172.304C101.505 172.067 102.069 171.949 102.779 171.949C103.698 171.949 104.507 172.179 105.208 172.638C105.909 173.097 106.456 173.748 106.849 174.591C107.242 175.434 107.438 176.428 107.438 177.574C107.438 178.729 107.242 179.731 106.849 180.578C106.456 181.421 105.911 182.074 105.215 182.538C104.519 182.998 103.717 183.227 102.808 183.227C102.107 183.227 101.546 183.111 101.124 182.879C100.703 182.643 100.379 182.375 100.151 182.077C99.924 181.774 99.7488 181.523 99.6257 181.324H99.4837V187.091H97.8075ZM99.4553 177.545C99.4553 178.369 99.576 179.096 99.8175 179.726C100.059 180.351 100.412 180.841 100.876 181.196C101.34 181.546 101.908 181.722 102.58 181.722C103.281 181.722 103.866 181.537 104.335 181.168C104.808 180.794 105.163 180.292 105.4 179.662C105.641 179.027 105.762 178.322 105.762 177.545C105.762 176.778 105.644 176.087 105.407 175.472C105.175 174.851 104.822 174.361 104.349 174.001C103.88 173.637 103.29 173.455 102.58 173.455C101.898 173.455 101.326 173.627 100.862 173.973C100.397 174.314 100.047 174.792 99.8104 175.408C99.5736 176.018 99.4553 176.731 99.4553 177.545ZM114.569 183.227C113.518 183.227 112.611 182.995 111.849 182.531C111.091 182.062 110.506 181.409 110.094 180.571C109.687 179.728 109.484 178.748 109.484 177.631C109.484 176.513 109.687 175.528 110.094 174.676C110.506 173.819 111.079 173.152 111.813 172.673C112.552 172.19 113.414 171.949 114.398 171.949C114.967 171.949 115.528 172.044 116.082 172.233C116.636 172.422 117.14 172.73 117.594 173.156C118.049 173.578 118.411 174.136 118.681 174.832C118.951 175.528 119.086 176.385 119.086 177.403V178.114H110.677V176.665H117.381C117.381 176.049 117.258 175.5 117.012 175.017C116.771 174.534 116.425 174.153 115.975 173.874C115.53 173.594 115.004 173.455 114.398 173.455C113.731 173.455 113.153 173.62 112.665 173.952C112.183 174.278 111.811 174.705 111.55 175.23C111.29 175.756 111.16 176.319 111.16 176.92V177.886C111.16 178.71 111.302 179.409 111.586 179.982C111.875 180.55 112.275 180.983 112.786 181.281C113.298 181.575 113.892 181.722 114.569 181.722C115.009 181.722 115.407 181.66 115.762 181.537C116.122 181.409 116.432 181.22 116.692 180.969C116.953 180.713 117.154 180.396 117.296 180.017L118.915 180.472C118.745 181.021 118.459 181.504 118.056 181.92C117.654 182.332 117.156 182.654 116.565 182.886C115.973 183.114 115.308 183.227 114.569 183.227ZM123.312 176.438V183H121.636V172.091H123.255V173.795H123.397C123.653 173.241 124.041 172.796 124.562 172.46C125.083 172.119 125.755 171.949 126.579 171.949C127.317 171.949 127.964 172.1 128.518 172.403C129.072 172.702 129.503 173.156 129.81 173.767C130.118 174.373 130.272 175.14 130.272 176.068V183H128.596V176.182C128.596 175.325 128.373 174.657 127.928 174.179C127.483 173.696 126.872 173.455 126.096 173.455C125.561 173.455 125.083 173.571 124.661 173.803C124.245 174.035 123.915 174.373 123.674 174.818C123.433 175.263 123.312 175.803 123.312 176.438ZM140.636 168.455V183H138.96V168.455H140.636ZM148.138 183.227C147.153 183.227 146.289 182.993 145.545 182.524C144.807 182.055 144.229 181.4 143.812 180.557C143.401 179.714 143.195 178.729 143.195 177.602C143.195 176.466 143.401 175.474 143.812 174.626C144.229 173.779 144.807 173.121 145.545 172.652C146.289 172.183 147.153 171.949 148.138 171.949C149.123 171.949 149.984 172.183 150.723 172.652C151.466 173.121 152.044 173.779 152.456 174.626C152.873 175.474 153.081 176.466 153.081 177.602C153.081 178.729 152.873 179.714 152.456 180.557C152.044 181.4 151.466 182.055 150.723 182.524C149.984 182.993 149.123 183.227 148.138 183.227ZM148.138 181.722C148.886 181.722 149.501 181.53 149.984 181.146C150.467 180.763 150.825 180.259 151.057 179.634C151.289 179.009 151.405 178.331 151.405 177.602C151.405 176.873 151.289 176.194 151.057 175.564C150.825 174.934 150.467 174.425 149.984 174.037C149.501 173.649 148.886 173.455 148.138 173.455C147.39 173.455 146.774 173.649 146.291 174.037C145.808 174.425 145.451 174.934 145.219 175.564C144.987 176.194 144.871 176.873 144.871 177.602C144.871 178.331 144.987 179.009 145.219 179.634C145.451 180.259 145.808 180.763 146.291 181.146C146.774 181.53 147.39 181.722 148.138 181.722ZM157.316 168.455V183H155.64V168.455H157.316ZM161.607 183.114C161.257 183.114 160.956 182.988 160.705 182.737C160.454 182.486 160.329 182.186 160.329 181.835C160.329 181.485 160.454 181.184 160.705 180.933C160.956 180.682 161.257 180.557 161.607 180.557C161.958 180.557 162.258 180.682 162.509 180.933C162.76 181.184 162.886 181.485 162.886 181.835C162.886 182.067 162.826 182.28 162.708 182.474C162.594 182.669 162.441 182.825 162.246 182.943C162.057 183.057 161.844 183.114 161.607 183.114Z" fill="white"/>
<path d="M27.3888 71.6659C27.3888 70.4559 27.0726 69.4411 26.4401 68.6175C25.9918 68.051 25.3841 67.6784 24.6155 67.501C23.8592 67.325 23.1442 67.3126 22.498 67.4625C22.278 66.1563 22.6355 64.773 23.543 63.3073C24.4505 61.8429 25.6261 60.7401 27.0602 60.0031L24.8877 56.875C23.7877 57.4195 22.7427 58.1098 21.7802 58.9444C20.804 59.779 19.9377 60.7388 19.1677 61.8236C18.3977 62.9085 17.8202 64.1336 17.449 65.5224C17.0777 66.9111 16.9732 68.3274 17.1506 69.7849C17.3816 71.7099 18.0031 73.2499 19.0151 74.3911C20.0257 75.5461 21.2866 76.1236 22.7936 76.1236C24.1205 76.1236 25.2218 75.7249 26.0936 74.9164C26.9571 74.1244 27.3861 73.0395 27.3861 71.6604L27.3888 71.6645V71.6659ZM39.9343 71.6659C39.9343 70.4559 39.6181 69.4411 38.9856 68.6175C38.5373 68.04 37.9268 67.666 37.161 67.4941C36.391 67.3236 35.6842 67.3154 35.0435 67.4639C34.8235 66.1714 35.1672 64.7826 36.0747 63.3114C36.9822 61.8539 38.1565 60.7539 39.5906 60.0114L37.4236 56.875C36.3236 57.4195 35.2855 58.1098 34.3161 58.9444C33.3426 59.779 32.4736 60.7388 31.7118 61.8236C30.9473 62.9099 30.3781 64.1336 30.0068 65.5224C29.6315 66.8974 29.5325 68.3274 29.7085 69.7849C29.9353 71.7099 30.5541 73.2499 31.5647 74.3911C32.5712 75.5365 33.828 76.1099 35.335 76.1099C36.6646 76.1099 37.766 75.7111 38.6377 74.9054C39.4998 74.1134 39.933 73.0285 39.933 71.6494V71.6631L39.9343 71.6659Z" fill="#2D4595"/>
</svg>
