<svg width="1316" height="509" viewBox="0 0 1316 509" fill="none" xmlns="http://www.w3.org/2000/svg">
<circle cx="1008" cy="255" r="100" fill="#FF6F02"/>
<path d="M1158 255C1158 337.843 1090.84 405 1008 405C925.157 405 858 337.843 858 255C858 172.157 925.157 105 1008 105C1090.84 105 1158 172.157 1158 255ZM866.882 255C866.882 332.938 930.062 396.118 1008 396.118C1085.94 396.118 1149.12 332.938 1149.12 255C1149.12 177.062 1085.94 113.882 1008 113.882C930.062 113.882 866.882 177.062 866.882 255Z" fill="url(#paint0_linear_265_4118)"/>
<circle cx="308" cy="255" r="100" fill="#0B7D36"/>
<path d="M458 255C458 337.843 390.843 405 308 405C225.157 405 158 337.843 158 255C158 172.157 225.157 105 308 105C390.843 105 458 172.157 458 255ZM166.882 255C166.882 332.938 230.062 396.118 308 396.118C385.938 396.118 449.118 332.938 449.118 255C449.118 177.062 385.938 113.882 308 113.882C230.062 113.882 166.882 177.062 166.882 255Z" fill="url(#paint1_linear_265_4118)"/>
<circle cx="658" cy="255" r="100" fill="white"/>
<path d="M808 255C808 337.843 740.843 405 658 405C575.157 405 508 337.843 508 255C508 172.157 575.157 105 658 105C740.843 105 808 172.157 808 255ZM516.882 255C516.882 332.938 580.062 396.118 658 396.118C735.938 396.118 799.118 332.938 799.118 255C799.118 177.062 735.938 113.882 658 113.882C580.062 113.882 516.882 177.062 516.882 255Z" fill="url(#paint2_linear_265_4118)"/>
<defs>
<linearGradient id="paint0_linear_265_4118" x1="873" y1="136.875" x2="1129.5" y2="360" gradientUnits="userSpaceOnUse">
<stop stop-color="#FF6F02"/>
<stop offset="1" stop-color="white" stop-opacity="0"/>
</linearGradient>
<linearGradient id="paint1_linear_265_4118" x1="173" y1="136.875" x2="429.5" y2="360" gradientUnits="userSpaceOnUse">
<stop stop-color="#0B7D36"/>
<stop offset="1" stop-color="white" stop-opacity="0"/>
</linearGradient>
<linearGradient id="paint2_linear_265_4118" x1="523" y1="136.875" x2="779.5" y2="360" gradientUnits="userSpaceOnUse">
<stop stop-color="white"/>
<stop offset="1" stop-color="white" stop-opacity="0"/>
</linearGradient>
</defs>
</svg>
