<svg width="218" height="233" viewBox="0 0 218 233" fill="none" xmlns="http://www.w3.org/2000/svg">
<path d="M8.76056 60.3379C0.745584 63.9446 -2.05966 73.5626 1.54708 81.5775L52.0414 186.974L80.0938 173.75L29.5995 67.9521C25.9928 59.9371 16.7755 56.3304 8.76056 60.3379ZM141.408 144.094L171.064 130.068L113.356 9.84353C109.348 1.82855 99.7305 -1.77819 91.3148 2.2293C83.2998 6.23679 79.6931 15.8548 83.7006 24.2705L141.408 144.094Z" fill="#FFDD67"/>
<path d="M91.7155 1.82953C90.914 2.23028 90.1125 2.63103 89.3111 3.43253C96.9253 1.42878 104.94 5.03552 108.547 12.249L166.255 132.474L171.465 130.069L113.757 9.84451C109.749 1.42879 100.131 -2.17795 91.7155 1.82953Z" fill="#EBA352"/>
<path d="M80.0938 173.349L110.951 158.521L52.0414 35.8924C48.0339 27.4766 37.6145 23.4692 29.1987 27.4766C20.783 31.4841 17.1763 41.9036 21.1838 50.3193L80.0938 173.349Z" fill="#FFDD67"/>
<path d="M29.1988 27.8777C28.3973 28.2785 27.5958 28.6792 26.7943 29.4807C34.4085 27.477 43.225 31.0837 46.8317 38.6979L83.2998 115.241L92.1163 120.451L52.0414 36.2935C48.0339 27.477 38.0152 23.8702 29.1988 27.8777Z" fill="#EBA352"/>
<path d="M106.142 148.904L137 134.076L78.0901 11.4471C74.0826 3.03138 63.6631 -0.976109 55.2474 3.43213C46.8317 7.43961 43.2249 17.8591 47.2324 26.2748L106.142 148.904Z" fill="#FFDD67"/>
<path d="M55.2474 3.03251C54.4459 3.43326 53.6444 4.23476 52.8429 4.63551C60.4571 2.63176 69.2736 6.2385 72.8804 13.8527L114.157 100.414L122.974 105.624L78.0901 11.4482C74.0826 2.63177 63.6631 -0.974973 55.2474 3.03251ZM8.76056 60.3396C7.95906 60.7403 7.15756 61.1411 6.35606 61.9426C13.5695 59.9388 21.1838 63.5456 24.3898 70.759L54.4459 133.677L63.2624 138.886L29.5995 68.3546C25.9928 59.9388 16.7755 56.3321 8.76056 60.3396Z" fill="#EBA352"/>
<path d="M212.341 48.3173C201.521 39.9016 183.888 49.1188 175.071 77.9727C169.06 98.0101 168.259 104.021 155.435 110.033L148.221 95.2049C148.221 95.2049 34.4085 150.107 38.8167 158.924C38.8167 158.924 52.4422 201.403 75.6856 221.04C110.15 250.695 190.7 219.036 194.307 142.493C196.311 98.0101 223.963 57.5345 212.341 48.3173Z" fill="#FFDD67"/>
<path d="M212.341 48.3165C210.337 46.7135 207.933 45.912 205.528 45.5112C205.929 45.912 206.73 45.912 207.131 46.3127C219.154 55.5299 206.73 76.7696 199.918 96.0056C194.307 111.234 189.498 126.863 190.3 142.092C193.506 208.616 126.581 240.275 86.5058 228.253C125.779 244.683 198.715 213.425 195.509 144.095C194.708 128.867 199.116 114.039 205.127 98.0093C211.539 78.7734 223.963 57.5337 212.341 48.3165Z" fill="#EBA352"/>
<path d="M159.041 108.43C134.195 111.235 97.7268 146.902 123.375 185.774C104.539 146.501 135.397 120.051 155.034 110.834C157.038 109.231 159.041 108.43 159.041 108.43Z" fill="#EBA352"/>
</svg>
