<svg width="856" height="364" viewBox="0 0 856 364" fill="none" xmlns="http://www.w3.org/2000/svg">
<circle cx="154" cy="183" r="125" fill="#2D4595"/>
<path d="M84.3191 232V211.636H91.9554C93.5198 211.636 94.8323 211.928 95.8929 212.511C96.9602 213.095 97.7656 213.897 98.3091 214.918C98.8593 215.932 99.1344 217.085 99.1344 218.378C99.1344 219.684 98.8593 220.844 98.3091 221.858C97.7589 222.872 96.9469 223.671 95.873 224.254C94.7992 224.831 93.4767 225.119 91.9057 225.119H86.8446V222.087H91.4086C92.3233 222.087 93.0724 221.928 93.6557 221.609C94.2391 221.291 94.6699 220.854 94.9483 220.297C95.2334 219.74 95.3759 219.1 95.3759 218.378C95.3759 217.655 95.2334 217.019 94.9483 216.469C94.6699 215.919 94.2357 215.491 93.6458 215.186C93.0624 214.875 92.3101 214.719 91.3887 214.719H88.008V232H84.3191ZM102.18 232V216.727H105.779V232H102.18ZM103.989 214.56C103.419 214.56 102.929 214.371 102.518 213.993C102.107 213.608 101.901 213.148 101.901 212.611C101.901 212.067 102.107 211.607 102.518 211.229C102.929 210.844 103.419 210.652 103.989 210.652C104.566 210.652 105.056 210.844 105.461 211.229C105.872 211.607 106.077 212.067 106.077 212.611C106.077 213.148 105.872 213.608 105.461 213.993C105.056 214.371 104.566 214.56 103.989 214.56ZM116.122 238.045C114.83 238.045 113.719 237.87 112.791 237.518C111.863 237.174 111.118 236.71 110.554 236.126C109.991 235.543 109.6 234.897 109.381 234.188L112.622 233.402C112.768 233.7 112.98 233.995 113.259 234.287C113.537 234.585 113.912 234.83 114.382 235.023C114.86 235.222 115.459 235.321 116.182 235.321C117.203 235.321 118.048 235.072 118.718 234.575C119.387 234.085 119.722 233.276 119.722 232.149V229.256H119.543C119.357 229.627 119.085 230.008 118.727 230.399C118.376 230.79 117.909 231.118 117.325 231.384C116.749 231.649 116.023 231.781 115.148 231.781C113.975 231.781 112.911 231.506 111.956 230.956C111.008 230.399 110.253 229.571 109.689 228.47C109.132 227.363 108.854 225.978 108.854 224.314C108.854 222.637 109.132 221.222 109.689 220.068C110.253 218.908 111.012 218.03 111.966 217.433C112.921 216.83 113.985 216.528 115.158 216.528C116.053 216.528 116.789 216.681 117.365 216.986C117.949 217.284 118.413 217.645 118.757 218.07C119.102 218.487 119.364 218.882 119.543 219.253H119.742V216.727H123.291V232.249C123.291 233.554 122.98 234.635 122.357 235.49C121.734 236.345 120.882 236.985 119.801 237.409C118.721 237.833 117.494 238.045 116.122 238.045ZM116.152 228.957C116.914 228.957 117.564 228.772 118.101 228.401C118.638 228.029 119.046 227.496 119.324 226.8C119.602 226.104 119.742 225.268 119.742 224.294C119.742 223.333 119.602 222.491 119.324 221.768C119.052 221.046 118.648 220.486 118.111 220.088C117.581 219.684 116.928 219.482 116.152 219.482C115.35 219.482 114.681 219.69 114.144 220.108C113.607 220.526 113.202 221.099 112.931 221.828C112.659 222.551 112.523 223.373 112.523 224.294C112.523 225.229 112.659 226.047 112.931 226.75C113.209 227.446 113.617 227.99 114.154 228.381C114.697 228.765 115.363 228.957 116.152 228.957ZM133.622 238.045C132.33 238.045 131.219 237.87 130.291 237.518C129.363 237.174 128.618 236.71 128.054 236.126C127.491 235.543 127.1 234.897 126.881 234.188L130.122 233.402C130.268 233.7 130.48 233.995 130.759 234.287C131.037 234.585 131.412 234.83 131.882 235.023C132.36 235.222 132.959 235.321 133.682 235.321C134.703 235.321 135.548 235.072 136.218 234.575C136.887 234.085 137.222 233.276 137.222 232.149V229.256H137.043C136.857 229.627 136.585 230.008 136.227 230.399C135.876 230.79 135.409 231.118 134.825 231.384C134.249 231.649 133.523 231.781 132.648 231.781C131.475 231.781 130.411 231.506 129.456 230.956C128.508 230.399 127.753 229.571 127.189 228.47C126.632 227.363 126.354 225.978 126.354 224.314C126.354 222.637 126.632 221.222 127.189 220.068C127.753 218.908 128.512 218.03 129.466 217.433C130.421 216.83 131.485 216.528 132.658 216.528C133.553 216.528 134.289 216.681 134.865 216.986C135.449 217.284 135.913 217.645 136.257 218.07C136.602 218.487 136.864 218.882 137.043 219.253H137.242V216.727H140.791V232.249C140.791 233.554 140.48 234.635 139.857 235.49C139.234 236.345 138.382 236.985 137.301 237.409C136.221 237.833 134.994 238.045 133.622 238.045ZM133.652 228.957C134.414 228.957 135.064 228.772 135.601 228.401C136.138 228.029 136.546 227.496 136.824 226.8C137.102 226.104 137.242 225.268 137.242 224.294C137.242 223.333 137.102 222.491 136.824 221.768C136.552 221.046 136.148 220.486 135.611 220.088C135.081 219.684 134.428 219.482 133.652 219.482C132.85 219.482 132.181 219.69 131.644 220.108C131.107 220.526 130.702 221.099 130.431 221.828C130.159 222.551 130.023 223.373 130.023 224.294C130.023 225.229 130.159 226.047 130.431 226.75C130.709 227.446 131.117 227.99 131.654 228.381C132.197 228.765 132.863 228.957 133.652 228.957ZM146.718 237.727C146.227 237.727 145.773 237.688 145.355 237.608C144.944 237.535 144.616 237.449 144.371 237.349L145.206 234.545C145.73 234.698 146.197 234.771 146.608 234.764C147.019 234.758 147.38 234.628 147.692 234.376C148.01 234.131 148.279 233.72 148.497 233.143L148.806 232.318L143.267 216.727H147.085L150.605 228.261H150.764L154.294 216.727H158.122L152.007 233.849C151.722 234.658 151.344 235.351 150.874 235.928C150.403 236.511 149.826 236.955 149.144 237.26C148.468 237.571 147.659 237.727 146.718 237.727ZM171.839 217.234C171.746 216.366 171.355 215.69 170.666 215.206C169.983 214.722 169.095 214.48 168.001 214.48C167.232 214.48 166.572 214.596 166.022 214.828C165.472 215.06 165.051 215.375 164.759 215.773C164.468 216.17 164.319 216.625 164.312 217.135C164.312 217.559 164.408 217.927 164.6 218.239C164.799 218.55 165.068 218.815 165.406 219.034C165.744 219.246 166.118 219.425 166.529 219.571C166.94 219.717 167.355 219.839 167.772 219.939L169.681 220.416C170.45 220.595 171.189 220.837 171.899 221.142C172.615 221.447 173.254 221.831 173.818 222.295C174.388 222.759 174.838 223.32 175.17 223.976C175.501 224.632 175.667 225.401 175.667 226.283C175.667 227.476 175.362 228.527 174.752 229.435C174.142 230.336 173.261 231.042 172.107 231.553C170.961 232.056 169.572 232.308 167.941 232.308C166.357 232.308 164.981 232.063 163.815 231.572C162.655 231.082 161.747 230.366 161.09 229.425C160.441 228.483 160.089 227.337 160.036 225.984H163.666C163.719 226.694 163.937 227.284 164.322 227.754C164.706 228.225 165.207 228.576 165.823 228.808C166.446 229.04 167.142 229.156 167.911 229.156C168.713 229.156 169.416 229.037 170.019 228.798C170.629 228.553 171.106 228.215 171.451 227.784C171.796 227.347 171.972 226.836 171.978 226.253C171.972 225.723 171.816 225.285 171.511 224.94C171.206 224.589 170.778 224.297 170.228 224.065C169.685 223.827 169.048 223.615 168.319 223.429L166.002 222.832C164.325 222.402 162.999 221.749 162.025 220.874C161.057 219.992 160.573 218.822 160.573 217.364C160.573 216.164 160.898 215.113 161.548 214.212C162.204 213.31 163.096 212.611 164.222 212.114C165.349 211.61 166.625 211.358 168.051 211.358C169.496 211.358 170.762 211.61 171.849 212.114C172.943 212.611 173.801 213.304 174.424 214.192C175.047 215.073 175.369 216.088 175.389 217.234H171.839ZM183.192 232.308C182.224 232.308 181.352 232.136 180.577 231.791C179.808 231.44 179.198 230.923 178.747 230.24C178.303 229.557 178.081 228.715 178.081 227.714C178.081 226.853 178.24 226.14 178.558 225.577C178.876 225.013 179.31 224.562 179.861 224.224C180.411 223.886 181.031 223.631 181.72 223.459C182.416 223.28 183.135 223.151 183.878 223.071C184.773 222.978 185.498 222.895 186.055 222.822C186.612 222.743 187.016 222.624 187.268 222.464C187.527 222.299 187.656 222.044 187.656 221.699V221.639C187.656 220.89 187.434 220.31 186.99 219.899C186.546 219.488 185.906 219.283 185.071 219.283C184.189 219.283 183.49 219.475 182.973 219.859C182.462 220.244 182.118 220.698 181.939 221.222L178.578 220.744C178.843 219.816 179.281 219.041 179.89 218.418C180.5 217.788 181.246 217.317 182.128 217.006C183.009 216.688 183.984 216.528 185.051 216.528C185.787 216.528 186.519 216.615 187.248 216.787C187.978 216.959 188.644 217.244 189.247 217.642C189.85 218.033 190.334 218.567 190.699 219.243C191.07 219.919 191.256 220.764 191.256 221.778V232H187.795V229.902H187.676C187.457 230.326 187.149 230.724 186.751 231.095C186.36 231.46 185.866 231.755 185.27 231.98C184.68 232.199 183.987 232.308 183.192 232.308ZM184.126 229.663C184.849 229.663 185.475 229.521 186.006 229.236C186.536 228.944 186.943 228.56 187.229 228.082C187.52 227.605 187.666 227.085 187.666 226.521V224.722C187.553 224.814 187.361 224.901 187.089 224.98C186.824 225.06 186.526 225.129 186.194 225.189C185.863 225.249 185.535 225.302 185.21 225.348C184.885 225.394 184.604 225.434 184.365 225.467C183.828 225.54 183.347 225.66 182.923 225.825C182.499 225.991 182.164 226.223 181.919 226.521C181.674 226.813 181.551 227.191 181.551 227.655C181.551 228.318 181.793 228.818 182.277 229.156C182.761 229.494 183.377 229.663 184.126 229.663ZM207.97 216.727L202.531 232H198.554L193.115 216.727H196.953L200.463 228.072H200.622L204.142 216.727H207.97ZM216.703 232.298C215.171 232.298 213.849 231.98 212.735 231.344C211.628 230.701 210.776 229.793 210.18 228.619C209.583 227.439 209.285 226.051 209.285 224.453C209.285 222.882 209.583 221.503 210.18 220.317C210.783 219.124 211.625 218.196 212.705 217.533C213.786 216.863 215.055 216.528 216.514 216.528C217.455 216.528 218.343 216.681 219.178 216.986C220.02 217.284 220.763 217.748 221.406 218.378C222.055 219.008 222.566 219.81 222.937 220.784C223.308 221.752 223.494 222.905 223.494 224.244V225.348H210.975V222.922H220.044C220.037 222.232 219.888 221.619 219.596 221.082C219.304 220.539 218.897 220.111 218.373 219.8C217.856 219.488 217.253 219.332 216.563 219.332C215.828 219.332 215.181 219.511 214.624 219.869C214.068 220.221 213.633 220.685 213.322 221.261C213.017 221.831 212.861 222.458 212.855 223.141V225.259C212.855 226.147 213.017 226.909 213.342 227.545C213.667 228.175 214.121 228.659 214.704 228.997C215.287 229.329 215.97 229.494 216.752 229.494C217.276 229.494 217.75 229.421 218.174 229.276C218.598 229.123 218.966 228.901 219.278 228.609C219.589 228.318 219.825 227.956 219.984 227.526L223.345 227.903C223.133 228.792 222.728 229.567 222.132 230.23C221.542 230.886 220.786 231.397 219.865 231.761C218.943 232.119 217.889 232.298 216.703 232.298Z" fill="white"/>
<path d="M152.704 138.79C143.919 136.165 139.619 143.359 139.575 143.431C139.252 143.986 139.447 144.695 140.012 145.013C140.197 145.117 140.396 145.165 140.595 145.165C141.003 145.165 141.4 144.956 141.618 144.583C141.752 144.349 145.006 138.916 152.021 141.008C152.646 141.195 153.3 140.847 153.489 140.235C153.677 139.623 153.327 138.976 152.704 138.79Z" fill="white"/>
<path d="M188.698 147.719C188.464 147.463 188.131 147.315 187.779 147.337L182.088 147.545C180.693 142.701 178.074 139.095 174.289 136.808C174.208 135.953 174.278 133.494 176.58 128.878C176.735 128.567 176.741 128.204 176.595 127.888C176.449 127.573 176.167 127.337 175.827 127.249C170.475 125.841 165.194 130.784 163.559 132.503C160.444 131.732 157.222 131.51 154.712 131.405C141.442 130.835 130.562 137.299 126.779 147.914C124.51 147.397 121.954 145.143 121.071 144.214C120.75 143.875 120.254 143.758 119.816 143.914C119.375 144.069 119.068 144.467 119.037 144.928C118.819 148.177 119.567 150.721 121.26 152.488C122.77 154.066 124.656 154.602 125.798 154.784C127.169 162.285 130.639 167.723 135.889 170.588C135.989 172.026 136.138 176.164 136.244 179.874C136.262 180.501 136.784 181 137.42 181H146.938C147.489 181 147.968 180.622 148.087 180.093L149.156 175.341C150.993 175.743 152.312 175.961 154.663 175.961C157.97 175.961 159.298 175.511 161.497 174.764C161.572 174.739 161.648 174.713 161.725 174.687L162.794 180.064C162.902 180.607 163.385 181 163.948 181H173.233C173.883 181 174.409 180.482 174.409 179.841V168.805C177.623 166.116 179.472 164.274 180.801 159.66L186.673 158.782C187.185 158.706 187.588 158.307 187.661 157.801L188.988 148.658C189.038 148.318 188.931 147.974 188.698 147.719ZM185.455 156.621L179.688 157.483C179.221 157.552 178.842 157.89 178.725 158.34C177.5 163.052 175.924 164.517 172.474 167.381C172.209 167.602 172.056 167.925 172.056 168.267V178.683H164.917L163.777 172.944C163.713 172.618 163.508 172.335 163.218 172.167C162.926 172 162.576 171.963 162.256 172.066C161.687 172.249 161.187 172.419 160.731 172.574C158.631 173.286 157.576 173.644 154.663 173.644C152.165 173.644 150.992 173.38 148.657 172.854L148.525 172.825C148.223 172.755 147.899 172.81 147.634 172.975C147.369 173.139 147.182 173.402 147.114 173.703L145.993 178.683H138.565C138.293 169.197 138.265 169.185 137.514 168.815C132.375 166.25 129.165 161.112 127.973 153.541C127.883 152.976 127.391 152.56 126.81 152.56C126.808 152.56 126.804 152.56 126.801 152.56C126.768 152.56 124.531 152.526 122.972 150.899C122.2 150.093 121.703 149.018 121.483 147.687C123.077 148.92 125.354 150.302 127.576 150.337C127.582 150.337 127.589 150.337 127.595 150.337C128.111 150.337 128.568 150.006 128.72 149.518C131.867 139.395 142.044 133.195 154.612 133.72C158.435 133.881 161.218 134.251 163.635 134.92C164.076 135.044 164.556 134.897 164.853 134.549C164.902 134.493 169.336 129.381 173.778 129.316C171.185 135.136 172.021 137.667 172.134 137.954C172.232 138.204 172.414 138.414 172.65 138.546C176.349 140.621 178.838 144.142 180.048 149.012C180.177 149.533 180.651 149.896 181.191 149.896C181.205 149.896 181.22 149.896 181.234 149.895L186.459 149.704L185.455 156.621Z" fill="white"/>
<path d="M169.815 144.724C167.437 144.724 165.502 146.629 165.502 148.972C165.502 151.315 167.437 153.221 169.815 153.221C172.195 153.221 174.13 151.315 174.13 148.972C174.13 146.629 172.195 144.724 169.815 144.724ZM169.815 150.903C168.734 150.903 167.855 150.036 167.855 148.972C167.855 147.907 168.734 147.041 169.815 147.041C170.897 147.041 171.777 147.907 171.777 148.972C171.777 150.036 170.897 150.903 169.815 150.903Z" fill="white"/>
<circle cx="428" cy="183" r="125" fill="#D51673"/>
<path d="M352.305 214.729V211.636H368.552V214.729H362.258V232H358.599V214.729H352.305ZM373.842 232.308C372.874 232.308 372.002 232.136 371.227 231.791C370.458 231.44 369.848 230.923 369.397 230.24C368.953 229.557 368.731 228.715 368.731 227.714C368.731 226.853 368.89 226.14 369.208 225.577C369.527 225.013 369.961 224.562 370.511 224.224C371.061 223.886 371.681 223.631 372.37 223.459C373.066 223.28 373.786 223.151 374.528 223.071C375.423 222.978 376.149 222.895 376.706 222.822C377.262 222.743 377.667 222.624 377.919 222.464C378.177 222.299 378.306 222.044 378.306 221.699V221.639C378.306 220.89 378.084 220.31 377.64 219.899C377.196 219.488 376.556 219.283 375.721 219.283C374.84 219.283 374.14 219.475 373.623 219.859C373.113 220.244 372.768 220.698 372.589 221.222L369.228 220.744C369.493 219.816 369.931 219.041 370.541 218.418C371.151 217.788 371.896 217.317 372.778 217.006C373.66 216.688 374.634 216.528 375.701 216.528C376.437 216.528 377.17 216.615 377.899 216.787C378.628 216.959 379.294 217.244 379.897 217.642C380.501 218.033 380.984 218.567 381.349 219.243C381.72 219.919 381.906 220.764 381.906 221.778V232H378.446V229.902H378.326C378.108 230.326 377.799 230.724 377.402 231.095C377.011 231.46 376.517 231.755 375.92 231.98C375.33 232.199 374.637 232.308 373.842 232.308ZM374.777 229.663C375.499 229.663 376.126 229.521 376.656 229.236C377.186 228.944 377.594 228.56 377.879 228.082C378.171 227.605 378.316 227.085 378.316 226.521V224.722C378.204 224.814 378.011 224.901 377.74 224.98C377.475 225.06 377.176 225.129 376.845 225.189C376.513 225.249 376.185 225.302 375.86 225.348C375.536 225.394 375.254 225.434 375.015 225.467C374.478 225.54 373.998 225.66 373.574 225.825C373.149 225.991 372.815 226.223 372.569 226.521C372.324 226.813 372.201 227.191 372.201 227.655C372.201 228.318 372.443 228.818 372.927 229.156C373.411 229.494 374.028 229.663 374.777 229.663ZM385.525 232V216.727H389.015V219.273H389.174C389.453 218.391 389.93 217.712 390.606 217.234C391.289 216.75 392.068 216.509 392.943 216.509C393.142 216.509 393.364 216.518 393.609 216.538C393.861 216.552 394.07 216.575 394.235 216.608V219.919C394.083 219.866 393.841 219.82 393.51 219.78C393.185 219.733 392.87 219.71 392.565 219.71C391.909 219.71 391.319 219.853 390.795 220.138C390.278 220.416 389.87 220.804 389.572 221.301C389.274 221.798 389.125 222.372 389.125 223.021V232H385.525ZM402.64 238.045C401.347 238.045 400.237 237.87 399.309 237.518C398.381 237.174 397.635 236.71 397.072 236.126C396.508 235.543 396.117 234.897 395.898 234.188L399.14 233.402C399.286 233.7 399.498 233.995 399.776 234.287C400.055 234.585 400.429 234.83 400.9 235.023C401.377 235.222 401.977 235.321 402.7 235.321C403.72 235.321 404.566 235.072 405.235 234.575C405.905 234.085 406.239 233.276 406.239 232.149V229.256H406.06C405.875 229.627 405.603 230.008 405.245 230.399C404.894 230.79 404.426 231.118 403.843 231.384C403.266 231.649 402.54 231.781 401.665 231.781C400.492 231.781 399.428 231.506 398.474 230.956C397.526 230.399 396.77 229.571 396.207 228.47C395.65 227.363 395.371 225.978 395.371 224.314C395.371 222.637 395.65 221.222 396.207 220.068C396.77 218.908 397.529 218.03 398.484 217.433C399.438 216.83 400.502 216.528 401.675 216.528C402.57 216.528 403.306 216.681 403.883 216.986C404.466 217.284 404.93 217.645 405.275 218.07C405.62 218.487 405.881 218.882 406.06 219.253H406.259V216.727H409.809V232.249C409.809 233.554 409.497 234.635 408.874 235.49C408.251 236.345 407.399 236.985 406.319 237.409C405.238 237.833 404.012 238.045 402.64 238.045ZM402.67 228.957C403.432 228.957 404.082 228.772 404.619 228.401C405.156 228.029 405.563 227.496 405.842 226.8C406.12 226.104 406.259 225.268 406.259 224.294C406.259 223.333 406.12 222.491 405.842 221.768C405.57 221.046 405.165 220.486 404.629 220.088C404.098 219.684 403.445 219.482 402.67 219.482C401.868 219.482 401.198 219.69 400.661 220.108C400.124 220.526 399.72 221.099 399.448 221.828C399.176 222.551 399.04 223.373 399.04 224.294C399.04 225.229 399.176 226.047 399.448 226.75C399.727 227.446 400.134 227.99 400.671 228.381C401.215 228.765 401.881 228.957 402.67 228.957ZM420.259 232.298C418.728 232.298 417.406 231.98 416.292 231.344C415.185 230.701 414.333 229.793 413.737 228.619C413.14 227.439 412.842 226.051 412.842 224.453C412.842 222.882 413.14 221.503 413.737 220.317C414.34 219.124 415.182 218.196 416.262 217.533C417.343 216.863 418.612 216.528 420.07 216.528C421.012 216.528 421.9 216.681 422.735 216.986C423.577 217.284 424.319 217.748 424.962 218.378C425.612 219.008 426.122 219.81 426.494 220.784C426.865 221.752 427.05 222.905 427.05 224.244V225.348H414.532V222.922H423.6C423.594 222.232 423.444 221.619 423.153 221.082C422.861 220.539 422.453 220.111 421.93 219.8C421.413 219.488 420.809 219.332 420.12 219.332C419.384 219.332 418.738 219.511 418.181 219.869C417.624 220.221 417.19 220.685 416.879 221.261C416.574 221.831 416.418 222.458 416.411 223.141V225.259C416.411 226.147 416.574 226.909 416.898 227.545C417.223 228.175 417.677 228.659 418.261 228.997C418.844 229.329 419.527 229.494 420.309 229.494C420.833 229.494 421.307 229.421 421.731 229.276C422.155 229.123 422.523 228.901 422.835 228.609C423.146 228.318 423.381 227.956 423.54 227.526L426.901 227.903C426.689 228.792 426.285 229.567 425.688 230.23C425.098 230.886 424.343 231.397 423.421 231.761C422.5 232.119 421.446 232.298 420.259 232.298ZM437.722 216.727V219.511H428.942V216.727H437.722ZM431.11 213.068H434.709V227.406C434.709 227.89 434.782 228.261 434.928 228.52C435.08 228.772 435.279 228.944 435.525 229.037C435.77 229.13 436.042 229.176 436.34 229.176C436.565 229.176 436.771 229.16 436.956 229.126C437.149 229.093 437.294 229.063 437.394 229.037L438 231.851C437.808 231.917 437.533 231.99 437.175 232.07C436.824 232.149 436.393 232.196 435.882 232.209C434.981 232.235 434.169 232.099 433.446 231.801C432.724 231.496 432.15 231.026 431.726 230.389C431.309 229.753 431.103 228.957 431.11 228.003V213.068ZM451.958 217.234C451.865 216.366 451.474 215.69 450.785 215.206C450.102 214.722 449.214 214.48 448.12 214.48C447.351 214.48 446.692 214.596 446.141 214.828C445.591 215.06 445.17 215.375 444.879 215.773C444.587 216.17 444.438 216.625 444.431 217.135C444.431 217.559 444.527 217.927 444.719 218.239C444.918 218.55 445.187 218.815 445.525 219.034C445.863 219.246 446.237 219.425 446.648 219.571C447.059 219.717 447.474 219.839 447.891 219.939L449.8 220.416C450.569 220.595 451.308 220.837 452.018 221.142C452.734 221.447 453.373 221.831 453.937 222.295C454.507 222.759 454.958 223.32 455.289 223.976C455.621 224.632 455.786 225.401 455.786 226.283C455.786 227.476 455.481 228.527 454.871 229.435C454.262 230.336 453.38 231.042 452.227 231.553C451.08 232.056 449.691 232.308 448.06 232.308C446.476 232.308 445.101 232.063 443.934 231.572C442.774 231.082 441.866 230.366 441.21 229.425C440.56 228.483 440.209 227.337 440.156 225.984H443.785C443.838 226.694 444.057 227.284 444.441 227.754C444.826 228.225 445.326 228.576 445.942 228.808C446.566 229.04 447.262 229.156 448.031 229.156C448.833 229.156 449.535 229.037 450.138 228.798C450.748 228.553 451.226 228.215 451.57 227.784C451.915 227.347 452.091 226.836 452.097 226.253C452.091 225.723 451.935 225.285 451.63 224.94C451.325 224.589 450.897 224.297 450.347 224.065C449.804 223.827 449.167 223.615 448.438 223.429L446.121 222.832C444.444 222.402 443.119 221.749 442.144 220.874C441.176 219.992 440.692 218.822 440.692 217.364C440.692 216.164 441.017 215.113 441.667 214.212C442.323 213.31 443.215 212.611 444.342 212.114C445.469 211.61 446.745 211.358 448.17 211.358C449.615 211.358 450.881 211.61 451.968 212.114C453.062 212.611 453.92 213.304 454.543 214.192C455.166 215.073 455.488 216.088 455.508 217.234H451.958ZM463.311 232.308C462.343 232.308 461.471 232.136 460.696 231.791C459.927 231.44 459.317 230.923 458.866 230.24C458.422 229.557 458.2 228.715 458.2 227.714C458.2 226.853 458.359 226.14 458.677 225.577C458.995 225.013 459.43 224.562 459.98 224.224C460.53 223.886 461.15 223.631 461.839 223.459C462.535 223.28 463.254 223.151 463.997 223.071C464.892 222.978 465.618 222.895 466.174 222.822C466.731 222.743 467.136 222.624 467.387 222.464C467.646 222.299 467.775 222.044 467.775 221.699V221.639C467.775 220.89 467.553 220.31 467.109 219.899C466.665 219.488 466.025 219.283 465.19 219.283C464.308 219.283 463.609 219.475 463.092 219.859C462.582 220.244 462.237 220.698 462.058 221.222L458.697 220.744C458.962 219.816 459.4 219.041 460.01 218.418C460.619 217.788 461.365 217.317 462.247 217.006C463.128 216.688 464.103 216.528 465.17 216.528C465.906 216.528 466.638 216.615 467.368 216.787C468.097 216.959 468.763 217.244 469.366 217.642C469.969 218.033 470.453 218.567 470.818 219.243C471.189 219.919 471.375 220.764 471.375 221.778V232H467.914V229.902H467.795C467.576 230.326 467.268 230.724 466.87 231.095C466.479 231.46 465.985 231.755 465.389 231.98C464.799 232.199 464.106 232.308 463.311 232.308ZM464.245 229.663C464.968 229.663 465.594 229.521 466.125 229.236C466.655 228.944 467.063 228.56 467.348 228.082C467.639 227.605 467.785 227.085 467.785 226.521V224.722C467.672 224.814 467.48 224.901 467.208 224.98C466.943 225.06 466.645 225.129 466.314 225.189C465.982 225.249 465.654 225.302 465.329 225.348C465.004 225.394 464.723 225.434 464.484 225.467C463.947 225.54 463.467 225.66 463.042 225.825C462.618 225.991 462.283 226.223 462.038 226.521C461.793 226.813 461.67 227.191 461.67 227.655C461.67 228.318 461.912 228.818 462.396 229.156C462.88 229.494 463.496 229.663 464.245 229.663ZM488.089 216.727L482.65 232H478.673L473.234 216.727H477.072L480.582 228.072H480.741L484.261 216.727H488.089ZM496.822 232.298C495.29 232.298 493.968 231.98 492.854 231.344C491.747 230.701 490.896 229.793 490.299 228.619C489.702 227.439 489.404 226.051 489.404 224.453C489.404 222.882 489.702 221.503 490.299 220.317C490.902 219.124 491.744 218.196 492.825 217.533C493.905 216.863 495.174 216.528 496.633 216.528C497.574 216.528 498.462 216.681 499.298 216.986C500.139 217.284 500.882 217.748 501.525 218.378C502.174 219.008 502.685 219.81 503.056 220.784C503.427 221.752 503.613 222.905 503.613 224.244V225.348H491.094V222.922H500.163C500.156 222.232 500.007 221.619 499.715 221.082C499.424 220.539 499.016 220.111 498.492 219.8C497.975 219.488 497.372 219.332 496.683 219.332C495.947 219.332 495.3 219.511 494.744 219.869C494.187 220.221 493.753 220.685 493.441 221.261C493.136 221.831 492.98 222.458 492.974 223.141V225.259C492.974 226.147 493.136 226.909 493.461 227.545C493.786 228.175 494.24 228.659 494.823 228.997C495.406 229.329 496.089 229.494 496.871 229.494C497.395 229.494 497.869 229.421 498.293 229.276C498.718 229.123 499.085 228.901 499.397 228.609C499.709 228.318 499.944 227.956 500.103 227.526L503.464 227.903C503.252 228.792 502.847 229.567 502.251 230.23C501.661 230.886 500.905 231.397 499.984 231.761C499.062 232.119 498.008 232.298 496.822 232.298Z" fill="white"/>
<path d="M445.187 144.413C444.481 144.688 444.133 145.478 444.411 146.177C445.517 148.961 446.078 151.908 446.078 154.936C446.078 168.122 435.236 178.849 421.909 178.849C408.588 178.849 397.75 168.122 397.75 154.936C397.75 141.753 408.588 131.028 421.909 131.028C428.63 131.028 434.873 133.689 439.486 138.522C440.008 139.068 440.878 139.093 441.43 138.577C441.982 138.06 442.007 137.199 441.485 136.653C438.996 134.045 436.057 131.993 432.751 130.553C429.327 129.062 425.68 128.306 421.909 128.306C407.071 128.306 395 140.252 395 154.936C395 169.622 407.071 181.57 421.909 181.57C429.1 181.57 435.86 178.801 440.943 173.771C446.028 168.741 448.828 162.052 448.828 154.936C448.828 151.566 448.203 148.284 446.97 145.181C446.692 144.482 445.894 144.138 445.187 144.413Z" fill="white"/>
<path d="M435.1 143.231C435.623 142.687 435.602 141.825 435.052 141.307C431.492 137.953 426.825 136.105 421.91 136.105C411.424 136.105 402.893 144.553 402.893 154.936C402.893 165.32 411.424 173.768 421.91 173.768C432.408 173.768 440.949 165.32 440.949 154.936C440.949 152.994 440.65 151.082 440.06 149.252C439.829 148.536 439.055 148.141 438.332 148.37C437.608 148.598 437.209 149.364 437.44 150.08C437.943 151.642 438.199 153.275 438.199 154.936C438.199 163.819 430.892 171.046 421.91 171.046C412.94 171.046 405.643 163.819 405.643 154.936C405.643 146.053 412.94 138.827 421.91 138.827C426.115 138.827 430.109 140.408 433.156 143.278C433.706 143.796 434.576 143.775 435.1 143.231Z" fill="white"/>
<path d="M421.91 146.163C423.573 146.163 425.191 146.618 426.589 147.48C426.81 147.616 427.019 147.759 427.211 147.905C427.813 148.364 428.676 148.253 429.14 147.657C429.603 147.062 429.491 146.207 428.889 145.749C428.624 145.547 428.338 145.351 428.041 145.169C426.208 144.039 424.088 143.441 421.909 143.441C415.511 143.441 410.305 148.598 410.305 154.936C410.305 161.277 415.511 166.435 421.909 166.435C428.318 166.435 433.533 161.277 433.533 154.936C433.533 154.419 433.498 153.912 433.426 153.389C433.323 152.644 432.63 152.123 431.878 152.224C431.125 152.325 430.598 153.011 430.701 153.755C430.756 154.156 430.783 154.543 430.783 154.936C430.783 159.776 426.802 163.714 421.909 163.714C417.027 163.714 413.055 159.776 413.055 154.936C413.055 150.098 417.027 146.163 421.91 146.163Z" fill="white"/>
<path d="M460.33 137.91L454.718 134.589L454.046 128.219C453.997 127.749 453.704 127.338 453.274 127.134C452.843 126.93 452.336 126.961 451.935 127.216L446.533 130.657C446.146 130.903 445.909 131.326 445.903 131.782L445.806 138.851L424.027 151.942C423.401 151.493 422.633 151.228 421.803 151.228C419.699 151.228 417.987 152.921 417.987 155.002C417.987 157.083 419.699 158.776 421.803 158.776C423.902 158.776 425.61 157.083 425.61 155.002C425.61 154.736 425.581 154.475 425.528 154.224L447.398 141.078L453.665 143.761C453.84 143.836 454.025 143.873 454.21 143.873C454.47 143.873 454.728 143.8 454.952 143.657L460.367 140.223C460.768 139.969 461.007 139.528 461 139.057C460.992 138.586 460.739 138.152 460.33 137.91ZM454.085 140.975L448.559 138.61L448.642 132.55L451.543 130.702L452.055 135.548C452.1 135.975 452.345 136.355 452.717 136.575L457.013 139.118L454.085 140.975Z" fill="white"/>
<ellipse cx="703.5" cy="183" rx="126.5" ry="125" fill="#009708"/>
<path d="M617.432 232V211.636H621.121V228.908H630.09V232H617.432ZM639.795 232.298C638.303 232.298 637.01 231.97 635.917 231.314C634.823 230.658 633.974 229.74 633.371 228.56C632.775 227.38 632.476 226.001 632.476 224.423C632.476 222.846 632.775 221.464 633.371 220.277C633.974 219.09 634.823 218.169 635.917 217.513C637.01 216.857 638.303 216.528 639.795 216.528C641.286 216.528 642.579 216.857 643.672 217.513C644.766 218.169 645.611 219.09 646.208 220.277C646.811 221.464 647.113 222.846 647.113 224.423C647.113 226.001 646.811 227.38 646.208 228.56C645.611 229.74 644.766 230.658 643.672 231.314C642.579 231.97 641.286 232.298 639.795 232.298ZM639.814 229.415C640.623 229.415 641.299 229.193 641.843 228.749C642.386 228.298 642.791 227.695 643.056 226.939C643.328 226.183 643.464 225.341 643.464 224.413C643.464 223.479 643.328 222.634 643.056 221.878C642.791 221.116 642.386 220.509 641.843 220.058C641.299 219.607 640.623 219.382 639.814 219.382C638.986 219.382 638.296 219.607 637.746 220.058C637.203 220.509 636.795 221.116 636.523 221.878C636.258 222.634 636.126 223.479 636.126 224.413C636.126 225.341 636.258 226.183 636.523 226.939C636.795 227.695 637.203 228.298 637.746 228.749C638.296 229.193 638.986 229.415 639.814 229.415ZM656.83 232.298C655.305 232.298 653.996 231.964 652.902 231.294C651.815 230.625 650.977 229.7 650.387 228.52C649.803 227.333 649.512 225.968 649.512 224.423C649.512 222.872 649.81 221.503 650.406 220.317C651.003 219.124 651.845 218.196 652.932 217.533C654.026 216.863 655.318 216.528 656.81 216.528C658.049 216.528 659.146 216.757 660.101 217.214C661.062 217.665 661.828 218.305 662.398 219.134C662.968 219.955 663.293 220.917 663.372 222.017H659.932C659.793 221.281 659.461 220.668 658.938 220.178C658.421 219.68 657.728 219.432 656.86 219.432C656.124 219.432 655.477 219.631 654.921 220.028C654.364 220.42 653.93 220.983 653.618 221.719C653.313 222.455 653.161 223.336 653.161 224.364C653.161 225.404 653.313 226.299 653.618 227.048C653.923 227.791 654.351 228.364 654.901 228.768C655.458 229.166 656.11 229.365 656.86 229.365C657.39 229.365 657.864 229.266 658.281 229.067C658.706 228.861 659.06 228.566 659.345 228.182C659.63 227.797 659.826 227.33 659.932 226.78H663.372C663.286 227.86 662.968 228.818 662.418 229.653C661.868 230.482 661.119 231.132 660.171 231.602C659.223 232.066 658.109 232.298 656.83 232.298ZM669.609 227.207L669.599 222.862H670.176L675.665 216.727H679.871L673.119 224.244H672.373L669.609 227.207ZM666.328 232V211.636H669.927V232H666.328ZM675.913 232L670.942 225.05L673.368 222.514L680.219 232H675.913ZM688.402 232.298C686.871 232.298 685.548 231.98 684.434 231.344C683.327 230.701 682.476 229.793 681.879 228.619C681.282 227.439 680.984 226.051 680.984 224.453C680.984 222.882 681.282 221.503 681.879 220.317C682.482 219.124 683.324 218.196 684.405 217.533C685.485 216.863 686.755 216.528 688.213 216.528C689.154 216.528 690.042 216.681 690.878 216.986C691.72 217.284 692.462 217.748 693.105 218.378C693.755 219.008 694.265 219.81 694.636 220.784C695.007 221.752 695.193 222.905 695.193 224.244V225.348H682.675V222.922H691.743C691.736 222.232 691.587 221.619 691.295 221.082C691.004 220.539 690.596 220.111 690.072 219.8C689.555 219.488 688.952 219.332 688.263 219.332C687.527 219.332 686.881 219.511 686.324 219.869C685.767 220.221 685.333 220.685 685.021 221.261C684.716 221.831 684.56 222.458 684.554 223.141V225.259C684.554 226.147 684.716 226.909 685.041 227.545C685.366 228.175 685.82 228.659 686.403 228.997C686.987 229.329 687.669 229.494 688.452 229.494C688.975 229.494 689.449 229.421 689.873 229.276C690.298 229.123 690.666 228.901 690.977 228.609C691.289 228.318 691.524 227.956 691.683 227.526L695.044 227.903C694.832 228.792 694.427 229.567 693.831 230.23C693.241 230.886 692.485 231.397 691.564 231.761C690.642 232.119 689.588 232.298 688.402 232.298ZM703.906 232.268C702.706 232.268 701.632 231.96 700.684 231.344C699.736 230.727 698.987 229.832 698.437 228.659C697.887 227.486 697.612 226.061 697.612 224.384C697.612 222.687 697.89 221.255 698.447 220.088C699.01 218.915 699.769 218.03 700.724 217.433C701.678 216.83 702.742 216.528 703.916 216.528C704.811 216.528 705.546 216.681 706.123 216.986C706.7 217.284 707.157 217.645 707.495 218.07C707.833 218.487 708.095 218.882 708.281 219.253H708.43V211.636H712.039V232H708.499V229.594H708.281C708.095 229.965 707.827 230.359 707.475 230.777C707.124 231.188 706.66 231.539 706.083 231.831C705.507 232.123 704.781 232.268 703.906 232.268ZM704.91 229.315C705.672 229.315 706.322 229.11 706.859 228.699C707.396 228.281 707.803 227.701 708.082 226.959C708.36 226.216 708.499 225.351 708.499 224.364C708.499 223.376 708.36 222.518 708.082 221.788C707.81 221.059 707.406 220.492 706.869 220.088C706.338 219.684 705.686 219.482 704.91 219.482C704.108 219.482 703.438 219.69 702.901 220.108C702.365 220.526 701.96 221.102 701.688 221.838C701.417 222.574 701.281 223.416 701.281 224.364C701.281 225.318 701.417 226.17 701.688 226.919C701.967 227.661 702.374 228.248 702.911 228.679C703.455 229.103 704.121 229.315 704.91 229.315ZM716.034 232V211.636H729.079V214.729H719.723V220.257H728.184V223.349H719.723V232H716.034ZM741.058 225.577V216.727H744.658V232H741.168V229.286H741.009C740.664 230.141 740.097 230.84 739.308 231.384C738.526 231.927 737.562 232.199 736.415 232.199C735.414 232.199 734.529 231.977 733.76 231.533C732.998 231.082 732.401 230.429 731.97 229.574C731.539 228.712 731.324 227.671 731.324 226.452V216.727H734.923V225.895C734.923 226.863 735.189 227.632 735.719 228.202C736.249 228.772 736.945 229.057 737.807 229.057C738.337 229.057 738.851 228.928 739.348 228.669C739.845 228.411 740.253 228.026 740.571 227.516C740.896 226.999 741.058 226.352 741.058 225.577ZM751.959 223.051V232H748.359V216.727H751.8V219.322H751.979C752.33 218.467 752.89 217.788 753.659 217.284C754.434 216.78 755.392 216.528 756.532 216.528C757.586 216.528 758.505 216.754 759.287 217.205C760.076 217.655 760.685 218.308 761.116 219.163C761.554 220.018 761.769 221.056 761.763 222.276V232H758.163V222.832C758.163 221.812 757.898 221.013 757.368 220.436C756.844 219.859 756.118 219.571 755.19 219.571C754.56 219.571 754 219.71 753.51 219.989C753.026 220.26 752.645 220.655 752.366 221.172C752.095 221.689 751.959 222.315 751.959 223.051ZM771.089 232.268C769.89 232.268 768.816 231.96 767.868 231.344C766.92 230.727 766.171 229.832 765.621 228.659C765.07 227.486 764.795 226.061 764.795 224.384C764.795 222.687 765.074 221.255 765.631 220.088C766.194 218.915 766.953 218.03 767.907 217.433C768.862 216.83 769.926 216.528 771.099 216.528C771.994 216.528 772.73 216.681 773.307 216.986C773.883 217.284 774.341 217.645 774.679 218.07C775.017 218.487 775.279 218.882 775.464 219.253H775.613V211.636H779.223V232H775.683V229.594H775.464C775.279 229.965 775.01 230.359 774.659 230.777C774.308 231.188 773.844 231.539 773.267 231.831C772.69 232.123 771.964 232.268 771.089 232.268ZM772.094 229.315C772.856 229.315 773.506 229.11 774.042 228.699C774.579 228.281 774.987 227.701 775.265 226.959C775.544 226.216 775.683 225.351 775.683 224.364C775.683 223.376 775.544 222.518 775.265 221.788C774.994 221.059 774.589 220.492 774.052 220.088C773.522 219.684 772.869 219.482 772.094 219.482C771.291 219.482 770.622 219.69 770.085 220.108C769.548 220.526 769.144 221.102 768.872 221.838C768.6 222.574 768.464 223.416 768.464 224.364C768.464 225.318 768.6 226.17 768.872 226.919C769.15 227.661 769.558 228.248 770.095 228.679C770.639 229.103 771.305 229.315 772.094 229.315ZM795.129 220.764L791.848 221.122C791.755 220.791 791.593 220.479 791.361 220.188C791.136 219.896 790.831 219.661 790.446 219.482C790.062 219.303 789.591 219.213 789.034 219.213C788.285 219.213 787.655 219.375 787.145 219.7C786.641 220.025 786.393 220.446 786.399 220.963C786.393 221.407 786.555 221.768 786.887 222.047C787.225 222.325 787.781 222.554 788.557 222.733L791.162 223.29C792.607 223.601 793.681 224.095 794.384 224.771C795.093 225.447 795.451 226.332 795.458 227.426C795.451 228.387 795.169 229.236 794.612 229.972C794.062 230.701 793.297 231.271 792.316 231.682C791.334 232.093 790.208 232.298 788.935 232.298C787.066 232.298 785.561 231.907 784.421 231.125C783.28 230.336 782.601 229.239 782.382 227.834L785.892 227.496C786.051 228.185 786.389 228.705 786.906 229.057C787.423 229.408 788.096 229.584 788.925 229.584C789.78 229.584 790.466 229.408 790.983 229.057C791.507 228.705 791.769 228.271 791.769 227.754C791.769 227.317 791.6 226.955 791.262 226.67C790.93 226.385 790.413 226.167 789.71 226.014L787.105 225.467C785.64 225.162 784.557 224.649 783.854 223.926C783.151 223.197 782.803 222.276 782.81 221.162C782.803 220.221 783.058 219.405 783.575 218.716C784.099 218.02 784.825 217.483 785.753 217.105C786.688 216.721 787.765 216.528 788.985 216.528C790.774 216.528 792.183 216.91 793.21 217.672C794.244 218.434 794.884 219.465 795.129 220.764Z" fill="white"/>
<path d="M725.818 146.583V139.722C725.818 129.951 716.03 122 704 122C691.97 122 682.182 129.951 682.182 139.722V146.583C677.544 147.299 674 150.921 674 155.281V179.166C674 184.036 678.422 188 683.858 188H724.142C729.578 188 734 184.036 734 179.165V155.28C734 150.921 730.456 147.299 725.818 146.583ZM684.909 139.722C684.909 131.297 693.473 124.444 704 124.444C714.527 124.444 723.091 131.297 723.091 139.722V146.444H684.909V139.722ZM731.273 179.165C731.273 182.688 728.074 185.556 724.142 185.556H683.858C679.926 185.556 676.727 182.688 676.727 179.165V155.28C676.727 151.756 679.926 148.889 683.858 148.889H724.142C728.074 148.889 731.273 151.756 731.273 155.28V179.165Z" fill="white"/>
<path d="M704 156.222C700.992 156.222 698.546 158.415 698.546 161.111V168.444C698.546 171.14 700.992 173.333 704 173.333C707.008 173.333 709.455 171.14 709.455 168.444V161.111C709.455 158.415 707.008 156.222 704 156.222ZM706.728 168.444C706.728 169.792 705.504 170.889 704 170.889C702.496 170.889 701.273 169.792 701.273 168.444V161.111C701.273 159.763 702.496 158.666 704 158.666C705.504 158.666 706.728 159.763 706.728 161.111V168.444Z" fill="white"/>
</svg>
