<svg width="50" height="50" viewBox="0 0 50 50" fill="none" xmlns="http://www.w3.org/2000/svg">
<path d="M20.8333 25.3473L23.3975 28.125L29.1667 21.875M19.1667 43.75H30.8333C33.1669 43.75 34.3338 43.75 35.225 43.2958C36.009 42.8965 36.6465 42.259 37.0458 41.475C37.5 40.5838 37.5 39.4169 37.5 37.0833V12.9167C37.5 10.5831 37.5 9.41633 37.0458 8.52504C36.6465 7.74102 36.009 7.1036 35.225 6.70415C34.3338 6.25 33.1669 6.25 30.8333 6.25H19.1667C16.8331 6.25 15.6663 6.25 14.775 6.70415C13.991 7.1036 13.3536 7.74102 12.9541 8.52504C12.5 9.41633 12.5 10.5831 12.5 12.9167V37.0833C12.5 39.4169 12.5 40.5838 12.9541 41.475C13.3536 42.259 13.991 42.8965 14.775 43.2958C15.6663 43.75 16.8331 43.75 19.1667 43.75Z" stroke="#3DFFFF" stroke-width="5" stroke-linecap="round" stroke-linejoin="round"/>
</svg>
