<svg width="50" height="50" viewBox="0 0 50 50" fill="none" xmlns="http://www.w3.org/2000/svg">
<g clip-path="url(#clip0_122_289)">
<path d="M25.3827 25.6747L21.1327 14.6259C21.0689 14.4601 20.9564 14.3175 20.81 14.2169C20.6635 14.1163 20.49 14.0625 20.3124 14.0625C20.1347 14.0625 19.9613 14.1163 19.8148 14.2169C19.6684 14.3175 19.5559 14.4601 19.4921 14.6259L15.2421 25.6747C15.1979 25.7895 15.1302 25.8938 15.0432 25.9807C14.9562 26.0677 14.852 26.1354 14.7372 26.1796L3.68837 30.4296C3.52256 30.4934 3.37998 30.6059 3.27941 30.7523C3.17883 30.8988 3.125 31.0722 3.125 31.2499C3.125 31.4275 3.17883 31.601 3.27941 31.7475C3.37998 31.8939 3.52256 32.0064 3.68837 32.0702L14.7372 36.3202C14.852 36.3644 14.9562 36.4321 15.0432 36.5191C15.1302 36.606 15.1979 36.7103 15.2421 36.8251L19.4921 47.8739C19.5559 48.0397 19.6684 48.1823 19.8148 48.2829C19.9613 48.3835 20.1347 48.4373 20.3124 48.4373C20.49 48.4373 20.6635 48.3835 20.81 48.2829C20.9564 48.1823 21.0689 48.0397 21.1327 47.8739L25.3827 36.8251C25.4269 36.7103 25.4946 36.606 25.5816 36.5191C25.6685 36.4321 25.7728 36.3644 25.8876 36.3202L36.9364 32.0702C37.1022 32.0064 37.2448 31.8939 37.3454 31.7475C37.446 31.601 37.4998 31.4275 37.4998 31.2499C37.4998 31.0722 37.446 30.8988 37.3454 30.7523C37.2448 30.6059 37.1022 30.4934 36.9364 30.4296L25.8876 26.1796C25.7728 26.1354 25.6685 26.0677 25.5816 25.9807C25.4946 25.8938 25.4269 25.7895 25.3827 25.6747Z" stroke="#3DFFFF" stroke-width="5" stroke-linecap="round" stroke-linejoin="round"/>
<path d="M10.5469 6.64062L8.59375 1.5625L6.64062 6.64062L1.5625 8.59375L6.64062 10.5469L8.59375 15.625L10.5469 10.5469L15.625 8.59375L10.5469 6.64062Z" stroke="#3DFFFF" stroke-width="5" stroke-linecap="round" stroke-linejoin="round"/>
<path d="M41.667 11.458L39.0625 4.6875L36.458 11.458L29.6875 14.0625L36.458 16.667L39.0625 23.4375L41.667 16.667L48.4375 14.0625L41.667 11.458Z" stroke="#3DFFFF" stroke-width="5" stroke-linecap="round" stroke-linejoin="round"/>
</g>
<defs>
<clipPath id="clip0_122_289">
<rect width="50" height="50" fill="white"/>
</clipPath>
</defs>
</svg>
