<svg width="306" height="465" viewBox="0 0 306 465" fill="none" xmlns="http://www.w3.org/2000/svg">
<path d="M153 153V0C237.5 0 306 68.5004 306 153C306 237.5 237.5 306 153 306C68.5004 306 0 237.5 0 153C0 112.422 16.1196 73.5057 44.8127 44.8127L153 153Z" fill="#2D4595"/>
<path d="M153 153L44.8126 44.8127C73.5057 16.1196 112.422 0 153 0V153Z" fill="#F3F3F3"/>
<rect x="25" y="333" width="45" height="45" rx="10" fill="#2D4595"/>
<path d="M81.0513 363L87.4007 350.443V350.337H80.057V348.455H89.6735V350.401L83.3453 363H81.0513ZM96.8947 363.241C95.7725 363.237 94.8137 362.941 94.0183 362.354C93.2228 361.767 92.6144 360.912 92.193 359.79C91.7716 358.668 91.5609 357.316 91.5609 355.734C91.5609 354.158 91.7716 352.811 92.193 351.693C92.6191 350.576 93.2299 349.723 94.0254 349.136C94.8256 348.549 95.782 348.256 96.8947 348.256C98.0074 348.256 98.9615 348.552 99.7569 349.143C100.552 349.731 101.161 350.583 101.582 351.7C102.008 352.813 102.221 354.158 102.221 355.734C102.221 357.321 102.011 358.675 101.589 359.797C101.168 360.914 100.559 361.769 99.764 362.361C98.9686 362.948 98.0121 363.241 96.8947 363.241ZM96.8947 361.345C97.8796 361.345 98.649 360.865 99.2029 359.903C99.7617 358.942 100.041 357.553 100.041 355.734C100.041 354.527 99.9132 353.507 99.6575 352.673C99.4065 351.835 99.0443 351.201 98.5708 350.77C98.1021 350.334 97.5434 350.116 96.8947 350.116C95.9146 350.116 95.1452 350.599 94.5865 351.565C94.0278 352.531 93.746 353.921 93.7413 355.734C93.7413 356.946 93.8668 357.972 94.1177 358.81C94.3734 359.643 94.7356 360.275 95.2044 360.706C95.6731 361.132 96.2366 361.345 96.8947 361.345ZM112.333 360.273V359.506C112.333 358.956 112.447 358.455 112.674 358C112.906 357.541 113.242 357.174 113.683 356.899C114.128 356.62 114.665 356.48 115.295 356.48C115.939 356.48 116.479 356.617 116.914 356.892C117.35 357.167 117.679 357.534 117.901 357.993C118.129 358.452 118.242 358.956 118.242 359.506V360.273C118.242 360.822 118.129 361.326 117.901 361.786C117.674 362.24 117.34 362.607 116.9 362.886C116.464 363.161 115.929 363.298 115.295 363.298C114.656 363.298 114.116 363.161 113.676 362.886C113.235 362.607 112.901 362.24 112.674 361.786C112.447 361.326 112.333 360.822 112.333 360.273ZM113.988 359.506V360.273C113.988 360.68 114.085 361.049 114.279 361.381C114.473 361.712 114.812 361.878 115.295 361.878C115.773 361.878 116.107 361.712 116.296 361.381C116.486 361.049 116.58 360.68 116.58 360.273V359.506C116.58 359.098 116.488 358.729 116.303 358.398C116.124 358.066 115.787 357.901 115.295 357.901C114.821 357.901 114.485 358.066 114.286 358.398C114.088 358.729 113.988 359.098 113.988 359.506ZM105.018 351.949V351.182C105.018 350.633 105.132 350.128 105.359 349.669C105.591 349.21 105.927 348.843 106.367 348.568C106.812 348.294 107.35 348.156 107.98 348.156C108.624 348.156 109.163 348.294 109.599 348.568C110.035 348.843 110.364 349.21 110.586 349.669C110.809 350.128 110.92 350.633 110.92 351.182V351.949C110.92 352.498 110.806 353.002 110.579 353.462C110.356 353.916 110.025 354.283 109.585 354.562C109.149 354.837 108.614 354.974 107.98 354.974C107.336 354.974 106.794 354.837 106.353 354.562C105.918 354.283 105.586 353.916 105.359 353.462C105.132 353.002 105.018 352.498 105.018 351.949ZM106.68 351.182V351.949C106.68 352.356 106.775 352.725 106.964 353.057C107.158 353.388 107.497 353.554 107.98 353.554C108.453 353.554 108.785 353.388 108.974 353.057C109.168 352.725 109.265 352.356 109.265 351.949V351.182C109.265 350.775 109.173 350.405 108.988 350.074C108.803 349.742 108.467 349.577 107.98 349.577C107.506 349.577 107.17 349.742 106.971 350.074C106.777 350.405 106.68 350.775 106.68 351.182ZM105.693 363L115.693 348.455H117.39L107.39 363H105.693ZM125.673 348.455H128.166L131.966 355.067H132.122L135.922 348.455H138.415L133.138 357.29V363H130.95V357.29L125.673 348.455ZM143.115 363.22C142.092 363.22 141.199 362.986 140.437 362.517C139.675 362.048 139.083 361.393 138.661 360.55C138.24 359.707 138.029 358.722 138.029 357.595C138.029 356.464 138.24 355.474 138.661 354.626C139.083 353.779 139.675 353.121 140.437 352.652C141.199 352.183 142.092 351.949 143.115 351.949C144.137 351.949 145.03 352.183 145.792 352.652C146.554 353.121 147.146 353.779 147.568 354.626C147.989 355.474 148.2 356.464 148.2 357.595C148.2 358.722 147.989 359.707 147.568 360.55C147.146 361.393 146.554 362.048 145.792 362.517C145.03 362.986 144.137 363.22 143.115 363.22ZM143.122 361.438C143.785 361.438 144.334 361.262 144.769 360.912C145.205 360.562 145.527 360.095 145.735 359.513C145.948 358.93 146.055 358.289 146.055 357.588C146.055 356.892 145.948 356.253 145.735 355.67C145.527 355.083 145.205 354.612 144.769 354.257C144.334 353.902 143.785 353.724 143.122 353.724C142.454 353.724 141.9 353.902 141.46 354.257C141.024 354.612 140.7 355.083 140.487 355.67C140.278 356.253 140.174 356.892 140.174 357.588C140.174 358.289 140.278 358.93 140.487 359.513C140.7 360.095 141.024 360.562 141.46 360.912C141.9 361.262 142.454 361.438 143.122 361.438ZM157.481 358.476V352.091H159.611V363H157.523V361.111H157.41C157.159 361.693 156.756 362.179 156.202 362.567C155.653 362.95 154.969 363.142 154.15 363.142C153.449 363.142 152.829 362.988 152.289 362.68C151.754 362.368 151.332 361.906 151.025 361.295C150.722 360.685 150.57 359.929 150.57 359.03V352.091H152.694V358.774C152.694 359.518 152.9 360.109 153.312 360.55C153.724 360.99 154.259 361.21 154.917 361.21C155.314 361.21 155.71 361.111 156.103 360.912C156.501 360.713 156.83 360.412 157.09 360.01C157.355 359.607 157.485 359.096 157.481 358.476ZM164.588 356.523V363H162.465V352.091H164.503V353.866H164.638C164.889 353.289 165.282 352.825 165.817 352.474C166.357 352.124 167.036 351.949 167.855 351.949C168.599 351.949 169.25 352.105 169.808 352.418C170.367 352.725 170.8 353.185 171.108 353.795C171.416 354.406 171.57 355.161 171.57 356.061V363H169.446V356.317C169.446 355.526 169.24 354.908 168.828 354.463C168.416 354.013 167.851 353.788 167.131 353.788C166.638 353.788 166.2 353.895 165.817 354.108C165.438 354.321 165.137 354.634 164.915 355.045C164.697 355.453 164.588 355.945 164.588 356.523ZM178.992 367.318C178.125 367.318 177.379 367.205 176.754 366.977C176.134 366.75 175.628 366.449 175.235 366.075C174.842 365.701 174.548 365.292 174.354 364.847L176.179 364.094C176.307 364.302 176.477 364.522 176.691 364.754C176.908 364.991 177.202 365.192 177.571 365.358C177.945 365.524 178.426 365.607 179.013 365.607C179.818 365.607 180.483 365.41 181.009 365.017C181.534 364.629 181.797 364.009 181.797 363.156V361.011H181.662C181.534 361.243 181.35 361.501 181.108 361.786C180.871 362.07 180.545 362.316 180.128 362.524C179.711 362.732 179.169 362.837 178.502 362.837C177.64 362.837 176.863 362.635 176.172 362.233C175.485 361.826 174.941 361.227 174.539 360.436C174.141 359.641 173.942 358.663 173.942 357.503C173.942 356.343 174.138 355.348 174.531 354.52C174.929 353.691 175.474 353.057 176.165 352.616C176.856 352.171 177.64 351.949 178.516 351.949C179.193 351.949 179.74 352.062 180.156 352.29C180.573 352.512 180.897 352.773 181.129 353.071C181.366 353.369 181.548 353.632 181.676 353.859H181.833V352.091H183.914V363.241C183.914 364.179 183.696 364.948 183.26 365.55C182.825 366.151 182.235 366.596 181.492 366.885C180.753 367.174 179.92 367.318 178.992 367.318ZM178.97 361.075C179.581 361.075 180.097 360.933 180.519 360.649C180.945 360.36 181.267 359.948 181.485 359.413C181.707 358.874 181.818 358.227 181.818 357.474C181.818 356.741 181.709 356.094 181.492 355.536C181.274 354.977 180.954 354.541 180.533 354.229C180.111 353.911 179.591 353.753 178.97 353.753C178.331 353.753 177.798 353.919 177.372 354.25C176.946 354.577 176.624 355.022 176.406 355.585C176.193 356.149 176.087 356.778 176.087 357.474C176.087 358.189 176.196 358.817 176.414 359.357C176.631 359.896 176.953 360.318 177.379 360.621C177.81 360.924 178.341 361.075 178.97 361.075ZM193.454 363H191.124L196.358 348.455H198.894L204.128 363H201.799L197.687 351.097H197.573L193.454 363ZM193.844 357.304H201.401V359.151H193.844V357.304ZM209.966 363.213C209.086 363.213 208.3 362.988 207.608 362.538C206.922 362.084 206.382 361.437 205.989 360.599C205.601 359.757 205.407 358.746 205.407 357.567C205.407 356.388 205.603 355.379 205.996 354.541C206.394 353.703 206.939 353.062 207.63 352.616C208.321 352.171 209.105 351.949 209.981 351.949C210.658 351.949 211.202 352.062 211.614 352.29C212.031 352.512 212.353 352.773 212.58 353.071C212.812 353.369 212.992 353.632 213.12 353.859H213.248V348.455H215.371V363H213.297V361.303H213.12C212.992 361.535 212.807 361.8 212.566 362.098C212.329 362.396 212.002 362.657 211.586 362.879C211.169 363.102 210.629 363.213 209.966 363.213ZM210.435 361.402C211.046 361.402 211.562 361.241 211.983 360.919C212.41 360.592 212.732 360.14 212.949 359.562C213.172 358.985 213.283 358.312 213.283 357.545C213.283 356.788 213.174 356.125 212.956 355.557C212.739 354.989 212.419 354.546 211.998 354.229C211.576 353.911 211.055 353.753 210.435 353.753C209.796 353.753 209.263 353.919 208.837 354.25C208.411 354.581 208.089 355.034 207.871 355.607C207.658 356.179 207.552 356.826 207.552 357.545C207.552 358.275 207.661 358.93 207.878 359.513C208.096 360.095 208.418 360.557 208.844 360.898C209.275 361.234 209.805 361.402 210.435 361.402ZM225.313 358.476V352.091H227.443V363H225.355V361.111H225.242C224.991 361.693 224.588 362.179 224.034 362.567C223.485 362.95 222.801 363.142 221.982 363.142C221.281 363.142 220.661 362.988 220.121 362.68C219.586 362.368 219.164 361.906 218.857 361.295C218.554 360.685 218.402 359.929 218.402 359.03V352.091H220.526V358.774C220.526 359.518 220.732 360.109 221.144 360.55C221.556 360.99 222.091 361.21 222.749 361.21C223.146 361.21 223.542 361.111 223.935 360.912C224.333 360.713 224.662 360.412 224.922 360.01C225.187 359.607 225.317 359.096 225.313 358.476ZM232.42 348.455V363H230.297V348.455H232.42ZM240.369 352.091V353.795H234.411V352.091H240.369ZM236.009 349.477H238.132V359.797C238.132 360.209 238.194 360.519 238.317 360.727C238.44 360.931 238.599 361.071 238.793 361.146C238.992 361.217 239.207 361.253 239.439 361.253C239.61 361.253 239.759 361.241 239.887 361.217C240.014 361.194 240.114 361.175 240.185 361.161L240.568 362.915C240.445 362.962 240.27 363.009 240.043 363.057C239.816 363.109 239.531 363.137 239.191 363.142C238.632 363.152 238.111 363.052 237.628 362.844C237.145 362.635 236.754 362.313 236.456 361.878C236.158 361.442 236.009 360.895 236.009 360.237V349.477ZM250.718 354.754L248.793 355.095C248.712 354.849 248.584 354.615 248.409 354.392C248.239 354.17 248.007 353.987 247.713 353.845C247.42 353.703 247.053 353.632 246.612 353.632C246.011 353.632 245.509 353.767 245.107 354.037C244.704 354.302 244.503 354.645 244.503 355.067C244.503 355.431 244.638 355.725 244.908 355.947C245.178 356.17 245.613 356.352 246.215 356.494L247.948 356.892C248.951 357.124 249.7 357.482 250.192 357.964C250.684 358.447 250.931 359.075 250.931 359.847C250.931 360.5 250.741 361.082 250.362 361.594C249.988 362.1 249.465 362.498 248.793 362.787C248.125 363.076 247.351 363.22 246.47 363.22C245.249 363.22 244.252 362.96 243.48 362.439C242.709 361.913 242.235 361.168 242.06 360.202L244.112 359.889C244.24 360.424 244.503 360.829 244.901 361.104C245.298 361.374 245.817 361.509 246.456 361.509C247.152 361.509 247.709 361.364 248.125 361.075C248.542 360.782 248.75 360.424 248.75 360.003C248.75 359.662 248.622 359.375 248.367 359.143C248.116 358.911 247.73 358.736 247.209 358.618L245.362 358.213C244.344 357.981 243.592 357.612 243.104 357.105C242.621 356.598 242.379 355.957 242.379 355.18C242.379 354.536 242.559 353.973 242.919 353.49C243.279 353.007 243.776 352.631 244.411 352.361C245.045 352.086 245.772 351.949 246.591 351.949C247.77 351.949 248.698 352.205 249.375 352.716C250.052 353.223 250.5 353.902 250.718 354.754Z" fill="black"/>
<rect x="25" y="396" width="45" height="45" rx="10" fill="#F3F3F3"/>
<path d="M85.9455 426.199C84.9701 426.199 84.0989 426.031 83.3319 425.695C82.5695 425.358 81.9658 424.892 81.5208 424.295C81.0804 423.694 80.8437 422.998 80.8105 422.207H83.0407C83.0691 422.638 83.2135 423.012 83.4739 423.33C83.7391 423.642 84.0847 423.884 84.5108 424.054C84.937 424.224 85.4105 424.31 85.9313 424.31C86.5042 424.31 87.0108 424.21 87.4512 424.011C87.8962 423.812 88.2443 423.536 88.4952 423.18C88.7462 422.821 88.8716 422.406 88.8716 421.938C88.8716 421.45 88.7462 421.021 88.4952 420.652C88.249 420.278 87.8868 419.984 87.4086 419.771C86.9351 419.558 86.3622 419.452 85.6898 419.452H84.4611V417.662H85.6898C86.2296 417.662 86.7031 417.565 87.1103 417.371C87.5222 417.177 87.8442 416.907 88.0762 416.561C88.3082 416.211 88.4242 415.801 88.4242 415.332C88.4242 414.883 88.3224 414.492 88.1188 414.161C87.9199 413.824 87.6358 413.562 87.2665 413.372C86.9019 413.183 86.4711 413.088 85.9739 413.088C85.5004 413.088 85.0577 413.176 84.6458 413.351C84.2386 413.521 83.9071 413.768 83.6515 414.089C83.3958 414.407 83.2585 414.788 83.2395 415.233H81.1159C81.1396 414.447 81.3716 413.756 81.812 413.159C82.257 412.562 82.8442 412.096 83.5733 411.76C84.3025 411.424 85.1122 411.256 86.0023 411.256C86.9351 411.256 87.74 411.438 88.4171 411.803C89.0989 412.162 89.6245 412.643 89.9938 413.244C90.3678 413.846 90.5525 414.504 90.5478 415.219C90.5525 416.033 90.3252 416.724 89.8659 417.293C89.4114 417.861 88.8053 418.242 88.0478 418.436V418.55C89.0137 418.696 89.7618 419.08 90.2921 419.7C90.8271 420.321 91.0923 421.09 91.0875 422.009C91.0923 422.809 90.8697 423.526 90.4199 424.161C89.9748 424.795 89.3664 425.295 88.5946 425.659C87.8229 426.019 86.9398 426.199 85.9455 426.199ZM98.8361 426.241C97.714 426.237 96.7551 425.941 95.9597 425.354C95.1642 424.767 94.5558 423.912 94.1344 422.79C93.713 421.668 93.5023 420.316 93.5023 418.734C93.5023 417.158 93.713 415.811 94.1344 414.693C94.5605 413.576 95.1713 412.723 95.9668 412.136C96.767 411.549 97.7234 411.256 98.8361 411.256C99.9488 411.256 100.903 411.552 101.698 412.143C102.494 412.731 103.102 413.583 103.524 414.7C103.95 415.813 104.163 417.158 104.163 418.734C104.163 420.321 103.952 421.675 103.531 422.797C103.109 423.914 102.501 424.769 101.705 425.361C100.91 425.948 99.9535 426.241 98.8361 426.241ZM98.8361 424.345C99.821 424.345 100.59 423.865 101.144 422.903C101.703 421.942 101.982 420.553 101.982 418.734C101.982 417.527 101.855 416.507 101.599 415.673C101.348 414.835 100.986 414.201 100.512 413.77C100.044 413.334 99.4848 413.116 98.8361 413.116C97.856 413.116 97.0866 413.599 96.5279 414.565C95.9692 415.531 95.6874 416.921 95.6827 418.734C95.6827 419.946 95.8082 420.972 96.0591 421.81C96.3148 422.643 96.677 423.275 97.1458 423.706C97.6145 424.132 98.178 424.345 98.8361 424.345ZM114.275 423.273V422.506C114.275 421.956 114.388 421.455 114.616 421C114.848 420.541 115.184 420.174 115.624 419.899C116.069 419.62 116.607 419.48 117.236 419.48C117.88 419.48 118.42 419.617 118.856 419.892C119.291 420.167 119.62 420.534 119.843 420.993C120.07 421.452 120.184 421.956 120.184 422.506V423.273C120.184 423.822 120.07 424.326 119.843 424.786C119.616 425.24 119.282 425.607 118.841 425.886C118.406 426.161 117.871 426.298 117.236 426.298C116.597 426.298 116.057 426.161 115.617 425.886C115.177 425.607 114.843 425.24 114.616 424.786C114.388 424.326 114.275 423.822 114.275 423.273ZM115.93 422.506V423.273C115.93 423.68 116.027 424.049 116.221 424.381C116.415 424.712 116.753 424.878 117.236 424.878C117.715 424.878 118.048 424.712 118.238 424.381C118.427 424.049 118.522 423.68 118.522 423.273V422.506C118.522 422.098 118.43 421.729 118.245 421.398C118.065 421.066 117.729 420.901 117.236 420.901C116.763 420.901 116.427 421.066 116.228 421.398C116.029 421.729 115.93 422.098 115.93 422.506ZM106.959 414.949V414.182C106.959 413.633 107.073 413.128 107.3 412.669C107.532 412.21 107.868 411.843 108.309 411.568C108.754 411.294 109.291 411.156 109.921 411.156C110.565 411.156 111.105 411.294 111.54 411.568C111.976 411.843 112.305 412.21 112.528 412.669C112.75 413.128 112.861 413.633 112.861 414.182V414.949C112.861 415.498 112.748 416.002 112.52 416.462C112.298 416.916 111.966 417.283 111.526 417.562C111.09 417.837 110.555 417.974 109.921 417.974C109.277 417.974 108.735 417.837 108.295 417.562C107.859 417.283 107.528 416.916 107.3 416.462C107.073 416.002 106.959 415.498 106.959 414.949ZM108.621 414.182V414.949C108.621 415.356 108.716 415.725 108.905 416.057C109.099 416.388 109.438 416.554 109.921 416.554C110.394 416.554 110.726 416.388 110.915 416.057C111.109 415.725 111.206 415.356 111.206 414.949V414.182C111.206 413.775 111.114 413.405 110.93 413.074C110.745 412.742 110.409 412.577 109.921 412.577C109.448 412.577 109.111 412.742 108.912 413.074C108.718 413.405 108.621 413.775 108.621 414.182ZM107.634 426L117.634 411.455H119.331L109.331 426H107.634ZM141.372 418.727C141.372 420.28 141.088 421.616 140.519 422.733C139.951 423.846 139.172 424.703 138.183 425.304C137.198 425.901 136.078 426.199 134.823 426.199C133.564 426.199 132.439 425.901 131.45 425.304C130.465 424.703 129.688 423.843 129.12 422.726C128.552 421.608 128.268 420.276 128.268 418.727C128.268 417.174 128.552 415.841 129.12 414.729C129.688 413.611 130.465 412.754 131.45 412.158C132.439 411.556 133.564 411.256 134.823 411.256C136.078 411.256 137.198 411.556 138.183 412.158C139.172 412.754 139.951 413.611 140.519 414.729C141.088 415.841 141.372 417.174 141.372 418.727ZM139.198 418.727C139.198 417.544 139.007 416.547 138.623 415.737C138.244 414.923 137.723 414.307 137.061 413.891C136.402 413.469 135.657 413.259 134.823 413.259C133.985 413.259 133.237 413.469 132.579 413.891C131.921 414.307 131.4 414.923 131.017 415.737C130.638 416.547 130.448 417.544 130.448 418.727C130.448 419.911 130.638 420.91 131.017 421.724C131.4 422.534 131.921 423.15 132.579 423.571C133.237 423.988 133.985 424.196 134.823 424.196C135.657 424.196 136.402 423.988 137.061 423.571C137.723 423.15 138.244 422.534 138.623 421.724C139.007 420.91 139.198 419.911 139.198 418.727ZM146.061 411.455V426H143.937V411.455H146.061ZM153.002 426.213C152.121 426.213 151.335 425.988 150.644 425.538C149.957 425.084 149.417 424.437 149.024 423.599C148.636 422.757 148.442 421.746 148.442 420.567C148.442 419.388 148.638 418.379 149.031 417.541C149.429 416.703 149.974 416.062 150.665 415.616C151.356 415.171 152.14 414.949 153.016 414.949C153.693 414.949 154.237 415.062 154.649 415.29C155.066 415.512 155.388 415.773 155.615 416.071C155.847 416.369 156.027 416.632 156.155 416.859H156.283V411.455H158.406V426H156.333V424.303H156.155C156.027 424.535 155.843 424.8 155.601 425.098C155.364 425.396 155.038 425.657 154.621 425.879C154.204 426.102 153.664 426.213 153.002 426.213ZM153.47 424.402C154.081 424.402 154.597 424.241 155.019 423.919C155.445 423.592 155.767 423.14 155.985 422.562C156.207 421.985 156.318 421.312 156.318 420.545C156.318 419.788 156.209 419.125 155.992 418.557C155.774 417.989 155.454 417.546 155.033 417.229C154.611 416.911 154.091 416.753 153.47 416.753C152.831 416.753 152.298 416.919 151.872 417.25C151.446 417.581 151.124 418.034 150.906 418.607C150.693 419.179 150.587 419.826 150.587 420.545C150.587 421.275 150.696 421.93 150.914 422.513C151.131 423.095 151.453 423.557 151.879 423.898C152.31 424.234 152.841 424.402 153.47 424.402ZM166.139 426.22C165.064 426.22 164.139 425.991 163.362 425.531C162.59 425.067 161.994 424.416 161.572 423.578C161.156 422.735 160.947 421.748 160.947 420.616C160.947 419.499 161.156 418.514 161.572 417.662C161.994 416.81 162.581 416.144 163.334 415.666C164.091 415.188 164.977 414.949 165.99 414.949C166.605 414.949 167.202 415.051 167.78 415.254C168.357 415.458 168.876 415.777 169.335 416.213C169.794 416.649 170.157 417.214 170.422 417.911C170.687 418.602 170.819 419.442 170.819 420.432V421.185H162.148V419.594H168.738C168.738 419.035 168.625 418.54 168.398 418.109C168.17 417.674 167.851 417.33 167.439 417.08C167.032 416.829 166.553 416.703 166.004 416.703C165.407 416.703 164.887 416.85 164.442 417.143C164.001 417.432 163.66 417.811 163.419 418.28C163.182 418.744 163.064 419.248 163.064 419.793V421.036C163.064 421.765 163.192 422.385 163.447 422.896C163.708 423.408 164.07 423.798 164.534 424.068C164.998 424.333 165.54 424.466 166.16 424.466C166.563 424.466 166.93 424.409 167.261 424.295C167.593 424.177 167.879 424.002 168.121 423.77C168.362 423.538 168.547 423.251 168.675 422.911L170.684 423.273C170.523 423.865 170.235 424.383 169.818 424.828C169.406 425.268 168.888 425.612 168.263 425.858C167.642 426.099 166.934 426.22 166.139 426.22ZM173.176 426V415.091H175.228V416.824H175.342C175.541 416.237 175.891 415.775 176.393 415.439C176.9 415.098 177.472 414.928 178.112 414.928C178.244 414.928 178.401 414.932 178.58 414.942C178.765 414.951 178.91 414.963 179.014 414.977V417.009C178.928 416.985 178.777 416.959 178.559 416.93C178.341 416.897 178.124 416.881 177.906 416.881C177.404 416.881 176.956 416.987 176.563 417.2C176.175 417.409 175.867 417.7 175.64 418.074C175.413 418.443 175.299 418.865 175.299 419.338V426H173.176ZM196.159 416.05C196.021 415.619 195.837 415.233 195.605 414.892C195.377 414.546 195.105 414.253 194.788 414.011C194.471 413.765 194.108 413.578 193.701 413.45C193.299 413.322 192.856 413.259 192.373 413.259C191.554 413.259 190.815 413.469 190.157 413.891C189.499 414.312 188.978 414.93 188.595 415.744C188.216 416.554 188.026 417.546 188.026 418.72C188.026 419.899 188.218 420.896 188.602 421.71C188.985 422.525 189.511 423.143 190.178 423.564C190.846 423.985 191.606 424.196 192.458 424.196C193.249 424.196 193.938 424.035 194.525 423.713C195.117 423.391 195.574 422.937 195.896 422.349C196.222 421.758 196.386 421.062 196.386 420.261L196.954 420.368H192.792V418.557H198.509V420.212C198.509 421.433 198.249 422.494 197.728 423.393C197.212 424.288 196.497 424.98 195.583 425.467C194.674 425.955 193.633 426.199 192.458 426.199C191.142 426.199 189.987 425.896 188.992 425.29C188.003 424.684 187.231 423.824 186.677 422.712C186.123 421.594 185.846 420.268 185.846 418.734C185.846 417.574 186.007 416.533 186.329 415.609C186.651 414.686 187.103 413.902 187.686 413.259C188.273 412.61 188.962 412.115 189.752 411.774C190.548 411.429 191.417 411.256 192.359 411.256C193.145 411.256 193.876 411.372 194.553 411.604C195.235 411.836 195.841 412.165 196.372 412.591C196.907 413.017 197.349 413.524 197.7 414.111C198.05 414.693 198.287 415.339 198.41 416.05H196.159ZM205.827 426.22C204.752 426.22 203.826 425.991 203.05 425.531C202.278 425.067 201.681 424.416 201.26 423.578C200.843 422.735 200.635 421.748 200.635 420.616C200.635 419.499 200.843 418.514 201.26 417.662C201.681 416.81 202.268 416.144 203.021 415.666C203.779 415.188 204.664 414.949 205.677 414.949C206.293 414.949 206.89 415.051 207.467 415.254C208.045 415.458 208.563 415.777 209.023 416.213C209.482 416.649 209.844 417.214 210.109 417.911C210.374 418.602 210.507 419.442 210.507 420.432V421.185H201.835V419.594H208.426C208.426 419.035 208.312 418.54 208.085 418.109C207.858 417.674 207.538 417.33 207.126 417.08C206.719 416.829 206.241 416.703 205.692 416.703C205.095 416.703 204.574 416.85 204.129 417.143C203.689 417.432 203.348 417.811 203.106 418.28C202.87 418.744 202.751 419.248 202.751 419.793V421.036C202.751 421.765 202.879 422.385 203.135 422.896C203.395 423.408 203.757 423.798 204.221 424.068C204.685 424.333 205.228 424.466 205.848 424.466C206.25 424.466 206.617 424.409 206.949 424.295C207.28 424.177 207.567 424.002 207.808 423.77C208.05 423.538 208.234 423.251 208.362 422.911L210.372 423.273C210.211 423.865 209.922 424.383 209.506 424.828C209.094 425.268 208.575 425.612 207.95 425.858C207.33 426.099 206.622 426.22 205.827 426.22ZM214.987 419.523V426H212.863V415.091H214.901V416.866H215.036C215.287 416.289 215.68 415.825 216.215 415.474C216.755 415.124 217.435 414.949 218.254 414.949C218.997 414.949 219.648 415.105 220.207 415.418C220.766 415.725 221.199 416.185 221.507 416.795C221.814 417.406 221.968 418.161 221.968 419.061V426H219.845V419.317C219.845 418.526 219.639 417.908 219.227 417.463C218.815 417.013 218.249 416.788 217.529 416.788C217.037 416.788 216.599 416.895 216.215 417.108C215.837 417.321 215.536 417.634 215.313 418.045C215.096 418.453 214.987 418.945 214.987 419.523ZM229.518 426.22C228.443 426.22 227.517 425.991 226.741 425.531C225.969 425.067 225.373 424.416 224.951 423.578C224.535 422.735 224.326 421.748 224.326 420.616C224.326 419.499 224.535 418.514 224.951 417.662C225.373 416.81 225.96 416.144 226.713 415.666C227.47 415.188 228.356 414.949 229.369 414.949C229.984 414.949 230.581 415.051 231.159 415.254C231.736 415.458 232.255 415.777 232.714 416.213C233.173 416.649 233.535 417.214 233.801 417.911C234.066 418.602 234.198 419.442 234.198 420.432V421.185H225.526V419.594H232.117C232.117 419.035 232.004 418.54 231.776 418.109C231.549 417.674 231.23 417.33 230.818 417.08C230.41 416.829 229.932 416.703 229.383 416.703C228.786 416.703 228.266 416.85 227.82 417.143C227.38 417.432 227.039 417.811 226.798 418.28C226.561 418.744 226.443 419.248 226.443 419.793V421.036C226.443 421.765 226.57 422.385 226.826 422.896C227.087 423.408 227.449 423.798 227.913 424.068C228.377 424.333 228.919 424.466 229.539 424.466C229.942 424.466 230.309 424.409 230.64 424.295C230.972 424.177 231.258 424.002 231.499 423.77C231.741 423.538 231.926 423.251 232.053 422.911L234.063 423.273C233.902 423.865 233.614 424.383 233.197 424.828C232.785 425.268 232.267 425.612 231.642 425.858C231.021 426.099 230.313 426.22 229.518 426.22ZM236.555 426V415.091H238.607V416.824H238.721C238.92 416.237 239.27 415.775 239.772 415.439C240.278 415.098 240.851 414.928 241.491 414.928C241.623 414.928 241.779 414.932 241.959 414.942C242.144 414.951 242.288 414.963 242.393 414.977V417.009C242.307 416.985 242.156 416.959 241.938 416.93C241.72 416.897 241.502 416.881 241.285 416.881C240.783 416.881 240.335 416.987 239.942 417.2C239.554 417.409 239.246 417.7 239.019 418.074C238.792 418.443 238.678 418.865 238.678 419.338V426H236.555ZM247.307 426.241C246.616 426.241 245.991 426.114 245.432 425.858C244.874 425.598 244.431 425.221 244.104 424.729C243.782 424.236 243.621 423.633 243.621 422.918C243.621 422.302 243.74 421.795 243.976 421.398C244.213 421 244.533 420.685 244.935 420.453C245.338 420.221 245.787 420.046 246.285 419.928C246.782 419.809 247.288 419.719 247.805 419.658C248.458 419.582 248.988 419.52 249.395 419.473C249.803 419.421 250.099 419.338 250.283 419.224C250.468 419.111 250.56 418.926 250.56 418.67V418.621C250.56 418 250.385 417.52 250.035 417.179C249.689 416.838 249.173 416.668 248.486 416.668C247.771 416.668 247.208 416.826 246.796 417.143C246.389 417.456 246.107 417.804 245.951 418.188L243.955 417.733C244.192 417.07 244.537 416.535 244.992 416.128C245.451 415.716 245.979 415.418 246.576 415.233C247.172 415.044 247.8 414.949 248.458 414.949C248.894 414.949 249.355 415.001 249.843 415.105C250.335 415.205 250.795 415.389 251.221 415.659C251.652 415.929 252.004 416.315 252.279 416.817C252.554 417.314 252.691 417.96 252.691 418.756V426H250.617V424.509H250.532C250.394 424.783 250.189 425.053 249.914 425.318C249.639 425.583 249.287 425.804 248.856 425.979C248.425 426.154 247.909 426.241 247.307 426.241ZM247.769 424.537C248.356 424.537 248.858 424.421 249.275 424.189C249.696 423.957 250.016 423.654 250.233 423.28C250.456 422.901 250.567 422.496 250.567 422.065V420.659C250.492 420.735 250.345 420.806 250.127 420.872C249.914 420.934 249.67 420.988 249.395 421.036C249.121 421.078 248.853 421.118 248.593 421.156C248.332 421.189 248.115 421.218 247.939 421.241C247.528 421.294 247.151 421.381 246.81 421.504C246.474 421.627 246.204 421.805 246.001 422.037C245.802 422.264 245.702 422.567 245.702 422.946C245.702 423.472 245.896 423.869 246.285 424.139C246.673 424.404 247.168 424.537 247.769 424.537ZM260.612 415.091V416.795H254.653V415.091H260.612ZM256.251 412.477H258.374V422.797C258.374 423.209 258.436 423.519 258.559 423.727C258.682 423.931 258.841 424.071 259.035 424.146C259.234 424.217 259.449 424.253 259.681 424.253C259.852 424.253 260.001 424.241 260.129 424.217C260.257 424.194 260.356 424.175 260.427 424.161L260.811 425.915C260.687 425.962 260.512 426.009 260.285 426.057C260.058 426.109 259.774 426.137 259.433 426.142C258.874 426.152 258.353 426.052 257.87 425.844C257.387 425.635 256.997 425.313 256.698 424.878C256.4 424.442 256.251 423.895 256.251 423.237V412.477ZM262.961 426V415.091H265.084V426H262.961ZM264.033 413.408C263.664 413.408 263.347 413.285 263.081 413.038C262.821 412.787 262.691 412.489 262.691 412.143C262.691 411.793 262.821 411.495 263.081 411.249C263.347 410.998 263.664 410.872 264.033 410.872C264.403 410.872 264.717 410.998 264.978 411.249C265.243 411.495 265.376 411.793 265.376 412.143C265.376 412.489 265.243 412.787 264.978 413.038C264.717 413.285 264.403 413.408 264.033 413.408ZM272.536 426.22C271.514 426.22 270.621 425.986 269.859 425.517C269.097 425.048 268.505 424.393 268.083 423.55C267.662 422.707 267.451 421.722 267.451 420.595C267.451 419.464 267.662 418.474 268.083 417.626C268.505 416.779 269.097 416.121 269.859 415.652C270.621 415.183 271.514 414.949 272.536 414.949C273.559 414.949 274.452 415.183 275.214 415.652C275.976 416.121 276.568 416.779 276.99 417.626C277.411 418.474 277.622 419.464 277.622 420.595C277.622 421.722 277.411 422.707 276.99 423.55C276.568 424.393 275.976 425.048 275.214 425.517C274.452 425.986 273.559 426.22 272.536 426.22ZM272.544 424.438C273.206 424.438 273.756 424.262 274.191 423.912C274.627 423.562 274.949 423.095 275.157 422.513C275.37 421.93 275.477 421.289 275.477 420.588C275.477 419.892 275.37 419.253 275.157 418.67C274.949 418.083 274.627 417.612 274.191 417.257C273.756 416.902 273.206 416.724 272.544 416.724C271.876 416.724 271.322 416.902 270.882 417.257C270.446 417.612 270.122 418.083 269.909 418.67C269.7 419.253 269.596 419.892 269.596 420.588C269.596 421.289 269.7 421.93 269.909 422.513C270.122 423.095 270.446 423.562 270.882 423.912C271.322 424.262 271.876 424.438 272.544 424.438ZM282.116 419.523V426H279.992V415.091H282.03V416.866H282.165C282.416 416.289 282.809 415.825 283.344 415.474C283.884 415.124 284.564 414.949 285.383 414.949C286.126 414.949 286.777 415.105 287.336 415.418C287.894 415.725 288.328 416.185 288.635 416.795C288.943 417.406 289.097 418.161 289.097 419.061V426H286.974V419.317C286.974 418.526 286.768 417.908 286.356 417.463C285.944 417.013 285.378 416.788 284.658 416.788C284.166 416.788 283.728 416.895 283.344 417.108C282.965 417.321 282.665 417.634 282.442 418.045C282.224 418.453 282.116 418.945 282.116 419.523Z" fill="black"/>
</svg>
