<svg width="306" height="465" viewBox="0 0 306 465" fill="none" xmlns="http://www.w3.org/2000/svg">
<path d="M153 153V0C237.5 0 306 68.5004 306 153C306 237.5 237.5 306 153 306C68.5004 306 0 237.5 0 153C0 112.422 16.1196 73.5057 44.8127 44.8127L153 153Z" fill="#2D4595"/>
<path d="M153 153L44.8126 44.8127C73.5057 16.1196 112.422 0 153 0V153Z" fill="#F3F3F3"/>
<rect x="25" y="333" width="40" height="40" rx="10" fill="#2D4595"/>
<path d="M76.0513 360.5L82.4007 347.943V347.837H75.057V345.955H84.6735V347.901L78.3453 360.5H76.0513ZM91.8947 360.741C90.7725 360.737 89.8137 360.441 89.0183 359.854C88.2228 359.267 87.6144 358.412 87.193 357.29C86.7716 356.168 86.5609 354.816 86.5609 353.234C86.5609 351.658 86.7716 350.311 87.193 349.193C87.6191 348.076 88.2299 347.223 89.0254 346.636C89.8256 346.049 90.782 345.756 91.8947 345.756C93.0074 345.756 93.9615 346.052 94.7569 346.643C95.5524 347.231 96.1608 348.083 96.5822 349.2C97.0083 350.313 97.2214 351.658 97.2214 353.234C97.2214 354.821 97.0107 356.175 96.5893 357.297C96.1679 358.414 95.5595 359.269 94.764 359.861C93.9686 360.448 93.0121 360.741 91.8947 360.741ZM91.8947 358.845C92.8796 358.845 93.649 358.365 94.2029 357.403C94.7617 356.442 95.041 355.053 95.041 353.234C95.041 352.027 94.9132 351.007 94.6575 350.173C94.4065 349.335 94.0443 348.701 93.5708 348.27C93.1021 347.834 92.5434 347.616 91.8947 347.616C90.9146 347.616 90.1452 348.099 89.5865 349.065C89.0278 350.031 88.746 351.421 88.7413 353.234C88.7413 354.446 88.8668 355.472 89.1177 356.31C89.3734 357.143 89.7356 357.775 90.2044 358.206C90.6731 358.632 91.2366 358.845 91.8947 358.845ZM107.333 357.773V357.006C107.333 356.456 107.447 355.955 107.674 355.5C107.906 355.041 108.242 354.674 108.683 354.399C109.128 354.12 109.665 353.98 110.295 353.98C110.939 353.98 111.479 354.117 111.914 354.392C112.35 354.667 112.679 355.034 112.901 355.493C113.129 355.952 113.242 356.456 113.242 357.006V357.773C113.242 358.322 113.129 358.826 112.901 359.286C112.674 359.74 112.34 360.107 111.9 360.386C111.464 360.661 110.929 360.798 110.295 360.798C109.656 360.798 109.116 360.661 108.676 360.386C108.235 360.107 107.901 359.74 107.674 359.286C107.447 358.826 107.333 358.322 107.333 357.773ZM108.988 357.006V357.773C108.988 358.18 109.085 358.549 109.279 358.881C109.473 359.212 109.812 359.378 110.295 359.378C110.773 359.378 111.107 359.212 111.296 358.881C111.486 358.549 111.58 358.18 111.58 357.773V357.006C111.58 356.598 111.488 356.229 111.303 355.898C111.124 355.566 110.787 355.401 110.295 355.401C109.821 355.401 109.485 355.566 109.286 355.898C109.088 356.229 108.988 356.598 108.988 357.006ZM100.018 349.449V348.682C100.018 348.133 100.132 347.628 100.359 347.169C100.591 346.71 100.927 346.343 101.367 346.068C101.812 345.794 102.35 345.656 102.98 345.656C103.624 345.656 104.163 345.794 104.599 346.068C105.035 346.343 105.364 346.71 105.586 347.169C105.809 347.628 105.92 348.133 105.92 348.682V349.449C105.92 349.998 105.806 350.502 105.579 350.962C105.356 351.416 105.025 351.783 104.585 352.062C104.149 352.337 103.614 352.474 102.98 352.474C102.336 352.474 101.794 352.337 101.353 352.062C100.918 351.783 100.586 351.416 100.359 350.962C100.132 350.502 100.018 349.998 100.018 349.449ZM101.68 348.682V349.449C101.68 349.856 101.775 350.225 101.964 350.557C102.158 350.888 102.497 351.054 102.98 351.054C103.453 351.054 103.785 350.888 103.974 350.557C104.168 350.225 104.265 349.856 104.265 349.449V348.682C104.265 348.275 104.173 347.905 103.988 347.574C103.803 347.242 103.467 347.077 102.98 347.077C102.506 347.077 102.17 347.242 101.971 347.574C101.777 347.905 101.68 348.275 101.68 348.682ZM100.693 360.5L110.693 345.955H112.39L102.39 360.5H100.693ZM120.673 345.955H123.166L126.966 352.567H127.122L130.922 345.955H133.415L128.138 354.79V360.5H125.95V354.79L120.673 345.955ZM138.115 360.72C137.092 360.72 136.199 360.486 135.437 360.017C134.675 359.548 134.083 358.893 133.661 358.05C133.24 357.207 133.029 356.222 133.029 355.095C133.029 353.964 133.24 352.974 133.661 352.126C134.083 351.279 134.675 350.621 135.437 350.152C136.199 349.683 137.092 349.449 138.115 349.449C139.137 349.449 140.03 349.683 140.792 350.152C141.554 350.621 142.146 351.279 142.568 352.126C142.989 352.974 143.2 353.964 143.2 355.095C143.2 356.222 142.989 357.207 142.568 358.05C142.146 358.893 141.554 359.548 140.792 360.017C140.03 360.486 139.137 360.72 138.115 360.72ZM138.122 358.938C138.785 358.938 139.334 358.762 139.769 358.412C140.205 358.062 140.527 357.595 140.735 357.013C140.948 356.43 141.055 355.789 141.055 355.088C141.055 354.392 140.948 353.753 140.735 353.17C140.527 352.583 140.205 352.112 139.769 351.757C139.334 351.402 138.785 351.224 138.122 351.224C137.454 351.224 136.9 351.402 136.46 351.757C136.024 352.112 135.7 352.583 135.487 353.17C135.278 353.753 135.174 354.392 135.174 355.088C135.174 355.789 135.278 356.43 135.487 357.013C135.7 357.595 136.024 358.062 136.46 358.412C136.9 358.762 137.454 358.938 138.122 358.938ZM152.481 355.976V349.591H154.611V360.5H152.523V358.611H152.41C152.159 359.193 151.756 359.679 151.202 360.067C150.653 360.45 149.969 360.642 149.15 360.642C148.449 360.642 147.829 360.488 147.289 360.18C146.754 359.868 146.332 359.406 146.025 358.795C145.722 358.185 145.57 357.429 145.57 356.53V349.591H147.694V356.274C147.694 357.018 147.9 357.609 148.312 358.05C148.724 358.49 149.259 358.71 149.917 358.71C150.314 358.71 150.71 358.611 151.103 358.412C151.501 358.213 151.83 357.912 152.09 357.51C152.355 357.107 152.485 356.596 152.481 355.976ZM159.588 354.023V360.5H157.465V349.591H159.503V351.366H159.638C159.889 350.789 160.282 350.325 160.817 349.974C161.357 349.624 162.036 349.449 162.855 349.449C163.599 349.449 164.25 349.605 164.808 349.918C165.367 350.225 165.8 350.685 166.108 351.295C166.416 351.906 166.57 352.661 166.57 353.561V360.5H164.446V353.817C164.446 353.026 164.24 352.408 163.828 351.963C163.416 351.513 162.851 351.288 162.131 351.288C161.638 351.288 161.2 351.395 160.817 351.608C160.438 351.821 160.137 352.134 159.915 352.545C159.697 352.953 159.588 353.445 159.588 354.023ZM173.992 364.818C173.125 364.818 172.379 364.705 171.754 364.477C171.134 364.25 170.628 363.949 170.235 363.575C169.842 363.201 169.548 362.792 169.354 362.347L171.179 361.594C171.307 361.802 171.477 362.022 171.691 362.254C171.908 362.491 172.202 362.692 172.571 362.858C172.945 363.024 173.426 363.107 174.013 363.107C174.818 363.107 175.483 362.91 176.009 362.517C176.534 362.129 176.797 361.509 176.797 360.656V358.511H176.662C176.534 358.743 176.35 359.001 176.108 359.286C175.871 359.57 175.545 359.816 175.128 360.024C174.711 360.232 174.169 360.337 173.502 360.337C172.64 360.337 171.863 360.135 171.172 359.733C170.485 359.326 169.941 358.727 169.539 357.936C169.141 357.141 168.942 356.163 168.942 355.003C168.942 353.843 169.138 352.848 169.531 352.02C169.929 351.191 170.474 350.557 171.165 350.116C171.856 349.671 172.64 349.449 173.516 349.449C174.193 349.449 174.74 349.562 175.156 349.79C175.573 350.012 175.897 350.273 176.129 350.571C176.366 350.869 176.548 351.132 176.676 351.359H176.833V349.591H178.914V360.741C178.914 361.679 178.696 362.448 178.26 363.05C177.825 363.651 177.235 364.096 176.492 364.385C175.753 364.674 174.92 364.818 173.992 364.818ZM173.97 358.575C174.581 358.575 175.097 358.433 175.519 358.149C175.945 357.86 176.267 357.448 176.485 356.913C176.707 356.374 176.818 355.727 176.818 354.974C176.818 354.241 176.709 353.594 176.492 353.036C176.274 352.477 175.954 352.041 175.533 351.729C175.111 351.411 174.591 351.253 173.97 351.253C173.331 351.253 172.798 351.419 172.372 351.75C171.946 352.077 171.624 352.522 171.406 353.085C171.193 353.649 171.087 354.278 171.087 354.974C171.087 355.689 171.196 356.317 171.414 356.857C171.631 357.396 171.953 357.818 172.379 358.121C172.81 358.424 173.341 358.575 173.97 358.575ZM188.454 360.5H186.124L191.358 345.955H193.894L199.128 360.5H196.799L192.687 348.597H192.573L188.454 360.5ZM188.844 354.804H196.401V356.651H188.844V354.804ZM204.966 360.713C204.086 360.713 203.3 360.488 202.608 360.038C201.922 359.584 201.382 358.937 200.989 358.099C200.601 357.257 200.407 356.246 200.407 355.067C200.407 353.888 200.603 352.879 200.996 352.041C201.394 351.203 201.939 350.562 202.63 350.116C203.321 349.671 204.105 349.449 204.981 349.449C205.658 349.449 206.202 349.562 206.614 349.79C207.031 350.012 207.353 350.273 207.58 350.571C207.812 350.869 207.992 351.132 208.12 351.359H208.248V345.955H210.371V360.5H208.297V358.803H208.12C207.992 359.035 207.807 359.3 207.566 359.598C207.329 359.896 207.002 360.157 206.586 360.379C206.169 360.602 205.629 360.713 204.966 360.713ZM205.435 358.902C206.046 358.902 206.562 358.741 206.983 358.419C207.41 358.092 207.732 357.64 207.949 357.062C208.172 356.485 208.283 355.812 208.283 355.045C208.283 354.288 208.174 353.625 207.956 353.057C207.739 352.489 207.419 352.046 206.998 351.729C206.576 351.411 206.055 351.253 205.435 351.253C204.796 351.253 204.263 351.419 203.837 351.75C203.411 352.081 203.089 352.534 202.871 353.107C202.658 353.679 202.552 354.326 202.552 355.045C202.552 355.775 202.661 356.43 202.878 357.013C203.096 357.595 203.418 358.057 203.844 358.398C204.275 358.734 204.805 358.902 205.435 358.902ZM220.313 355.976V349.591H222.443V360.5H220.355V358.611H220.242C219.991 359.193 219.588 359.679 219.034 360.067C218.485 360.45 217.801 360.642 216.982 360.642C216.281 360.642 215.661 360.488 215.121 360.18C214.586 359.868 214.164 359.406 213.857 358.795C213.554 358.185 213.402 357.429 213.402 356.53V349.591H215.526V356.274C215.526 357.018 215.732 357.609 216.144 358.05C216.556 358.49 217.091 358.71 217.749 358.71C218.146 358.71 218.542 358.611 218.935 358.412C219.333 358.213 219.662 357.912 219.922 357.51C220.187 357.107 220.317 356.596 220.313 355.976ZM227.42 345.955V360.5H225.297V345.955H227.42ZM235.369 349.591V351.295H229.411V349.591H235.369ZM231.009 346.977H233.132V357.297C233.132 357.709 233.194 358.019 233.317 358.227C233.44 358.431 233.599 358.571 233.793 358.646C233.992 358.717 234.207 358.753 234.439 358.753C234.61 358.753 234.759 358.741 234.887 358.717C235.014 358.694 235.114 358.675 235.185 358.661L235.568 360.415C235.445 360.462 235.27 360.509 235.043 360.557C234.816 360.609 234.531 360.637 234.191 360.642C233.632 360.652 233.111 360.552 232.628 360.344C232.145 360.135 231.754 359.813 231.456 359.378C231.158 358.942 231.009 358.395 231.009 357.737V346.977ZM245.718 352.254L243.793 352.595C243.712 352.349 243.584 352.115 243.409 351.892C243.239 351.67 243.007 351.487 242.713 351.345C242.42 351.203 242.053 351.132 241.612 351.132C241.011 351.132 240.509 351.267 240.107 351.537C239.704 351.802 239.503 352.145 239.503 352.567C239.503 352.931 239.638 353.225 239.908 353.447C240.178 353.67 240.613 353.852 241.215 353.994L242.948 354.392C243.951 354.624 244.7 354.982 245.192 355.464C245.684 355.947 245.931 356.575 245.931 357.347C245.931 358 245.741 358.582 245.362 359.094C244.988 359.6 244.465 359.998 243.793 360.287C243.125 360.576 242.351 360.72 241.47 360.72C240.249 360.72 239.252 360.46 238.48 359.939C237.709 359.413 237.235 358.668 237.06 357.702L239.112 357.389C239.24 357.924 239.503 358.329 239.901 358.604C240.298 358.874 240.817 359.009 241.456 359.009C242.152 359.009 242.709 358.864 243.125 358.575C243.542 358.282 243.75 357.924 243.75 357.503C243.75 357.162 243.622 356.875 243.367 356.643C243.116 356.411 242.73 356.236 242.209 356.118L240.362 355.713C239.344 355.481 238.592 355.112 238.104 354.605C237.621 354.098 237.379 353.457 237.379 352.68C237.379 352.036 237.559 351.473 237.919 350.99C238.279 350.507 238.776 350.131 239.411 349.861C240.045 349.586 240.772 349.449 241.591 349.449C242.77 349.449 243.698 349.705 244.375 350.216C245.052 350.723 245.5 351.402 245.718 352.254Z" fill="white"/>
<rect x="25" y="396" width="40" height="40" rx="10" fill="#F3F3F3"/>
<path d="M80.9455 423.699C79.9701 423.699 79.0989 423.531 78.3319 423.195C77.5695 422.858 76.9658 422.392 76.5208 421.795C76.0804 421.194 75.8437 420.498 75.8105 419.707H78.0407C78.0691 420.138 78.2135 420.512 78.4739 420.83C78.7391 421.142 79.0847 421.384 79.5108 421.554C79.937 421.724 80.4105 421.81 80.9313 421.81C81.5042 421.81 82.0108 421.71 82.4512 421.511C82.8962 421.312 83.2443 421.036 83.4952 420.68C83.7462 420.321 83.8716 419.906 83.8716 419.438C83.8716 418.95 83.7462 418.521 83.4952 418.152C83.249 417.778 82.8868 417.484 82.4086 417.271C81.9351 417.058 81.3622 416.952 80.6898 416.952H79.4611V415.162H80.6898C81.2296 415.162 81.7031 415.065 82.1103 414.871C82.5222 414.677 82.8442 414.407 83.0762 414.061C83.3082 413.711 83.4242 413.301 83.4242 412.832C83.4242 412.383 83.3224 411.992 83.1188 411.661C82.9199 411.324 82.6358 411.062 82.2665 410.872C81.9019 410.683 81.4711 410.588 80.9739 410.588C80.5004 410.588 80.0577 410.676 79.6458 410.851C79.2386 411.021 78.9071 411.268 78.6515 411.589C78.3958 411.907 78.2585 412.288 78.2395 412.733H76.1159C76.1396 411.947 76.3716 411.256 76.812 410.659C77.257 410.062 77.8442 409.596 78.5733 409.26C79.3025 408.924 80.1122 408.756 81.0023 408.756C81.9351 408.756 82.74 408.938 83.4171 409.303C84.0989 409.662 84.6245 410.143 84.9938 410.744C85.3678 411.346 85.5525 412.004 85.5478 412.719C85.5525 413.533 85.3252 414.224 84.8659 414.793C84.4114 415.361 83.8053 415.742 83.0478 415.936V416.05C84.0137 416.196 84.7618 416.58 85.2921 417.2C85.8271 417.821 86.0923 418.59 86.0875 419.509C86.0923 420.309 85.8697 421.026 85.4199 421.661C84.9748 422.295 84.3664 422.795 83.5946 423.159C82.8229 423.519 81.9398 423.699 80.9455 423.699ZM93.8361 423.741C92.714 423.737 91.7551 423.441 90.9597 422.854C90.1642 422.267 89.5558 421.412 89.1344 420.29C88.713 419.168 88.5023 417.816 88.5023 416.234C88.5023 414.658 88.713 413.311 89.1344 412.193C89.5605 411.076 90.1713 410.223 90.9668 409.636C91.767 409.049 92.7234 408.756 93.8361 408.756C94.9488 408.756 95.9029 409.052 96.6983 409.643C97.4938 410.231 98.1022 411.083 98.5236 412.2C98.9498 413.313 99.1628 414.658 99.1628 416.234C99.1628 417.821 98.9521 419.175 98.5307 420.297C98.1093 421.414 97.5009 422.269 96.7054 422.861C95.91 423.448 94.9535 423.741 93.8361 423.741ZM93.8361 421.845C94.821 421.845 95.5904 421.365 96.1444 420.403C96.7031 419.442 96.9824 418.053 96.9824 416.234C96.9824 415.027 96.8546 414.007 96.5989 413.173C96.348 412.335 95.9857 411.701 95.5123 411.27C95.0435 410.834 94.4848 410.616 93.8361 410.616C92.856 410.616 92.0866 411.099 91.5279 412.065C90.9692 413.031 90.6874 414.421 90.6827 416.234C90.6827 417.446 90.8082 418.472 91.0591 419.31C91.3148 420.143 91.677 420.775 92.1458 421.206C92.6145 421.632 93.178 421.845 93.8361 421.845ZM109.275 420.773V420.006C109.275 419.456 109.388 418.955 109.616 418.5C109.848 418.041 110.184 417.674 110.624 417.399C111.069 417.12 111.607 416.98 112.236 416.98C112.88 416.98 113.42 417.117 113.856 417.392C114.291 417.667 114.62 418.034 114.843 418.493C115.07 418.952 115.184 419.456 115.184 420.006V420.773C115.184 421.322 115.07 421.826 114.843 422.286C114.616 422.74 114.282 423.107 113.841 423.386C113.406 423.661 112.871 423.798 112.236 423.798C111.597 423.798 111.057 423.661 110.617 423.386C110.177 423.107 109.843 422.74 109.616 422.286C109.388 421.826 109.275 421.322 109.275 420.773ZM110.93 420.006V420.773C110.93 421.18 111.027 421.549 111.221 421.881C111.415 422.212 111.753 422.378 112.236 422.378C112.715 422.378 113.048 422.212 113.238 421.881C113.427 421.549 113.522 421.18 113.522 420.773V420.006C113.522 419.598 113.43 419.229 113.245 418.898C113.065 418.566 112.729 418.401 112.236 418.401C111.763 418.401 111.427 418.566 111.228 418.898C111.029 419.229 110.93 419.598 110.93 420.006ZM101.959 412.449V411.682C101.959 411.133 102.073 410.628 102.3 410.169C102.532 409.71 102.868 409.343 103.309 409.068C103.754 408.794 104.291 408.656 104.921 408.656C105.565 408.656 106.105 408.794 106.54 409.068C106.976 409.343 107.305 409.71 107.528 410.169C107.75 410.628 107.861 411.133 107.861 411.682V412.449C107.861 412.998 107.748 413.502 107.52 413.962C107.298 414.416 106.966 414.783 106.526 415.062C106.09 415.337 105.555 415.474 104.921 415.474C104.277 415.474 103.735 415.337 103.295 415.062C102.859 414.783 102.528 414.416 102.3 413.962C102.073 413.502 101.959 412.998 101.959 412.449ZM103.621 411.682V412.449C103.621 412.856 103.716 413.225 103.905 413.557C104.099 413.888 104.438 414.054 104.921 414.054C105.394 414.054 105.726 413.888 105.915 413.557C106.109 413.225 106.206 412.856 106.206 412.449V411.682C106.206 411.275 106.114 410.905 105.93 410.574C105.745 410.242 105.409 410.077 104.921 410.077C104.448 410.077 104.111 410.242 103.912 410.574C103.718 410.905 103.621 411.275 103.621 411.682ZM102.634 423.5L112.634 408.955H114.331L104.331 423.5H102.634ZM136.372 416.227C136.372 417.78 136.088 419.116 135.519 420.233C134.951 421.346 134.172 422.203 133.183 422.804C132.198 423.401 131.078 423.699 129.823 423.699C128.564 423.699 127.439 423.401 126.45 422.804C125.465 422.203 124.688 421.343 124.12 420.226C123.552 419.108 123.268 417.776 123.268 416.227C123.268 414.674 123.552 413.341 124.12 412.229C124.688 411.111 125.465 410.254 126.45 409.658C127.439 409.056 128.564 408.756 129.823 408.756C131.078 408.756 132.198 409.056 133.183 409.658C134.172 410.254 134.951 411.111 135.519 412.229C136.088 413.341 136.372 414.674 136.372 416.227ZM134.198 416.227C134.198 415.044 134.007 414.047 133.623 413.237C133.244 412.423 132.723 411.807 132.061 411.391C131.402 410.969 130.657 410.759 129.823 410.759C128.985 410.759 128.237 410.969 127.579 411.391C126.921 411.807 126.4 412.423 126.017 413.237C125.638 414.047 125.448 415.044 125.448 416.227C125.448 417.411 125.638 418.41 126.017 419.224C126.4 420.034 126.921 420.65 127.579 421.071C128.237 421.488 128.985 421.696 129.823 421.696C130.657 421.696 131.402 421.488 132.061 421.071C132.723 420.65 133.244 420.034 133.623 419.224C134.007 418.41 134.198 417.411 134.198 416.227ZM141.061 408.955V423.5H138.937V408.955H141.061ZM148.002 423.713C147.121 423.713 146.335 423.488 145.644 423.038C144.957 422.584 144.417 421.937 144.024 421.099C143.636 420.257 143.442 419.246 143.442 418.067C143.442 416.888 143.638 415.879 144.031 415.041C144.429 414.203 144.974 413.562 145.665 413.116C146.356 412.671 147.14 412.449 148.016 412.449C148.693 412.449 149.237 412.562 149.649 412.79C150.066 413.012 150.388 413.273 150.615 413.571C150.847 413.869 151.027 414.132 151.155 414.359H151.283V408.955H153.406V423.5H151.333V421.803H151.155C151.027 422.035 150.843 422.3 150.601 422.598C150.364 422.896 150.038 423.157 149.621 423.379C149.204 423.602 148.664 423.713 148.002 423.713ZM148.47 421.902C149.081 421.902 149.597 421.741 150.019 421.419C150.445 421.092 150.767 420.64 150.985 420.062C151.207 419.485 151.318 418.812 151.318 418.045C151.318 417.288 151.209 416.625 150.992 416.057C150.774 415.489 150.454 415.046 150.033 414.729C149.611 414.411 149.091 414.253 148.47 414.253C147.831 414.253 147.298 414.419 146.872 414.75C146.446 415.081 146.124 415.534 145.906 416.107C145.693 416.679 145.587 417.326 145.587 418.045C145.587 418.775 145.696 419.43 145.914 420.013C146.131 420.595 146.453 421.057 146.879 421.398C147.31 421.734 147.841 421.902 148.47 421.902ZM161.139 423.72C160.064 423.72 159.139 423.491 158.362 423.031C157.59 422.567 156.994 421.916 156.572 421.078C156.156 420.235 155.947 419.248 155.947 418.116C155.947 416.999 156.156 416.014 156.572 415.162C156.994 414.31 157.581 413.644 158.334 413.166C159.091 412.688 159.977 412.449 160.99 412.449C161.605 412.449 162.202 412.551 162.78 412.754C163.357 412.958 163.876 413.277 164.335 413.713C164.794 414.149 165.157 414.714 165.422 415.411C165.687 416.102 165.819 416.942 165.819 417.932V418.685H157.148V417.094H163.738C163.738 416.535 163.625 416.04 163.398 415.609C163.17 415.174 162.851 414.83 162.439 414.58C162.032 414.329 161.553 414.203 161.004 414.203C160.407 414.203 159.887 414.35 159.442 414.643C159.001 414.932 158.66 415.311 158.419 415.78C158.182 416.244 158.064 416.748 158.064 417.293V418.536C158.064 419.265 158.192 419.885 158.447 420.396C158.708 420.908 159.07 421.298 159.534 421.568C159.998 421.833 160.54 421.966 161.16 421.966C161.563 421.966 161.93 421.909 162.261 421.795C162.593 421.677 162.879 421.502 163.121 421.27C163.362 421.038 163.547 420.751 163.675 420.411L165.684 420.773C165.523 421.365 165.235 421.883 164.818 422.328C164.406 422.768 163.888 423.112 163.263 423.358C162.642 423.599 161.934 423.72 161.139 423.72ZM168.176 423.5V412.591H170.228V414.324H170.342C170.541 413.737 170.891 413.275 171.393 412.939C171.9 412.598 172.472 412.428 173.112 412.428C173.244 412.428 173.401 412.432 173.58 412.442C173.765 412.451 173.91 412.463 174.014 412.477V414.509C173.928 414.485 173.777 414.459 173.559 414.43C173.341 414.397 173.124 414.381 172.906 414.381C172.404 414.381 171.956 414.487 171.563 414.7C171.175 414.909 170.867 415.2 170.64 415.574C170.413 415.943 170.299 416.365 170.299 416.838V423.5H168.176ZM191.159 413.55C191.021 413.119 190.837 412.733 190.605 412.392C190.377 412.046 190.105 411.753 189.788 411.511C189.471 411.265 189.108 411.078 188.701 410.95C188.299 410.822 187.856 410.759 187.373 410.759C186.554 410.759 185.815 410.969 185.157 411.391C184.499 411.812 183.978 412.43 183.595 413.244C183.216 414.054 183.026 415.046 183.026 416.22C183.026 417.399 183.218 418.396 183.602 419.21C183.985 420.025 184.511 420.643 185.178 421.064C185.846 421.485 186.606 421.696 187.458 421.696C188.249 421.696 188.938 421.535 189.525 421.213C190.117 420.891 190.574 420.437 190.896 419.849C191.222 419.258 191.386 418.562 191.386 417.761L191.954 417.868H187.792V416.057H193.509V417.712C193.509 418.933 193.249 419.994 192.728 420.893C192.212 421.788 191.497 422.48 190.583 422.967C189.674 423.455 188.633 423.699 187.458 423.699C186.142 423.699 184.987 423.396 183.992 422.79C183.003 422.184 182.231 421.324 181.677 420.212C181.123 419.094 180.846 417.768 180.846 416.234C180.846 415.074 181.007 414.033 181.329 413.109C181.651 412.186 182.103 411.402 182.686 410.759C183.273 410.11 183.962 409.615 184.752 409.274C185.548 408.929 186.417 408.756 187.359 408.756C188.145 408.756 188.876 408.872 189.553 409.104C190.235 409.336 190.841 409.665 191.372 410.091C191.907 410.517 192.349 411.024 192.7 411.611C193.05 412.193 193.287 412.839 193.41 413.55H191.159ZM200.827 423.72C199.752 423.72 198.826 423.491 198.05 423.031C197.278 422.567 196.681 421.916 196.26 421.078C195.843 420.235 195.635 419.248 195.635 418.116C195.635 416.999 195.843 416.014 196.26 415.162C196.681 414.31 197.268 413.644 198.021 413.166C198.779 412.688 199.664 412.449 200.677 412.449C201.293 412.449 201.89 412.551 202.467 412.754C203.045 412.958 203.563 413.277 204.023 413.713C204.482 414.149 204.844 414.714 205.109 415.411C205.374 416.102 205.507 416.942 205.507 417.932V418.685H196.835V417.094H203.426C203.426 416.535 203.312 416.04 203.085 415.609C202.858 415.174 202.538 414.83 202.126 414.58C201.719 414.329 201.241 414.203 200.692 414.203C200.095 414.203 199.574 414.35 199.129 414.643C198.689 414.932 198.348 415.311 198.106 415.78C197.87 416.244 197.751 416.748 197.751 417.293V418.536C197.751 419.265 197.879 419.885 198.135 420.396C198.395 420.908 198.757 421.298 199.221 421.568C199.685 421.833 200.228 421.966 200.848 421.966C201.25 421.966 201.617 421.909 201.949 421.795C202.28 421.677 202.567 421.502 202.808 421.27C203.05 421.038 203.234 420.751 203.362 420.411L205.372 420.773C205.211 421.365 204.922 421.883 204.506 422.328C204.094 422.768 203.575 423.112 202.95 423.358C202.33 423.599 201.622 423.72 200.827 423.72ZM209.987 417.023V423.5H207.863V412.591H209.901V414.366H210.036C210.287 413.789 210.68 413.325 211.215 412.974C211.755 412.624 212.435 412.449 213.254 412.449C213.997 412.449 214.648 412.605 215.207 412.918C215.766 413.225 216.199 413.685 216.507 414.295C216.814 414.906 216.968 415.661 216.968 416.561V423.5H214.845V416.817C214.845 416.026 214.639 415.408 214.227 414.963C213.815 414.513 213.249 414.288 212.529 414.288C212.037 414.288 211.599 414.395 211.215 414.608C210.837 414.821 210.536 415.134 210.313 415.545C210.096 415.953 209.987 416.445 209.987 417.023ZM224.518 423.72C223.443 423.72 222.517 423.491 221.741 423.031C220.969 422.567 220.373 421.916 219.951 421.078C219.535 420.235 219.326 419.248 219.326 418.116C219.326 416.999 219.535 416.014 219.951 415.162C220.373 414.31 220.96 413.644 221.713 413.166C222.47 412.688 223.356 412.449 224.369 412.449C224.984 412.449 225.581 412.551 226.159 412.754C226.736 412.958 227.255 413.277 227.714 413.713C228.173 414.149 228.535 414.714 228.801 415.411C229.066 416.102 229.198 416.942 229.198 417.932V418.685H220.526V417.094H227.117C227.117 416.535 227.004 416.04 226.776 415.609C226.549 415.174 226.23 414.83 225.818 414.58C225.41 414.329 224.932 414.203 224.383 414.203C223.786 414.203 223.266 414.35 222.82 414.643C222.38 414.932 222.039 415.311 221.798 415.78C221.561 416.244 221.443 416.748 221.443 417.293V418.536C221.443 419.265 221.57 419.885 221.826 420.396C222.087 420.908 222.449 421.298 222.913 421.568C223.377 421.833 223.919 421.966 224.539 421.966C224.942 421.966 225.309 421.909 225.64 421.795C225.972 421.677 226.258 421.502 226.499 421.27C226.741 421.038 226.926 420.751 227.053 420.411L229.063 420.773C228.902 421.365 228.614 421.883 228.197 422.328C227.785 422.768 227.267 423.112 226.642 423.358C226.021 423.599 225.313 423.72 224.518 423.72ZM231.555 423.5V412.591H233.607V414.324H233.721C233.92 413.737 234.27 413.275 234.772 412.939C235.278 412.598 235.851 412.428 236.491 412.428C236.623 412.428 236.779 412.432 236.959 412.442C237.144 412.451 237.288 412.463 237.393 412.477V414.509C237.307 414.485 237.156 414.459 236.938 414.43C236.72 414.397 236.502 414.381 236.285 414.381C235.783 414.381 235.335 414.487 234.942 414.7C234.554 414.909 234.246 415.2 234.019 415.574C233.792 415.943 233.678 416.365 233.678 416.838V423.5H231.555ZM242.307 423.741C241.616 423.741 240.991 423.614 240.432 423.358C239.874 423.098 239.431 422.721 239.104 422.229C238.782 421.736 238.621 421.133 238.621 420.418C238.621 419.802 238.74 419.295 238.976 418.898C239.213 418.5 239.533 418.185 239.935 417.953C240.338 417.721 240.787 417.546 241.285 417.428C241.782 417.309 242.288 417.219 242.805 417.158C243.458 417.082 243.988 417.02 244.395 416.973C244.803 416.921 245.099 416.838 245.283 416.724C245.468 416.611 245.56 416.426 245.56 416.17V416.121C245.56 415.5 245.385 415.02 245.035 414.679C244.689 414.338 244.173 414.168 243.486 414.168C242.771 414.168 242.208 414.326 241.796 414.643C241.389 414.956 241.107 415.304 240.951 415.688L238.955 415.233C239.192 414.57 239.537 414.035 239.992 413.628C240.451 413.216 240.979 412.918 241.576 412.733C242.172 412.544 242.8 412.449 243.458 412.449C243.894 412.449 244.355 412.501 244.843 412.605C245.335 412.705 245.795 412.889 246.221 413.159C246.652 413.429 247.004 413.815 247.279 414.317C247.554 414.814 247.691 415.46 247.691 416.256V423.5H245.617V422.009H245.532C245.394 422.283 245.189 422.553 244.914 422.818C244.639 423.083 244.287 423.304 243.856 423.479C243.425 423.654 242.909 423.741 242.307 423.741ZM242.769 422.037C243.356 422.037 243.858 421.921 244.275 421.689C244.696 421.457 245.016 421.154 245.233 420.78C245.456 420.401 245.567 419.996 245.567 419.565V418.159C245.492 418.235 245.345 418.306 245.127 418.372C244.914 418.434 244.67 418.488 244.395 418.536C244.121 418.578 243.853 418.618 243.593 418.656C243.332 418.689 243.115 418.718 242.939 418.741C242.528 418.794 242.151 418.881 241.81 419.004C241.474 419.127 241.204 419.305 241.001 419.537C240.802 419.764 240.702 420.067 240.702 420.446C240.702 420.972 240.896 421.369 241.285 421.639C241.673 421.904 242.168 422.037 242.769 422.037ZM255.612 412.591V414.295H249.653V412.591H255.612ZM251.251 409.977H253.374V420.297C253.374 420.709 253.436 421.019 253.559 421.227C253.682 421.431 253.841 421.571 254.035 421.646C254.234 421.717 254.449 421.753 254.681 421.753C254.852 421.753 255.001 421.741 255.129 421.717C255.257 421.694 255.356 421.675 255.427 421.661L255.811 423.415C255.687 423.462 255.512 423.509 255.285 423.557C255.058 423.609 254.774 423.637 254.433 423.642C253.874 423.652 253.353 423.552 252.87 423.344C252.387 423.135 251.997 422.813 251.698 422.378C251.4 421.942 251.251 421.395 251.251 420.737V409.977ZM257.961 423.5V412.591H260.084V423.5H257.961ZM259.033 410.908C258.664 410.908 258.347 410.785 258.081 410.538C257.821 410.287 257.691 409.989 257.691 409.643C257.691 409.293 257.821 408.995 258.081 408.749C258.347 408.498 258.664 408.372 259.033 408.372C259.403 408.372 259.717 408.498 259.978 408.749C260.243 408.995 260.376 409.293 260.376 409.643C260.376 409.989 260.243 410.287 259.978 410.538C259.717 410.785 259.403 410.908 259.033 410.908ZM267.536 423.72C266.514 423.72 265.621 423.486 264.859 423.017C264.097 422.548 263.505 421.893 263.083 421.05C262.662 420.207 262.451 419.222 262.451 418.095C262.451 416.964 262.662 415.974 263.083 415.126C263.505 414.279 264.097 413.621 264.859 413.152C265.621 412.683 266.514 412.449 267.536 412.449C268.559 412.449 269.452 412.683 270.214 413.152C270.976 413.621 271.568 414.279 271.99 415.126C272.411 415.974 272.622 416.964 272.622 418.095C272.622 419.222 272.411 420.207 271.99 421.05C271.568 421.893 270.976 422.548 270.214 423.017C269.452 423.486 268.559 423.72 267.536 423.72ZM267.544 421.938C268.206 421.938 268.756 421.762 269.191 421.412C269.627 421.062 269.949 420.595 270.157 420.013C270.37 419.43 270.477 418.789 270.477 418.088C270.477 417.392 270.37 416.753 270.157 416.17C269.949 415.583 269.627 415.112 269.191 414.757C268.756 414.402 268.206 414.224 267.544 414.224C266.876 414.224 266.322 414.402 265.882 414.757C265.446 415.112 265.122 415.583 264.909 416.17C264.7 416.753 264.596 417.392 264.596 418.088C264.596 418.789 264.7 419.43 264.909 420.013C265.122 420.595 265.446 421.062 265.882 421.412C266.322 421.762 266.876 421.938 267.544 421.938ZM277.116 417.023V423.5H274.992V412.591H277.03V414.366H277.165C277.416 413.789 277.809 413.325 278.344 412.974C278.884 412.624 279.564 412.449 280.383 412.449C281.126 412.449 281.777 412.605 282.336 412.918C282.894 413.225 283.328 413.685 283.635 414.295C283.943 414.906 284.097 415.661 284.097 416.561V423.5H281.974V416.817C281.974 416.026 281.768 415.408 281.356 414.963C280.944 414.513 280.378 414.288 279.658 414.288C279.166 414.288 278.728 414.395 278.344 414.608C277.965 414.821 277.665 415.134 277.442 415.545C277.224 415.953 277.116 416.445 277.116 417.023Z" fill="white"/>
</svg>
