<svg width="37" height="37" viewBox="0 0 37 37" fill="none" xmlns="http://www.w3.org/2000/svg">
<path d="M17.0868 24.2634C17.0868 22.9251 16.7418 21.8028 16.0518 20.8918C15.5628 20.2653 14.8998 19.8531 14.0613 19.657C13.2363 19.4623 12.4563 19.4486 11.7513 19.6144C11.5113 18.1697 11.9013 16.6398 12.8913 15.0187C13.8813 13.399 15.1638 12.1794 16.7283 11.3643L14.3583 7.90454C13.1583 8.50676 12.0183 9.27018 10.9683 10.1933C9.90327 11.1164 8.95827 12.1779 8.11827 13.3778C7.27827 14.5776 6.64827 15.9326 6.24327 17.4686C5.83827 19.0046 5.72427 20.5709 5.91777 22.183C6.16977 24.312 6.84777 26.0153 7.95177 27.2775C9.05427 28.5549 10.4298 29.1937 12.0738 29.1937C13.5213 29.1937 14.7228 28.7526 15.6738 27.8584C16.6158 26.9825 17.0838 25.7826 17.0838 24.2573L17.0868 24.2618V24.2634ZM30.7728 24.2634C30.7728 22.9251 30.4278 21.8028 29.7378 20.8918C29.2488 20.2531 28.5828 19.8395 27.7473 19.6494C26.9073 19.4608 26.1363 19.4517 25.4373 19.6159C25.1973 18.1864 25.5723 16.6504 26.5623 15.0232C27.5523 13.4112 28.8333 12.1946 30.3978 11.3734L28.0338 7.90454C26.8338 8.50676 25.7013 9.27018 24.6438 10.1933C23.5818 11.1164 22.6338 12.1779 21.8028 13.3778C20.9688 14.5792 20.3478 15.9326 19.9428 17.4686C19.5333 18.9894 19.4253 20.5709 19.6173 22.183C19.8648 24.312 20.5398 26.0153 21.6423 27.2775C22.7403 28.5443 24.1113 29.1784 25.7553 29.1784C27.2058 29.1784 28.4073 28.7374 29.3583 27.8463C30.2988 26.9703 30.7713 25.7704 30.7713 24.2451V24.2603L30.7728 24.2634Z" fill="#F3F3F3"/>
</svg>
