<svg width="1399" height="364" viewBox="0 0 1399 364" fill="none" xmlns="http://www.w3.org/2000/svg">
<circle cx="149" cy="183" r="125" fill="#525151"/>
<path d="M87.2898 193V172.636H94.9261C96.4905 172.636 97.803 172.908 98.8636 173.452C99.9309 173.995 100.736 174.758 101.28 175.739C101.83 176.713 102.105 177.85 102.105 179.149C102.105 180.455 101.827 181.589 101.27 182.55C100.72 183.504 99.9077 184.243 98.8338 184.767C97.7599 185.284 96.4408 185.543 94.8764 185.543H89.4375V182.48H94.3793C95.294 182.48 96.0431 182.354 96.6264 182.102C97.2098 181.844 97.6406 181.469 97.919 180.979C98.2041 180.482 98.3466 179.872 98.3466 179.149C98.3466 178.427 98.2041 177.81 97.919 177.3C97.634 176.783 97.1998 176.392 96.6165 176.126C96.0331 175.855 95.2808 175.719 94.3594 175.719H90.9787V193H87.2898ZM97.8097 183.773L102.851 193H98.7344L93.7827 183.773H97.8097ZM111.884 193.298C110.353 193.298 109.031 192.98 107.917 192.344C106.81 191.701 105.958 190.793 105.362 189.619C104.765 188.439 104.467 187.051 104.467 185.453C104.467 183.882 104.765 182.503 105.362 181.317C105.965 180.124 106.807 179.196 107.887 178.533C108.968 177.863 110.237 177.528 111.695 177.528C112.637 177.528 113.525 177.681 114.36 177.986C115.202 178.284 115.944 178.748 116.587 179.378C117.237 180.008 117.747 180.81 118.119 181.784C118.49 182.752 118.675 183.905 118.675 185.244V186.348H106.157V183.922H115.225C115.219 183.232 115.069 182.619 114.778 182.082C114.486 181.539 114.078 181.111 113.555 180.8C113.038 180.488 112.434 180.332 111.745 180.332C111.009 180.332 110.363 180.511 109.806 180.869C109.249 181.221 108.815 181.685 108.504 182.261C108.199 182.831 108.043 183.458 108.036 184.141V186.259C108.036 187.147 108.199 187.909 108.523 188.545C108.848 189.175 109.302 189.659 109.886 189.997C110.469 190.329 111.152 190.494 111.934 190.494C112.458 190.494 112.932 190.421 113.356 190.276C113.78 190.123 114.148 189.901 114.46 189.609C114.771 189.318 115.006 188.956 115.165 188.526L118.526 188.903C118.314 189.792 117.91 190.567 117.313 191.23C116.723 191.886 115.968 192.397 115.046 192.761C114.125 193.119 113.071 193.298 111.884 193.298ZM133.792 181.764L130.51 182.122C130.417 181.791 130.255 181.479 130.023 181.188C129.798 180.896 129.493 180.661 129.108 180.482C128.724 180.303 128.253 180.213 127.696 180.213C126.947 180.213 126.318 180.375 125.807 180.7C125.303 181.025 125.055 181.446 125.061 181.963C125.055 182.407 125.217 182.768 125.549 183.047C125.887 183.325 126.444 183.554 127.219 183.733L129.824 184.29C131.269 184.601 132.343 185.095 133.046 185.771C133.755 186.447 134.113 187.332 134.12 188.426C134.113 189.387 133.831 190.236 133.275 190.972C132.724 191.701 131.959 192.271 130.978 192.682C129.997 193.093 128.87 193.298 127.597 193.298C125.728 193.298 124.223 192.907 123.083 192.125C121.943 191.336 121.263 190.239 121.044 188.834L124.554 188.496C124.713 189.185 125.051 189.705 125.569 190.057C126.086 190.408 126.758 190.584 127.587 190.584C128.442 190.584 129.128 190.408 129.645 190.057C130.169 189.705 130.431 189.271 130.431 188.754C130.431 188.317 130.262 187.955 129.924 187.67C129.592 187.385 129.075 187.167 128.373 187.014L125.767 186.467C124.302 186.162 123.219 185.649 122.516 184.926C121.813 184.197 121.465 183.276 121.472 182.162C121.465 181.221 121.721 180.405 122.238 179.716C122.761 179.02 123.487 178.483 124.415 178.105C125.35 177.721 126.427 177.528 127.647 177.528C129.436 177.528 130.845 177.91 131.873 178.672C132.907 179.434 133.546 180.465 133.792 181.764ZM143.849 193.298C142.318 193.298 140.995 192.98 139.882 192.344C138.775 191.701 137.923 190.793 137.326 189.619C136.73 188.439 136.431 187.051 136.431 185.453C136.431 183.882 136.73 182.503 137.326 181.317C137.93 180.124 138.771 179.196 139.852 178.533C140.932 177.863 142.202 177.528 143.66 177.528C144.601 177.528 145.49 177.681 146.325 177.986C147.167 178.284 147.909 178.748 148.552 179.378C149.202 180.008 149.712 180.81 150.083 181.784C150.455 182.752 150.64 183.905 150.64 185.244V186.348H138.122V183.922H147.19C147.183 183.232 147.034 182.619 146.743 182.082C146.451 181.539 146.043 181.111 145.52 180.8C145.002 180.488 144.399 180.332 143.71 180.332C142.974 180.332 142.328 180.511 141.771 180.869C141.214 181.221 140.78 181.685 140.468 182.261C140.163 182.831 140.008 183.458 140.001 184.141V186.259C140.001 187.147 140.163 187.909 140.488 188.545C140.813 189.175 141.267 189.659 141.85 189.997C142.434 190.329 143.117 190.494 143.899 190.494C144.422 190.494 144.896 190.421 145.321 190.276C145.745 190.123 146.113 189.901 146.424 189.609C146.736 189.318 146.971 188.956 147.13 188.526L150.491 188.903C150.279 189.792 149.875 190.567 149.278 191.23C148.688 191.886 147.932 192.397 147.011 192.761C146.09 193.119 145.036 193.298 143.849 193.298ZM158.08 193.308C157.112 193.308 156.241 193.136 155.465 192.791C154.696 192.44 154.086 191.923 153.636 191.24C153.192 190.557 152.969 189.715 152.969 188.714C152.969 187.853 153.129 187.14 153.447 186.577C153.765 186.013 154.199 185.562 154.749 185.224C155.299 184.886 155.919 184.631 156.609 184.459C157.305 184.28 158.024 184.151 158.766 184.071C159.661 183.978 160.387 183.895 160.944 183.822C161.501 183.743 161.905 183.624 162.157 183.464C162.415 183.299 162.545 183.044 162.545 182.699V182.639C162.545 181.89 162.323 181.31 161.879 180.899C161.434 180.488 160.795 180.283 159.96 180.283C159.078 180.283 158.379 180.475 157.862 180.859C157.351 181.244 157.006 181.698 156.827 182.222L153.467 181.744C153.732 180.816 154.169 180.041 154.779 179.418C155.389 178.788 156.135 178.317 157.016 178.006C157.898 177.688 158.872 177.528 159.94 177.528C160.675 177.528 161.408 177.615 162.137 177.787C162.866 177.959 163.532 178.244 164.136 178.642C164.739 179.033 165.223 179.567 165.587 180.243C165.959 180.919 166.144 181.764 166.144 182.778V193H162.684V190.902H162.565C162.346 191.326 162.038 191.724 161.64 192.095C161.249 192.46 160.755 192.755 160.158 192.98C159.568 193.199 158.876 193.308 158.08 193.308ZM159.015 190.663C159.737 190.663 160.364 190.521 160.894 190.236C161.424 189.944 161.832 189.56 162.117 189.082C162.409 188.605 162.555 188.085 162.555 187.521V185.722C162.442 185.814 162.25 185.901 161.978 185.98C161.713 186.06 161.415 186.129 161.083 186.189C160.752 186.249 160.424 186.302 160.099 186.348C159.774 186.394 159.492 186.434 159.254 186.467C158.717 186.54 158.236 186.66 157.812 186.825C157.388 186.991 157.053 187.223 156.808 187.521C156.562 187.813 156.44 188.191 156.44 188.655C156.44 189.318 156.682 189.818 157.165 190.156C157.649 190.494 158.266 190.663 159.015 190.663ZM169.763 193V177.727H173.254V180.273H173.413C173.691 179.391 174.168 178.712 174.844 178.234C175.527 177.75 176.306 177.509 177.181 177.509C177.38 177.509 177.602 177.518 177.847 177.538C178.099 177.552 178.308 177.575 178.474 177.608V180.919C178.321 180.866 178.079 180.82 177.748 180.78C177.423 180.733 177.108 180.71 176.803 180.71C176.147 180.71 175.557 180.853 175.033 181.138C174.516 181.416 174.109 181.804 173.81 182.301C173.512 182.798 173.363 183.372 173.363 184.021V193H169.763ZM186.898 193.298C185.373 193.298 184.064 192.964 182.971 192.294C181.883 191.625 181.045 190.7 180.455 189.52C179.872 188.333 179.58 186.968 179.58 185.423C179.58 183.872 179.878 182.503 180.475 181.317C181.071 180.124 181.913 179.196 183 178.533C184.094 177.863 185.387 177.528 186.878 177.528C188.118 177.528 189.215 177.757 190.169 178.214C191.131 178.665 191.896 179.305 192.466 180.134C193.036 180.955 193.361 181.917 193.441 183.017H190C189.861 182.281 189.53 181.668 189.006 181.178C188.489 180.68 187.796 180.432 186.928 180.432C186.192 180.432 185.546 180.631 184.989 181.028C184.432 181.42 183.998 181.983 183.686 182.719C183.382 183.455 183.229 184.336 183.229 185.364C183.229 186.404 183.382 187.299 183.686 188.048C183.991 188.791 184.419 189.364 184.969 189.768C185.526 190.166 186.179 190.365 186.928 190.365C187.458 190.365 187.932 190.266 188.35 190.067C188.774 189.861 189.129 189.566 189.414 189.182C189.699 188.797 189.894 188.33 190 187.78H193.441C193.355 188.86 193.036 189.818 192.486 190.653C191.936 191.482 191.187 192.132 190.239 192.602C189.291 193.066 188.177 193.298 186.898 193.298ZM199.996 184.051V193H196.396V172.636H199.916V180.322H200.095C200.453 179.461 201.007 178.781 201.756 178.284C202.511 177.78 203.473 177.528 204.639 177.528C205.7 177.528 206.625 177.75 207.413 178.195C208.202 178.639 208.812 179.288 209.243 180.143C209.68 180.999 209.899 182.043 209.899 183.276V193H206.3V183.832C206.3 182.805 206.035 182.006 205.504 181.436C204.981 180.859 204.245 180.571 203.297 180.571C202.661 180.571 202.09 180.71 201.587 180.989C201.089 181.26 200.698 181.655 200.413 182.172C200.135 182.689 199.996 183.315 199.996 184.051Z" fill="white"/>
<ellipse cx="423" cy="180.5" rx="125" ry="122.5" fill="#525151"/>
<path d="M362.29 169.4V149.037H369.926C371.491 149.037 372.803 149.308 373.864 149.852C374.931 150.396 375.736 151.158 376.28 152.139C376.83 153.113 377.105 154.25 377.105 155.549C377.105 156.855 376.827 157.989 376.27 158.95C375.72 159.905 374.908 160.644 373.834 161.167C372.76 161.684 371.441 161.943 369.876 161.943H364.438V158.88H369.379C370.294 158.88 371.043 158.754 371.626 158.503C372.21 158.244 372.641 157.869 372.919 157.379C373.204 156.882 373.347 156.272 373.347 155.549C373.347 154.827 373.204 154.21 372.919 153.7C372.634 153.183 372.2 152.792 371.616 152.527C371.033 152.255 370.281 152.119 369.359 152.119H365.979V169.4H362.29ZM372.81 160.173L377.851 169.4H373.734L368.783 160.173H372.81ZM386.884 169.699C385.353 169.699 384.031 169.38 382.917 168.744C381.81 168.101 380.958 167.193 380.362 166.02C379.765 164.84 379.467 163.451 379.467 161.853C379.467 160.282 379.765 158.904 380.362 157.717C380.965 156.524 381.807 155.596 382.887 154.933C383.968 154.263 385.237 153.929 386.695 153.929C387.637 153.929 388.525 154.081 389.36 154.386C390.202 154.684 390.944 155.148 391.587 155.778C392.237 156.408 392.747 157.21 393.119 158.184C393.49 159.152 393.675 160.306 393.675 161.645V162.748H381.157V160.322H390.225C390.219 159.633 390.069 159.02 389.778 158.483C389.486 157.939 389.078 157.512 388.555 157.2C388.038 156.888 387.434 156.733 386.745 156.733C386.009 156.733 385.363 156.912 384.806 157.27C384.249 157.621 383.815 158.085 383.504 158.662C383.199 159.232 383.043 159.858 383.036 160.541V162.659C383.036 163.547 383.199 164.309 383.523 164.946C383.848 165.575 384.302 166.059 384.886 166.397C385.469 166.729 386.152 166.895 386.934 166.895C387.458 166.895 387.932 166.822 388.356 166.676C388.78 166.523 389.148 166.301 389.46 166.01C389.771 165.718 390.006 165.357 390.165 164.926L393.526 165.304C393.314 166.192 392.91 166.968 392.313 167.63C391.723 168.287 390.968 168.797 390.046 169.162C389.125 169.52 388.071 169.699 386.884 169.699ZM408.792 158.164L405.51 158.522C405.417 158.191 405.255 157.879 405.023 157.588C404.798 157.296 404.493 157.061 404.108 156.882C403.724 156.703 403.253 156.613 402.696 156.613C401.947 156.613 401.318 156.776 400.807 157.101C400.303 157.425 400.055 157.846 400.061 158.363C400.055 158.807 400.217 159.169 400.549 159.447C400.887 159.726 401.444 159.954 402.219 160.133L404.824 160.69C406.269 161.002 407.343 161.495 408.046 162.172C408.755 162.848 409.113 163.733 409.12 164.826C409.113 165.788 408.831 166.636 408.275 167.372C407.724 168.101 406.959 168.671 405.978 169.082C404.997 169.493 403.87 169.699 402.597 169.699C400.728 169.699 399.223 169.307 398.083 168.525C396.943 167.736 396.263 166.639 396.044 165.234L399.554 164.896C399.713 165.585 400.051 166.106 400.569 166.457C401.086 166.808 401.758 166.984 402.587 166.984C403.442 166.984 404.128 166.808 404.645 166.457C405.169 166.106 405.431 165.672 405.431 165.155C405.431 164.717 405.262 164.356 404.924 164.071C404.592 163.786 404.075 163.567 403.373 163.414L400.767 162.868C399.302 162.563 398.219 162.049 397.516 161.326C396.813 160.597 396.465 159.676 396.472 158.562C396.465 157.621 396.721 156.806 397.238 156.116C397.761 155.42 398.487 154.883 399.415 154.505C400.35 154.121 401.427 153.929 402.647 153.929C404.436 153.929 405.845 154.31 406.873 155.072C407.907 155.834 408.546 156.865 408.792 158.164ZM418.849 169.699C417.318 169.699 415.995 169.38 414.882 168.744C413.775 168.101 412.923 167.193 412.326 166.02C411.73 164.84 411.431 163.451 411.431 161.853C411.431 160.282 411.73 158.904 412.326 157.717C412.93 156.524 413.771 155.596 414.852 154.933C415.932 154.263 417.202 153.929 418.66 153.929C419.601 153.929 420.49 154.081 421.325 154.386C422.167 154.684 422.909 155.148 423.552 155.778C424.202 156.408 424.712 157.21 425.083 158.184C425.455 159.152 425.64 160.306 425.64 161.645V162.748H413.122V160.322H422.19C422.183 159.633 422.034 159.02 421.743 158.483C421.451 157.939 421.043 157.512 420.52 157.2C420.002 156.888 419.399 156.733 418.71 156.733C417.974 156.733 417.328 156.912 416.771 157.27C416.214 157.621 415.78 158.085 415.468 158.662C415.163 159.232 415.008 159.858 415.001 160.541V162.659C415.001 163.547 415.163 164.309 415.488 164.946C415.813 165.575 416.267 166.059 416.85 166.397C417.434 166.729 418.117 166.895 418.899 166.895C419.422 166.895 419.896 166.822 420.321 166.676C420.745 166.523 421.113 166.301 421.424 166.01C421.736 165.718 421.971 165.357 422.13 164.926L425.491 165.304C425.279 166.192 424.875 166.968 424.278 167.63C423.688 168.287 422.932 168.797 422.011 169.162C421.09 169.52 420.036 169.699 418.849 169.699ZM433.08 169.709C432.112 169.709 431.241 169.536 430.465 169.191C429.696 168.84 429.086 168.323 428.636 167.64C428.192 166.958 427.969 166.116 427.969 165.115C427.969 164.253 428.129 163.54 428.447 162.977C428.765 162.414 429.199 161.963 429.749 161.625C430.299 161.287 430.919 161.031 431.609 160.859C432.305 160.68 433.024 160.551 433.766 160.471C434.661 160.378 435.387 160.296 435.944 160.223C436.501 160.143 436.905 160.024 437.157 159.865C437.415 159.699 437.545 159.444 437.545 159.099V159.039C437.545 158.29 437.323 157.71 436.879 157.299C436.434 156.888 435.795 156.683 434.96 156.683C434.078 156.683 433.379 156.875 432.862 157.26C432.351 157.644 432.006 158.098 431.827 158.622L428.467 158.145C428.732 157.217 429.169 156.441 429.779 155.818C430.389 155.188 431.135 154.718 432.016 154.406C432.898 154.088 433.872 153.929 434.94 153.929C435.675 153.929 436.408 154.015 437.137 154.187C437.866 154.36 438.532 154.645 439.136 155.042C439.739 155.433 440.223 155.967 440.587 156.643C440.959 157.319 441.144 158.164 441.144 159.179V169.4H437.684V167.302H437.565C437.346 167.726 437.038 168.124 436.64 168.495C436.249 168.86 435.755 169.155 435.158 169.38C434.568 169.599 433.876 169.709 433.08 169.709ZM434.015 167.064C434.737 167.064 435.364 166.921 435.894 166.636C436.424 166.344 436.832 165.96 437.117 165.483C437.409 165.005 437.555 164.485 437.555 163.922V162.122C437.442 162.215 437.25 162.301 436.978 162.38C436.713 162.46 436.415 162.53 436.083 162.589C435.752 162.649 435.424 162.702 435.099 162.748C434.774 162.795 434.492 162.834 434.254 162.868C433.717 162.941 433.236 163.06 432.812 163.226C432.388 163.391 432.053 163.623 431.808 163.922C431.562 164.213 431.44 164.591 431.44 165.055C431.44 165.718 431.682 166.218 432.165 166.557C432.649 166.895 433.266 167.064 434.015 167.064ZM444.763 169.4V154.128H448.254V156.673H448.413C448.691 155.791 449.168 155.112 449.844 154.635C450.527 154.151 451.306 153.909 452.181 153.909C452.38 153.909 452.602 153.919 452.847 153.939C453.099 153.952 453.308 153.975 453.474 154.008V157.319C453.321 157.266 453.079 157.22 452.748 157.18C452.423 157.134 452.108 157.11 451.803 157.11C451.147 157.11 450.557 157.253 450.033 157.538C449.516 157.816 449.109 158.204 448.81 158.701C448.512 159.199 448.363 159.772 448.363 160.422V169.4H444.763ZM461.898 169.699C460.373 169.699 459.064 169.364 457.971 168.694C456.883 168.025 456.045 167.1 455.455 165.92C454.872 164.734 454.58 163.368 454.58 161.824C454.58 160.272 454.878 158.904 455.475 157.717C456.071 156.524 456.913 155.596 458 154.933C459.094 154.263 460.387 153.929 461.878 153.929C463.118 153.929 464.215 154.157 465.169 154.615C466.131 155.066 466.896 155.705 467.466 156.534C468.036 157.356 468.361 158.317 468.441 159.417H465C464.861 158.682 464.53 158.068 464.006 157.578C463.489 157.081 462.796 156.832 461.928 156.832C461.192 156.832 460.546 157.031 459.989 157.429C459.432 157.82 458.998 158.383 458.686 159.119C458.382 159.855 458.229 160.736 458.229 161.764C458.229 162.805 458.382 163.7 458.686 164.449C458.991 165.191 459.419 165.764 459.969 166.169C460.526 166.566 461.179 166.765 461.928 166.765C462.458 166.765 462.932 166.666 463.35 166.467C463.774 166.262 464.129 165.967 464.414 165.582C464.699 165.198 464.894 164.73 465 164.18H468.441C468.355 165.261 468.036 166.218 467.486 167.054C466.936 167.882 466.187 168.532 465.239 169.003C464.291 169.467 463.177 169.699 461.898 169.699ZM474.996 160.451V169.4H471.396V149.037H474.916V156.723H475.095C475.453 155.861 476.007 155.182 476.756 154.684C477.511 154.181 478.473 153.929 479.639 153.929C480.7 153.929 481.625 154.151 482.413 154.595C483.202 155.039 483.812 155.689 484.243 156.544C484.68 157.399 484.899 158.443 484.899 159.676V169.4H481.3V160.233C481.3 159.205 481.035 158.406 480.504 157.836C479.981 157.26 479.245 156.971 478.297 156.971C477.661 156.971 477.09 157.11 476.587 157.389C476.089 157.661 475.698 158.055 475.413 158.572C475.135 159.089 474.996 159.716 474.996 160.451ZM369.501 199.635C369.408 198.766 369.017 198.09 368.328 197.606C367.645 197.122 366.757 196.88 365.663 196.88C364.894 196.88 364.234 196.996 363.684 197.228C363.134 197.46 362.713 197.775 362.422 198.173C362.13 198.571 361.981 199.025 361.974 199.535C361.974 199.959 362.07 200.327 362.262 200.639C362.461 200.95 362.73 201.216 363.068 201.434C363.406 201.646 363.78 201.825 364.191 201.971C364.602 202.117 365.017 202.24 365.434 202.339L367.343 202.816C368.112 202.995 368.851 203.237 369.561 203.542C370.277 203.847 370.916 204.232 371.48 204.696C372.05 205.16 372.501 205.72 372.832 206.376C373.163 207.032 373.329 207.801 373.329 208.683C373.329 209.876 373.024 210.927 372.414 211.835C371.805 212.736 370.923 213.442 369.77 213.953C368.623 214.457 367.234 214.709 365.603 214.709C364.019 214.709 362.644 214.463 361.477 213.973C360.317 213.482 359.409 212.766 358.752 211.825C358.103 210.884 357.752 209.737 357.699 208.385H361.328C361.381 209.094 361.6 209.684 361.984 210.155C362.368 210.625 362.869 210.976 363.485 211.209C364.109 211.441 364.805 211.557 365.574 211.557C366.376 211.557 367.078 211.437 367.681 211.199C368.291 210.953 368.769 210.615 369.113 210.184C369.458 209.747 369.634 209.236 369.64 208.653C369.634 208.123 369.478 207.685 369.173 207.341C368.868 206.989 368.44 206.698 367.89 206.466C367.347 206.227 366.71 206.015 365.981 205.829L363.664 205.233C361.987 204.802 360.662 204.149 359.687 203.274C358.719 202.392 358.235 201.222 358.235 199.764C358.235 198.564 358.56 197.513 359.21 196.612C359.866 195.71 360.758 195.011 361.885 194.514C363.011 194.01 364.288 193.758 365.713 193.758C367.158 193.758 368.424 194.01 369.511 194.514C370.605 195.011 371.463 195.704 372.086 196.592C372.709 197.474 373.031 198.488 373.051 199.635H369.501ZM378.696 220.128C378.205 220.128 377.751 220.088 377.334 220.008C376.923 219.935 376.595 219.849 376.349 219.75L377.185 216.946C377.708 217.098 378.176 217.171 378.587 217.164C378.998 217.158 379.359 217.029 379.67 216.777C379.989 216.531 380.257 216.12 380.476 215.544L380.784 214.718L375.246 199.128H379.064L382.584 210.662H382.743L386.273 199.128H390.101L383.986 216.25C383.701 217.058 383.323 217.751 382.852 218.328C382.382 218.911 381.805 219.355 381.122 219.66C380.446 219.972 379.637 220.128 378.696 220.128ZM396.191 205.451V214.4H392.592V199.128H396.032V201.723H396.211C396.562 200.868 397.122 200.188 397.891 199.684C398.667 199.181 399.625 198.929 400.765 198.929C401.819 198.929 402.737 199.154 403.519 199.605C404.308 200.056 404.918 200.709 405.349 201.564C405.786 202.419 406.002 203.456 405.995 204.676V214.4H402.396V205.233C402.396 204.212 402.13 203.413 401.6 202.836C401.076 202.26 400.351 201.971 399.423 201.971C398.793 201.971 398.233 202.11 397.742 202.389C397.258 202.661 396.877 203.055 396.599 203.572C396.327 204.089 396.191 204.716 396.191 205.451ZM417.281 199.128V201.912H408.501V199.128H417.281ZM410.668 195.468H414.268V209.807C414.268 210.29 414.341 210.662 414.487 210.92C414.639 211.172 414.838 211.344 415.083 211.437C415.328 211.53 415.6 211.576 415.898 211.576C416.124 211.576 416.329 211.56 416.515 211.527C416.707 211.494 416.853 211.464 416.952 211.437L417.559 214.251C417.367 214.317 417.092 214.39 416.734 214.47C416.382 214.549 415.951 214.596 415.441 214.609C414.54 214.636 413.728 214.5 413.005 214.201C412.282 213.896 411.709 213.426 411.285 212.789C410.867 212.153 410.662 211.358 410.668 210.403V195.468ZM424.218 205.451V214.4H420.619V194.037H424.139V201.723H424.318C424.676 200.861 425.229 200.182 425.978 199.684C426.734 199.181 427.695 198.929 428.862 198.929C429.922 198.929 430.847 199.151 431.636 199.595C432.425 200.039 433.035 200.689 433.466 201.544C433.903 202.399 434.122 203.443 434.122 204.676V214.4H430.522V205.233C430.522 204.205 430.257 203.406 429.727 202.836C429.203 202.26 428.467 201.971 427.52 201.971C426.883 201.971 426.313 202.11 425.809 202.389C425.312 202.661 424.921 203.055 424.636 203.572C424.358 204.089 424.218 204.716 424.218 205.451ZM444.552 214.699C443.021 214.699 441.699 214.38 440.585 213.744C439.478 213.101 438.626 212.193 438.029 211.02C437.433 209.84 437.135 208.451 437.135 206.853C437.135 205.282 437.433 203.904 438.029 202.717C438.633 201.524 439.475 200.596 440.555 199.933C441.636 199.263 442.905 198.929 444.363 198.929C445.305 198.929 446.193 199.081 447.028 199.386C447.87 199.684 448.612 200.148 449.255 200.778C449.905 201.408 450.415 202.21 450.787 203.184C451.158 204.152 451.343 205.306 451.343 206.645V207.748H438.825V205.322H447.893C447.886 204.633 447.737 204.02 447.446 203.483C447.154 202.939 446.746 202.512 446.223 202.2C445.706 201.888 445.102 201.733 444.413 201.733C443.677 201.733 443.031 201.912 442.474 202.27C441.917 202.621 441.483 203.085 441.172 203.662C440.867 204.232 440.711 204.858 440.704 205.541V207.659C440.704 208.547 440.867 209.309 441.191 209.946C441.516 210.575 441.97 211.059 442.554 211.397C443.137 211.729 443.82 211.895 444.602 211.895C445.126 211.895 445.6 211.822 446.024 211.676C446.448 211.523 446.816 211.301 447.127 211.01C447.439 210.718 447.674 210.357 447.833 209.926L451.194 210.304C450.982 211.192 450.578 211.968 449.981 212.63C449.391 213.287 448.636 213.797 447.714 214.162C446.793 214.52 445.739 214.699 444.552 214.699ZM466.46 203.164L463.178 203.522C463.085 203.191 462.923 202.879 462.691 202.588C462.466 202.296 462.161 202.061 461.776 201.882C461.392 201.703 460.921 201.613 460.364 201.613C459.615 201.613 458.986 201.776 458.475 202.101C457.971 202.425 457.723 202.846 457.729 203.363C457.723 203.807 457.885 204.169 458.217 204.447C458.555 204.726 459.112 204.954 459.887 205.133L462.492 205.69C463.937 206.002 465.011 206.495 465.714 207.172C466.423 207.848 466.781 208.733 466.788 209.826C466.781 210.788 466.499 211.636 465.942 212.372C465.392 213.101 464.627 213.671 463.646 214.082C462.665 214.493 461.538 214.699 460.265 214.699C458.396 214.699 456.891 214.307 455.751 213.525C454.611 212.736 453.931 211.639 453.712 210.234L457.222 209.896C457.381 210.585 457.719 211.106 458.237 211.457C458.754 211.808 459.426 211.984 460.255 211.984C461.11 211.984 461.796 211.808 462.313 211.457C462.837 211.106 463.099 210.672 463.099 210.155C463.099 209.717 462.93 209.356 462.592 209.071C462.26 208.786 461.743 208.567 461.04 208.414L458.435 207.868C456.97 207.563 455.887 207.049 455.184 206.326C454.481 205.597 454.133 204.676 454.14 203.562C454.133 202.621 454.388 201.806 454.906 201.116C455.429 200.42 456.155 199.883 457.083 199.505C458.018 199.121 459.095 198.929 460.315 198.929C462.104 198.929 463.513 199.31 464.54 200.072C465.575 200.834 466.214 201.865 466.46 203.164ZM469.756 214.4V199.128H473.355V214.4H469.756ZM471.565 196.96C470.995 196.96 470.505 196.771 470.094 196.393C469.683 196.009 469.477 195.548 469.477 195.011C469.477 194.468 469.683 194.007 470.094 193.629C470.505 193.244 470.995 193.052 471.565 193.052C472.142 193.052 472.633 193.244 473.037 193.629C473.448 194.007 473.653 194.468 473.653 195.011C473.653 195.548 473.448 196.009 473.037 196.393C472.633 196.771 472.142 196.96 471.565 196.96ZM489.127 203.164L485.846 203.522C485.753 203.191 485.591 202.879 485.359 202.588C485.134 202.296 484.829 202.061 484.444 201.882C484.06 201.703 483.589 201.613 483.032 201.613C482.283 201.613 481.654 201.776 481.143 202.101C480.639 202.425 480.391 202.846 480.397 203.363C480.391 203.807 480.553 204.169 480.885 204.447C481.223 204.726 481.779 204.954 482.555 205.133L485.16 205.69C486.605 206.002 487.679 206.495 488.382 207.172C489.091 207.848 489.449 208.733 489.456 209.826C489.449 210.788 489.167 211.636 488.61 212.372C488.06 213.101 487.295 213.671 486.314 214.082C485.333 214.493 484.206 214.699 482.933 214.699C481.064 214.699 479.559 214.307 478.419 213.525C477.279 212.736 476.599 211.639 476.38 210.234L479.89 209.896C480.049 210.585 480.387 211.106 480.904 211.457C481.422 211.808 482.094 211.984 482.923 211.984C483.778 211.984 484.464 211.808 484.981 211.457C485.505 211.106 485.767 210.672 485.767 210.155C485.767 209.717 485.598 209.356 485.26 209.071C484.928 208.786 484.411 208.567 483.708 208.414L481.103 207.868C479.638 207.563 478.555 207.049 477.852 206.326C477.149 205.597 476.801 204.676 476.808 203.562C476.801 202.621 477.056 201.806 477.574 201.116C478.097 200.42 478.823 199.883 479.751 199.505C480.686 199.121 481.763 198.929 482.983 198.929C484.772 198.929 486.181 199.31 487.208 200.072C488.243 200.834 488.882 201.865 489.127 203.164Z" fill="white"/>
<circle cx="697" cy="183" r="125" fill="#525151"/>
<path d="M647.908 150.636V171H644.219V150.636H647.908ZM657.412 171.268C656.212 171.268 655.138 170.96 654.19 170.344C653.242 169.727 652.493 168.832 651.943 167.659C651.393 166.486 651.118 165.061 651.118 163.384C651.118 161.687 651.396 160.255 651.953 159.088C652.516 157.915 653.275 157.03 654.23 156.433C655.184 155.83 656.248 155.528 657.422 155.528C658.316 155.528 659.052 155.681 659.629 155.986C660.206 156.284 660.663 156.645 661.001 157.07C661.339 157.487 661.601 157.882 661.787 158.253H661.936V150.636H665.545V171H662.005V168.594H661.787C661.601 168.965 661.333 169.359 660.981 169.777C660.63 170.188 660.166 170.539 659.589 170.831C659.012 171.123 658.287 171.268 657.412 171.268ZM658.416 168.315C659.178 168.315 659.828 168.11 660.365 167.699C660.902 167.281 661.309 166.701 661.588 165.959C661.866 165.216 662.005 164.351 662.005 163.364C662.005 162.376 661.866 161.518 661.588 160.788C661.316 160.059 660.912 159.492 660.375 159.088C659.844 158.684 659.191 158.482 658.416 158.482C657.614 158.482 656.944 158.69 656.407 159.108C655.87 159.526 655.466 160.102 655.194 160.838C654.922 161.574 654.787 162.416 654.787 163.364C654.787 164.318 654.922 165.17 655.194 165.919C655.473 166.661 655.88 167.248 656.417 167.679C656.961 168.103 657.627 168.315 658.416 168.315ZM676.142 171.298C674.611 171.298 673.288 170.98 672.175 170.344C671.068 169.701 670.216 168.793 669.619 167.619C669.023 166.439 668.724 165.051 668.724 163.453C668.724 161.882 669.023 160.503 669.619 159.317C670.223 158.124 671.064 157.196 672.145 156.533C673.225 155.863 674.495 155.528 675.953 155.528C676.894 155.528 677.783 155.681 678.618 155.986C679.46 156.284 680.202 156.748 680.845 157.378C681.495 158.008 682.005 158.81 682.376 159.784C682.748 160.752 682.933 161.905 682.933 163.244V164.348H670.415V161.922H679.483C679.476 161.232 679.327 160.619 679.036 160.082C678.744 159.539 678.336 159.111 677.812 158.8C677.295 158.488 676.692 158.332 676.003 158.332C675.267 158.332 674.621 158.511 674.064 158.869C673.507 159.221 673.073 159.685 672.761 160.261C672.456 160.831 672.301 161.458 672.294 162.141V164.259C672.294 165.147 672.456 165.909 672.781 166.545C673.106 167.175 673.56 167.659 674.143 167.997C674.727 168.329 675.41 168.494 676.192 168.494C676.715 168.494 677.189 168.421 677.614 168.276C678.038 168.123 678.406 167.901 678.717 167.609C679.029 167.318 679.264 166.956 679.423 166.526L682.784 166.903C682.572 167.792 682.168 168.567 681.571 169.23C680.981 169.886 680.225 170.397 679.304 170.761C678.383 171.119 677.329 171.298 676.142 171.298ZM690.373 171.308C689.405 171.308 688.534 171.136 687.758 170.791C686.989 170.44 686.379 169.923 685.929 169.24C685.484 168.557 685.262 167.715 685.262 166.714C685.262 165.853 685.422 165.14 685.74 164.577C686.058 164.013 686.492 163.562 687.042 163.224C687.592 162.886 688.212 162.631 688.902 162.459C689.598 162.28 690.317 162.151 691.059 162.071C691.954 161.978 692.68 161.895 693.237 161.822C693.794 161.743 694.198 161.624 694.45 161.464C694.708 161.299 694.838 161.044 694.838 160.699V160.639C694.838 159.89 694.616 159.31 694.172 158.899C693.727 158.488 693.088 158.283 692.252 158.283C691.371 158.283 690.672 158.475 690.154 158.859C689.644 159.244 689.299 159.698 689.12 160.222L685.76 159.744C686.025 158.816 686.462 158.041 687.072 157.418C687.682 156.788 688.428 156.317 689.309 156.006C690.191 155.688 691.165 155.528 692.233 155.528C692.968 155.528 693.701 155.615 694.43 155.787C695.159 155.959 695.825 156.244 696.429 156.642C697.032 157.033 697.516 157.567 697.88 158.243C698.252 158.919 698.437 159.764 698.437 160.778V171H694.977V168.902H694.858C694.639 169.326 694.331 169.724 693.933 170.095C693.542 170.46 693.048 170.755 692.451 170.98C691.861 171.199 691.169 171.308 690.373 171.308ZM691.308 168.663C692.03 168.663 692.657 168.521 693.187 168.236C693.717 167.944 694.125 167.56 694.41 167.082C694.702 166.605 694.848 166.085 694.848 165.521V163.722C694.735 163.814 694.543 163.901 694.271 163.98C694.006 164.06 693.708 164.129 693.376 164.189C693.045 164.249 692.717 164.302 692.392 164.348C692.067 164.394 691.785 164.434 691.547 164.467C691.01 164.54 690.529 164.66 690.105 164.825C689.681 164.991 689.346 165.223 689.1 165.521C688.855 165.813 688.733 166.191 688.733 166.655C688.733 167.318 688.975 167.818 689.458 168.156C689.942 168.494 690.559 168.663 691.308 168.663ZM709.683 155.727V158.511H700.903V155.727H709.683ZM703.071 152.068H706.67V166.406C706.67 166.89 706.743 167.261 706.889 167.52C707.041 167.772 707.24 167.944 707.485 168.037C707.731 168.13 708.002 168.176 708.301 168.176C708.526 168.176 708.732 168.16 708.917 168.126C709.109 168.093 709.255 168.063 709.355 168.037L709.961 170.851C709.769 170.917 709.494 170.99 709.136 171.07C708.785 171.149 708.354 171.196 707.843 171.209C706.942 171.235 706.13 171.099 705.407 170.801C704.685 170.496 704.111 170.026 703.687 169.389C703.27 168.753 703.064 167.957 703.071 167.003V152.068ZM719.29 171.298C717.759 171.298 716.437 170.98 715.323 170.344C714.216 169.701 713.364 168.793 712.768 167.619C712.171 166.439 711.873 165.051 711.873 163.453C711.873 161.882 712.171 160.503 712.768 159.317C713.371 158.124 714.213 157.196 715.293 156.533C716.374 155.863 717.643 155.528 719.102 155.528C720.043 155.528 720.931 155.681 721.766 155.986C722.608 156.284 723.351 156.748 723.994 157.378C724.643 158.008 725.154 158.81 725.525 159.784C725.896 160.752 726.082 161.905 726.082 163.244V164.348H713.563V161.922H722.631C722.625 161.232 722.476 160.619 722.184 160.082C721.892 159.539 721.485 159.111 720.961 158.8C720.444 158.488 719.841 158.332 719.151 158.332C718.415 158.332 717.769 158.511 717.212 158.869C716.656 159.221 716.221 159.685 715.91 160.261C715.605 160.831 715.449 161.458 715.442 162.141V164.259C715.442 165.147 715.605 165.909 715.93 166.545C716.254 167.175 716.709 167.659 717.292 167.997C717.875 168.329 718.558 168.494 719.34 168.494C719.864 168.494 720.338 168.421 720.762 168.276C721.186 168.123 721.554 167.901 721.866 167.609C722.177 167.318 722.413 166.956 722.572 166.526L725.933 166.903C725.72 167.792 725.316 168.567 724.719 169.23C724.129 169.886 723.374 170.397 722.452 170.761C721.531 171.119 720.477 171.298 719.29 171.298ZM742.157 171.298C740.765 171.298 739.569 171.046 738.568 170.543C737.567 170.039 736.795 169.359 736.251 168.504C735.714 167.643 735.446 166.671 735.446 165.591C735.446 164.776 735.611 164.053 735.943 163.423C736.281 162.794 736.745 162.21 737.335 161.673C737.931 161.136 738.621 160.603 739.403 160.072L743.012 157.616C743.543 157.272 743.944 156.907 744.216 156.523C744.494 156.138 744.633 155.687 744.633 155.17C744.633 154.733 744.448 154.319 744.076 153.928C743.712 153.536 743.208 153.341 742.565 153.341C742.134 153.341 741.753 153.444 741.422 153.649C741.097 153.848 740.842 154.11 740.656 154.435C740.477 154.759 740.387 155.104 740.387 155.469C740.387 155.913 740.51 156.364 740.755 156.821C741.007 157.278 741.332 157.752 741.73 158.243C742.134 158.733 742.565 159.254 743.022 159.804L752.578 171H748.68L740.745 161.912C740.155 161.223 739.585 160.543 739.035 159.874C738.492 159.204 738.044 158.508 737.693 157.786C737.348 157.056 737.176 156.268 737.176 155.419C737.176 154.458 737.398 153.599 737.842 152.844C738.286 152.081 738.906 151.482 739.701 151.044C740.503 150.607 741.441 150.388 742.515 150.388C743.589 150.388 744.511 150.6 745.279 151.024C746.048 151.448 746.642 152.012 747.059 152.714C747.477 153.417 747.686 154.183 747.686 155.011C747.686 155.973 747.447 156.834 746.97 157.597C746.493 158.352 745.83 159.038 744.981 159.655L740.865 162.668C740.189 163.158 739.705 163.655 739.413 164.159C739.121 164.656 738.975 165.08 738.975 165.432C738.975 165.969 739.111 166.456 739.383 166.893C739.655 167.331 740.036 167.682 740.527 167.947C741.024 168.206 741.604 168.335 742.267 168.335C742.996 168.335 743.715 168.173 744.424 167.848C745.134 167.517 745.78 167.046 746.363 166.436C746.947 165.826 747.411 165.097 747.755 164.249C748.1 163.393 748.272 162.446 748.272 161.405H751.365C751.365 162.691 751.222 163.811 750.937 164.766C750.652 165.714 750.284 166.516 749.833 167.172C749.383 167.821 748.905 168.342 748.402 168.733C748.243 168.846 748.09 168.958 747.944 169.071C747.798 169.184 747.646 169.296 747.487 169.409C746.771 170.059 745.932 170.536 744.971 170.841C744.017 171.146 743.079 171.298 742.157 171.298ZM659.35 216H652.45V195.636H659.49C661.511 195.636 663.248 196.044 664.7 196.859C666.158 197.668 667.279 198.831 668.061 200.349C668.843 201.867 669.234 203.684 669.234 205.798C669.234 207.92 668.84 209.742 668.051 211.267C667.269 212.792 666.138 213.962 664.66 214.777C663.189 215.592 661.419 216 659.35 216ZM656.139 212.808H659.172C660.59 212.808 661.773 212.55 662.721 212.033C663.669 211.509 664.382 210.73 664.859 209.696C665.336 208.655 665.575 207.356 665.575 205.798C665.575 204.241 665.336 202.948 664.859 201.92C664.382 200.886 663.676 200.114 662.741 199.604C661.813 199.087 660.66 198.828 659.281 198.828H656.139V212.808ZM679.341 216.298C677.81 216.298 676.488 215.98 675.374 215.344C674.267 214.701 673.415 213.793 672.819 212.619C672.222 211.439 671.924 210.051 671.924 208.453C671.924 206.882 672.222 205.503 672.819 204.317C673.422 203.124 674.264 202.196 675.344 201.533C676.425 200.863 677.694 200.528 679.152 200.528C680.094 200.528 680.982 200.681 681.817 200.986C682.659 201.284 683.401 201.748 684.044 202.378C684.694 203.008 685.204 203.81 685.576 204.784C685.947 205.752 686.132 206.905 686.132 208.244V209.348H673.614V206.922H682.682C682.676 206.232 682.526 205.619 682.235 205.082C681.943 204.539 681.535 204.111 681.012 203.8C680.495 203.488 679.891 203.332 679.202 203.332C678.466 203.332 677.82 203.511 677.263 203.869C676.706 204.221 676.272 204.685 675.961 205.261C675.656 205.831 675.5 206.458 675.493 207.141V209.259C675.493 210.147 675.656 210.909 675.98 211.545C676.305 212.175 676.759 212.659 677.343 212.997C677.926 213.329 678.609 213.494 679.391 213.494C679.915 213.494 680.389 213.421 680.813 213.276C681.237 213.123 681.605 212.901 681.917 212.609C682.228 212.318 682.463 211.956 682.623 211.526L685.983 211.903C685.771 212.792 685.367 213.567 684.77 214.23C684.18 214.886 683.425 215.397 682.503 215.761C681.582 216.119 680.528 216.298 679.341 216.298ZM701.249 204.764L697.967 205.122C697.875 204.791 697.712 204.479 697.48 204.188C697.255 203.896 696.95 203.661 696.565 203.482C696.181 203.303 695.71 203.213 695.153 203.213C694.404 203.213 693.775 203.375 693.264 203.7C692.76 204.025 692.512 204.446 692.518 204.963C692.512 205.407 692.674 205.768 693.006 206.047C693.344 206.325 693.901 206.554 694.676 206.733L697.281 207.29C698.726 207.601 699.8 208.095 700.503 208.771C701.212 209.447 701.57 210.332 701.577 211.426C701.57 212.387 701.288 213.236 700.732 213.972C700.181 214.701 699.416 215.271 698.435 215.682C697.454 216.093 696.327 216.298 695.054 216.298C693.185 216.298 691.68 215.907 690.54 215.125C689.4 214.336 688.72 213.239 688.501 211.834L692.011 211.496C692.17 212.185 692.509 212.705 693.026 213.057C693.543 213.408 694.215 213.584 695.044 213.584C695.899 213.584 696.585 213.408 697.102 213.057C697.626 212.705 697.888 212.271 697.888 211.754C697.888 211.317 697.719 210.955 697.381 210.67C697.049 210.385 696.532 210.167 695.83 210.014L693.224 209.467C691.759 209.162 690.676 208.649 689.973 207.926C689.27 207.197 688.922 206.276 688.929 205.162C688.922 204.221 689.178 203.405 689.695 202.716C690.218 202.02 690.944 201.483 691.872 201.105C692.807 200.721 693.884 200.528 695.104 200.528C696.893 200.528 698.302 200.91 699.33 201.672C700.364 202.434 701.003 203.465 701.249 204.764ZM704.545 216V200.727H708.144V216H704.545ZM706.354 198.56C705.784 198.56 705.294 198.371 704.883 197.993C704.472 197.608 704.266 197.148 704.266 196.611C704.266 196.067 704.472 195.607 704.883 195.229C705.294 194.844 705.784 194.652 706.354 194.652C706.931 194.652 707.422 194.844 707.826 195.229C708.237 195.607 708.442 196.067 708.442 196.611C708.442 197.148 708.237 197.608 707.826 197.993C707.422 198.371 706.931 198.56 706.354 198.56ZM718.488 222.045C717.195 222.045 716.085 221.87 715.157 221.518C714.229 221.174 713.483 220.71 712.919 220.126C712.356 219.543 711.965 218.897 711.746 218.188L714.988 217.402C715.133 217.7 715.346 217.995 715.624 218.287C715.902 218.585 716.277 218.83 716.748 219.023C717.225 219.222 717.825 219.321 718.547 219.321C719.568 219.321 720.413 219.072 721.083 218.575C721.752 218.085 722.087 217.276 722.087 216.149V213.256H721.908C721.722 213.627 721.451 214.008 721.093 214.399C720.741 214.79 720.274 215.118 719.691 215.384C719.114 215.649 718.388 215.781 717.513 215.781C716.34 215.781 715.276 215.506 714.321 214.956C713.373 214.399 712.618 213.571 712.054 212.47C711.498 211.363 711.219 209.978 711.219 208.314C711.219 206.637 711.498 205.222 712.054 204.068C712.618 202.908 713.377 202.03 714.331 201.433C715.286 200.83 716.35 200.528 717.523 200.528C718.418 200.528 719.154 200.681 719.73 200.986C720.314 201.284 720.778 201.645 721.123 202.07C721.467 202.487 721.729 202.882 721.908 203.253H722.107V200.727H725.657V216.249C725.657 217.554 725.345 218.635 724.722 219.49C724.099 220.345 723.247 220.985 722.167 221.409C721.086 221.833 719.86 222.045 718.488 222.045ZM718.517 212.957C719.28 212.957 719.929 212.772 720.466 212.401C721.003 212.029 721.411 211.496 721.689 210.8C721.968 210.104 722.107 209.268 722.107 208.294C722.107 207.333 721.968 206.491 721.689 205.768C721.417 205.046 721.013 204.486 720.476 204.088C719.946 203.684 719.293 203.482 718.517 203.482C717.715 203.482 717.046 203.69 716.509 204.108C715.972 204.526 715.568 205.099 715.296 205.828C715.024 206.551 714.888 207.373 714.888 208.294C714.888 209.229 715.024 210.047 715.296 210.75C715.574 211.446 715.982 211.99 716.519 212.381C717.062 212.765 717.729 212.957 718.517 212.957ZM732.945 207.051V216H729.346V200.727H732.786V203.322H732.965C733.316 202.467 733.876 201.788 734.645 201.284C735.421 200.78 736.379 200.528 737.519 200.528C738.573 200.528 739.491 200.754 740.273 201.205C741.062 201.655 741.672 202.308 742.103 203.163C742.54 204.018 742.756 205.056 742.749 206.276V216H739.15V206.832C739.15 205.812 738.884 205.013 738.354 204.436C737.83 203.859 737.105 203.571 736.176 203.571C735.547 203.571 734.987 203.71 734.496 203.989C734.012 204.26 733.631 204.655 733.353 205.172C733.081 205.689 732.945 206.315 732.945 207.051Z" fill="white"/>
<circle cx="971" cy="183" r="125" fill="#525151"/>
<path d="M919.442 171V150.636H932.686V153.729H923.131V159.257H932V162.349H923.131V167.908H932.766V171H919.442ZM949.933 155.727L944.494 171H940.517L935.078 155.727H938.916L942.426 167.072H942.585L946.105 155.727H949.933ZM956.381 171.308C955.413 171.308 954.542 171.136 953.766 170.791C952.997 170.44 952.387 169.923 951.936 169.24C951.492 168.557 951.27 167.715 951.27 166.714C951.27 165.853 951.429 165.14 951.748 164.577C952.066 164.013 952.5 163.562 953.05 163.224C953.6 162.886 954.22 162.631 954.909 162.459C955.605 162.28 956.325 162.151 957.067 162.071C957.962 161.978 958.688 161.895 959.245 161.822C959.801 161.743 960.206 161.624 960.458 161.464C960.716 161.299 960.846 161.044 960.846 160.699V160.639C960.846 159.89 960.623 159.31 960.179 158.899C959.735 158.488 959.096 158.283 958.26 158.283C957.379 158.283 956.679 158.475 956.162 158.859C955.652 159.244 955.307 159.698 955.128 160.222L951.767 159.744C952.033 158.816 952.47 158.041 953.08 157.418C953.69 156.788 954.435 156.317 955.317 156.006C956.199 155.688 957.173 155.528 958.24 155.528C958.976 155.528 959.709 155.615 960.438 155.787C961.167 155.959 961.833 156.244 962.436 156.642C963.04 157.033 963.524 157.567 963.888 158.243C964.259 158.919 964.445 159.764 964.445 160.778V171H960.985V168.902H960.865C960.647 169.326 960.338 169.724 959.941 170.095C959.55 170.46 959.056 170.755 958.459 170.98C957.869 171.199 957.176 171.308 956.381 171.308ZM957.316 168.663C958.038 168.663 958.665 168.521 959.195 168.236C959.725 167.944 960.133 167.56 960.418 167.082C960.71 166.605 960.855 166.085 960.855 165.521V163.722C960.743 163.814 960.551 163.901 960.279 163.98C960.014 164.06 959.715 164.129 959.384 164.189C959.052 164.249 958.724 164.302 958.4 164.348C958.075 164.394 957.793 164.434 957.554 164.467C957.017 164.54 956.537 164.66 956.113 164.825C955.688 164.991 955.354 165.223 955.108 165.521C954.863 165.813 954.74 166.191 954.74 166.655C954.74 167.318 954.982 167.818 955.466 168.156C955.95 168.494 956.567 168.663 957.316 168.663ZM971.664 150.636V171H968.064V150.636H971.664ZM985.099 164.577V155.727H988.699V171H985.209V168.286H985.05C984.705 169.141 984.138 169.84 983.349 170.384C982.567 170.927 981.603 171.199 980.456 171.199C979.455 171.199 978.57 170.977 977.801 170.533C977.039 170.082 976.442 169.429 976.011 168.574C975.58 167.712 975.365 166.671 975.365 165.452V155.727H978.964V164.895C978.964 165.863 979.23 166.632 979.76 167.202C980.29 167.772 980.986 168.057 981.848 168.057C982.378 168.057 982.892 167.928 983.389 167.669C983.886 167.411 984.294 167.026 984.612 166.516C984.937 165.999 985.099 165.352 985.099 164.577ZM1000.03 155.727V158.511H991.247V155.727H1000.03ZM993.414 152.068H997.014V166.406C997.014 166.89 997.087 167.261 997.233 167.52C997.385 167.772 997.584 167.944 997.829 168.037C998.074 168.13 998.346 168.176 998.645 168.176C998.87 168.176 999.075 168.16 999.261 168.126C999.453 168.093 999.599 168.063 999.699 168.037L1000.31 170.851C1000.11 170.917 999.838 170.99 999.48 171.07C999.128 171.149 998.698 171.196 998.187 171.209C997.286 171.235 996.474 171.099 995.751 170.801C995.029 170.496 994.455 170.026 994.031 169.389C993.613 168.753 993.408 167.957 993.414 167.003V152.068ZM1009.63 171.298C1008.1 171.298 1006.78 170.98 1005.67 170.344C1004.56 169.701 1003.71 168.793 1003.11 167.619C1002.51 166.439 1002.22 165.051 1002.22 163.453C1002.22 161.882 1002.51 160.503 1003.11 159.317C1003.71 158.124 1004.56 157.196 1005.64 156.533C1006.72 155.863 1007.99 155.528 1009.45 155.528C1010.39 155.528 1011.27 155.681 1012.11 155.986C1012.95 156.284 1013.69 156.748 1014.34 157.378C1014.99 158.008 1015.5 158.81 1015.87 159.784C1016.24 160.752 1016.43 161.905 1016.43 163.244V164.348H1003.91V161.922H1012.98C1012.97 161.232 1012.82 160.619 1012.53 160.082C1012.24 159.539 1011.83 159.111 1011.3 158.8C1010.79 158.488 1010.18 158.332 1009.5 158.332C1008.76 158.332 1008.11 158.511 1007.56 158.869C1007 159.221 1006.57 159.685 1006.25 160.261C1005.95 160.831 1005.79 161.458 1005.79 162.141V164.259C1005.79 165.147 1005.95 165.909 1006.27 166.545C1006.6 167.175 1007.05 167.659 1007.64 167.997C1008.22 168.329 1008.9 168.494 1009.68 168.494C1010.21 168.494 1010.68 168.421 1011.11 168.276C1011.53 168.123 1011.9 167.901 1012.21 167.609C1012.52 167.318 1012.76 166.956 1012.92 166.526L1016.28 166.903C1016.06 167.792 1015.66 168.567 1015.06 169.23C1014.47 169.886 1013.72 170.397 1012.8 170.761C1011.87 171.119 1010.82 171.298 1009.63 171.298ZM932.85 216H925.95V195.636H932.99C935.011 195.636 936.748 196.044 938.2 196.859C939.658 197.668 940.779 198.831 941.561 200.349C942.343 201.867 942.734 203.684 942.734 205.798C942.734 207.92 942.34 209.742 941.551 211.267C940.769 212.792 939.638 213.962 938.16 214.777C936.689 215.592 934.919 216 932.85 216ZM929.639 212.808H932.672C934.09 212.808 935.273 212.55 936.221 212.033C937.169 211.509 937.882 210.73 938.359 209.696C938.836 208.655 939.075 207.356 939.075 205.798C939.075 204.241 938.836 202.948 938.359 201.92C937.882 200.886 937.176 200.114 936.241 199.604C935.313 199.087 934.16 198.828 932.781 198.828H929.639V212.808ZM952.841 216.298C951.31 216.298 949.988 215.98 948.874 215.344C947.767 214.701 946.915 213.793 946.319 212.619C945.722 211.439 945.424 210.051 945.424 208.453C945.424 206.882 945.722 205.503 946.319 204.317C946.922 203.124 947.764 202.196 948.844 201.533C949.925 200.863 951.194 200.528 952.652 200.528C953.594 200.528 954.482 200.681 955.317 200.986C956.159 201.284 956.901 201.748 957.544 202.378C958.194 203.008 958.704 203.81 959.076 204.784C959.447 205.752 959.632 206.905 959.632 208.244V209.348H947.114V206.922H956.182C956.176 206.232 956.026 205.619 955.735 205.082C955.443 204.539 955.035 204.111 954.512 203.8C953.995 203.488 953.391 203.332 952.702 203.332C951.966 203.332 951.32 203.511 950.763 203.869C950.206 204.221 949.772 204.685 949.461 205.261C949.156 205.831 949 206.458 948.993 207.141V209.259C948.993 210.147 949.156 210.909 949.48 211.545C949.805 212.175 950.259 212.659 950.843 212.997C951.426 213.329 952.109 213.494 952.891 213.494C953.415 213.494 953.889 213.421 954.313 213.276C954.737 213.123 955.105 212.901 955.417 212.609C955.728 212.318 955.963 211.956 956.123 211.526L959.483 211.903C959.271 212.792 958.867 213.567 958.27 214.23C957.68 214.886 956.925 215.397 956.003 215.761C955.082 216.119 954.028 216.298 952.841 216.298ZM974.749 204.764L971.467 205.122C971.375 204.791 971.212 204.479 970.98 204.188C970.755 203.896 970.45 203.661 970.065 203.482C969.681 203.303 969.21 203.213 968.653 203.213C967.904 203.213 967.275 203.375 966.764 203.7C966.26 204.025 966.012 204.446 966.018 204.963C966.012 205.407 966.174 205.768 966.506 206.047C966.844 206.325 967.401 206.554 968.176 206.733L970.781 207.29C972.226 207.601 973.3 208.095 974.003 208.771C974.712 209.447 975.07 210.332 975.077 211.426C975.07 212.387 974.788 213.236 974.232 213.972C973.681 214.701 972.916 215.271 971.935 215.682C970.954 216.093 969.827 216.298 968.554 216.298C966.685 216.298 965.18 215.907 964.04 215.125C962.9 214.336 962.22 213.239 962.001 211.834L965.511 211.496C965.67 212.185 966.009 212.705 966.526 213.057C967.043 213.408 967.715 213.584 968.544 213.584C969.399 213.584 970.085 213.408 970.602 213.057C971.126 212.705 971.388 212.271 971.388 211.754C971.388 211.317 971.219 210.955 970.881 210.67C970.549 210.385 970.032 210.167 969.33 210.014L966.724 209.467C965.259 209.162 964.176 208.649 963.473 207.926C962.77 207.197 962.422 206.276 962.429 205.162C962.422 204.221 962.678 203.405 963.195 202.716C963.718 202.02 964.444 201.483 965.372 201.105C966.307 200.721 967.384 200.528 968.604 200.528C970.393 200.528 971.802 200.91 972.83 201.672C973.864 202.434 974.503 203.465 974.749 204.764ZM978.045 216V200.727H981.644V216H978.045ZM979.854 198.56C979.284 198.56 978.794 198.371 978.383 197.993C977.972 197.608 977.766 197.148 977.766 196.611C977.766 196.067 977.972 195.607 978.383 195.229C978.794 194.844 979.284 194.652 979.854 194.652C980.431 194.652 980.922 194.844 981.326 195.229C981.737 195.607 981.942 196.067 981.942 196.611C981.942 197.148 981.737 197.608 981.326 197.993C980.922 198.371 980.431 198.56 979.854 198.56ZM991.988 222.045C990.695 222.045 989.585 221.87 988.657 221.518C987.729 221.174 986.983 220.71 986.419 220.126C985.856 219.543 985.465 218.897 985.246 218.188L988.488 217.402C988.633 217.7 988.846 217.995 989.124 218.287C989.402 218.585 989.777 218.83 990.248 219.023C990.725 219.222 991.325 219.321 992.047 219.321C993.068 219.321 993.913 219.072 994.583 218.575C995.252 218.085 995.587 217.276 995.587 216.149V213.256H995.408C995.222 213.627 994.951 214.008 994.593 214.399C994.241 214.79 993.774 215.118 993.191 215.384C992.614 215.649 991.888 215.781 991.013 215.781C989.84 215.781 988.776 215.506 987.821 214.956C986.873 214.399 986.118 213.571 985.554 212.47C984.998 211.363 984.719 209.978 984.719 208.314C984.719 206.637 984.998 205.222 985.554 204.068C986.118 202.908 986.877 202.03 987.831 201.433C988.786 200.83 989.85 200.528 991.023 200.528C991.918 200.528 992.654 200.681 993.23 200.986C993.814 201.284 994.278 201.645 994.623 202.07C994.967 202.487 995.229 202.882 995.408 203.253H995.607V200.727H999.157V216.249C999.157 217.554 998.845 218.635 998.222 219.49C997.599 220.345 996.747 220.985 995.667 221.409C994.586 221.833 993.36 222.045 991.988 222.045ZM992.017 212.957C992.78 212.957 993.429 212.772 993.966 212.401C994.503 212.029 994.911 211.496 995.189 210.8C995.468 210.104 995.607 209.268 995.607 208.294C995.607 207.333 995.468 206.491 995.189 205.768C994.917 205.046 994.513 204.486 993.976 204.088C993.446 203.684 992.793 203.482 992.017 203.482C991.215 203.482 990.546 203.69 990.009 204.108C989.472 204.526 989.068 205.099 988.796 205.828C988.524 206.551 988.388 207.373 988.388 208.294C988.388 209.229 988.524 210.047 988.796 210.75C989.074 211.446 989.482 211.99 990.019 212.381C990.562 212.765 991.229 212.957 992.017 212.957ZM1006.44 207.051V216H1002.85V200.727H1006.29V203.322H1006.46C1006.82 202.467 1007.38 201.788 1008.15 201.284C1008.92 200.78 1009.88 200.528 1011.02 200.528C1012.07 200.528 1012.99 200.754 1013.77 201.205C1014.56 201.655 1015.17 202.308 1015.6 203.163C1016.04 204.018 1016.26 205.056 1016.25 206.276V216H1012.65V206.832C1012.65 205.812 1012.38 205.013 1011.85 204.436C1011.33 203.859 1010.6 203.571 1009.68 203.571C1009.05 203.571 1008.49 203.71 1008 203.989C1007.51 204.26 1007.13 204.655 1006.85 205.172C1006.58 205.689 1006.44 206.315 1006.44 207.051Z" fill="white"/>
<ellipse cx="1246.5" cy="183" rx="126.5" ry="125" fill="#525151"/>
<path d="M1212.96 171V150.636H1226.01V153.729H1216.65V159.257H1225.11V162.349H1216.65V171H1212.96ZM1229.21 171V155.727H1232.81V171H1229.21ZM1231.02 153.56C1230.45 153.56 1229.96 153.371 1229.55 152.993C1229.14 152.608 1228.93 152.148 1228.93 151.611C1228.93 151.067 1229.14 150.607 1229.55 150.229C1229.96 149.844 1230.45 149.652 1231.02 149.652C1231.6 149.652 1232.09 149.844 1232.49 150.229C1232.9 150.607 1233.11 151.067 1233.11 151.611C1233.11 152.148 1232.9 152.608 1232.49 152.993C1232.09 153.371 1231.6 153.56 1231.02 153.56ZM1240.11 162.051V171H1236.51V155.727H1239.95V158.322H1240.13C1240.48 157.467 1241.04 156.788 1241.81 156.284C1242.58 155.78 1243.54 155.528 1244.68 155.528C1245.74 155.528 1246.65 155.754 1247.44 156.205C1248.23 156.655 1248.84 157.308 1249.27 158.163C1249.7 159.018 1249.92 160.056 1249.91 161.276V171H1246.31V161.832C1246.31 160.812 1246.05 160.013 1245.52 159.436C1244.99 158.859 1244.27 158.571 1243.34 158.571C1242.71 158.571 1242.15 158.71 1241.66 158.989C1241.18 159.26 1240.8 159.655 1240.52 160.172C1240.24 160.689 1240.11 161.315 1240.11 162.051ZM1257.97 171.308C1257 171.308 1256.13 171.136 1255.35 170.791C1254.58 170.44 1253.97 169.923 1253.52 169.24C1253.08 168.557 1252.86 167.715 1252.86 166.714C1252.86 165.853 1253.02 165.14 1253.33 164.577C1253.65 164.013 1254.09 163.562 1254.64 163.224C1255.19 162.886 1255.81 162.631 1256.5 162.459C1257.19 162.28 1257.91 162.151 1258.65 162.071C1259.55 161.978 1260.27 161.895 1260.83 161.822C1261.39 161.743 1261.79 161.624 1262.04 161.464C1262.3 161.299 1262.43 161.044 1262.43 160.699V160.639C1262.43 159.89 1262.21 159.31 1261.77 158.899C1261.32 158.488 1260.68 158.283 1259.85 158.283C1258.96 158.283 1258.27 158.475 1257.75 158.859C1257.24 159.244 1256.89 159.698 1256.71 160.222L1253.35 159.744C1253.62 158.816 1254.06 158.041 1254.67 157.418C1255.28 156.788 1256.02 156.317 1256.9 156.006C1257.78 155.688 1258.76 155.528 1259.83 155.528C1260.56 155.528 1261.29 155.615 1262.02 155.787C1262.75 155.959 1263.42 156.244 1264.02 156.642C1264.63 157.033 1265.11 157.567 1265.47 158.243C1265.85 158.919 1266.03 159.764 1266.03 160.778V171H1262.57V168.902H1262.45C1262.23 169.326 1261.92 169.724 1261.53 170.095C1261.14 170.46 1260.64 170.755 1260.05 170.98C1259.46 171.199 1258.76 171.308 1257.97 171.308ZM1258.9 168.663C1259.62 168.663 1260.25 168.521 1260.78 168.236C1261.31 167.944 1261.72 167.56 1262 167.082C1262.3 166.605 1262.44 166.085 1262.44 165.521V163.722C1262.33 163.814 1262.14 163.901 1261.86 163.98C1261.6 164.06 1261.3 164.129 1260.97 164.189C1260.64 164.249 1260.31 164.302 1259.99 164.348C1259.66 164.394 1259.38 164.434 1259.14 164.467C1258.6 164.54 1258.12 164.66 1257.7 164.825C1257.27 164.991 1256.94 165.223 1256.69 165.521C1256.45 165.813 1256.33 166.191 1256.33 166.655C1256.33 167.318 1256.57 167.818 1257.05 168.156C1257.54 168.494 1258.15 168.663 1258.9 168.663ZM1273.25 150.636V171H1269.65V150.636H1273.25ZM1208.35 216H1201.45V195.636H1208.49C1210.51 195.636 1212.25 196.044 1213.7 196.859C1215.16 197.668 1216.28 198.831 1217.06 200.349C1217.84 201.867 1218.23 203.684 1218.23 205.798C1218.23 207.92 1217.84 209.742 1217.05 211.267C1216.27 212.792 1215.14 213.962 1213.66 214.777C1212.19 215.592 1210.42 216 1208.35 216ZM1205.14 212.808H1208.17C1209.59 212.808 1210.77 212.55 1211.72 212.033C1212.67 211.509 1213.38 210.73 1213.86 209.696C1214.34 208.655 1214.57 207.356 1214.57 205.798C1214.57 204.241 1214.34 202.948 1213.86 201.92C1213.38 200.886 1212.68 200.114 1211.74 199.604C1210.81 199.087 1209.66 198.828 1208.28 198.828H1205.14V212.808ZM1228.34 216.298C1226.81 216.298 1225.49 215.98 1224.37 215.344C1223.27 214.701 1222.42 213.793 1221.82 212.619C1221.22 211.439 1220.92 210.051 1220.92 208.453C1220.92 206.882 1221.22 205.503 1221.82 204.317C1222.42 203.124 1223.26 202.196 1224.34 201.533C1225.42 200.863 1226.69 200.528 1228.15 200.528C1229.09 200.528 1229.98 200.681 1230.82 200.986C1231.66 201.284 1232.4 201.748 1233.04 202.378C1233.69 203.008 1234.2 203.81 1234.58 204.784C1234.95 205.752 1235.13 206.905 1235.13 208.244V209.348H1222.61V206.922H1231.68C1231.68 206.232 1231.53 205.619 1231.23 205.082C1230.94 204.539 1230.54 204.111 1230.01 203.8C1229.49 203.488 1228.89 203.332 1228.2 203.332C1227.47 203.332 1226.82 203.511 1226.26 203.869C1225.71 204.221 1225.27 204.685 1224.96 205.261C1224.66 205.831 1224.5 206.458 1224.49 207.141V209.259C1224.49 210.147 1224.66 210.909 1224.98 211.545C1225.31 212.175 1225.76 212.659 1226.34 212.997C1226.93 213.329 1227.61 213.494 1228.39 213.494C1228.91 213.494 1229.39 213.421 1229.81 213.276C1230.24 213.123 1230.61 212.901 1230.92 212.609C1231.23 212.318 1231.46 211.956 1231.62 211.526L1234.98 211.903C1234.77 212.792 1234.37 213.567 1233.77 214.23C1233.18 214.886 1232.42 215.397 1231.5 215.761C1230.58 216.119 1229.53 216.298 1228.34 216.298ZM1250.25 204.764L1246.97 205.122C1246.87 204.791 1246.71 204.479 1246.48 204.188C1246.25 203.896 1245.95 203.661 1245.57 203.482C1245.18 203.303 1244.71 203.213 1244.15 203.213C1243.4 203.213 1242.77 203.375 1242.26 203.7C1241.76 204.025 1241.51 204.446 1241.52 204.963C1241.51 205.407 1241.67 205.768 1242.01 206.047C1242.34 206.325 1242.9 206.554 1243.68 206.733L1246.28 207.29C1247.73 207.601 1248.8 208.095 1249.5 208.771C1250.21 209.447 1250.57 210.332 1250.58 211.426C1250.57 212.387 1250.29 213.236 1249.73 213.972C1249.18 214.701 1248.42 215.271 1247.43 215.682C1246.45 216.093 1245.33 216.298 1244.05 216.298C1242.18 216.298 1240.68 215.907 1239.54 215.125C1238.4 214.336 1237.72 213.239 1237.5 211.834L1241.01 211.496C1241.17 212.185 1241.51 212.705 1242.03 213.057C1242.54 213.408 1243.22 213.584 1244.04 213.584C1244.9 213.584 1245.59 213.408 1246.1 213.057C1246.63 212.705 1246.89 212.271 1246.89 211.754C1246.89 211.317 1246.72 210.955 1246.38 210.67C1246.05 210.385 1245.53 210.167 1244.83 210.014L1242.22 209.467C1240.76 209.162 1239.68 208.649 1238.97 207.926C1238.27 207.197 1237.92 206.276 1237.93 205.162C1237.92 204.221 1238.18 203.405 1238.69 202.716C1239.22 202.02 1239.94 201.483 1240.87 201.105C1241.81 200.721 1242.88 200.528 1244.1 200.528C1245.89 200.528 1247.3 200.91 1248.33 201.672C1249.36 202.434 1250 203.465 1250.25 204.764ZM1253.54 216V200.727H1257.14V216H1253.54ZM1255.35 198.56C1254.78 198.56 1254.29 198.371 1253.88 197.993C1253.47 197.608 1253.27 197.148 1253.27 196.611C1253.27 196.067 1253.47 195.607 1253.88 195.229C1254.29 194.844 1254.78 194.652 1255.35 194.652C1255.93 194.652 1256.42 194.844 1256.83 195.229C1257.24 195.607 1257.44 196.067 1257.44 196.611C1257.44 197.148 1257.24 197.608 1256.83 197.993C1256.42 198.371 1255.93 198.56 1255.35 198.56ZM1267.49 222.045C1266.2 222.045 1265.08 221.87 1264.16 221.518C1263.23 221.174 1262.48 220.71 1261.92 220.126C1261.36 219.543 1260.96 218.897 1260.75 218.188L1263.99 217.402C1264.13 217.7 1264.35 217.995 1264.62 218.287C1264.9 218.585 1265.28 218.83 1265.75 219.023C1266.22 219.222 1266.82 219.321 1267.55 219.321C1268.57 219.321 1269.41 219.072 1270.08 218.575C1270.75 218.085 1271.09 217.276 1271.09 216.149V213.256H1270.91C1270.72 213.627 1270.45 214.008 1270.09 214.399C1269.74 214.79 1269.27 215.118 1268.69 215.384C1268.11 215.649 1267.39 215.781 1266.51 215.781C1265.34 215.781 1264.28 215.506 1263.32 214.956C1262.37 214.399 1261.62 213.571 1261.05 212.47C1260.5 211.363 1260.22 209.978 1260.22 208.314C1260.22 206.637 1260.5 205.222 1261.05 204.068C1261.62 202.908 1262.38 202.03 1263.33 201.433C1264.29 200.83 1265.35 200.528 1266.52 200.528C1267.42 200.528 1268.15 200.681 1268.73 200.986C1269.31 201.284 1269.78 201.645 1270.12 202.07C1270.47 202.487 1270.73 202.882 1270.91 203.253H1271.11V200.727H1274.66V216.249C1274.66 217.554 1274.35 218.635 1273.72 219.49C1273.1 220.345 1272.25 220.985 1271.17 221.409C1270.09 221.833 1268.86 222.045 1267.49 222.045ZM1267.52 212.957C1268.28 212.957 1268.93 212.772 1269.47 212.401C1270 212.029 1270.41 211.496 1270.69 210.8C1270.97 210.104 1271.11 209.268 1271.11 208.294C1271.11 207.333 1270.97 206.491 1270.69 205.768C1270.42 205.046 1270.01 204.486 1269.48 204.088C1268.95 203.684 1268.29 203.482 1267.52 203.482C1266.72 203.482 1266.05 203.69 1265.51 204.108C1264.97 204.526 1264.57 205.099 1264.3 205.828C1264.02 206.551 1263.89 207.373 1263.89 208.294C1263.89 209.229 1264.02 210.047 1264.3 210.75C1264.57 211.446 1264.98 211.99 1265.52 212.381C1266.06 212.765 1266.73 212.957 1267.52 212.957ZM1281.95 207.051V216H1278.35V200.727H1281.79V203.322H1281.96C1282.32 202.467 1282.88 201.788 1283.65 201.284C1284.42 200.78 1285.38 200.528 1286.52 200.528C1287.57 200.528 1288.49 200.754 1289.27 201.205C1290.06 201.655 1290.67 202.308 1291.1 203.163C1291.54 204.018 1291.76 205.056 1291.75 206.276V216H1288.15V206.832C1288.15 205.812 1287.88 205.013 1287.35 204.436C1286.83 203.859 1286.1 203.571 1285.18 203.571C1284.55 203.571 1283.99 203.71 1283.5 203.989C1283.01 204.26 1282.63 204.655 1282.35 205.172C1282.08 205.689 1281.95 206.315 1281.95 207.051Z" fill="white"/>
</svg>
