<svg width="1399" height="364" viewBox="0 0 1399 364" fill="none" xmlns="http://www.w3.org/2000/svg">
<circle cx="149" cy="183" r="125" fill="#525151"/>
<path d="M78.4909 193V172.636H91.7353V175.729H82.1799V181.257H91.0492V184.349H82.1799V189.908H91.8148V193H78.4909ZM95.3397 193V177.727H98.78V180.322H98.959C99.2772 179.447 99.8042 178.765 100.54 178.274C101.276 177.777 102.154 177.528 103.175 177.528C104.209 177.528 105.081 177.78 105.79 178.284C106.506 178.781 107.01 179.461 107.301 180.322H107.46C107.798 179.474 108.369 178.798 109.171 178.294C109.979 177.784 110.937 177.528 112.044 177.528C113.45 177.528 114.596 177.973 115.485 178.861C116.373 179.749 116.817 181.045 116.817 182.749V193H113.208V183.305C113.208 182.357 112.956 181.665 112.452 181.227C111.948 180.783 111.332 180.561 110.602 180.561C109.734 180.561 109.055 180.833 108.564 181.376C108.08 181.913 107.838 182.613 107.838 183.474V193H104.308V183.156C104.308 182.367 104.07 181.738 103.593 181.267C103.122 180.796 102.505 180.561 101.743 180.561C101.226 180.561 100.755 180.694 100.331 180.959C99.9069 181.217 99.5688 181.585 99.3169 182.062C99.065 182.533 98.9391 183.083 98.9391 183.713V193H95.3397ZM120.469 198.727V177.727H124.008V180.253H124.217C124.403 179.882 124.665 179.487 125.003 179.07C125.341 178.645 125.798 178.284 126.375 177.986C126.952 177.681 127.687 177.528 128.582 177.528C129.762 177.528 130.826 177.83 131.774 178.433C132.729 179.03 133.484 179.915 134.041 181.088C134.604 182.255 134.886 183.687 134.886 185.384C134.886 187.061 134.611 188.486 134.061 189.659C133.511 190.832 132.762 191.727 131.814 192.344C130.866 192.96 129.792 193.268 128.592 193.268C127.717 193.268 126.991 193.123 126.415 192.831C125.838 192.539 125.374 192.188 125.023 191.777C124.678 191.359 124.409 190.965 124.217 190.594H124.068V198.727H120.469ZM123.998 185.364C123.998 186.351 124.138 187.216 124.416 187.959C124.701 188.701 125.109 189.281 125.639 189.699C126.176 190.11 126.826 190.315 127.588 190.315C128.383 190.315 129.05 190.103 129.586 189.679C130.123 189.248 130.528 188.661 130.8 187.919C131.078 187.17 131.217 186.318 131.217 185.364C131.217 184.416 131.081 183.574 130.809 182.838C130.538 182.102 130.133 181.526 129.596 181.108C129.059 180.69 128.39 180.482 127.588 180.482C126.819 180.482 126.166 180.684 125.629 181.088C125.092 181.492 124.684 182.059 124.406 182.788C124.134 183.518 123.998 184.376 123.998 185.364ZM142.363 193.308C141.396 193.308 140.524 193.136 139.748 192.791C138.979 192.44 138.37 191.923 137.919 191.24C137.475 190.557 137.253 189.715 137.253 188.714C137.253 187.853 137.412 187.14 137.73 186.577C138.048 186.013 138.482 185.562 139.032 185.224C139.583 184.886 140.202 184.631 140.892 184.459C141.588 184.28 142.307 184.151 143.05 184.071C143.944 183.978 144.67 183.895 145.227 183.822C145.784 183.743 146.188 183.624 146.44 183.464C146.699 183.299 146.828 183.044 146.828 182.699V182.639C146.828 181.89 146.606 181.31 146.162 180.899C145.718 180.488 145.078 180.283 144.243 180.283C143.361 180.283 142.662 180.475 142.145 180.859C141.634 181.244 141.29 181.698 141.111 182.222L137.75 181.744C138.015 180.816 138.452 180.041 139.062 179.418C139.672 178.788 140.418 178.317 141.3 178.006C142.181 177.688 143.156 177.528 144.223 177.528C144.959 177.528 145.691 177.615 146.42 177.787C147.149 177.959 147.816 178.244 148.419 178.642C149.022 179.033 149.506 179.567 149.871 180.243C150.242 180.919 150.427 181.764 150.427 182.778V193H146.967V190.902H146.848C146.629 191.326 146.321 191.724 145.923 192.095C145.532 192.46 145.038 192.755 144.442 192.98C143.852 193.199 143.159 193.308 142.363 193.308ZM143.298 190.663C144.021 190.663 144.647 190.521 145.177 190.236C145.708 189.944 146.115 189.56 146.4 189.082C146.692 188.605 146.838 188.085 146.838 187.521V185.722C146.725 185.814 146.533 185.901 146.261 185.98C145.996 186.06 145.698 186.129 145.366 186.189C145.035 186.249 144.707 186.302 144.382 186.348C144.057 186.394 143.775 186.434 143.537 186.467C143 186.54 142.519 186.66 142.095 186.825C141.671 186.991 141.336 187.223 141.091 187.521C140.845 187.813 140.723 188.191 140.723 188.655C140.723 189.318 140.965 189.818 141.449 190.156C141.933 190.494 142.549 190.663 143.298 190.663ZM161.673 177.727V180.511H152.893V177.727H161.673ZM155.061 174.068H158.66V188.406C158.66 188.89 158.733 189.261 158.879 189.52C159.032 189.772 159.23 189.944 159.476 190.037C159.721 190.13 159.993 190.176 160.291 190.176C160.516 190.176 160.722 190.16 160.907 190.126C161.1 190.093 161.246 190.063 161.345 190.037L161.952 192.851C161.759 192.917 161.484 192.99 161.126 193.07C160.775 193.149 160.344 193.196 159.834 193.209C158.932 193.235 158.12 193.099 157.398 192.801C156.675 192.496 156.102 192.026 155.677 191.389C155.26 190.753 155.054 189.957 155.061 189.003V174.068ZM168.611 184.051V193H165.012V172.636H168.531V180.322H168.71C169.068 179.461 169.622 178.781 170.371 178.284C171.127 177.78 172.088 177.528 173.254 177.528C174.315 177.528 175.24 177.75 176.029 178.195C176.817 178.639 177.427 179.288 177.858 180.143C178.296 180.999 178.514 182.043 178.514 183.276V193H174.915V183.832C174.915 182.805 174.65 182.006 174.119 181.436C173.596 180.859 172.86 180.571 171.912 180.571C171.276 180.571 170.706 180.71 170.202 180.989C169.705 181.26 169.314 181.655 169.029 182.172C168.75 182.689 168.611 183.315 168.611 184.051ZM182.183 193V177.727H185.783V193H182.183ZM183.993 175.56C183.423 175.56 182.932 175.371 182.521 174.993C182.11 174.608 181.905 174.148 181.905 173.611C181.905 173.067 182.11 172.607 182.521 172.229C182.932 171.844 183.423 171.652 183.993 171.652C184.57 171.652 185.06 171.844 185.465 172.229C185.876 172.607 186.081 173.067 186.081 173.611C186.081 174.148 185.876 174.608 185.465 174.993C185.06 175.371 184.57 175.56 183.993 175.56ZM189.285 193V190.713L197.16 180.839V180.71H189.544V177.727H201.565V180.183L194.068 189.888V190.017H201.824V193H189.285ZM211.531 193.298C209.999 193.298 208.677 192.98 207.563 192.344C206.456 191.701 205.605 190.793 205.008 189.619C204.411 188.439 204.113 187.051 204.113 185.453C204.113 183.882 204.411 182.503 205.008 181.317C205.611 180.124 206.453 179.196 207.534 178.533C208.614 177.863 209.883 177.528 211.342 177.528C212.283 177.528 213.171 177.681 214.007 177.986C214.848 178.284 215.591 178.748 216.234 179.378C216.883 180.008 217.394 180.81 217.765 181.784C218.136 182.752 218.322 183.905 218.322 185.244V186.348H205.803V183.922H214.872C214.865 183.232 214.716 182.619 214.424 182.082C214.133 181.539 213.725 181.111 213.201 180.8C212.684 180.488 212.081 180.332 211.392 180.332C210.656 180.332 210.009 180.511 209.453 180.869C208.896 181.221 208.462 181.685 208.15 182.261C207.845 182.831 207.689 183.458 207.683 184.141V186.259C207.683 187.147 207.845 187.909 208.17 188.545C208.495 189.175 208.949 189.659 209.532 189.997C210.115 190.329 210.798 190.494 211.58 190.494C212.104 190.494 212.578 190.421 213.002 190.276C213.427 190.123 213.794 189.901 214.106 189.609C214.418 189.318 214.653 188.956 214.812 188.526L218.173 188.903C217.961 189.792 217.556 190.567 216.96 191.23C216.37 191.886 215.614 192.397 214.693 192.761C213.771 193.119 212.717 193.298 211.531 193.298Z" fill="white"/>
<ellipse cx="423" cy="180.5" rx="125" ry="122.5" fill="#525151"/>
<path d="M362.29 191V170.636H369.926C371.491 170.636 372.803 170.908 373.864 171.452C374.931 171.995 375.736 172.758 376.28 173.739C376.83 174.713 377.105 175.85 377.105 177.149C377.105 178.455 376.827 179.589 376.27 180.55C375.72 181.504 374.908 182.243 373.834 182.767C372.76 183.284 371.441 183.543 369.876 183.543H364.438V180.48H369.379C370.294 180.48 371.043 180.354 371.626 180.102C372.21 179.844 372.641 179.469 372.919 178.979C373.204 178.482 373.347 177.872 373.347 177.149C373.347 176.427 373.204 175.81 372.919 175.3C372.634 174.783 372.2 174.392 371.616 174.126C371.033 173.855 370.281 173.719 369.359 173.719H365.979V191H362.29ZM372.81 181.773L377.851 191H373.734L368.783 181.773H372.81ZM386.884 191.298C385.353 191.298 384.031 190.98 382.917 190.344C381.81 189.701 380.958 188.793 380.362 187.619C379.765 186.439 379.467 185.051 379.467 183.453C379.467 181.882 379.765 180.503 380.362 179.317C380.965 178.124 381.807 177.196 382.887 176.533C383.968 175.863 385.237 175.528 386.695 175.528C387.637 175.528 388.525 175.681 389.36 175.986C390.202 176.284 390.944 176.748 391.587 177.378C392.237 178.008 392.747 178.81 393.119 179.784C393.49 180.752 393.675 181.905 393.675 183.244V184.348H381.157V181.922H390.225C390.219 181.232 390.069 180.619 389.778 180.082C389.486 179.539 389.078 179.111 388.555 178.8C388.038 178.488 387.434 178.332 386.745 178.332C386.009 178.332 385.363 178.511 384.806 178.869C384.249 179.221 383.815 179.685 383.504 180.261C383.199 180.831 383.043 181.458 383.036 182.141V184.259C383.036 185.147 383.199 185.909 383.523 186.545C383.848 187.175 384.302 187.659 384.886 187.997C385.469 188.329 386.152 188.494 386.934 188.494C387.458 188.494 387.932 188.421 388.356 188.276C388.78 188.123 389.148 187.901 389.46 187.609C389.771 187.318 390.006 186.956 390.165 186.526L393.526 186.903C393.314 187.792 392.91 188.567 392.313 189.23C391.723 189.886 390.968 190.397 390.046 190.761C389.125 191.119 388.071 191.298 386.884 191.298ZM408.792 179.764L405.51 180.122C405.417 179.791 405.255 179.479 405.023 179.188C404.798 178.896 404.493 178.661 404.108 178.482C403.724 178.303 403.253 178.213 402.696 178.213C401.947 178.213 401.318 178.375 400.807 178.7C400.303 179.025 400.055 179.446 400.061 179.963C400.055 180.407 400.217 180.768 400.549 181.047C400.887 181.325 401.444 181.554 402.219 181.733L404.824 182.29C406.269 182.601 407.343 183.095 408.046 183.771C408.755 184.447 409.113 185.332 409.12 186.426C409.113 187.387 408.831 188.236 408.275 188.972C407.724 189.701 406.959 190.271 405.978 190.682C404.997 191.093 403.87 191.298 402.597 191.298C400.728 191.298 399.223 190.907 398.083 190.125C396.943 189.336 396.263 188.239 396.044 186.834L399.554 186.496C399.713 187.185 400.051 187.705 400.569 188.057C401.086 188.408 401.758 188.584 402.587 188.584C403.442 188.584 404.128 188.408 404.645 188.057C405.169 187.705 405.431 187.271 405.431 186.754C405.431 186.317 405.262 185.955 404.924 185.67C404.592 185.385 404.075 185.167 403.373 185.014L400.767 184.467C399.302 184.162 398.219 183.649 397.516 182.926C396.813 182.197 396.465 181.276 396.472 180.162C396.465 179.221 396.721 178.405 397.238 177.716C397.761 177.02 398.487 176.483 399.415 176.105C400.35 175.721 401.427 175.528 402.647 175.528C404.436 175.528 405.845 175.91 406.873 176.672C407.907 177.434 408.546 178.465 408.792 179.764ZM418.849 191.298C417.318 191.298 415.995 190.98 414.882 190.344C413.775 189.701 412.923 188.793 412.326 187.619C411.73 186.439 411.431 185.051 411.431 183.453C411.431 181.882 411.73 180.503 412.326 179.317C412.93 178.124 413.771 177.196 414.852 176.533C415.932 175.863 417.202 175.528 418.66 175.528C419.601 175.528 420.49 175.681 421.325 175.986C422.167 176.284 422.909 176.748 423.552 177.378C424.202 178.008 424.712 178.81 425.083 179.784C425.455 180.752 425.64 181.905 425.64 183.244V184.348H413.122V181.922H422.19C422.183 181.232 422.034 180.619 421.743 180.082C421.451 179.539 421.043 179.111 420.52 178.8C420.002 178.488 419.399 178.332 418.71 178.332C417.974 178.332 417.328 178.511 416.771 178.869C416.214 179.221 415.78 179.685 415.468 180.261C415.163 180.831 415.008 181.458 415.001 182.141V184.259C415.001 185.147 415.163 185.909 415.488 186.545C415.813 187.175 416.267 187.659 416.85 187.997C417.434 188.329 418.117 188.494 418.899 188.494C419.422 188.494 419.896 188.421 420.321 188.276C420.745 188.123 421.113 187.901 421.424 187.609C421.736 187.318 421.971 186.956 422.13 186.526L425.491 186.903C425.279 187.792 424.875 188.567 424.278 189.23C423.688 189.886 422.932 190.397 422.011 190.761C421.09 191.119 420.036 191.298 418.849 191.298ZM433.08 191.308C432.112 191.308 431.241 191.136 430.465 190.791C429.696 190.44 429.086 189.923 428.636 189.24C428.192 188.557 427.969 187.715 427.969 186.714C427.969 185.853 428.129 185.14 428.447 184.577C428.765 184.013 429.199 183.562 429.749 183.224C430.299 182.886 430.919 182.631 431.609 182.459C432.305 182.28 433.024 182.151 433.766 182.071C434.661 181.978 435.387 181.895 435.944 181.822C436.501 181.743 436.905 181.624 437.157 181.464C437.415 181.299 437.545 181.044 437.545 180.699V180.639C437.545 179.89 437.323 179.31 436.879 178.899C436.434 178.488 435.795 178.283 434.96 178.283C434.078 178.283 433.379 178.475 432.862 178.859C432.351 179.244 432.006 179.698 431.827 180.222L428.467 179.744C428.732 178.816 429.169 178.041 429.779 177.418C430.389 176.788 431.135 176.317 432.016 176.006C432.898 175.688 433.872 175.528 434.94 175.528C435.675 175.528 436.408 175.615 437.137 175.787C437.866 175.959 438.532 176.244 439.136 176.642C439.739 177.033 440.223 177.567 440.587 178.243C440.959 178.919 441.144 179.764 441.144 180.778V191H437.684V188.902H437.565C437.346 189.326 437.038 189.724 436.64 190.095C436.249 190.46 435.755 190.755 435.158 190.98C434.568 191.199 433.876 191.308 433.08 191.308ZM434.015 188.663C434.737 188.663 435.364 188.521 435.894 188.236C436.424 187.944 436.832 187.56 437.117 187.082C437.409 186.605 437.555 186.085 437.555 185.521V183.722C437.442 183.814 437.25 183.901 436.978 183.98C436.713 184.06 436.415 184.129 436.083 184.189C435.752 184.249 435.424 184.302 435.099 184.348C434.774 184.394 434.492 184.434 434.254 184.467C433.717 184.54 433.236 184.66 432.812 184.825C432.388 184.991 432.053 185.223 431.808 185.521C431.562 185.813 431.44 186.191 431.44 186.655C431.44 187.318 431.682 187.818 432.165 188.156C432.649 188.494 433.266 188.663 434.015 188.663ZM444.763 191V175.727H448.254V178.273H448.413C448.691 177.391 449.168 176.712 449.844 176.234C450.527 175.75 451.306 175.509 452.181 175.509C452.38 175.509 452.602 175.518 452.847 175.538C453.099 175.552 453.308 175.575 453.474 175.608V178.919C453.321 178.866 453.079 178.82 452.748 178.78C452.423 178.733 452.108 178.71 451.803 178.71C451.147 178.71 450.557 178.853 450.033 179.138C449.516 179.416 449.109 179.804 448.81 180.301C448.512 180.798 448.363 181.372 448.363 182.021V191H444.763ZM461.898 191.298C460.373 191.298 459.064 190.964 457.971 190.294C456.883 189.625 456.045 188.7 455.455 187.52C454.872 186.333 454.58 184.968 454.58 183.423C454.58 181.872 454.878 180.503 455.475 179.317C456.071 178.124 456.913 177.196 458 176.533C459.094 175.863 460.387 175.528 461.878 175.528C463.118 175.528 464.215 175.757 465.169 176.214C466.131 176.665 466.896 177.305 467.466 178.134C468.036 178.955 468.361 179.917 468.441 181.017H465C464.861 180.281 464.53 179.668 464.006 179.178C463.489 178.68 462.796 178.432 461.928 178.432C461.192 178.432 460.546 178.631 459.989 179.028C459.432 179.42 458.998 179.983 458.686 180.719C458.382 181.455 458.229 182.336 458.229 183.364C458.229 184.404 458.382 185.299 458.686 186.048C458.991 186.791 459.419 187.364 459.969 187.768C460.526 188.166 461.179 188.365 461.928 188.365C462.458 188.365 462.932 188.266 463.35 188.067C463.774 187.861 464.129 187.566 464.414 187.182C464.699 186.797 464.894 186.33 465 185.78H468.441C468.355 186.86 468.036 187.818 467.486 188.653C466.936 189.482 466.187 190.132 465.239 190.602C464.291 191.066 463.177 191.298 461.898 191.298ZM474.996 182.051V191H471.396V170.636H474.916V178.322H475.095C475.453 177.461 476.007 176.781 476.756 176.284C477.511 175.78 478.473 175.528 479.639 175.528C480.7 175.528 481.625 175.75 482.413 176.195C483.202 176.639 483.812 177.288 484.243 178.143C484.68 178.999 484.899 180.043 484.899 181.276V191H481.3V181.832C481.3 180.805 481.035 180.006 480.504 179.436C479.981 178.859 479.245 178.571 478.297 178.571C477.661 178.571 477.09 178.71 476.587 178.989C476.089 179.26 475.698 179.655 475.413 180.172C475.135 180.689 474.996 181.315 474.996 182.051Z" fill="white"/>
<circle cx="697" cy="183" r="125" fill="#525151"/>
<path d="M647.908 150.636V171H644.219V150.636H647.908ZM657.412 171.268C656.212 171.268 655.138 170.96 654.19 170.344C653.242 169.727 652.493 168.832 651.943 167.659C651.393 166.486 651.118 165.061 651.118 163.384C651.118 161.687 651.396 160.255 651.953 159.088C652.516 157.915 653.275 157.03 654.23 156.433C655.184 155.83 656.248 155.528 657.422 155.528C658.316 155.528 659.052 155.681 659.629 155.986C660.206 156.284 660.663 156.645 661.001 157.07C661.339 157.487 661.601 157.882 661.787 158.253H661.936V150.636H665.545V171H662.005V168.594H661.787C661.601 168.965 661.333 169.359 660.981 169.777C660.63 170.188 660.166 170.539 659.589 170.831C659.012 171.123 658.287 171.268 657.412 171.268ZM658.416 168.315C659.178 168.315 659.828 168.11 660.365 167.699C660.902 167.281 661.309 166.701 661.588 165.959C661.866 165.216 662.005 164.351 662.005 163.364C662.005 162.376 661.866 161.518 661.588 160.788C661.316 160.059 660.912 159.492 660.375 159.088C659.844 158.684 659.191 158.482 658.416 158.482C657.614 158.482 656.944 158.69 656.407 159.108C655.87 159.526 655.466 160.102 655.194 160.838C654.922 161.574 654.787 162.416 654.787 163.364C654.787 164.318 654.922 165.17 655.194 165.919C655.473 166.661 655.88 167.248 656.417 167.679C656.961 168.103 657.627 168.315 658.416 168.315ZM676.142 171.298C674.611 171.298 673.288 170.98 672.175 170.344C671.068 169.701 670.216 168.793 669.619 167.619C669.023 166.439 668.724 165.051 668.724 163.453C668.724 161.882 669.023 160.503 669.619 159.317C670.223 158.124 671.064 157.196 672.145 156.533C673.225 155.863 674.495 155.528 675.953 155.528C676.894 155.528 677.783 155.681 678.618 155.986C679.46 156.284 680.202 156.748 680.845 157.378C681.495 158.008 682.005 158.81 682.376 159.784C682.748 160.752 682.933 161.905 682.933 163.244V164.348H670.415V161.922H679.483C679.476 161.232 679.327 160.619 679.036 160.082C678.744 159.539 678.336 159.111 677.812 158.8C677.295 158.488 676.692 158.332 676.003 158.332C675.267 158.332 674.621 158.511 674.064 158.869C673.507 159.221 673.073 159.685 672.761 160.261C672.456 160.831 672.301 161.458 672.294 162.141V164.259C672.294 165.147 672.456 165.909 672.781 166.545C673.106 167.175 673.56 167.659 674.143 167.997C674.727 168.329 675.41 168.494 676.192 168.494C676.715 168.494 677.189 168.421 677.614 168.276C678.038 168.123 678.406 167.901 678.717 167.609C679.029 167.318 679.264 166.956 679.423 166.526L682.784 166.903C682.572 167.792 682.168 168.567 681.571 169.23C680.981 169.886 680.225 170.397 679.304 170.761C678.383 171.119 677.329 171.298 676.142 171.298ZM690.373 171.308C689.405 171.308 688.534 171.136 687.758 170.791C686.989 170.44 686.379 169.923 685.929 169.24C685.484 168.557 685.262 167.715 685.262 166.714C685.262 165.853 685.422 165.14 685.74 164.577C686.058 164.013 686.492 163.562 687.042 163.224C687.592 162.886 688.212 162.631 688.902 162.459C689.598 162.28 690.317 162.151 691.059 162.071C691.954 161.978 692.68 161.895 693.237 161.822C693.794 161.743 694.198 161.624 694.45 161.464C694.708 161.299 694.838 161.044 694.838 160.699V160.639C694.838 159.89 694.616 159.31 694.172 158.899C693.727 158.488 693.088 158.283 692.252 158.283C691.371 158.283 690.672 158.475 690.154 158.859C689.644 159.244 689.299 159.698 689.12 160.222L685.76 159.744C686.025 158.816 686.462 158.041 687.072 157.418C687.682 156.788 688.428 156.317 689.309 156.006C690.191 155.688 691.165 155.528 692.233 155.528C692.968 155.528 693.701 155.615 694.43 155.787C695.159 155.959 695.825 156.244 696.429 156.642C697.032 157.033 697.516 157.567 697.88 158.243C698.252 158.919 698.437 159.764 698.437 160.778V171H694.977V168.902H694.858C694.639 169.326 694.331 169.724 693.933 170.095C693.542 170.46 693.048 170.755 692.451 170.98C691.861 171.199 691.169 171.308 690.373 171.308ZM691.308 168.663C692.03 168.663 692.657 168.521 693.187 168.236C693.717 167.944 694.125 167.56 694.41 167.082C694.702 166.605 694.848 166.085 694.848 165.521V163.722C694.735 163.814 694.543 163.901 694.271 163.98C694.006 164.06 693.708 164.129 693.376 164.189C693.045 164.249 692.717 164.302 692.392 164.348C692.067 164.394 691.785 164.434 691.547 164.467C691.01 164.54 690.529 164.66 690.105 164.825C689.681 164.991 689.346 165.223 689.1 165.521C688.855 165.813 688.733 166.191 688.733 166.655C688.733 167.318 688.975 167.818 689.458 168.156C689.942 168.494 690.559 168.663 691.308 168.663ZM709.683 155.727V158.511H700.903V155.727H709.683ZM703.071 152.068H706.67V166.406C706.67 166.89 706.743 167.261 706.889 167.52C707.041 167.772 707.24 167.944 707.485 168.037C707.731 168.13 708.002 168.176 708.301 168.176C708.526 168.176 708.732 168.16 708.917 168.126C709.109 168.093 709.255 168.063 709.355 168.037L709.961 170.851C709.769 170.917 709.494 170.99 709.136 171.07C708.785 171.149 708.354 171.196 707.843 171.209C706.942 171.235 706.13 171.099 705.407 170.801C704.685 170.496 704.111 170.026 703.687 169.389C703.27 168.753 703.064 167.957 703.071 167.003V152.068ZM719.29 171.298C717.759 171.298 716.437 170.98 715.323 170.344C714.216 169.701 713.364 168.793 712.768 167.619C712.171 166.439 711.873 165.051 711.873 163.453C711.873 161.882 712.171 160.503 712.768 159.317C713.371 158.124 714.213 157.196 715.293 156.533C716.374 155.863 717.643 155.528 719.102 155.528C720.043 155.528 720.931 155.681 721.766 155.986C722.608 156.284 723.351 156.748 723.994 157.378C724.643 158.008 725.154 158.81 725.525 159.784C725.896 160.752 726.082 161.905 726.082 163.244V164.348H713.563V161.922H722.631C722.625 161.232 722.476 160.619 722.184 160.082C721.892 159.539 721.485 159.111 720.961 158.8C720.444 158.488 719.841 158.332 719.151 158.332C718.415 158.332 717.769 158.511 717.212 158.869C716.656 159.221 716.221 159.685 715.91 160.261C715.605 160.831 715.449 161.458 715.442 162.141V164.259C715.442 165.147 715.605 165.909 715.93 166.545C716.254 167.175 716.709 167.659 717.292 167.997C717.875 168.329 718.558 168.494 719.34 168.494C719.864 168.494 720.338 168.421 720.762 168.276C721.186 168.123 721.554 167.901 721.866 167.609C722.177 167.318 722.413 166.956 722.572 166.526L725.933 166.903C725.72 167.792 725.316 168.567 724.719 169.23C724.129 169.886 723.374 170.397 722.452 170.761C721.531 171.119 720.477 171.298 719.29 171.298ZM742.157 171.298C740.765 171.298 739.569 171.046 738.568 170.543C737.567 170.039 736.795 169.359 736.251 168.504C735.714 167.643 735.446 166.671 735.446 165.591C735.446 164.776 735.611 164.053 735.943 163.423C736.281 162.794 736.745 162.21 737.335 161.673C737.931 161.136 738.621 160.603 739.403 160.072L743.012 157.616C743.543 157.272 743.944 156.907 744.216 156.523C744.494 156.138 744.633 155.687 744.633 155.17C744.633 154.733 744.448 154.319 744.076 153.928C743.712 153.536 743.208 153.341 742.565 153.341C742.134 153.341 741.753 153.444 741.422 153.649C741.097 153.848 740.842 154.11 740.656 154.435C740.477 154.759 740.387 155.104 740.387 155.469C740.387 155.913 740.51 156.364 740.755 156.821C741.007 157.278 741.332 157.752 741.73 158.243C742.134 158.733 742.565 159.254 743.022 159.804L752.578 171H748.68L740.745 161.912C740.155 161.223 739.585 160.543 739.035 159.874C738.492 159.204 738.044 158.508 737.693 157.786C737.348 157.056 737.176 156.268 737.176 155.419C737.176 154.458 737.398 153.599 737.842 152.844C738.286 152.081 738.906 151.482 739.701 151.044C740.503 150.607 741.441 150.388 742.515 150.388C743.589 150.388 744.511 150.6 745.279 151.024C746.048 151.448 746.642 152.012 747.059 152.714C747.477 153.417 747.686 154.183 747.686 155.011C747.686 155.973 747.447 156.834 746.97 157.597C746.493 158.352 745.83 159.038 744.981 159.655L740.865 162.668C740.189 163.158 739.705 163.655 739.413 164.159C739.121 164.656 738.975 165.08 738.975 165.432C738.975 165.969 739.111 166.456 739.383 166.893C739.655 167.331 740.036 167.682 740.527 167.947C741.024 168.206 741.604 168.335 742.267 168.335C742.996 168.335 743.715 168.173 744.424 167.848C745.134 167.517 745.78 167.046 746.363 166.436C746.947 165.826 747.411 165.097 747.755 164.249C748.1 163.393 748.272 162.446 748.272 161.405H751.365C751.365 162.691 751.222 163.811 750.937 164.766C750.652 165.714 750.284 166.516 749.833 167.172C749.383 167.821 748.905 168.342 748.402 168.733C748.243 168.846 748.09 168.958 747.944 169.071C747.798 169.184 747.646 169.296 747.487 169.409C746.771 170.059 745.932 170.536 744.971 170.841C744.017 171.146 743.079 171.298 742.157 171.298ZM659.35 216H652.45V195.636H659.49C661.511 195.636 663.248 196.044 664.7 196.859C666.158 197.668 667.279 198.831 668.061 200.349C668.843 201.867 669.234 203.684 669.234 205.798C669.234 207.92 668.84 209.742 668.051 211.267C667.269 212.792 666.138 213.962 664.66 214.777C663.189 215.592 661.419 216 659.35 216ZM656.139 212.808H659.172C660.59 212.808 661.773 212.55 662.721 212.033C663.669 211.509 664.382 210.73 664.859 209.696C665.336 208.655 665.575 207.356 665.575 205.798C665.575 204.241 665.336 202.948 664.859 201.92C664.382 200.886 663.676 200.114 662.741 199.604C661.813 199.087 660.66 198.828 659.281 198.828H656.139V212.808ZM679.341 216.298C677.81 216.298 676.488 215.98 675.374 215.344C674.267 214.701 673.415 213.793 672.819 212.619C672.222 211.439 671.924 210.051 671.924 208.453C671.924 206.882 672.222 205.503 672.819 204.317C673.422 203.124 674.264 202.196 675.344 201.533C676.425 200.863 677.694 200.528 679.152 200.528C680.094 200.528 680.982 200.681 681.817 200.986C682.659 201.284 683.401 201.748 684.044 202.378C684.694 203.008 685.204 203.81 685.576 204.784C685.947 205.752 686.132 206.905 686.132 208.244V209.348H673.614V206.922H682.682C682.676 206.232 682.526 205.619 682.235 205.082C681.943 204.539 681.535 204.111 681.012 203.8C680.495 203.488 679.891 203.332 679.202 203.332C678.466 203.332 677.82 203.511 677.263 203.869C676.706 204.221 676.272 204.685 675.961 205.261C675.656 205.831 675.5 206.458 675.493 207.141V209.259C675.493 210.147 675.656 210.909 675.98 211.545C676.305 212.175 676.759 212.659 677.343 212.997C677.926 213.329 678.609 213.494 679.391 213.494C679.915 213.494 680.389 213.421 680.813 213.276C681.237 213.123 681.605 212.901 681.917 212.609C682.228 212.318 682.463 211.956 682.623 211.526L685.983 211.903C685.771 212.792 685.367 213.567 684.77 214.23C684.18 214.886 683.425 215.397 682.503 215.761C681.582 216.119 680.528 216.298 679.341 216.298ZM701.249 204.764L697.967 205.122C697.875 204.791 697.712 204.479 697.48 204.188C697.255 203.896 696.95 203.661 696.565 203.482C696.181 203.303 695.71 203.213 695.153 203.213C694.404 203.213 693.775 203.375 693.264 203.7C692.76 204.025 692.512 204.446 692.518 204.963C692.512 205.407 692.674 205.768 693.006 206.047C693.344 206.325 693.901 206.554 694.676 206.733L697.281 207.29C698.726 207.601 699.8 208.095 700.503 208.771C701.212 209.447 701.57 210.332 701.577 211.426C701.57 212.387 701.288 213.236 700.732 213.972C700.181 214.701 699.416 215.271 698.435 215.682C697.454 216.093 696.327 216.298 695.054 216.298C693.185 216.298 691.68 215.907 690.54 215.125C689.4 214.336 688.72 213.239 688.501 211.834L692.011 211.496C692.17 212.185 692.509 212.705 693.026 213.057C693.543 213.408 694.215 213.584 695.044 213.584C695.899 213.584 696.585 213.408 697.102 213.057C697.626 212.705 697.888 212.271 697.888 211.754C697.888 211.317 697.719 210.955 697.381 210.67C697.049 210.385 696.532 210.167 695.83 210.014L693.224 209.467C691.759 209.162 690.676 208.649 689.973 207.926C689.27 207.197 688.922 206.276 688.929 205.162C688.922 204.221 689.178 203.405 689.695 202.716C690.218 202.02 690.944 201.483 691.872 201.105C692.807 200.721 693.884 200.528 695.104 200.528C696.893 200.528 698.302 200.91 699.33 201.672C700.364 202.434 701.003 203.465 701.249 204.764ZM704.545 216V200.727H708.144V216H704.545ZM706.354 198.56C705.784 198.56 705.294 198.371 704.883 197.993C704.472 197.608 704.266 197.148 704.266 196.611C704.266 196.067 704.472 195.607 704.883 195.229C705.294 194.844 705.784 194.652 706.354 194.652C706.931 194.652 707.422 194.844 707.826 195.229C708.237 195.607 708.442 196.067 708.442 196.611C708.442 197.148 708.237 197.608 707.826 197.993C707.422 198.371 706.931 198.56 706.354 198.56ZM718.488 222.045C717.195 222.045 716.085 221.87 715.157 221.518C714.229 221.174 713.483 220.71 712.919 220.126C712.356 219.543 711.965 218.897 711.746 218.188L714.988 217.402C715.133 217.7 715.346 217.995 715.624 218.287C715.902 218.585 716.277 218.83 716.748 219.023C717.225 219.222 717.825 219.321 718.547 219.321C719.568 219.321 720.413 219.072 721.083 218.575C721.752 218.085 722.087 217.276 722.087 216.149V213.256H721.908C721.722 213.627 721.451 214.008 721.093 214.399C720.741 214.79 720.274 215.118 719.691 215.384C719.114 215.649 718.388 215.781 717.513 215.781C716.34 215.781 715.276 215.506 714.321 214.956C713.373 214.399 712.618 213.571 712.054 212.47C711.498 211.363 711.219 209.978 711.219 208.314C711.219 206.637 711.498 205.222 712.054 204.068C712.618 202.908 713.377 202.03 714.331 201.433C715.286 200.83 716.35 200.528 717.523 200.528C718.418 200.528 719.154 200.681 719.73 200.986C720.314 201.284 720.778 201.645 721.123 202.07C721.467 202.487 721.729 202.882 721.908 203.253H722.107V200.727H725.657V216.249C725.657 217.554 725.345 218.635 724.722 219.49C724.099 220.345 723.247 220.985 722.167 221.409C721.086 221.833 719.86 222.045 718.488 222.045ZM718.517 212.957C719.28 212.957 719.929 212.772 720.466 212.401C721.003 212.029 721.411 211.496 721.689 210.8C721.968 210.104 722.107 209.268 722.107 208.294C722.107 207.333 721.968 206.491 721.689 205.768C721.417 205.046 721.013 204.486 720.476 204.088C719.946 203.684 719.293 203.482 718.517 203.482C717.715 203.482 717.046 203.69 716.509 204.108C715.972 204.526 715.568 205.099 715.296 205.828C715.024 206.551 714.888 207.373 714.888 208.294C714.888 209.229 715.024 210.047 715.296 210.75C715.574 211.446 715.982 211.99 716.519 212.381C717.062 212.765 717.729 212.957 718.517 212.957ZM732.945 207.051V216H729.346V200.727H732.786V203.322H732.965C733.316 202.467 733.876 201.788 734.645 201.284C735.421 200.78 736.379 200.528 737.519 200.528C738.573 200.528 739.491 200.754 740.273 201.205C741.062 201.655 741.672 202.308 742.103 203.163C742.54 204.018 742.756 205.056 742.749 206.276V216H739.15V206.832C739.15 205.812 738.884 205.013 738.354 204.436C737.83 203.859 737.105 203.571 736.176 203.571C735.547 203.571 734.987 203.71 734.496 203.989C734.012 204.26 733.631 204.655 733.353 205.172C733.081 205.689 732.945 206.315 732.945 207.051Z" fill="white"/>
<circle cx="971" cy="183" r="125" fill="#525151"/>
<path d="M919.442 171V150.636H932.686V153.729H923.131V159.257H932V162.349H923.131V167.908H932.766V171H919.442ZM949.933 155.727L944.494 171H940.517L935.078 155.727H938.916L942.426 167.072H942.585L946.105 155.727H949.933ZM956.381 171.308C955.413 171.308 954.542 171.136 953.766 170.791C952.997 170.44 952.387 169.923 951.936 169.24C951.492 168.557 951.27 167.715 951.27 166.714C951.27 165.853 951.429 165.14 951.748 164.577C952.066 164.013 952.5 163.562 953.05 163.224C953.6 162.886 954.22 162.631 954.909 162.459C955.605 162.28 956.325 162.151 957.067 162.071C957.962 161.978 958.688 161.895 959.245 161.822C959.801 161.743 960.206 161.624 960.458 161.464C960.716 161.299 960.846 161.044 960.846 160.699V160.639C960.846 159.89 960.623 159.31 960.179 158.899C959.735 158.488 959.096 158.283 958.26 158.283C957.379 158.283 956.679 158.475 956.162 158.859C955.652 159.244 955.307 159.698 955.128 160.222L951.767 159.744C952.033 158.816 952.47 158.041 953.08 157.418C953.69 156.788 954.435 156.317 955.317 156.006C956.199 155.688 957.173 155.528 958.24 155.528C958.976 155.528 959.709 155.615 960.438 155.787C961.167 155.959 961.833 156.244 962.436 156.642C963.04 157.033 963.524 157.567 963.888 158.243C964.259 158.919 964.445 159.764 964.445 160.778V171H960.985V168.902H960.865C960.647 169.326 960.338 169.724 959.941 170.095C959.55 170.46 959.056 170.755 958.459 170.98C957.869 171.199 957.176 171.308 956.381 171.308ZM957.316 168.663C958.038 168.663 958.665 168.521 959.195 168.236C959.725 167.944 960.133 167.56 960.418 167.082C960.71 166.605 960.855 166.085 960.855 165.521V163.722C960.743 163.814 960.551 163.901 960.279 163.98C960.014 164.06 959.715 164.129 959.384 164.189C959.052 164.249 958.724 164.302 958.4 164.348C958.075 164.394 957.793 164.434 957.554 164.467C957.017 164.54 956.537 164.66 956.113 164.825C955.688 164.991 955.354 165.223 955.108 165.521C954.863 165.813 954.74 166.191 954.74 166.655C954.74 167.318 954.982 167.818 955.466 168.156C955.95 168.494 956.567 168.663 957.316 168.663ZM971.664 150.636V171H968.064V150.636H971.664ZM985.099 164.577V155.727H988.699V171H985.209V168.286H985.05C984.705 169.141 984.138 169.84 983.349 170.384C982.567 170.927 981.603 171.199 980.456 171.199C979.455 171.199 978.57 170.977 977.801 170.533C977.039 170.082 976.442 169.429 976.011 168.574C975.58 167.712 975.365 166.671 975.365 165.452V155.727H978.964V164.895C978.964 165.863 979.23 166.632 979.76 167.202C980.29 167.772 980.986 168.057 981.848 168.057C982.378 168.057 982.892 167.928 983.389 167.669C983.886 167.411 984.294 167.026 984.612 166.516C984.937 165.999 985.099 165.352 985.099 164.577ZM1000.03 155.727V158.511H991.247V155.727H1000.03ZM993.414 152.068H997.014V166.406C997.014 166.89 997.087 167.261 997.233 167.52C997.385 167.772 997.584 167.944 997.829 168.037C998.074 168.13 998.346 168.176 998.645 168.176C998.87 168.176 999.075 168.16 999.261 168.126C999.453 168.093 999.599 168.063 999.699 168.037L1000.31 170.851C1000.11 170.917 999.838 170.99 999.48 171.07C999.128 171.149 998.698 171.196 998.187 171.209C997.286 171.235 996.474 171.099 995.751 170.801C995.029 170.496 994.455 170.026 994.031 169.389C993.613 168.753 993.408 167.957 993.414 167.003V152.068ZM1009.63 171.298C1008.1 171.298 1006.78 170.98 1005.67 170.344C1004.56 169.701 1003.71 168.793 1003.11 167.619C1002.51 166.439 1002.22 165.051 1002.22 163.453C1002.22 161.882 1002.51 160.503 1003.11 159.317C1003.71 158.124 1004.56 157.196 1005.64 156.533C1006.72 155.863 1007.99 155.528 1009.45 155.528C1010.39 155.528 1011.27 155.681 1012.11 155.986C1012.95 156.284 1013.69 156.748 1014.34 157.378C1014.99 158.008 1015.5 158.81 1015.87 159.784C1016.24 160.752 1016.43 161.905 1016.43 163.244V164.348H1003.91V161.922H1012.98C1012.97 161.232 1012.82 160.619 1012.53 160.082C1012.24 159.539 1011.83 159.111 1011.3 158.8C1010.79 158.488 1010.18 158.332 1009.5 158.332C1008.76 158.332 1008.11 158.511 1007.56 158.869C1007 159.221 1006.57 159.685 1006.25 160.261C1005.95 160.831 1005.79 161.458 1005.79 162.141V164.259C1005.79 165.147 1005.95 165.909 1006.27 166.545C1006.6 167.175 1007.05 167.659 1007.64 167.997C1008.22 168.329 1008.9 168.494 1009.68 168.494C1010.21 168.494 1010.68 168.421 1011.11 168.276C1011.53 168.123 1011.9 167.901 1012.21 167.609C1012.52 167.318 1012.76 166.956 1012.92 166.526L1016.28 166.903C1016.06 167.792 1015.66 168.567 1015.06 169.23C1014.47 169.886 1013.72 170.397 1012.8 170.761C1011.87 171.119 1010.82 171.298 1009.63 171.298ZM932.85 216H925.95V195.636H932.99C935.011 195.636 936.748 196.044 938.2 196.859C939.658 197.668 940.779 198.831 941.561 200.349C942.343 201.867 942.734 203.684 942.734 205.798C942.734 207.92 942.34 209.742 941.551 211.267C940.769 212.792 939.638 213.962 938.16 214.777C936.689 215.592 934.919 216 932.85 216ZM929.639 212.808H932.672C934.09 212.808 935.273 212.55 936.221 212.033C937.169 211.509 937.882 210.73 938.359 209.696C938.836 208.655 939.075 207.356 939.075 205.798C939.075 204.241 938.836 202.948 938.359 201.92C937.882 200.886 937.176 200.114 936.241 199.604C935.313 199.087 934.16 198.828 932.781 198.828H929.639V212.808ZM952.841 216.298C951.31 216.298 949.988 215.98 948.874 215.344C947.767 214.701 946.915 213.793 946.319 212.619C945.722 211.439 945.424 210.051 945.424 208.453C945.424 206.882 945.722 205.503 946.319 204.317C946.922 203.124 947.764 202.196 948.844 201.533C949.925 200.863 951.194 200.528 952.652 200.528C953.594 200.528 954.482 200.681 955.317 200.986C956.159 201.284 956.901 201.748 957.544 202.378C958.194 203.008 958.704 203.81 959.076 204.784C959.447 205.752 959.632 206.905 959.632 208.244V209.348H947.114V206.922H956.182C956.176 206.232 956.026 205.619 955.735 205.082C955.443 204.539 955.035 204.111 954.512 203.8C953.995 203.488 953.391 203.332 952.702 203.332C951.966 203.332 951.32 203.511 950.763 203.869C950.206 204.221 949.772 204.685 949.461 205.261C949.156 205.831 949 206.458 948.993 207.141V209.259C948.993 210.147 949.156 210.909 949.48 211.545C949.805 212.175 950.259 212.659 950.843 212.997C951.426 213.329 952.109 213.494 952.891 213.494C953.415 213.494 953.889 213.421 954.313 213.276C954.737 213.123 955.105 212.901 955.417 212.609C955.728 212.318 955.963 211.956 956.123 211.526L959.483 211.903C959.271 212.792 958.867 213.567 958.27 214.23C957.68 214.886 956.925 215.397 956.003 215.761C955.082 216.119 954.028 216.298 952.841 216.298ZM974.749 204.764L971.467 205.122C971.375 204.791 971.212 204.479 970.98 204.188C970.755 203.896 970.45 203.661 970.065 203.482C969.681 203.303 969.21 203.213 968.653 203.213C967.904 203.213 967.275 203.375 966.764 203.7C966.26 204.025 966.012 204.446 966.018 204.963C966.012 205.407 966.174 205.768 966.506 206.047C966.844 206.325 967.401 206.554 968.176 206.733L970.781 207.29C972.226 207.601 973.3 208.095 974.003 208.771C974.712 209.447 975.07 210.332 975.077 211.426C975.07 212.387 974.788 213.236 974.232 213.972C973.681 214.701 972.916 215.271 971.935 215.682C970.954 216.093 969.827 216.298 968.554 216.298C966.685 216.298 965.18 215.907 964.04 215.125C962.9 214.336 962.22 213.239 962.001 211.834L965.511 211.496C965.67 212.185 966.009 212.705 966.526 213.057C967.043 213.408 967.715 213.584 968.544 213.584C969.399 213.584 970.085 213.408 970.602 213.057C971.126 212.705 971.388 212.271 971.388 211.754C971.388 211.317 971.219 210.955 970.881 210.67C970.549 210.385 970.032 210.167 969.33 210.014L966.724 209.467C965.259 209.162 964.176 208.649 963.473 207.926C962.77 207.197 962.422 206.276 962.429 205.162C962.422 204.221 962.678 203.405 963.195 202.716C963.718 202.02 964.444 201.483 965.372 201.105C966.307 200.721 967.384 200.528 968.604 200.528C970.393 200.528 971.802 200.91 972.83 201.672C973.864 202.434 974.503 203.465 974.749 204.764ZM978.045 216V200.727H981.644V216H978.045ZM979.854 198.56C979.284 198.56 978.794 198.371 978.383 197.993C977.972 197.608 977.766 197.148 977.766 196.611C977.766 196.067 977.972 195.607 978.383 195.229C978.794 194.844 979.284 194.652 979.854 194.652C980.431 194.652 980.922 194.844 981.326 195.229C981.737 195.607 981.942 196.067 981.942 196.611C981.942 197.148 981.737 197.608 981.326 197.993C980.922 198.371 980.431 198.56 979.854 198.56ZM991.988 222.045C990.695 222.045 989.585 221.87 988.657 221.518C987.729 221.174 986.983 220.71 986.419 220.126C985.856 219.543 985.465 218.897 985.246 218.188L988.488 217.402C988.633 217.7 988.846 217.995 989.124 218.287C989.402 218.585 989.777 218.83 990.248 219.023C990.725 219.222 991.325 219.321 992.047 219.321C993.068 219.321 993.913 219.072 994.583 218.575C995.252 218.085 995.587 217.276 995.587 216.149V213.256H995.408C995.222 213.627 994.951 214.008 994.593 214.399C994.241 214.79 993.774 215.118 993.191 215.384C992.614 215.649 991.888 215.781 991.013 215.781C989.84 215.781 988.776 215.506 987.821 214.956C986.873 214.399 986.118 213.571 985.554 212.47C984.998 211.363 984.719 209.978 984.719 208.314C984.719 206.637 984.998 205.222 985.554 204.068C986.118 202.908 986.877 202.03 987.831 201.433C988.786 200.83 989.85 200.528 991.023 200.528C991.918 200.528 992.654 200.681 993.23 200.986C993.814 201.284 994.278 201.645 994.623 202.07C994.967 202.487 995.229 202.882 995.408 203.253H995.607V200.727H999.157V216.249C999.157 217.554 998.845 218.635 998.222 219.49C997.599 220.345 996.747 220.985 995.667 221.409C994.586 221.833 993.36 222.045 991.988 222.045ZM992.017 212.957C992.78 212.957 993.429 212.772 993.966 212.401C994.503 212.029 994.911 211.496 995.189 210.8C995.468 210.104 995.607 209.268 995.607 208.294C995.607 207.333 995.468 206.491 995.189 205.768C994.917 205.046 994.513 204.486 993.976 204.088C993.446 203.684 992.793 203.482 992.017 203.482C991.215 203.482 990.546 203.69 990.009 204.108C989.472 204.526 989.068 205.099 988.796 205.828C988.524 206.551 988.388 207.373 988.388 208.294C988.388 209.229 988.524 210.047 988.796 210.75C989.074 211.446 989.482 211.99 990.019 212.381C990.562 212.765 991.229 212.957 992.017 212.957ZM1006.44 207.051V216H1002.85V200.727H1006.29V203.322H1006.46C1006.82 202.467 1007.38 201.788 1008.15 201.284C1008.92 200.78 1009.88 200.528 1011.02 200.528C1012.07 200.528 1012.99 200.754 1013.77 201.205C1014.56 201.655 1015.17 202.308 1015.6 203.163C1016.04 204.018 1016.26 205.056 1016.25 206.276V216H1012.65V206.832C1012.65 205.812 1012.38 205.013 1011.85 204.436C1011.33 203.859 1010.6 203.571 1009.68 203.571C1009.05 203.571 1008.49 203.71 1008 203.989C1007.51 204.26 1007.13 204.655 1006.85 205.172C1006.58 205.689 1006.44 206.315 1006.44 207.051Z" fill="white"/>
<ellipse cx="1246.5" cy="183" rx="126.5" ry="125" fill="#525151"/>
<path d="M1202.2 150.636H1205.89V163.94C1205.89 165.399 1205.54 166.681 1204.86 167.788C1204.17 168.895 1203.21 169.76 1201.97 170.384C1200.73 171 1199.28 171.308 1197.63 171.308C1195.96 171.308 1194.51 171 1193.27 170.384C1192.03 169.76 1191.07 168.895 1190.39 167.788C1189.71 166.681 1189.36 165.399 1189.36 163.94V150.636H1193.05V163.632C1193.05 164.481 1193.24 165.236 1193.61 165.899C1193.99 166.562 1194.52 167.082 1195.2 167.46C1195.88 167.831 1196.69 168.017 1197.63 168.017C1198.56 168.017 1199.37 167.831 1200.05 167.46C1200.74 167.082 1201.27 166.562 1201.64 165.899C1202.01 165.236 1202.2 164.481 1202.2 163.632V150.636ZM1221.81 159.764L1218.53 160.122C1218.44 159.791 1218.27 159.479 1218.04 159.188C1217.82 158.896 1217.51 158.661 1217.13 158.482C1216.74 158.303 1216.27 158.213 1215.72 158.213C1214.97 158.213 1214.34 158.375 1213.83 158.7C1213.32 159.025 1213.07 159.446 1213.08 159.963C1213.07 160.407 1213.24 160.768 1213.57 161.047C1213.91 161.325 1214.46 161.554 1215.24 161.733L1217.84 162.29C1219.29 162.601 1220.36 163.095 1221.07 163.771C1221.77 164.447 1222.13 165.332 1222.14 166.426C1222.13 167.387 1221.85 168.236 1221.29 168.972C1220.74 169.701 1219.98 170.271 1219 170.682C1218.02 171.093 1216.89 171.298 1215.62 171.298C1213.75 171.298 1212.24 170.907 1211.1 170.125C1209.96 169.336 1209.28 168.239 1209.06 166.834L1212.57 166.496C1212.73 167.185 1213.07 167.705 1213.59 168.057C1214.1 168.408 1214.78 168.584 1215.61 168.584C1216.46 168.584 1217.15 168.408 1217.66 168.057C1218.19 167.705 1218.45 167.271 1218.45 166.754C1218.45 166.317 1218.28 165.955 1217.94 165.67C1217.61 165.385 1217.09 165.167 1216.39 165.014L1213.79 164.467C1212.32 164.162 1211.24 163.649 1210.54 162.926C1209.83 162.197 1209.48 161.276 1209.49 160.162C1209.48 159.221 1209.74 158.405 1210.26 157.716C1210.78 157.02 1211.51 156.483 1212.43 156.105C1213.37 155.721 1214.45 155.528 1215.67 155.528C1217.46 155.528 1218.86 155.91 1219.89 156.672C1220.93 157.434 1221.57 158.465 1221.81 159.764ZM1229.5 171.308C1228.53 171.308 1227.66 171.136 1226.89 170.791C1226.12 170.44 1225.51 169.923 1225.06 169.24C1224.61 168.557 1224.39 167.715 1224.39 166.714C1224.39 165.853 1224.55 165.14 1224.87 164.577C1225.19 164.013 1225.62 163.562 1226.17 163.224C1226.72 162.886 1227.34 162.631 1228.03 162.459C1228.73 162.28 1229.45 162.151 1230.19 162.071C1231.08 161.978 1231.81 161.895 1232.37 161.822C1232.92 161.743 1233.33 161.624 1233.58 161.464C1233.84 161.299 1233.97 161.044 1233.97 160.699V160.639C1233.97 159.89 1233.74 159.31 1233.3 158.899C1232.86 158.488 1232.22 158.283 1231.38 158.283C1230.5 158.283 1229.8 158.475 1229.28 158.859C1228.77 159.244 1228.43 159.698 1228.25 160.222L1224.89 159.744C1225.15 158.816 1225.59 158.041 1226.2 157.418C1226.81 156.788 1227.56 156.317 1228.44 156.006C1229.32 155.688 1230.29 155.528 1231.36 155.528C1232.1 155.528 1232.83 155.615 1233.56 155.787C1234.29 155.959 1234.95 156.244 1235.56 156.642C1236.16 157.033 1236.64 157.567 1237.01 158.243C1237.38 158.919 1237.57 159.764 1237.57 160.778V171H1234.11V168.902H1233.99C1233.77 169.326 1233.46 169.724 1233.06 170.095C1232.67 170.46 1232.18 170.755 1231.58 170.98C1230.99 171.199 1230.3 171.308 1229.5 171.308ZM1230.44 168.663C1231.16 168.663 1231.79 168.521 1232.32 168.236C1232.85 167.944 1233.25 167.56 1233.54 167.082C1233.83 166.605 1233.98 166.085 1233.98 165.521V163.722C1233.86 163.814 1233.67 163.901 1233.4 163.98C1233.13 164.06 1232.84 164.129 1232.5 164.189C1232.17 164.249 1231.85 164.302 1231.52 164.348C1231.2 164.394 1230.91 164.434 1230.68 164.467C1230.14 164.54 1229.66 164.66 1229.23 164.825C1228.81 164.991 1228.47 165.223 1228.23 165.521C1227.98 165.813 1227.86 166.191 1227.86 166.655C1227.86 167.318 1228.1 167.818 1228.59 168.156C1229.07 168.494 1229.69 168.663 1230.44 168.663ZM1241.34 171V150.636H1244.94V158.253H1245.09C1245.28 157.882 1245.54 157.487 1245.88 157.07C1246.22 156.645 1246.67 156.284 1247.25 155.986C1247.83 155.681 1248.56 155.528 1249.46 155.528C1250.64 155.528 1251.7 155.83 1252.65 156.433C1253.6 157.03 1254.36 157.915 1254.92 159.088C1255.48 160.255 1255.76 161.687 1255.76 163.384C1255.76 165.061 1255.49 166.486 1254.94 167.659C1254.39 168.832 1253.64 169.727 1252.69 170.344C1251.74 170.96 1250.67 171.268 1249.47 171.268C1248.59 171.268 1247.87 171.123 1247.29 170.831C1246.71 170.539 1246.25 170.188 1245.9 169.777C1245.55 169.359 1245.29 168.965 1245.09 168.594H1244.88V171H1241.34ZM1244.87 163.364C1244.87 164.351 1245.01 165.216 1245.29 165.959C1245.58 166.701 1245.98 167.281 1246.51 167.699C1247.05 168.11 1247.7 168.315 1248.46 168.315C1249.26 168.315 1249.93 168.103 1250.46 167.679C1251 167.248 1251.4 166.661 1251.68 165.919C1251.95 165.17 1252.09 164.318 1252.09 163.364C1252.09 162.416 1251.96 161.574 1251.69 160.838C1251.41 160.102 1251.01 159.526 1250.47 159.108C1249.94 158.69 1249.27 158.482 1248.46 158.482C1247.69 158.482 1247.04 158.684 1246.5 159.088C1245.97 159.492 1245.56 160.059 1245.28 160.788C1245.01 161.518 1244.87 162.376 1244.87 163.364ZM1258.82 171V155.727H1262.42V171H1258.82ZM1260.63 153.56C1260.06 153.56 1259.57 153.371 1259.16 152.993C1258.75 152.608 1258.54 152.148 1258.54 151.611C1258.54 151.067 1258.75 150.607 1259.16 150.229C1259.57 149.844 1260.06 149.652 1260.63 149.652C1261.21 149.652 1261.7 149.844 1262.1 150.229C1262.51 150.607 1262.72 151.067 1262.72 151.611C1262.72 152.148 1262.51 152.608 1262.1 152.993C1261.7 153.371 1261.21 153.56 1260.63 153.56ZM1269.72 150.636V171H1266.12V150.636H1269.72ZM1273.42 171V155.727H1277.02V171H1273.42ZM1275.23 153.56C1274.66 153.56 1274.17 153.371 1273.76 152.993C1273.35 152.608 1273.15 152.148 1273.15 151.611C1273.15 151.067 1273.35 150.607 1273.76 150.229C1274.17 149.844 1274.66 149.652 1275.23 149.652C1275.81 149.652 1276.3 149.844 1276.7 150.229C1277.12 150.607 1277.32 151.067 1277.32 151.611C1277.32 152.148 1277.12 152.608 1276.7 152.993C1276.3 153.371 1275.81 153.56 1275.23 153.56ZM1288.35 155.727V158.511H1279.57V155.727H1288.35ZM1281.74 152.068H1285.34V166.406C1285.34 166.89 1285.41 167.261 1285.56 167.52C1285.71 167.772 1285.91 167.944 1286.15 168.037C1286.4 168.13 1286.67 168.176 1286.97 168.176C1287.19 168.176 1287.4 168.16 1287.59 168.126C1287.78 168.093 1287.92 168.063 1288.02 168.037L1288.63 170.851C1288.44 170.917 1288.16 170.99 1287.8 171.07C1287.45 171.149 1287.02 171.196 1286.51 171.209C1285.61 171.235 1284.8 171.099 1284.08 170.801C1283.35 170.496 1282.78 170.026 1282.35 169.389C1281.94 168.753 1281.73 167.957 1281.74 167.003V152.068ZM1293.6 176.727C1293.11 176.727 1292.65 176.688 1292.24 176.608C1291.83 176.535 1291.5 176.449 1291.25 176.349L1292.09 173.545C1292.61 173.698 1293.08 173.771 1293.49 173.764C1293.9 173.758 1294.26 173.628 1294.57 173.376C1294.89 173.131 1295.16 172.72 1295.38 172.143L1295.69 171.318L1290.15 155.727H1293.97L1297.49 167.261H1297.65L1301.17 155.727H1305L1298.89 172.849C1298.6 173.658 1298.23 174.351 1297.75 174.928C1297.28 175.511 1296.71 175.955 1296.02 176.26C1295.35 176.571 1294.54 176.727 1293.6 176.727ZM1197.25 198.729V195.636H1213.49V198.729H1207.2V216H1203.54V198.729H1197.25ZM1221.01 216.298C1219.48 216.298 1218.16 215.98 1217.05 215.344C1215.94 214.701 1215.09 213.793 1214.49 212.619C1213.89 211.439 1213.6 210.051 1213.6 208.453C1213.6 206.882 1213.89 205.503 1214.49 204.317C1215.09 203.124 1215.94 202.196 1217.02 201.533C1218.1 200.863 1219.37 200.528 1220.82 200.528C1221.77 200.528 1222.65 200.681 1223.49 200.986C1224.33 201.284 1225.07 201.748 1225.72 202.378C1226.37 203.008 1226.88 203.81 1227.25 204.784C1227.62 205.752 1227.8 206.905 1227.8 208.244V209.348H1215.29V206.922H1224.35C1224.35 206.232 1224.2 205.619 1223.91 205.082C1223.61 204.539 1223.21 204.111 1222.68 203.8C1222.17 203.488 1221.56 203.332 1220.87 203.332C1220.14 203.332 1219.49 203.511 1218.93 203.869C1218.38 204.221 1217.94 204.685 1217.63 205.261C1217.33 205.831 1217.17 206.458 1217.16 207.141V209.259C1217.16 210.147 1217.33 210.909 1217.65 211.545C1217.98 212.175 1218.43 212.659 1219.01 212.997C1219.6 213.329 1220.28 213.494 1221.06 213.494C1221.59 213.494 1222.06 213.421 1222.48 213.276C1222.91 213.123 1223.28 212.901 1223.59 212.609C1223.9 212.318 1224.14 211.956 1224.29 211.526L1227.66 211.903C1227.44 212.792 1227.04 213.567 1226.44 214.23C1225.85 214.886 1225.1 215.397 1224.17 215.761C1223.25 216.119 1222.2 216.298 1221.01 216.298ZM1242.92 204.764L1239.64 205.122C1239.55 204.791 1239.38 204.479 1239.15 204.188C1238.93 203.896 1238.62 203.661 1238.24 203.482C1237.85 203.303 1237.38 203.213 1236.83 203.213C1236.08 203.213 1235.45 203.375 1234.94 203.7C1234.43 204.025 1234.18 204.446 1234.19 204.963C1234.18 205.407 1234.35 205.768 1234.68 206.047C1235.02 206.325 1235.57 206.554 1236.35 206.733L1238.95 207.29C1240.4 207.601 1241.47 208.095 1242.17 208.771C1242.88 209.447 1243.24 210.332 1243.25 211.426C1243.24 212.387 1242.96 213.236 1242.4 213.972C1241.85 214.701 1241.09 215.271 1240.11 215.682C1239.13 216.093 1238 216.298 1236.73 216.298C1234.86 216.298 1233.35 215.907 1232.21 215.125C1231.07 214.336 1230.39 213.239 1230.17 211.834L1233.68 211.496C1233.84 212.185 1234.18 212.705 1234.7 213.057C1235.21 213.408 1235.89 213.584 1236.72 213.584C1237.57 213.584 1238.26 213.408 1238.77 213.057C1239.3 212.705 1239.56 212.271 1239.56 211.754C1239.56 211.317 1239.39 210.955 1239.05 210.67C1238.72 210.385 1238.2 210.167 1237.5 210.014L1234.9 209.467C1233.43 209.162 1232.35 208.649 1231.64 207.926C1230.94 207.197 1230.59 206.276 1230.6 205.162C1230.59 204.221 1230.85 203.405 1231.37 202.716C1231.89 202.02 1232.62 201.483 1233.54 201.105C1234.48 200.721 1235.56 200.528 1236.78 200.528C1238.57 200.528 1239.97 200.91 1241 201.672C1242.04 202.434 1242.68 203.465 1242.92 204.764ZM1253.84 200.727V203.511H1245.06V200.727H1253.84ZM1247.23 197.068H1250.83V211.406C1250.83 211.89 1250.9 212.261 1251.05 212.52C1251.2 212.772 1251.4 212.944 1251.65 213.037C1251.89 213.13 1252.16 213.176 1252.46 213.176C1252.69 213.176 1252.89 213.16 1253.08 213.126C1253.27 213.093 1253.42 213.063 1253.51 213.037L1254.12 215.851C1253.93 215.917 1253.65 215.99 1253.3 216.07C1252.94 216.149 1252.51 216.196 1252 216.209C1251.1 216.235 1250.29 216.099 1249.57 215.801C1248.84 215.496 1248.27 215.026 1247.85 214.389C1247.43 213.753 1247.22 212.957 1247.23 212.003V197.068ZM1256.85 216V200.727H1260.45V216H1256.85ZM1258.66 198.56C1258.09 198.56 1257.6 198.371 1257.19 197.993C1256.78 197.608 1256.57 197.148 1256.57 196.611C1256.57 196.067 1256.78 195.607 1257.19 195.229C1257.6 194.844 1258.09 194.652 1258.66 194.652C1259.24 194.652 1259.73 194.844 1260.13 195.229C1260.55 195.607 1260.75 196.067 1260.75 196.611C1260.75 197.148 1260.55 197.608 1260.13 197.993C1259.73 198.371 1259.24 198.56 1258.66 198.56ZM1267.75 207.051V216H1264.15V200.727H1267.59V203.322H1267.77C1268.12 202.467 1268.68 201.788 1269.45 201.284C1270.23 200.78 1271.19 200.528 1272.33 200.528C1273.38 200.528 1274.3 200.754 1275.08 201.205C1275.87 201.655 1276.48 202.308 1276.91 203.163C1277.35 204.018 1277.56 205.056 1277.56 206.276V216H1273.96V206.832C1273.96 205.812 1273.69 205.013 1273.16 204.436C1272.64 203.859 1271.91 203.571 1270.98 203.571C1270.36 203.571 1269.8 203.71 1269.3 203.989C1268.82 204.26 1268.44 204.655 1268.16 205.172C1267.89 205.689 1267.75 206.315 1267.75 207.051ZM1287.86 222.045C1286.57 222.045 1285.46 221.87 1284.53 221.518C1283.6 221.174 1282.85 220.71 1282.29 220.126C1281.73 219.543 1281.34 218.897 1281.12 218.188L1284.36 217.402C1284.5 217.7 1284.72 217.995 1284.99 218.287C1285.27 218.585 1285.65 218.83 1286.12 219.023C1286.6 219.222 1287.2 219.321 1287.92 219.321C1288.94 219.321 1289.78 219.072 1290.45 218.575C1291.12 218.085 1291.46 217.276 1291.46 216.149V213.256H1291.28C1291.09 213.627 1290.82 214.008 1290.46 214.399C1290.11 214.79 1289.64 215.118 1289.06 215.384C1288.48 215.649 1287.76 215.781 1286.88 215.781C1285.71 215.781 1284.65 215.506 1283.69 214.956C1282.74 214.399 1281.99 213.571 1281.43 212.47C1280.87 211.363 1280.59 209.978 1280.59 208.314C1280.59 206.637 1280.87 205.222 1281.43 204.068C1281.99 202.908 1282.75 202.03 1283.7 201.433C1284.66 200.83 1285.72 200.528 1286.89 200.528C1287.79 200.528 1288.52 200.681 1289.1 200.986C1289.68 201.284 1290.15 201.645 1290.49 202.07C1290.84 202.487 1291.1 202.882 1291.28 203.253H1291.48V200.727H1295.03V216.249C1295.03 217.554 1294.72 218.635 1294.09 219.49C1293.47 220.345 1292.62 220.985 1291.54 221.409C1290.46 221.833 1289.23 222.045 1287.86 222.045ZM1287.89 212.957C1288.65 212.957 1289.3 212.772 1289.84 212.401C1290.37 212.029 1290.78 211.496 1291.06 210.8C1291.34 210.104 1291.48 209.268 1291.48 208.294C1291.48 207.333 1291.34 206.491 1291.06 205.768C1290.79 205.046 1290.38 204.486 1289.85 204.088C1289.32 203.684 1288.66 203.482 1287.89 203.482C1287.09 203.482 1286.42 203.69 1285.88 204.108C1285.34 204.526 1284.94 205.099 1284.67 205.828C1284.39 206.551 1284.26 207.373 1284.26 208.294C1284.26 209.229 1284.39 210.047 1284.67 210.75C1284.95 211.446 1285.35 211.99 1285.89 212.381C1286.43 212.765 1287.1 212.957 1287.89 212.957Z" fill="white"/>
</svg>
