<svg width="1399" height="298" viewBox="0 0 1399 298" fill="none" xmlns="http://www.w3.org/2000/svg">
<circle cx="149" cy="151" r="125" fill="#525151"/>
<path d="M78.5455 162V138.727H87.2727C89.0606 138.727 90.5606 139.038 91.7727 139.659C92.9924 140.28 93.9129 141.152 94.5341 142.273C95.1629 143.386 95.4773 144.686 95.4773 146.17C95.4773 147.663 95.1591 148.958 94.5227 150.057C93.8939 151.148 92.9659 151.992 91.7386 152.591C90.5114 153.182 89.0038 153.477 87.2159 153.477H81V149.977H86.6477C87.6932 149.977 88.5492 149.833 89.2159 149.545C89.8826 149.25 90.375 148.822 90.6932 148.261C91.0189 147.693 91.1818 146.996 91.1818 146.17C91.1818 145.345 91.0189 144.64 90.6932 144.057C90.3674 143.466 89.8712 143.019 89.2045 142.716C88.5379 142.405 87.678 142.25 86.625 142.25H82.7614V162H78.5455ZM90.5682 151.455L96.3295 162H91.625L85.9659 151.455H90.5682ZM106.653 162.341C104.903 162.341 103.392 161.977 102.119 161.25C100.854 160.515 99.8807 159.477 99.1989 158.136C98.517 156.788 98.1761 155.201 98.1761 153.375C98.1761 151.58 98.517 150.004 99.1989 148.648C99.8883 147.284 100.85 146.223 102.085 145.466C103.32 144.701 104.771 144.318 106.438 144.318C107.513 144.318 108.528 144.492 109.483 144.841C110.445 145.182 111.294 145.712 112.028 146.432C112.771 147.152 113.354 148.068 113.778 149.182C114.203 150.288 114.415 151.606 114.415 153.136V154.398H100.108V151.625H110.472C110.464 150.837 110.294 150.136 109.96 149.523C109.627 148.902 109.161 148.413 108.562 148.057C107.972 147.701 107.282 147.523 106.494 147.523C105.653 147.523 104.915 147.727 104.278 148.136C103.642 148.538 103.146 149.068 102.79 149.727C102.441 150.379 102.263 151.095 102.256 151.875V154.295C102.256 155.311 102.441 156.182 102.812 156.909C103.184 157.629 103.703 158.182 104.369 158.568C105.036 158.947 105.816 159.136 106.71 159.136C107.309 159.136 107.85 159.053 108.335 158.886C108.82 158.712 109.241 158.458 109.597 158.125C109.953 157.792 110.222 157.379 110.403 156.886L114.244 157.318C114.002 158.333 113.54 159.22 112.858 159.977C112.184 160.727 111.32 161.311 110.267 161.727C109.214 162.136 108.009 162.341 106.653 162.341ZM131.69 149.159L127.94 149.568C127.834 149.189 127.649 148.833 127.384 148.5C127.126 148.167 126.777 147.898 126.338 147.693C125.899 147.489 125.361 147.386 124.724 147.386C123.868 147.386 123.149 147.572 122.565 147.943C121.99 148.314 121.705 148.795 121.713 149.386C121.705 149.894 121.891 150.307 122.27 150.625C122.656 150.943 123.293 151.205 124.179 151.409L127.156 152.045C128.808 152.402 130.035 152.966 130.838 153.739C131.649 154.511 132.058 155.523 132.065 156.773C132.058 157.871 131.736 158.841 131.099 159.682C130.471 160.515 129.596 161.167 128.474 161.636C127.353 162.106 126.065 162.341 124.611 162.341C122.474 162.341 120.755 161.894 119.452 161C118.149 160.098 117.372 158.845 117.122 157.239L121.134 156.852C121.315 157.64 121.702 158.235 122.293 158.636C122.884 159.038 123.652 159.239 124.599 159.239C125.577 159.239 126.361 159.038 126.952 158.636C127.55 158.235 127.849 157.739 127.849 157.148C127.849 156.648 127.656 156.235 127.27 155.909C126.891 155.583 126.3 155.333 125.497 155.159L122.52 154.534C120.846 154.186 119.607 153.598 118.804 152.773C118.001 151.939 117.603 150.886 117.611 149.614C117.603 148.538 117.895 147.606 118.486 146.818C119.084 146.023 119.914 145.409 120.974 144.977C122.043 144.538 123.274 144.318 124.668 144.318C126.713 144.318 128.323 144.754 129.497 145.625C130.679 146.496 131.41 147.674 131.69 149.159ZM143.185 162.341C141.435 162.341 139.923 161.977 138.651 161.25C137.385 160.515 136.412 159.477 135.73 158.136C135.048 156.788 134.707 155.201 134.707 153.375C134.707 151.58 135.048 150.004 135.73 148.648C136.42 147.284 137.382 146.223 138.616 145.466C139.851 144.701 141.302 144.318 142.969 144.318C144.045 144.318 145.06 144.492 146.014 144.841C146.976 145.182 147.825 145.712 148.56 146.432C149.302 147.152 149.885 148.068 150.31 149.182C150.734 150.288 150.946 151.606 150.946 153.136V154.398H136.639V151.625H147.003C146.995 150.837 146.825 150.136 146.491 149.523C146.158 148.902 145.692 148.413 145.094 148.057C144.503 147.701 143.813 147.523 143.026 147.523C142.185 147.523 141.446 147.727 140.81 148.136C140.173 148.538 139.677 149.068 139.321 149.727C138.973 150.379 138.795 151.095 138.787 151.875V154.295C138.787 155.311 138.973 156.182 139.344 156.909C139.715 157.629 140.234 158.182 140.901 158.568C141.567 158.947 142.348 159.136 143.241 159.136C143.84 159.136 144.382 159.053 144.866 158.886C145.351 158.712 145.772 158.458 146.128 158.125C146.484 157.792 146.753 157.379 146.935 156.886L150.776 157.318C150.533 158.333 150.071 159.22 149.389 159.977C148.715 160.727 147.851 161.311 146.798 161.727C145.745 162.136 144.541 162.341 143.185 162.341ZM159.449 162.352C158.343 162.352 157.347 162.155 156.46 161.761C155.581 161.36 154.884 160.769 154.369 159.989C153.862 159.208 153.608 158.246 153.608 157.102C153.608 156.117 153.79 155.303 154.153 154.659C154.517 154.015 155.013 153.5 155.642 153.114C156.271 152.727 156.979 152.436 157.767 152.239C158.563 152.034 159.384 151.886 160.233 151.795C161.256 151.689 162.085 151.595 162.722 151.511C163.358 151.42 163.82 151.284 164.108 151.102C164.403 150.913 164.551 150.621 164.551 150.227V150.159C164.551 149.303 164.297 148.64 163.79 148.17C163.282 147.701 162.551 147.466 161.597 147.466C160.589 147.466 159.79 147.686 159.199 148.125C158.616 148.564 158.222 149.083 158.017 149.682L154.176 149.136C154.479 148.076 154.979 147.189 155.676 146.477C156.373 145.758 157.225 145.22 158.233 144.864C159.241 144.5 160.354 144.318 161.574 144.318C162.415 144.318 163.252 144.417 164.085 144.614C164.919 144.811 165.68 145.136 166.369 145.591C167.059 146.038 167.612 146.648 168.028 147.42C168.453 148.193 168.665 149.159 168.665 150.318V162H164.71V159.602H164.574C164.324 160.087 163.972 160.542 163.517 160.966C163.07 161.383 162.506 161.72 161.824 161.977C161.15 162.227 160.358 162.352 159.449 162.352ZM160.517 159.33C161.343 159.33 162.059 159.167 162.665 158.841C163.271 158.508 163.737 158.068 164.062 157.523C164.396 156.977 164.562 156.383 164.562 155.739V153.682C164.434 153.788 164.214 153.886 163.903 153.977C163.6 154.068 163.259 154.148 162.881 154.216C162.502 154.284 162.127 154.345 161.756 154.398C161.384 154.451 161.063 154.496 160.79 154.534C160.176 154.617 159.627 154.754 159.142 154.943C158.657 155.133 158.275 155.398 157.994 155.739C157.714 156.072 157.574 156.504 157.574 157.034C157.574 157.792 157.85 158.364 158.403 158.75C158.956 159.136 159.661 159.33 160.517 159.33ZM172.801 162V144.545H176.79V147.455H176.972C177.29 146.447 177.835 145.67 178.608 145.125C179.388 144.572 180.278 144.295 181.278 144.295C181.506 144.295 181.759 144.307 182.04 144.33C182.328 144.345 182.566 144.371 182.756 144.409V148.193C182.581 148.133 182.305 148.08 181.926 148.034C181.555 147.981 181.195 147.955 180.847 147.955C180.097 147.955 179.422 148.117 178.824 148.443C178.233 148.761 177.767 149.205 177.426 149.773C177.085 150.341 176.915 150.996 176.915 151.739V162H172.801ZM192.384 162.341C190.641 162.341 189.145 161.958 187.895 161.193C186.652 160.428 185.694 159.371 185.02 158.023C184.353 156.667 184.02 155.106 184.02 153.341C184.02 151.568 184.361 150.004 185.043 148.648C185.724 147.284 186.687 146.223 187.929 145.466C189.179 144.701 190.656 144.318 192.361 144.318C193.777 144.318 195.031 144.58 196.122 145.102C197.221 145.617 198.096 146.348 198.747 147.295C199.399 148.235 199.77 149.333 199.861 150.591H195.929C195.77 149.75 195.391 149.049 194.793 148.489C194.202 147.92 193.41 147.636 192.418 147.636C191.577 147.636 190.838 147.864 190.202 148.318C189.565 148.765 189.069 149.409 188.713 150.25C188.365 151.091 188.19 152.098 188.19 153.273C188.19 154.462 188.365 155.485 188.713 156.341C189.062 157.189 189.55 157.845 190.179 158.307C190.815 158.761 191.562 158.989 192.418 158.989C193.024 158.989 193.565 158.875 194.043 158.648C194.527 158.413 194.933 158.076 195.259 157.636C195.584 157.197 195.808 156.663 195.929 156.034H199.861C199.762 157.269 199.399 158.364 198.77 159.318C198.141 160.265 197.285 161.008 196.202 161.545C195.118 162.076 193.846 162.341 192.384 162.341ZM207.352 151.773V162H203.239V138.727H207.261V147.511H207.466C207.875 146.527 208.508 145.75 209.364 145.182C210.227 144.606 211.326 144.318 212.659 144.318C213.871 144.318 214.928 144.572 215.83 145.08C216.731 145.587 217.428 146.33 217.92 147.307C218.42 148.284 218.67 149.477 218.67 150.886V162H214.557V151.523C214.557 150.348 214.254 149.436 213.648 148.784C213.049 148.125 212.208 147.795 211.125 147.795C210.398 147.795 209.746 147.955 209.17 148.273C208.602 148.583 208.155 149.034 207.83 149.625C207.511 150.216 207.352 150.932 207.352 151.773Z" fill="white"/>
<ellipse cx="423" cy="148.5" rx="125" ry="122.5" fill="#525151"/>
<path d="M353.545 138.4V115.128H362.273C364.061 115.128 365.561 115.438 366.773 116.059C367.992 116.681 368.913 117.552 369.534 118.673C370.163 119.787 370.477 121.086 370.477 122.571C370.477 124.063 370.159 125.359 369.523 126.457C368.894 127.548 367.966 128.393 366.739 128.991C365.511 129.582 364.004 129.878 362.216 129.878H356V126.378H361.648C362.693 126.378 363.549 126.234 364.216 125.946C364.883 125.65 365.375 125.222 365.693 124.662C366.019 124.093 366.182 123.396 366.182 122.571C366.182 121.745 366.019 121.04 365.693 120.457C365.367 119.866 364.871 119.419 364.205 119.116C363.538 118.806 362.678 118.65 361.625 118.65H357.761V138.4H353.545ZM365.568 127.855L371.33 138.4H366.625L360.966 127.855H365.568ZM381.653 138.741C379.903 138.741 378.392 138.378 377.119 137.65C375.854 136.915 374.881 135.878 374.199 134.537C373.517 133.188 373.176 131.601 373.176 129.775C373.176 127.98 373.517 126.404 374.199 125.048C374.888 123.684 375.85 122.624 377.085 121.866C378.32 121.101 379.771 120.718 381.438 120.718C382.513 120.718 383.528 120.893 384.483 121.241C385.445 121.582 386.294 122.112 387.028 122.832C387.771 123.552 388.354 124.468 388.778 125.582C389.203 126.688 389.415 128.006 389.415 129.537V130.798H375.108V128.025H385.472C385.464 127.237 385.294 126.537 384.96 125.923C384.627 125.302 384.161 124.813 383.562 124.457C382.972 124.101 382.282 123.923 381.494 123.923C380.653 123.923 379.915 124.128 379.278 124.537C378.642 124.938 378.146 125.468 377.79 126.128C377.441 126.779 377.263 127.495 377.256 128.275V130.696C377.256 131.711 377.441 132.582 377.812 133.309C378.184 134.029 378.703 134.582 379.369 134.968C380.036 135.347 380.816 135.537 381.71 135.537C382.309 135.537 382.85 135.453 383.335 135.287C383.82 135.112 384.241 134.859 384.597 134.525C384.953 134.192 385.222 133.779 385.403 133.287L389.244 133.718C389.002 134.734 388.54 135.62 387.858 136.378C387.184 137.128 386.32 137.711 385.267 138.128C384.214 138.537 383.009 138.741 381.653 138.741ZM406.69 125.559L402.94 125.968C402.834 125.59 402.649 125.234 402.384 124.9C402.126 124.567 401.777 124.298 401.338 124.093C400.899 123.889 400.361 123.787 399.724 123.787C398.868 123.787 398.149 123.972 397.565 124.343C396.99 124.715 396.705 125.196 396.713 125.787C396.705 126.294 396.891 126.707 397.27 127.025C397.656 127.343 398.293 127.605 399.179 127.809L402.156 128.446C403.808 128.802 405.035 129.366 405.838 130.139C406.649 130.912 407.058 131.923 407.065 133.173C407.058 134.271 406.736 135.241 406.099 136.082C405.471 136.915 404.596 137.567 403.474 138.037C402.353 138.506 401.065 138.741 399.611 138.741C397.474 138.741 395.755 138.294 394.452 137.4C393.149 136.499 392.372 135.245 392.122 133.639L396.134 133.253C396.315 134.04 396.702 134.635 397.293 135.037C397.884 135.438 398.652 135.639 399.599 135.639C400.577 135.639 401.361 135.438 401.952 135.037C402.55 134.635 402.849 134.139 402.849 133.548C402.849 133.048 402.656 132.635 402.27 132.309C401.891 131.984 401.3 131.734 400.497 131.559L397.52 130.934C395.846 130.586 394.607 129.999 393.804 129.173C393.001 128.34 392.603 127.287 392.611 126.014C392.603 124.938 392.895 124.006 393.486 123.218C394.084 122.423 394.914 121.809 395.974 121.378C397.043 120.938 398.274 120.718 399.668 120.718C401.713 120.718 403.323 121.154 404.497 122.025C405.679 122.896 406.41 124.075 406.69 125.559ZM418.185 138.741C416.435 138.741 414.923 138.378 413.651 137.65C412.385 136.915 411.412 135.878 410.73 134.537C410.048 133.188 409.707 131.601 409.707 129.775C409.707 127.98 410.048 126.404 410.73 125.048C411.42 123.684 412.382 122.624 413.616 121.866C414.851 121.101 416.302 120.718 417.969 120.718C419.045 120.718 420.06 120.893 421.014 121.241C421.976 121.582 422.825 122.112 423.56 122.832C424.302 123.552 424.885 124.468 425.31 125.582C425.734 126.688 425.946 128.006 425.946 129.537V130.798H411.639V128.025H422.003C421.995 127.237 421.825 126.537 421.491 125.923C421.158 125.302 420.692 124.813 420.094 124.457C419.503 124.101 418.813 123.923 418.026 123.923C417.185 123.923 416.446 124.128 415.81 124.537C415.173 124.938 414.677 125.468 414.321 126.128C413.973 126.779 413.795 127.495 413.787 128.275V130.696C413.787 131.711 413.973 132.582 414.344 133.309C414.715 134.029 415.234 134.582 415.901 134.968C416.567 135.347 417.348 135.537 418.241 135.537C418.84 135.537 419.382 135.453 419.866 135.287C420.351 135.112 420.772 134.859 421.128 134.525C421.484 134.192 421.753 133.779 421.935 133.287L425.776 133.718C425.533 134.734 425.071 135.62 424.389 136.378C423.715 137.128 422.851 137.711 421.798 138.128C420.745 138.537 419.541 138.741 418.185 138.741ZM434.449 138.753C433.343 138.753 432.347 138.556 431.46 138.162C430.581 137.76 429.884 137.169 429.369 136.389C428.862 135.609 428.608 134.646 428.608 133.503C428.608 132.518 428.79 131.703 429.153 131.059C429.517 130.415 430.013 129.9 430.642 129.514C431.271 129.128 431.979 128.836 432.767 128.639C433.563 128.434 434.384 128.287 435.233 128.196C436.256 128.09 437.085 127.995 437.722 127.912C438.358 127.821 438.82 127.684 439.108 127.503C439.403 127.313 439.551 127.021 439.551 126.628V126.559C439.551 125.703 439.297 125.04 438.79 124.571C438.282 124.101 437.551 123.866 436.597 123.866C435.589 123.866 434.79 124.086 434.199 124.525C433.616 124.965 433.222 125.484 433.017 126.082L429.176 125.537C429.479 124.476 429.979 123.59 430.676 122.878C431.373 122.158 432.225 121.62 433.233 121.264C434.241 120.9 435.354 120.718 436.574 120.718C437.415 120.718 438.252 120.817 439.085 121.014C439.919 121.211 440.68 121.537 441.369 121.991C442.059 122.438 442.612 123.048 443.028 123.821C443.453 124.593 443.665 125.559 443.665 126.718V138.4H439.71V136.003H439.574C439.324 136.487 438.972 136.942 438.517 137.366C438.07 137.783 437.506 138.12 436.824 138.378C436.15 138.628 435.358 138.753 434.449 138.753ZM435.517 135.73C436.343 135.73 437.059 135.567 437.665 135.241C438.271 134.908 438.737 134.468 439.062 133.923C439.396 133.378 439.562 132.783 439.562 132.139V130.082C439.434 130.188 439.214 130.287 438.903 130.378C438.6 130.468 438.259 130.548 437.881 130.616C437.502 130.684 437.127 130.745 436.756 130.798C436.384 130.851 436.063 130.896 435.79 130.934C435.176 131.018 434.627 131.154 434.142 131.343C433.657 131.533 433.275 131.798 432.994 132.139C432.714 132.472 432.574 132.904 432.574 133.434C432.574 134.192 432.85 134.764 433.403 135.15C433.956 135.537 434.661 135.73 435.517 135.73ZM447.801 138.4V120.946H451.79V123.855H451.972C452.29 122.847 452.835 122.071 453.608 121.525C454.388 120.972 455.278 120.696 456.278 120.696C456.506 120.696 456.759 120.707 457.04 120.73C457.328 120.745 457.566 120.771 457.756 120.809V124.593C457.581 124.533 457.305 124.48 456.926 124.434C456.555 124.381 456.195 124.355 455.847 124.355C455.097 124.355 454.422 124.518 453.824 124.843C453.233 125.162 452.767 125.605 452.426 126.173C452.085 126.741 451.915 127.396 451.915 128.139V138.4H447.801ZM467.384 138.741C465.641 138.741 464.145 138.359 462.895 137.593C461.652 136.828 460.694 135.771 460.02 134.423C459.353 133.067 459.02 131.506 459.02 129.741C459.02 127.968 459.361 126.404 460.043 125.048C460.724 123.684 461.687 122.624 462.929 121.866C464.179 121.101 465.656 120.718 467.361 120.718C468.777 120.718 470.031 120.98 471.122 121.503C472.221 122.018 473.096 122.749 473.747 123.696C474.399 124.635 474.77 125.734 474.861 126.991H470.929C470.77 126.15 470.391 125.45 469.793 124.889C469.202 124.321 468.41 124.037 467.418 124.037C466.577 124.037 465.838 124.264 465.202 124.718C464.565 125.165 464.069 125.809 463.713 126.65C463.365 127.491 463.19 128.499 463.19 129.673C463.19 130.862 463.365 131.885 463.713 132.741C464.062 133.59 464.55 134.245 465.179 134.707C465.815 135.162 466.562 135.389 467.418 135.389C468.024 135.389 468.565 135.275 469.043 135.048C469.527 134.813 469.933 134.476 470.259 134.037C470.584 133.597 470.808 133.063 470.929 132.434H474.861C474.762 133.669 474.399 134.764 473.77 135.718C473.141 136.665 472.285 137.408 471.202 137.946C470.118 138.476 468.846 138.741 467.384 138.741ZM482.352 128.173V138.4H478.239V115.128H482.261V123.912H482.466C482.875 122.927 483.508 122.15 484.364 121.582C485.227 121.006 486.326 120.718 487.659 120.718C488.871 120.718 489.928 120.972 490.83 121.48C491.731 121.987 492.428 122.73 492.92 123.707C493.42 124.684 493.67 125.878 493.67 127.287V138.4H489.557V127.923C489.557 126.749 489.254 125.836 488.648 125.184C488.049 124.525 487.208 124.196 486.125 124.196C485.398 124.196 484.746 124.355 484.17 124.673C483.602 124.984 483.155 125.434 482.83 126.025C482.511 126.616 482.352 127.332 482.352 128.173ZM361.787 166.525C361.681 165.533 361.234 164.76 360.446 164.207C359.666 163.654 358.651 163.378 357.401 163.378C356.522 163.378 355.768 163.51 355.139 163.775C354.51 164.04 354.029 164.4 353.696 164.855C353.363 165.309 353.192 165.828 353.185 166.412C353.185 166.896 353.295 167.317 353.514 167.673C353.741 168.029 354.048 168.332 354.435 168.582C354.821 168.825 355.249 169.029 355.719 169.196C356.188 169.362 356.662 169.503 357.139 169.616L359.321 170.162C360.2 170.366 361.045 170.643 361.855 170.991C362.673 171.34 363.404 171.779 364.048 172.309C364.7 172.84 365.215 173.48 365.594 174.23C365.973 174.98 366.162 175.859 366.162 176.866C366.162 178.23 365.813 179.431 365.116 180.468C364.42 181.499 363.412 182.306 362.094 182.889C360.783 183.465 359.196 183.753 357.332 183.753C355.522 183.753 353.95 183.472 352.616 182.912C351.291 182.351 350.253 181.533 349.503 180.457C348.76 179.381 348.359 178.071 348.298 176.525H352.446C352.507 177.336 352.757 178.01 353.196 178.548C353.635 179.086 354.207 179.487 354.912 179.753C355.624 180.018 356.42 180.15 357.298 180.15C358.215 180.15 359.018 180.014 359.707 179.741C360.404 179.461 360.95 179.075 361.344 178.582C361.738 178.082 361.938 177.499 361.946 176.832C361.938 176.226 361.76 175.726 361.412 175.332C361.063 174.931 360.575 174.597 359.946 174.332C359.325 174.059 358.598 173.817 357.764 173.605L355.116 172.923C353.2 172.431 351.685 171.684 350.571 170.684C349.465 169.677 348.912 168.34 348.912 166.673C348.912 165.302 349.283 164.101 350.026 163.071C350.776 162.04 351.795 161.241 353.082 160.673C354.37 160.097 355.829 159.809 357.457 159.809C359.109 159.809 360.556 160.097 361.798 160.673C363.048 161.241 364.029 162.033 364.741 163.048C365.454 164.056 365.821 165.215 365.844 166.525H361.787ZM372.295 189.946C371.735 189.946 371.216 189.9 370.739 189.809C370.269 189.726 369.894 189.628 369.614 189.514L370.568 186.309C371.167 186.484 371.701 186.567 372.17 186.559C372.64 186.552 373.053 186.404 373.409 186.116C373.773 185.836 374.08 185.366 374.33 184.707L374.682 183.764L368.352 165.946H372.716L376.739 179.128H376.92L380.955 165.946H385.33L378.341 185.514C378.015 186.438 377.583 187.23 377.045 187.889C376.508 188.556 375.848 189.063 375.068 189.412C374.295 189.768 373.371 189.946 372.295 189.946ZM392.29 173.173V183.4H388.176V165.946H392.108V168.912H392.312C392.714 167.934 393.354 167.158 394.233 166.582C395.119 166.006 396.214 165.718 397.517 165.718C398.722 165.718 399.771 165.976 400.665 166.491C401.566 167.006 402.263 167.753 402.756 168.73C403.256 169.707 403.502 170.893 403.494 172.287V183.4H399.381V172.923C399.381 171.756 399.078 170.843 398.472 170.184C397.873 169.525 397.044 169.196 395.983 169.196C395.263 169.196 394.623 169.355 394.062 169.673C393.509 169.984 393.074 170.434 392.756 171.025C392.445 171.616 392.29 172.332 392.29 173.173ZM416.392 165.946V169.128H406.358V165.946H416.392ZM408.835 161.764H412.949V178.15C412.949 178.703 413.032 179.128 413.199 179.423C413.373 179.711 413.6 179.908 413.881 180.014C414.161 180.12 414.472 180.173 414.812 180.173C415.07 180.173 415.305 180.154 415.517 180.116C415.737 180.078 415.903 180.044 416.017 180.014L416.71 183.23C416.491 183.306 416.176 183.389 415.767 183.48C415.366 183.571 414.873 183.624 414.29 183.639C413.259 183.669 412.331 183.514 411.506 183.173C410.68 182.825 410.025 182.287 409.54 181.559C409.063 180.832 408.828 179.923 408.835 178.832V161.764ZM424.321 173.173V183.4H420.207V160.128H424.23V168.912H424.435C424.844 167.927 425.476 167.15 426.332 166.582C427.196 166.006 428.295 165.718 429.628 165.718C430.84 165.718 431.897 165.972 432.798 166.48C433.7 166.987 434.397 167.73 434.889 168.707C435.389 169.684 435.639 170.878 435.639 172.287V183.4H431.526V172.923C431.526 171.749 431.223 170.836 430.616 170.184C430.018 169.525 429.177 169.196 428.094 169.196C427.366 169.196 426.715 169.355 426.139 169.673C425.571 169.984 425.124 170.434 424.798 171.025C424.48 171.616 424.321 172.332 424.321 173.173ZM447.56 183.741C445.81 183.741 444.298 183.378 443.026 182.65C441.76 181.915 440.787 180.878 440.105 179.537C439.423 178.188 439.082 176.601 439.082 174.775C439.082 172.98 439.423 171.404 440.105 170.048C440.795 168.684 441.757 167.624 442.991 166.866C444.226 166.101 445.677 165.718 447.344 165.718C448.42 165.718 449.435 165.893 450.389 166.241C451.351 166.582 452.2 167.112 452.935 167.832C453.677 168.552 454.26 169.468 454.685 170.582C455.109 171.688 455.321 173.006 455.321 174.537V175.798H441.014V173.025H451.378C451.37 172.237 451.2 171.537 450.866 170.923C450.533 170.302 450.067 169.813 449.469 169.457C448.878 169.101 448.188 168.923 447.401 168.923C446.56 168.923 445.821 169.128 445.185 169.537C444.548 169.938 444.052 170.468 443.696 171.128C443.348 171.779 443.17 172.495 443.162 173.275V175.696C443.162 176.711 443.348 177.582 443.719 178.309C444.09 179.029 444.609 179.582 445.276 179.968C445.942 180.347 446.723 180.537 447.616 180.537C448.215 180.537 448.757 180.453 449.241 180.287C449.726 180.112 450.147 179.859 450.503 179.525C450.859 179.192 451.128 178.779 451.31 178.287L455.151 178.718C454.908 179.734 454.446 180.62 453.764 181.378C453.09 182.128 452.226 182.711 451.173 183.128C450.12 183.537 448.916 183.741 447.56 183.741ZM472.597 170.559L468.847 170.968C468.741 170.59 468.555 170.234 468.29 169.9C468.032 169.567 467.684 169.298 467.244 169.093C466.805 168.889 466.267 168.787 465.631 168.787C464.775 168.787 464.055 168.972 463.472 169.343C462.896 169.715 462.612 170.196 462.619 170.787C462.612 171.294 462.797 171.707 463.176 172.025C463.563 172.343 464.199 172.605 465.085 172.809L468.062 173.446C469.714 173.802 470.941 174.366 471.744 175.139C472.555 175.912 472.964 176.923 472.972 178.173C472.964 179.271 472.642 180.241 472.006 181.082C471.377 181.915 470.502 182.567 469.381 183.037C468.259 183.506 466.972 183.741 465.517 183.741C463.381 183.741 461.661 183.294 460.358 182.4C459.055 181.499 458.278 180.245 458.028 178.639L462.04 178.253C462.222 179.04 462.608 179.635 463.199 180.037C463.79 180.438 464.559 180.639 465.506 180.639C466.483 180.639 467.267 180.438 467.858 180.037C468.456 179.635 468.756 179.139 468.756 178.548C468.756 178.048 468.563 177.635 468.176 177.309C467.797 176.984 467.206 176.734 466.403 176.559L463.426 175.934C461.752 175.586 460.513 174.999 459.71 174.173C458.907 173.34 458.509 172.287 458.517 171.014C458.509 169.938 458.801 169.006 459.392 168.218C459.991 167.423 460.82 166.809 461.881 166.378C462.949 165.938 464.18 165.718 465.574 165.718C467.619 165.718 469.229 166.154 470.403 167.025C471.585 167.896 472.316 169.075 472.597 170.559ZM476.364 183.4V165.946H480.477V183.4H476.364ZM478.432 163.468C477.78 163.468 477.22 163.253 476.75 162.821C476.28 162.381 476.045 161.855 476.045 161.241C476.045 160.62 476.28 160.093 476.75 159.662C477.22 159.222 477.78 159.003 478.432 159.003C479.091 159.003 479.652 159.222 480.114 159.662C480.583 160.093 480.818 160.62 480.818 161.241C480.818 161.855 480.583 162.381 480.114 162.821C479.652 163.253 479.091 163.468 478.432 163.468ZM498.503 170.559L494.753 170.968C494.647 170.59 494.461 170.234 494.196 169.9C493.938 169.567 493.59 169.298 493.151 169.093C492.711 168.889 492.173 168.787 491.537 168.787C490.681 168.787 489.961 168.972 489.378 169.343C488.802 169.715 488.518 170.196 488.526 170.787C488.518 171.294 488.704 171.707 489.082 172.025C489.469 172.343 490.105 172.605 490.991 172.809L493.969 173.446C495.62 173.802 496.848 174.366 497.651 175.139C498.461 175.912 498.87 176.923 498.878 178.173C498.87 179.271 498.548 180.241 497.912 181.082C497.283 181.915 496.408 182.567 495.287 183.037C494.166 183.506 492.878 183.741 491.423 183.741C489.287 183.741 487.567 183.294 486.264 182.4C484.961 181.499 484.185 180.245 483.935 178.639L487.946 178.253C488.128 179.04 488.514 179.635 489.105 180.037C489.696 180.438 490.465 180.639 491.412 180.639C492.389 180.639 493.173 180.438 493.764 180.037C494.363 179.635 494.662 179.139 494.662 178.548C494.662 178.048 494.469 177.635 494.082 177.309C493.704 176.984 493.113 176.734 492.31 176.559L489.332 175.934C487.658 175.586 486.42 174.999 485.616 174.173C484.813 173.34 484.416 172.287 484.423 171.014C484.416 169.938 484.707 169.006 485.298 168.218C485.897 167.423 486.726 166.809 487.787 166.378C488.855 165.938 490.086 165.718 491.48 165.718C493.526 165.718 495.135 166.154 496.31 167.025C497.491 167.896 498.223 169.075 498.503 170.559Z" fill="white"/>
<circle cx="697" cy="151" r="125" fill="#525151"/>
<path d="M640.824 116.727V140H636.608V116.727H640.824ZM651.685 140.307C650.313 140.307 649.086 139.955 648.003 139.25C646.92 138.545 646.063 137.523 645.435 136.182C644.806 134.841 644.491 133.212 644.491 131.295C644.491 129.356 644.81 127.72 645.446 126.386C646.09 125.045 646.957 124.034 648.048 123.352C649.139 122.663 650.355 122.318 651.696 122.318C652.719 122.318 653.56 122.492 654.219 122.841C654.878 123.182 655.401 123.595 655.787 124.08C656.173 124.557 656.473 125.008 656.685 125.432H656.855V116.727H660.98V140H656.935V137.25H656.685C656.473 137.674 656.166 138.125 655.764 138.602C655.363 139.072 654.832 139.473 654.173 139.807C653.514 140.14 652.685 140.307 651.685 140.307ZM652.832 136.932C653.704 136.932 654.446 136.697 655.06 136.227C655.673 135.75 656.139 135.087 656.457 134.239C656.776 133.39 656.935 132.402 656.935 131.273C656.935 130.144 656.776 129.163 656.457 128.33C656.147 127.496 655.685 126.848 655.071 126.386C654.465 125.924 653.719 125.693 652.832 125.693C651.916 125.693 651.151 125.932 650.537 126.409C649.923 126.886 649.461 127.545 649.151 128.386C648.84 129.227 648.685 130.189 648.685 131.273C648.685 132.364 648.84 133.337 649.151 134.193C649.469 135.042 649.935 135.712 650.548 136.205C651.17 136.689 651.931 136.932 652.832 136.932ZM673.091 140.341C671.341 140.341 669.83 139.977 668.557 139.25C667.292 138.515 666.318 137.477 665.636 136.136C664.955 134.788 664.614 133.201 664.614 131.375C664.614 129.58 664.955 128.004 665.636 126.648C666.326 125.284 667.288 124.223 668.523 123.466C669.758 122.701 671.208 122.318 672.875 122.318C673.951 122.318 674.966 122.492 675.92 122.841C676.883 123.182 677.731 123.712 678.466 124.432C679.208 125.152 679.792 126.068 680.216 127.182C680.64 128.288 680.852 129.606 680.852 131.136V132.398H666.545V129.625H676.909C676.902 128.837 676.731 128.136 676.398 127.523C676.064 126.902 675.598 126.413 675 126.057C674.409 125.701 673.72 125.523 672.932 125.523C672.091 125.523 671.352 125.727 670.716 126.136C670.08 126.538 669.583 127.068 669.227 127.727C668.879 128.379 668.701 129.095 668.693 129.875V132.295C668.693 133.311 668.879 134.182 669.25 134.909C669.621 135.629 670.14 136.182 670.807 136.568C671.473 136.947 672.254 137.136 673.148 137.136C673.746 137.136 674.288 137.053 674.773 136.886C675.258 136.712 675.678 136.458 676.034 136.125C676.39 135.792 676.659 135.379 676.841 134.886L680.682 135.318C680.439 136.333 679.977 137.22 679.295 137.977C678.621 138.727 677.758 139.311 676.705 139.727C675.652 140.136 674.447 140.341 673.091 140.341ZM689.355 140.352C688.249 140.352 687.253 140.155 686.366 139.761C685.488 139.36 684.791 138.769 684.276 137.989C683.768 137.208 683.514 136.246 683.514 135.102C683.514 134.117 683.696 133.303 684.06 132.659C684.423 132.015 684.92 131.5 685.548 131.114C686.177 130.727 686.885 130.436 687.673 130.239C688.469 130.034 689.291 129.886 690.139 129.795C691.162 129.689 691.991 129.595 692.628 129.511C693.264 129.42 693.726 129.284 694.014 129.102C694.31 128.913 694.457 128.621 694.457 128.227V128.159C694.457 127.303 694.204 126.64 693.696 126.17C693.188 125.701 692.457 125.466 691.503 125.466C690.495 125.466 689.696 125.686 689.105 126.125C688.522 126.564 688.128 127.083 687.923 127.682L684.082 127.136C684.385 126.076 684.885 125.189 685.582 124.477C686.279 123.758 687.132 123.22 688.139 122.864C689.147 122.5 690.26 122.318 691.48 122.318C692.321 122.318 693.158 122.417 693.991 122.614C694.825 122.811 695.586 123.136 696.276 123.591C696.965 124.038 697.518 124.648 697.935 125.42C698.359 126.193 698.571 127.159 698.571 128.318V140H694.616V137.602H694.48C694.23 138.087 693.878 138.542 693.423 138.966C692.976 139.383 692.412 139.72 691.73 139.977C691.056 140.227 690.264 140.352 689.355 140.352ZM690.423 137.33C691.249 137.33 691.965 137.167 692.571 136.841C693.177 136.508 693.643 136.068 693.969 135.523C694.302 134.977 694.469 134.383 694.469 133.739V131.682C694.34 131.788 694.12 131.886 693.81 131.977C693.507 132.068 693.166 132.148 692.787 132.216C692.408 132.284 692.033 132.345 691.662 132.398C691.291 132.451 690.969 132.496 690.696 132.534C690.082 132.617 689.533 132.754 689.048 132.943C688.563 133.133 688.181 133.398 687.901 133.739C687.62 134.072 687.48 134.504 687.48 135.034C687.48 135.792 687.757 136.364 688.31 136.75C688.863 137.136 689.567 137.33 690.423 137.33ZM711.423 122.545V125.727H701.389V122.545H711.423ZM703.866 118.364H707.98V134.75C707.98 135.303 708.063 135.727 708.23 136.023C708.404 136.311 708.632 136.508 708.912 136.614C709.192 136.72 709.503 136.773 709.844 136.773C710.101 136.773 710.336 136.754 710.548 136.716C710.768 136.678 710.935 136.644 711.048 136.614L711.741 139.83C711.522 139.905 711.207 139.989 710.798 140.08C710.397 140.17 709.904 140.223 709.321 140.239C708.291 140.269 707.363 140.114 706.537 139.773C705.711 139.424 705.056 138.886 704.571 138.159C704.094 137.432 703.859 136.523 703.866 135.432V118.364ZM722.403 140.341C720.653 140.341 719.142 139.977 717.869 139.25C716.604 138.515 715.631 137.477 714.949 136.136C714.267 134.788 713.926 133.201 713.926 131.375C713.926 129.58 714.267 128.004 714.949 126.648C715.638 125.284 716.6 124.223 717.835 123.466C719.07 122.701 720.521 122.318 722.188 122.318C723.263 122.318 724.278 122.492 725.233 122.841C726.195 123.182 727.044 123.712 727.778 124.432C728.521 125.152 729.104 126.068 729.528 127.182C729.953 128.288 730.165 129.606 730.165 131.136V132.398H715.858V129.625H726.222C726.214 128.837 726.044 128.136 725.71 127.523C725.377 126.902 724.911 126.413 724.312 126.057C723.722 125.701 723.032 125.523 722.244 125.523C721.403 125.523 720.665 125.727 720.028 126.136C719.392 126.538 718.896 127.068 718.54 127.727C718.191 128.379 718.013 129.095 718.006 129.875V132.295C718.006 133.311 718.191 134.182 718.562 134.909C718.934 135.629 719.453 136.182 720.119 136.568C720.786 136.947 721.566 137.136 722.46 137.136C723.059 137.136 723.6 137.053 724.085 136.886C724.57 136.712 724.991 136.458 725.347 136.125C725.703 135.792 725.972 135.379 726.153 134.886L729.994 135.318C729.752 136.333 729.29 137.22 728.608 137.977C727.934 138.727 727.07 139.311 726.017 139.727C724.964 140.136 723.759 140.341 722.403 140.341ZM748.537 140.341C746.946 140.341 745.579 140.053 744.435 139.477C743.291 138.902 742.408 138.125 741.787 137.148C741.173 136.163 740.866 135.053 740.866 133.818C740.866 132.886 741.056 132.061 741.435 131.341C741.821 130.621 742.351 129.955 743.026 129.341C743.707 128.727 744.495 128.117 745.389 127.511L749.514 124.705C750.12 124.311 750.579 123.894 750.889 123.455C751.207 123.015 751.366 122.5 751.366 121.909C751.366 121.409 751.154 120.936 750.73 120.489C750.313 120.042 749.738 119.818 749.003 119.818C748.51 119.818 748.075 119.936 747.696 120.17C747.325 120.398 747.033 120.697 746.821 121.068C746.616 121.439 746.514 121.833 746.514 122.25C746.514 122.758 746.654 123.273 746.935 123.795C747.223 124.318 747.594 124.86 748.048 125.42C748.51 125.981 749.003 126.576 749.526 127.205L760.446 140H755.991L746.923 129.614C746.249 128.826 745.598 128.049 744.969 127.284C744.348 126.519 743.836 125.723 743.435 124.898C743.041 124.064 742.844 123.163 742.844 122.193C742.844 121.095 743.098 120.114 743.605 119.25C744.113 118.379 744.821 117.693 745.73 117.193C746.647 116.693 747.719 116.443 748.946 116.443C750.173 116.443 751.226 116.686 752.105 117.17C752.984 117.655 753.662 118.299 754.139 119.102C754.616 119.905 754.855 120.78 754.855 121.727C754.855 122.826 754.582 123.811 754.037 124.682C753.491 125.545 752.734 126.33 751.764 127.034L747.06 130.477C746.287 131.038 745.734 131.606 745.401 132.182C745.067 132.75 744.901 133.235 744.901 133.636C744.901 134.25 745.056 134.807 745.366 135.307C745.677 135.807 746.113 136.208 746.673 136.511C747.241 136.807 747.904 136.955 748.662 136.955C749.495 136.955 750.317 136.769 751.128 136.398C751.938 136.019 752.677 135.481 753.344 134.784C754.01 134.087 754.541 133.254 754.935 132.284C755.329 131.307 755.526 130.223 755.526 129.034H759.06C759.06 130.504 758.897 131.784 758.571 132.875C758.245 133.958 757.825 134.875 757.31 135.625C756.795 136.367 756.249 136.962 755.673 137.409C755.491 137.538 755.317 137.667 755.151 137.795C754.984 137.924 754.81 138.053 754.628 138.182C753.81 138.924 752.851 139.47 751.753 139.818C750.662 140.167 749.59 140.341 748.537 140.341ZM653.901 185H646.014V161.727H654.06C656.37 161.727 658.355 162.193 660.014 163.125C661.681 164.049 662.961 165.379 663.855 167.114C664.749 168.848 665.196 170.924 665.196 173.341C665.196 175.765 664.745 177.848 663.844 179.591C662.95 181.333 661.658 182.67 659.969 183.602C658.287 184.534 656.264 185 653.901 185ZM650.23 181.352H653.696C655.317 181.352 656.67 181.057 657.753 180.466C658.836 179.867 659.651 178.977 660.196 177.795C660.741 176.606 661.014 175.121 661.014 173.341C661.014 171.561 660.741 170.083 660.196 168.909C659.651 167.727 658.844 166.845 657.776 166.261C656.715 165.67 655.397 165.375 653.821 165.375H650.23V181.352ZM676.747 185.341C674.997 185.341 673.486 184.977 672.213 184.25C670.948 183.515 669.974 182.477 669.293 181.136C668.611 179.788 668.27 178.201 668.27 176.375C668.27 174.58 668.611 173.004 669.293 171.648C669.982 170.284 670.944 169.223 672.179 168.466C673.414 167.701 674.865 167.318 676.531 167.318C677.607 167.318 678.622 167.492 679.577 167.841C680.539 168.182 681.387 168.712 682.122 169.432C682.865 170.152 683.448 171.068 683.872 172.182C684.296 173.288 684.509 174.606 684.509 176.136V177.398H670.202V174.625H680.565C680.558 173.837 680.387 173.136 680.054 172.523C679.721 171.902 679.255 171.413 678.656 171.057C678.065 170.701 677.376 170.523 676.588 170.523C675.747 170.523 675.009 170.727 674.372 171.136C673.736 171.538 673.24 172.068 672.884 172.727C672.535 173.379 672.357 174.095 672.349 174.875V177.295C672.349 178.311 672.535 179.182 672.906 179.909C673.277 180.629 673.796 181.182 674.463 181.568C675.13 181.947 675.91 182.136 676.804 182.136C677.402 182.136 677.944 182.053 678.429 181.886C678.914 181.712 679.334 181.458 679.69 181.125C680.046 180.792 680.315 180.379 680.497 179.886L684.338 180.318C684.096 181.333 683.634 182.22 682.952 182.977C682.277 183.727 681.414 184.311 680.361 184.727C679.308 185.136 678.103 185.341 676.747 185.341ZM701.784 172.159L698.034 172.568C697.928 172.189 697.742 171.833 697.477 171.5C697.22 171.167 696.871 170.898 696.432 170.693C695.992 170.489 695.455 170.386 694.818 170.386C693.962 170.386 693.242 170.572 692.659 170.943C692.083 171.314 691.799 171.795 691.807 172.386C691.799 172.894 691.985 173.307 692.364 173.625C692.75 173.943 693.386 174.205 694.273 174.409L697.25 175.045C698.902 175.402 700.129 175.966 700.932 176.739C701.742 177.511 702.152 178.523 702.159 179.773C702.152 180.871 701.83 181.841 701.193 182.682C700.564 183.515 699.689 184.167 698.568 184.636C697.447 185.106 696.159 185.341 694.705 185.341C692.568 185.341 690.848 184.894 689.545 184C688.242 183.098 687.466 181.845 687.216 180.239L691.227 179.852C691.409 180.64 691.795 181.235 692.386 181.636C692.977 182.038 693.746 182.239 694.693 182.239C695.67 182.239 696.455 182.038 697.045 181.636C697.644 181.235 697.943 180.739 697.943 180.148C697.943 179.648 697.75 179.235 697.364 178.909C696.985 178.583 696.394 178.333 695.591 178.159L692.614 177.534C690.939 177.186 689.701 176.598 688.898 175.773C688.095 174.939 687.697 173.886 687.705 172.614C687.697 171.538 687.989 170.606 688.58 169.818C689.178 169.023 690.008 168.409 691.068 167.977C692.136 167.538 693.367 167.318 694.761 167.318C696.807 167.318 698.417 167.754 699.591 168.625C700.773 169.496 701.504 170.674 701.784 172.159ZM705.551 185V167.545H709.665V185H705.551ZM707.619 165.068C706.968 165.068 706.407 164.852 705.938 164.42C705.468 163.981 705.233 163.455 705.233 162.841C705.233 162.22 705.468 161.693 705.938 161.261C706.407 160.822 706.968 160.602 707.619 160.602C708.278 160.602 708.839 160.822 709.301 161.261C709.771 161.693 710.006 162.22 710.006 162.841C710.006 163.455 709.771 163.981 709.301 164.42C708.839 164.852 708.278 165.068 707.619 165.068ZM721.486 191.909C720.009 191.909 718.74 191.708 717.679 191.307C716.618 190.913 715.766 190.383 715.122 189.716C714.478 189.049 714.031 188.311 713.781 187.5L717.486 186.602C717.652 186.943 717.895 187.28 718.213 187.614C718.531 187.955 718.959 188.235 719.497 188.455C720.043 188.682 720.728 188.795 721.554 188.795C722.721 188.795 723.687 188.511 724.452 187.943C725.217 187.383 725.599 186.458 725.599 185.17V181.864H725.395C725.183 182.288 724.872 182.723 724.463 183.17C724.062 183.617 723.527 183.992 722.861 184.295C722.202 184.598 721.372 184.75 720.372 184.75C719.031 184.75 717.815 184.436 716.724 183.807C715.641 183.17 714.777 182.223 714.134 180.966C713.497 179.701 713.179 178.117 713.179 176.216C713.179 174.299 713.497 172.682 714.134 171.364C714.777 170.038 715.645 169.034 716.736 168.352C717.827 167.663 719.043 167.318 720.384 167.318C721.406 167.318 722.247 167.492 722.906 167.841C723.573 168.182 724.103 168.595 724.497 169.08C724.891 169.557 725.19 170.008 725.395 170.432H725.622V167.545H729.679V185.284C729.679 186.777 729.323 188.011 728.611 188.989C727.899 189.966 726.925 190.697 725.69 191.182C724.455 191.667 723.054 191.909 721.486 191.909ZM721.52 181.523C722.391 181.523 723.134 181.311 723.747 180.886C724.361 180.462 724.827 179.852 725.145 179.057C725.463 178.261 725.622 177.307 725.622 176.193C725.622 175.095 725.463 174.133 725.145 173.307C724.834 172.481 724.372 171.841 723.759 171.386C723.152 170.924 722.406 170.693 721.52 170.693C720.603 170.693 719.838 170.932 719.224 171.409C718.611 171.886 718.149 172.542 717.838 173.375C717.527 174.201 717.372 175.14 717.372 176.193C717.372 177.261 717.527 178.197 717.838 179C718.156 179.795 718.622 180.417 719.236 180.864C719.857 181.303 720.618 181.523 721.52 181.523ZM738.009 174.773V185H733.895V167.545H737.827V170.511H738.031C738.433 169.534 739.073 168.758 739.952 168.182C740.838 167.606 741.933 167.318 743.236 167.318C744.44 167.318 745.49 167.576 746.384 168.091C747.285 168.606 747.982 169.352 748.474 170.33C748.974 171.307 749.221 172.492 749.213 173.886V185H745.099V174.523C745.099 173.356 744.796 172.443 744.19 171.784C743.592 171.125 742.762 170.795 741.702 170.795C740.982 170.795 740.342 170.955 739.781 171.273C739.228 171.583 738.793 172.034 738.474 172.625C738.164 173.216 738.009 173.932 738.009 174.773Z" fill="white"/>
<circle cx="971" cy="151" r="125" fill="#525151"/>
<path d="M912.577 140V116.727H927.713V120.261H916.793V126.58H926.929V130.114H916.793V136.466H927.804V140H912.577ZM947.423 122.545L941.207 140H936.662L930.446 122.545H934.832L938.844 135.511H939.026L943.048 122.545H947.423ZM954.793 140.352C953.687 140.352 952.69 140.155 951.804 139.761C950.925 139.36 950.228 138.769 949.713 137.989C949.205 137.208 948.952 136.246 948.952 135.102C948.952 134.117 949.134 133.303 949.497 132.659C949.861 132.015 950.357 131.5 950.986 131.114C951.615 130.727 952.323 130.436 953.111 130.239C953.906 130.034 954.728 129.886 955.577 129.795C956.599 129.689 957.429 129.595 958.065 129.511C958.702 129.42 959.164 129.284 959.452 129.102C959.747 128.913 959.895 128.621 959.895 128.227V128.159C959.895 127.303 959.641 126.64 959.134 126.17C958.626 125.701 957.895 125.466 956.94 125.466C955.933 125.466 955.134 125.686 954.543 126.125C953.959 126.564 953.565 127.083 953.361 127.682L949.52 127.136C949.823 126.076 950.323 125.189 951.02 124.477C951.717 123.758 952.569 123.22 953.577 122.864C954.584 122.5 955.698 122.318 956.918 122.318C957.759 122.318 958.596 122.417 959.429 122.614C960.262 122.811 961.024 123.136 961.713 123.591C962.402 124.038 962.955 124.648 963.372 125.42C963.796 126.193 964.009 127.159 964.009 128.318V140H960.054V137.602H959.918C959.668 138.087 959.315 138.542 958.861 138.966C958.414 139.383 957.849 139.72 957.168 139.977C956.493 140.227 955.702 140.352 954.793 140.352ZM955.861 137.33C956.687 137.33 957.402 137.167 958.009 136.841C958.615 136.508 959.08 136.068 959.406 135.523C959.74 134.977 959.906 134.383 959.906 133.739V131.682C959.777 131.788 959.558 131.886 959.247 131.977C958.944 132.068 958.603 132.148 958.224 132.216C957.846 132.284 957.471 132.345 957.099 132.398C956.728 132.451 956.406 132.496 956.134 132.534C955.52 132.617 954.971 132.754 954.486 132.943C954.001 133.133 953.618 133.398 953.338 133.739C953.058 134.072 952.918 134.504 952.918 135.034C952.918 135.792 953.194 136.364 953.747 136.75C954.3 137.136 955.005 137.33 955.861 137.33ZM972.259 116.727V140H968.145V116.727H972.259ZM987.614 132.659V122.545H991.727V140H987.739V136.898H987.557C987.163 137.875 986.515 138.674 985.614 139.295C984.72 139.917 983.617 140.227 982.307 140.227C981.163 140.227 980.152 139.973 979.273 139.466C978.402 138.951 977.72 138.205 977.227 137.227C976.735 136.242 976.489 135.053 976.489 133.659V122.545H980.602V133.023C980.602 134.129 980.905 135.008 981.511 135.659C982.117 136.311 982.913 136.636 983.898 136.636C984.504 136.636 985.091 136.489 985.659 136.193C986.227 135.898 986.693 135.458 987.057 134.875C987.428 134.284 987.614 133.545 987.614 132.659ZM1004.67 122.545V125.727H994.639V122.545H1004.67ZM997.116 118.364H1001.23V134.75C1001.23 135.303 1001.31 135.727 1001.48 136.023C1001.65 136.311 1001.88 136.508 1002.16 136.614C1002.44 136.72 1002.75 136.773 1003.09 136.773C1003.35 136.773 1003.59 136.754 1003.8 136.716C1004.02 136.678 1004.18 136.644 1004.3 136.614L1004.99 139.83C1004.77 139.905 1004.46 139.989 1004.05 140.08C1003.65 140.17 1003.15 140.223 1002.57 140.239C1001.54 140.269 1000.61 140.114 999.787 139.773C998.961 139.424 998.306 138.886 997.821 138.159C997.344 137.432 997.109 136.523 997.116 135.432V118.364ZM1015.65 140.341C1013.9 140.341 1012.39 139.977 1011.12 139.25C1009.85 138.515 1008.88 137.477 1008.2 136.136C1007.52 134.788 1007.18 133.201 1007.18 131.375C1007.18 129.58 1007.52 128.004 1008.2 126.648C1008.89 125.284 1009.85 124.223 1011.09 123.466C1012.32 122.701 1013.77 122.318 1015.44 122.318C1016.51 122.318 1017.53 122.492 1018.48 122.841C1019.45 123.182 1020.29 123.712 1021.03 124.432C1021.77 125.152 1022.35 126.068 1022.78 127.182C1023.2 128.288 1023.41 129.606 1023.41 131.136V132.398H1009.11V129.625H1019.47C1019.46 128.837 1019.29 128.136 1018.96 127.523C1018.63 126.902 1018.16 126.413 1017.56 126.057C1016.97 125.701 1016.28 125.523 1015.49 125.523C1014.65 125.523 1013.91 125.727 1013.28 126.136C1012.64 126.538 1012.15 127.068 1011.79 127.727C1011.44 128.379 1011.26 129.095 1011.26 129.875V132.295C1011.26 133.311 1011.44 134.182 1011.81 134.909C1012.18 135.629 1012.7 136.182 1013.37 136.568C1014.04 136.947 1014.82 137.136 1015.71 137.136C1016.31 137.136 1016.85 137.053 1017.34 136.886C1017.82 136.712 1018.24 136.458 1018.6 136.125C1018.95 135.792 1019.22 135.379 1019.4 134.886L1023.24 135.318C1023 136.333 1022.54 137.22 1021.86 137.977C1021.18 138.727 1020.32 139.311 1019.27 139.727C1018.21 140.136 1017.01 140.341 1015.65 140.341ZM927.901 185H920.014V161.727H928.06C930.37 161.727 932.355 162.193 934.014 163.125C935.681 164.049 936.961 165.379 937.855 167.114C938.749 168.848 939.196 170.924 939.196 173.341C939.196 175.765 938.745 177.848 937.844 179.591C936.95 181.333 935.658 182.67 933.969 183.602C932.287 184.534 930.264 185 927.901 185ZM924.23 181.352H927.696C929.317 181.352 930.67 181.057 931.753 180.466C932.836 179.867 933.651 178.977 934.196 177.795C934.741 176.606 935.014 175.121 935.014 173.341C935.014 171.561 934.741 170.083 934.196 168.909C933.651 167.727 932.844 166.845 931.776 166.261C930.715 165.67 929.397 165.375 927.821 165.375H924.23V181.352ZM950.747 185.341C948.997 185.341 947.486 184.977 946.213 184.25C944.948 183.515 943.974 182.477 943.293 181.136C942.611 179.788 942.27 178.201 942.27 176.375C942.27 174.58 942.611 173.004 943.293 171.648C943.982 170.284 944.944 169.223 946.179 168.466C947.414 167.701 948.865 167.318 950.531 167.318C951.607 167.318 952.622 167.492 953.577 167.841C954.539 168.182 955.387 168.712 956.122 169.432C956.865 170.152 957.448 171.068 957.872 172.182C958.296 173.288 958.509 174.606 958.509 176.136V177.398H944.202V174.625H954.565C954.558 173.837 954.387 173.136 954.054 172.523C953.721 171.902 953.255 171.413 952.656 171.057C952.065 170.701 951.376 170.523 950.588 170.523C949.747 170.523 949.009 170.727 948.372 171.136C947.736 171.538 947.24 172.068 946.884 172.727C946.535 173.379 946.357 174.095 946.349 174.875V177.295C946.349 178.311 946.535 179.182 946.906 179.909C947.277 180.629 947.796 181.182 948.463 181.568C949.13 181.947 949.91 182.136 950.804 182.136C951.402 182.136 951.944 182.053 952.429 181.886C952.914 181.712 953.334 181.458 953.69 181.125C954.046 180.792 954.315 180.379 954.497 179.886L958.338 180.318C958.096 181.333 957.634 182.22 956.952 182.977C956.277 183.727 955.414 184.311 954.361 184.727C953.308 185.136 952.103 185.341 950.747 185.341ZM975.784 172.159L972.034 172.568C971.928 172.189 971.742 171.833 971.477 171.5C971.22 171.167 970.871 170.898 970.432 170.693C969.992 170.489 969.455 170.386 968.818 170.386C967.962 170.386 967.242 170.572 966.659 170.943C966.083 171.314 965.799 171.795 965.807 172.386C965.799 172.894 965.985 173.307 966.364 173.625C966.75 173.943 967.386 174.205 968.273 174.409L971.25 175.045C972.902 175.402 974.129 175.966 974.932 176.739C975.742 177.511 976.152 178.523 976.159 179.773C976.152 180.871 975.83 181.841 975.193 182.682C974.564 183.515 973.689 184.167 972.568 184.636C971.447 185.106 970.159 185.341 968.705 185.341C966.568 185.341 964.848 184.894 963.545 184C962.242 183.098 961.466 181.845 961.216 180.239L965.227 179.852C965.409 180.64 965.795 181.235 966.386 181.636C966.977 182.038 967.746 182.239 968.693 182.239C969.67 182.239 970.455 182.038 971.045 181.636C971.644 181.235 971.943 180.739 971.943 180.148C971.943 179.648 971.75 179.235 971.364 178.909C970.985 178.583 970.394 178.333 969.591 178.159L966.614 177.534C964.939 177.186 963.701 176.598 962.898 175.773C962.095 174.939 961.697 173.886 961.705 172.614C961.697 171.538 961.989 170.606 962.58 169.818C963.178 169.023 964.008 168.409 965.068 167.977C966.136 167.538 967.367 167.318 968.761 167.318C970.807 167.318 972.417 167.754 973.591 168.625C974.773 169.496 975.504 170.674 975.784 172.159ZM979.551 185V167.545H983.665V185H979.551ZM981.619 165.068C980.968 165.068 980.407 164.852 979.938 164.42C979.468 163.981 979.233 163.455 979.233 162.841C979.233 162.22 979.468 161.693 979.938 161.261C980.407 160.822 980.968 160.602 981.619 160.602C982.278 160.602 982.839 160.822 983.301 161.261C983.771 161.693 984.006 162.22 984.006 162.841C984.006 163.455 983.771 163.981 983.301 164.42C982.839 164.852 982.278 165.068 981.619 165.068ZM995.486 191.909C994.009 191.909 992.74 191.708 991.679 191.307C990.618 190.913 989.766 190.383 989.122 189.716C988.478 189.049 988.031 188.311 987.781 187.5L991.486 186.602C991.652 186.943 991.895 187.28 992.213 187.614C992.531 187.955 992.959 188.235 993.497 188.455C994.043 188.682 994.728 188.795 995.554 188.795C996.721 188.795 997.687 188.511 998.452 187.943C999.217 187.383 999.599 186.458 999.599 185.17V181.864H999.395C999.183 182.288 998.872 182.723 998.463 183.17C998.062 183.617 997.527 183.992 996.861 184.295C996.202 184.598 995.372 184.75 994.372 184.75C993.031 184.75 991.815 184.436 990.724 183.807C989.641 183.17 988.777 182.223 988.134 180.966C987.497 179.701 987.179 178.117 987.179 176.216C987.179 174.299 987.497 172.682 988.134 171.364C988.777 170.038 989.645 169.034 990.736 168.352C991.827 167.663 993.043 167.318 994.384 167.318C995.406 167.318 996.247 167.492 996.906 167.841C997.573 168.182 998.103 168.595 998.497 169.08C998.891 169.557 999.19 170.008 999.395 170.432H999.622V167.545H1003.68V185.284C1003.68 186.777 1003.32 188.011 1002.61 188.989C1001.9 189.966 1000.93 190.697 999.69 191.182C998.455 191.667 997.054 191.909 995.486 191.909ZM995.52 181.523C996.391 181.523 997.134 181.311 997.747 180.886C998.361 180.462 998.827 179.852 999.145 179.057C999.463 178.261 999.622 177.307 999.622 176.193C999.622 175.095 999.463 174.133 999.145 173.307C998.834 172.481 998.372 171.841 997.759 171.386C997.152 170.924 996.406 170.693 995.52 170.693C994.603 170.693 993.838 170.932 993.224 171.409C992.611 171.886 992.149 172.542 991.838 173.375C991.527 174.201 991.372 175.14 991.372 176.193C991.372 177.261 991.527 178.197 991.838 179C992.156 179.795 992.622 180.417 993.236 180.864C993.857 181.303 994.618 181.523 995.52 181.523ZM1012.01 174.773V185H1007.89V167.545H1011.83V170.511H1012.03C1012.43 169.534 1013.07 168.758 1013.95 168.182C1014.84 167.606 1015.93 167.318 1017.24 167.318C1018.44 167.318 1019.49 167.576 1020.38 168.091C1021.29 168.606 1021.98 169.352 1022.47 170.33C1022.97 171.307 1023.22 172.492 1023.21 173.886V185H1019.1V174.523C1019.1 173.356 1018.8 172.443 1018.19 171.784C1017.59 171.125 1016.76 170.795 1015.7 170.795C1014.98 170.795 1014.34 170.955 1013.78 171.273C1013.23 171.583 1012.79 172.034 1012.47 172.625C1012.16 173.216 1012.01 173.932 1012.01 174.773Z" fill="white"/>
<ellipse cx="1246.5" cy="151" rx="126.5" ry="125" fill="#525151"/>
<path d="M1208.17 140V116.727H1223.08V120.261H1212.39V126.58H1222.06V130.114H1212.39V140H1208.17ZM1226.74 140V122.545H1230.85V140H1226.74ZM1228.81 120.068C1228.16 120.068 1227.59 119.852 1227.13 119.42C1226.66 118.981 1226.42 118.455 1226.42 117.841C1226.42 117.22 1226.66 116.693 1227.13 116.261C1227.59 115.822 1228.16 115.602 1228.81 115.602C1229.47 115.602 1230.03 115.822 1230.49 116.261C1230.96 116.693 1231.19 117.22 1231.19 117.841C1231.19 118.455 1230.96 118.981 1230.49 119.42C1230.03 119.852 1229.47 120.068 1228.81 120.068ZM1239.2 129.773V140H1235.08V122.545H1239.01V125.511H1239.22C1239.62 124.534 1240.26 123.758 1241.14 123.182C1242.03 122.606 1243.12 122.318 1244.42 122.318C1245.63 122.318 1246.68 122.576 1247.57 123.091C1248.47 123.606 1249.17 124.352 1249.66 125.33C1250.16 126.307 1250.41 127.492 1250.4 128.886V140H1246.29V129.523C1246.29 128.356 1245.98 127.443 1245.38 126.784C1244.78 126.125 1243.95 125.795 1242.89 125.795C1242.17 125.795 1241.53 125.955 1240.97 126.273C1240.42 126.583 1239.98 127.034 1239.66 127.625C1239.35 128.216 1239.2 128.932 1239.2 129.773ZM1259.61 140.352C1258.5 140.352 1257.5 140.155 1256.62 139.761C1255.74 139.36 1255.04 138.769 1254.53 137.989C1254.02 137.208 1253.76 136.246 1253.76 135.102C1253.76 134.117 1253.95 133.303 1254.31 132.659C1254.67 132.015 1255.17 131.5 1255.8 131.114C1256.43 130.727 1257.14 130.436 1257.92 130.239C1258.72 130.034 1259.54 129.886 1260.39 129.795C1261.41 129.689 1262.24 129.595 1262.88 129.511C1263.51 129.42 1263.98 129.284 1264.26 129.102C1264.56 128.913 1264.71 128.621 1264.71 128.227V128.159C1264.71 127.303 1264.45 126.64 1263.95 126.17C1263.44 125.701 1262.71 125.466 1261.75 125.466C1260.75 125.466 1259.95 125.686 1259.36 126.125C1258.77 126.564 1258.38 127.083 1258.17 127.682L1254.33 127.136C1254.64 126.076 1255.14 125.189 1255.83 124.477C1256.53 123.758 1257.38 123.22 1258.39 122.864C1259.4 122.5 1260.51 122.318 1261.73 122.318C1262.57 122.318 1263.41 122.417 1264.24 122.614C1265.07 122.811 1265.84 123.136 1266.53 123.591C1267.22 124.038 1267.77 124.648 1268.18 125.42C1268.61 126.193 1268.82 127.159 1268.82 128.318V140H1264.87V137.602H1264.73C1264.48 138.087 1264.13 138.542 1263.67 138.966C1263.23 139.383 1262.66 139.72 1261.98 139.977C1261.31 140.227 1260.51 140.352 1259.61 140.352ZM1260.67 137.33C1261.5 137.33 1262.22 137.167 1262.82 136.841C1263.43 136.508 1263.89 136.068 1264.22 135.523C1264.55 134.977 1264.72 134.383 1264.72 133.739V131.682C1264.59 131.788 1264.37 131.886 1264.06 131.977C1263.76 132.068 1263.42 132.148 1263.04 132.216C1262.66 132.284 1262.28 132.345 1261.91 132.398C1261.54 132.451 1261.22 132.496 1260.95 132.534C1260.33 132.617 1259.78 132.754 1259.3 132.943C1258.81 133.133 1258.43 133.398 1258.15 133.739C1257.87 134.072 1257.73 134.504 1257.73 135.034C1257.73 135.792 1258.01 136.364 1258.56 136.75C1259.11 137.136 1259.82 137.33 1260.67 137.33ZM1277.07 116.727V140H1272.96V116.727H1277.07ZM1202.9 185H1195.01V161.727H1203.06C1205.37 161.727 1207.36 162.193 1209.01 163.125C1210.68 164.049 1211.96 165.379 1212.86 167.114C1213.75 168.848 1214.2 170.924 1214.2 173.341C1214.2 175.765 1213.75 177.848 1212.84 179.591C1211.95 181.333 1210.66 182.67 1208.97 183.602C1207.29 184.534 1205.26 185 1202.9 185ZM1199.23 181.352H1202.7C1204.32 181.352 1205.67 181.057 1206.75 180.466C1207.84 179.867 1208.65 178.977 1209.2 177.795C1209.74 176.606 1210.01 175.121 1210.01 173.341C1210.01 171.561 1209.74 170.083 1209.2 168.909C1208.65 167.727 1207.84 166.845 1206.78 166.261C1205.72 165.67 1204.4 165.375 1202.82 165.375H1199.23V181.352ZM1225.75 185.341C1224 185.341 1222.49 184.977 1221.21 184.25C1219.95 183.515 1218.97 182.477 1218.29 181.136C1217.61 179.788 1217.27 178.201 1217.27 176.375C1217.27 174.58 1217.61 173.004 1218.29 171.648C1218.98 170.284 1219.94 169.223 1221.18 168.466C1222.41 167.701 1223.86 167.318 1225.53 167.318C1226.61 167.318 1227.62 167.492 1228.58 167.841C1229.54 168.182 1230.39 168.712 1231.12 169.432C1231.86 170.152 1232.45 171.068 1232.87 172.182C1233.3 173.288 1233.51 174.606 1233.51 176.136V177.398H1219.2V174.625H1229.57C1229.56 173.837 1229.39 173.136 1229.05 172.523C1228.72 171.902 1228.25 171.413 1227.66 171.057C1227.07 170.701 1226.38 170.523 1225.59 170.523C1224.75 170.523 1224.01 170.727 1223.37 171.136C1222.74 171.538 1222.24 172.068 1221.88 172.727C1221.54 173.379 1221.36 174.095 1221.35 174.875V177.295C1221.35 178.311 1221.54 179.182 1221.91 179.909C1222.28 180.629 1222.8 181.182 1223.46 181.568C1224.13 181.947 1224.91 182.136 1225.8 182.136C1226.4 182.136 1226.94 182.053 1227.43 181.886C1227.91 181.712 1228.33 181.458 1228.69 181.125C1229.05 180.792 1229.32 180.379 1229.5 179.886L1233.34 180.318C1233.1 181.333 1232.63 182.22 1231.95 182.977C1231.28 183.727 1230.41 184.311 1229.36 184.727C1228.31 185.136 1227.1 185.341 1225.75 185.341ZM1250.78 172.159L1247.03 172.568C1246.93 172.189 1246.74 171.833 1246.48 171.5C1246.22 171.167 1245.87 170.898 1245.43 170.693C1244.99 170.489 1244.45 170.386 1243.82 170.386C1242.96 170.386 1242.24 170.572 1241.66 170.943C1241.08 171.314 1240.8 171.795 1240.81 172.386C1240.8 172.894 1240.98 173.307 1241.36 173.625C1241.75 173.943 1242.39 174.205 1243.27 174.409L1246.25 175.045C1247.9 175.402 1249.13 175.966 1249.93 176.739C1250.74 177.511 1251.15 178.523 1251.16 179.773C1251.15 180.871 1250.83 181.841 1250.19 182.682C1249.56 183.515 1248.69 184.167 1247.57 184.636C1246.45 185.106 1245.16 185.341 1243.7 185.341C1241.57 185.341 1239.85 184.894 1238.55 184C1237.24 183.098 1236.47 181.845 1236.22 180.239L1240.23 179.852C1240.41 180.64 1240.8 181.235 1241.39 181.636C1241.98 182.038 1242.75 182.239 1243.69 182.239C1244.67 182.239 1245.45 182.038 1246.05 181.636C1246.64 181.235 1246.94 180.739 1246.94 180.148C1246.94 179.648 1246.75 179.235 1246.36 178.909C1245.98 178.583 1245.39 178.333 1244.59 178.159L1241.61 177.534C1239.94 177.186 1238.7 176.598 1237.9 175.773C1237.09 174.939 1236.7 173.886 1236.7 172.614C1236.7 171.538 1236.99 170.606 1237.58 169.818C1238.18 169.023 1239.01 168.409 1240.07 167.977C1241.14 167.538 1242.37 167.318 1243.76 167.318C1245.81 167.318 1247.42 167.754 1248.59 168.625C1249.77 169.496 1250.5 170.674 1250.78 172.159ZM1254.55 185V167.545H1258.66V185H1254.55ZM1256.62 165.068C1255.97 165.068 1255.41 164.852 1254.94 164.42C1254.47 163.981 1254.23 163.455 1254.23 162.841C1254.23 162.22 1254.47 161.693 1254.94 161.261C1255.41 160.822 1255.97 160.602 1256.62 160.602C1257.28 160.602 1257.84 160.822 1258.3 161.261C1258.77 161.693 1259.01 162.22 1259.01 162.841C1259.01 163.455 1258.77 163.981 1258.3 164.42C1257.84 164.852 1257.28 165.068 1256.62 165.068ZM1270.49 191.909C1269.01 191.909 1267.74 191.708 1266.68 191.307C1265.62 190.913 1264.77 190.383 1264.12 189.716C1263.48 189.049 1263.03 188.311 1262.78 187.5L1266.49 186.602C1266.65 186.943 1266.89 187.28 1267.21 187.614C1267.53 187.955 1267.96 188.235 1268.5 188.455C1269.04 188.682 1269.73 188.795 1270.55 188.795C1271.72 188.795 1272.69 188.511 1273.45 187.943C1274.22 187.383 1274.6 186.458 1274.6 185.17V181.864H1274.39C1274.18 182.288 1273.87 182.723 1273.46 183.17C1273.06 183.617 1272.53 183.992 1271.86 184.295C1271.2 184.598 1270.37 184.75 1269.37 184.75C1268.03 184.75 1266.82 184.436 1265.72 183.807C1264.64 183.17 1263.78 182.223 1263.13 180.966C1262.5 179.701 1262.18 178.117 1262.18 176.216C1262.18 174.299 1262.5 172.682 1263.13 171.364C1263.78 170.038 1264.64 169.034 1265.74 168.352C1266.83 167.663 1268.04 167.318 1269.38 167.318C1270.41 167.318 1271.25 167.492 1271.91 167.841C1272.57 168.182 1273.1 168.595 1273.5 169.08C1273.89 169.557 1274.19 170.008 1274.39 170.432H1274.62V167.545H1278.68V185.284C1278.68 186.777 1278.32 188.011 1277.61 188.989C1276.9 189.966 1275.93 190.697 1274.69 191.182C1273.46 191.667 1272.05 191.909 1270.49 191.909ZM1270.52 181.523C1271.39 181.523 1272.13 181.311 1272.75 180.886C1273.36 180.462 1273.83 179.852 1274.14 179.057C1274.46 178.261 1274.62 177.307 1274.62 176.193C1274.62 175.095 1274.46 174.133 1274.14 173.307C1273.83 172.481 1273.37 171.841 1272.76 171.386C1272.15 170.924 1271.41 170.693 1270.52 170.693C1269.6 170.693 1268.84 170.932 1268.22 171.409C1267.61 171.886 1267.15 172.542 1266.84 173.375C1266.53 174.201 1266.37 175.14 1266.37 176.193C1266.37 177.261 1266.53 178.197 1266.84 179C1267.16 179.795 1267.62 180.417 1268.24 180.864C1268.86 181.303 1269.62 181.523 1270.52 181.523ZM1287.01 174.773V185H1282.89V167.545H1286.83V170.511H1287.03C1287.43 169.534 1288.07 168.758 1288.95 168.182C1289.84 167.606 1290.93 167.318 1292.24 167.318C1293.44 167.318 1294.49 167.576 1295.38 168.091C1296.29 168.606 1296.98 169.352 1297.47 170.33C1297.97 171.307 1298.22 172.492 1298.21 173.886V185H1294.1V174.523C1294.1 173.356 1293.8 172.443 1293.19 171.784C1292.59 171.125 1291.76 170.795 1290.7 170.795C1289.98 170.795 1289.34 170.955 1288.78 171.273C1288.23 171.583 1287.79 172.034 1287.47 172.625C1287.16 173.216 1287.01 173.932 1287.01 174.773Z" fill="white"/>
</svg>
