<svg width="50" height="50" viewBox="0 0 50 50" fill="none" xmlns="http://www.w3.org/2000/svg">
<g opacity="0.15">
<path d="M24.9997 6.25C27.3009 6.25 29.1663 8.11548 29.1663 10.4167C29.1663 12.7179 27.3009 14.5833 24.9997 14.5833C22.6984 14.5833 20.833 12.7179 20.833 10.4167C20.833 8.11548 22.6984 6.25 24.9997 6.25Z" fill="#3DFFFF"/>
<path d="M37.4997 20.8333C39.8009 20.8333 41.6663 22.6987 41.6663 24.9999C41.6663 27.3012 39.8009 29.1666 37.4997 29.1666C35.1984 29.1666 33.333 27.3012 33.333 24.9999C33.333 22.6987 35.1984 20.8333 37.4997 20.8333Z" fill="#3DFFFF"/>
<path d="M12.4997 35.4167C14.8009 35.4167 16.6663 37.2822 16.6663 39.5834C16.6663 41.8847 14.8009 43.7501 12.4997 43.7501C10.1985 43.7501 8.33301 41.8847 8.33301 39.5834C8.33301 37.2822 10.1985 35.4167 12.4997 35.4167Z" fill="#3DFFFF"/>
</g>
<path d="M8.33301 10.4167H20.833M20.833 10.4167C20.833 12.7179 22.6984 14.5833 24.9997 14.5833C27.3009 14.5833 29.1663 12.7179 29.1663 10.4167M20.833 10.4167C20.833 8.11548 22.6984 6.25 24.9997 6.25C27.3009 6.25 29.1663 8.11548 29.1663 10.4167M29.1663 10.4167H41.6663M8.33301 25H33.333M33.333 25C33.333 27.3012 35.1984 29.1667 37.4997 29.1667C39.8009 29.1667 41.6663 27.3012 41.6663 25C41.6663 22.6987 39.8009 20.8333 37.4997 20.8333C35.1984 20.8333 33.333 22.6987 33.333 25ZM16.6663 39.5833H41.6663M16.6663 39.5833C16.6663 37.2821 14.8009 35.4167 12.4997 35.4167C10.1985 35.4167 8.33301 37.2821 8.33301 39.5833C8.33301 41.8846 10.1985 43.75 12.4997 43.75C14.8009 43.75 16.6663 41.8846 16.6663 39.5833Z" stroke="#3DFFFF" stroke-width="5" stroke-linecap="round"/>
</svg>
