<svg width="50" height="50" viewBox="0 0 50 50" fill="none" xmlns="http://www.w3.org/2000/svg">
<path fill-rule="evenodd" clip-rule="evenodd" d="M13.1279 32.4523C9.95471 29.7259 7.68821 26.6096 6.62492 25C7.68821 23.3905 9.95471 20.2742 13.1279 17.5478C16.4041 14.7331 20.4493 12.5 24.9999 12.5C29.5505 12.5 33.5959 14.7331 36.872 17.5478C40.0453 20.2742 42.3118 23.3905 43.3751 25C42.3118 26.6096 40.0453 29.7259 36.872 32.4523C33.5959 35.2671 29.5505 37.5 24.9999 37.5C20.4493 37.5 16.4041 35.2671 13.1279 32.4523ZM24.9999 8.33337C19.0573 8.33337 14.0773 11.2388 10.4126 14.3874C6.73463 17.5475 4.18231 21.12 3.04961 22.8538C2.19375 24.1636 2.19375 25.8365 3.04961 27.1463C4.18231 28.88 6.73463 32.4525 10.4126 35.6127C14.0773 38.7613 19.0573 41.6667 24.9999 41.6667C30.9426 41.6667 35.9226 38.7613 39.5874 35.6127C43.2653 32.4525 45.8176 28.88 46.9503 27.1463C47.8061 25.8365 47.8061 24.1636 46.9503 22.8538C45.8176 21.12 43.2653 17.5475 39.5874 14.3874C35.9226 11.2388 30.9426 8.33337 24.9999 8.33337ZM20.8332 25C20.8332 22.6988 22.6988 20.8334 24.9999 20.8334C27.3011 20.8334 29.1665 22.6988 29.1665 25C29.1665 27.3013 27.3011 29.1667 24.9999 29.1667C22.6988 29.1667 20.8332 27.3013 20.8332 25ZM24.9999 16.6667C20.3976 16.6667 16.6666 20.3977 16.6666 25C16.6666 29.6023 20.3976 33.3334 24.9999 33.3334C29.6024 33.3334 33.3332 29.6023 33.3332 25C33.3332 20.3977 29.6024 16.6667 24.9999 16.6667Z" fill="#3DFFFF"/>
</svg>
